<?xml version="1.0" standalone="no"?>
<!DOCTYPE svg PUBLIC "-//W3C//DTD SVG 1.1//EN" "http://www.w3.org/Graphics/SVG/1.1/DTD/svg11.dtd" >
<svg xmlns="http://www.w3.org/2000/svg">
<metadata>
This is a custom SVG webfont generated by Font Squirrel.
Copyright   : 2008 Vic Fieger
</metadata>
<defs>
<font id="webfontPAQjmB0d" horiz-adv-x="1097" >
<font-face units-per-em="2048" ascent="1638" descent="-410" />
<missing-glyph horiz-adv-x="567" />
<glyph unicode=" "  horiz-adv-x="567" />
<glyph unicode="&#x09;" horiz-adv-x="567" />
<glyph unicode="&#xa0;" horiz-adv-x="567" />
<glyph unicode="!" horiz-adv-x="897" d="M299 1104q0 100 100 100h209q88 0 97 -100l-5 -504q-8 -98 -94 -98h-205q-100 0 -100 98zM348 201q0 100 101 100l106 -2q86 0 94 -98v-97q-10 -100 -98 -100l-100 -2q-100 0 -101 100z" />
<glyph unicode="&#x22;" horiz-adv-x="583" d="M96 1221q0 84 51 84l54 2q51 0 51 -86v-187q0 -76 -51 -82h-51q-51 6 -52 84zM326 1221q0 86 51 86h53q51 0 51 -86v-187q0 -76 -53 -82h-49q-51 6 -51 86z" />
<glyph unicode="#" horiz-adv-x="1138" />
<glyph unicode="$" horiz-adv-x="1298" d="M199 1004q0 100 100 100h694q98 -8 101 -100q0 -100 -101 -101l-393 -2l2 -201l397 2q100 0 101 -98v-407q0 -100 -101 -101h-593q-51 0 -78 25.5t-25 75.5q0 100 100 100h295v205h-399q-96 0 -98 96zM547 -66q0 98 100 99q88 0 98 -101l3 -129q-10 -100 -101 -102 q-100 0 -100 100v133zM547 1401q0 98 100 98q92 0 101 -100v-129q-10 -100 -101 -101q-98 0 -98 99z" />
<glyph unicode="%" horiz-adv-x="1820" />
<glyph unicode="&#x26;" horiz-adv-x="1363" />
<glyph unicode="'" horiz-adv-x="350" d="M96 1221q0 84 51 84l54 2q51 0 51 -86v-187q0 -76 -51 -82h-51q-51 6 -52 84z" />
<glyph unicode="(" horiz-adv-x="681" />
<glyph unicode=")" horiz-adv-x="681" />
<glyph unicode="*" horiz-adv-x="796" />
<glyph unicode="+" horiz-adv-x="1193" />
<glyph unicode="," horiz-adv-x="696" d="M199 301q0 100 100 100l104 -2q88 0 97 -100v-414q0 -76 -54 -82h-92q-51 6 -51 56q-2 72 16.5 106.5t-20.5 34.5q-98 0 -98 98z" />
<glyph unicode="-" horiz-adv-x="696" d="M98 637q0 66 99 65l303 3q100 0 100 -68v-70q0 -59 -100 -65h-301q-100 6 -101 65v70z" />
<glyph unicode="." horiz-adv-x="696" d="M199 301q0 100 100 100l104 -2q88 0 97 -100v-201q-8 -98 -99 -98h-102q-98 0 -98 98z" />
<glyph unicode="/" horiz-adv-x="567" />
<glyph unicode="0" d="M98 1108q0 100 101 100l700 -2q100 0 100 -98v-1010q0 -98 -100 -98h-700q-98 0 -99 98zM307 401h494v600l-494 3v-603zM455 803q0 100 100 100q90 0 98 -100l2 -201q-8 -98 -100 -100q-100 0 -100 98v203z" />
<glyph unicode="1" horiz-adv-x="997" d="M100 94v4q0 100 101 101h100l-2 805h-96q-102 0 -103 94v4q0 100 101 100h174q8 2 24 2h205q88 0 96 -100v-903h99q100 0 100 -101v-4q0 -96 -102 -96h-594q-103 0 -103 94z" />
<glyph unicode="2" d="M98 96l2 604q3 98 99 99h602v205h-402q-100 0 -100 100q-2 49 24.5 74.5t77.5 25.5h498q100 0 100 -100v-608q0 -98 -100 -99l-592 2l-4 -200l590 -2q100 0 100 -101q-2 -90 -100 -98l-694 -2q-101 0 -101 100z" />
<glyph unicode="3" d="M100 104q0 96 101 97h600v295l-402 2q-100 0 -100 102q0 100 100 100h205v308l-401 2q-100 -2 -101 96v4q0 94 99 94h700q100 0 100 -100l-2 -1004q0 -100 -100 -100h-698q-101 0 -101 104z" />
<glyph unicode="4" d="M100 399v697q0 102 99 102h202q94 0 95 -98v-600h303v403q0 100 100 100.5t100 -100.5l-2 -801q0 -102 -100 -102q-94 0 -94 102v199l-303 2l-299 -2q-101 0 -101 98z" />
<glyph unicode="5" d="M98 96v4q0 100 101 101h276l123 200h-399q-95 0 -99 99l-2 604q0 100 101 100l694 -2q98 -8 100 -98q0 -100 -100 -100l-397 -3l4 -401h399q100 0 100 -96v-107l-208 -340q-31 -57 -78 -57h-512q-103 0 -103 96z" />
<glyph unicode="6" d="M100 98v1002q0 98 101 98h596q102 0 102 -98.5t-102 -98.5l-295 5v-306l399 -2q98 0 98 -102l-2 -494q0 -102 -100 -102h-696q-101 0 -101 98zM299 504v-305h502v303z" />
<glyph unicode="7" d="M100 897v205q2 92 103 100h698q100 -10 100 -98v-207q0 -31 -16 -59v-2l-608 -822q-37 -43 -78 -43q-29 0 -70 27q-80 57 -20 139l491 662h-497q-103 0 -103 98z" />
<glyph unicode="8" d="M100 901v195q0 102 99 102h700q100 0 100 -98v-402q-4 -199 -202 -200q201 0 202 -199v-201q0 -98 -100 -98h-203h-16h-479q-100 0 -101 102v398q0 199 199 198q-199 4 -199 203zM297 498l2 -299h299v301zM500 700h299v301l-299 -2v-299z" />
<glyph unicode="9" d="M100 602l2 494q0 102 101 102h696q100 0 100 -98v-1002q0 -98 -100 -98h-596q-102 0 -102 98.5t102 98.5h295v305l-399 -2q-99 0 -99 102zM299 696l502 2v301h-502v-303z" />
<glyph unicode=":" horiz-adv-x="696" d="M199 301q0 100 100 100l104 -2q88 0 97 -100v-201q-8 -98 -99 -98h-102q-98 0 -98 98zM199 901q0 100 100 100h104q88 0 97 -100v-201q-10 -100 -99 -100h-102q-98 0 -98 98z" />
<glyph unicode=";" horiz-adv-x="567" />
<glyph unicode="&#x37e;" horiz-adv-x="567" />
<glyph unicode="&#x3c;" horiz-adv-x="1193" />
<glyph unicode="=" horiz-adv-x="1193" />
<glyph unicode="&#x3e;" horiz-adv-x="1193" />
<glyph unicode="?" horiz-adv-x="1198" d="M150 201q0 100 100 100l104 -2q88 0 97 -98v-97q-10 -100 -101 -100l-100 -2q-100 0 -100 100v99zM199 502l2 198q3 98 98 99h399v205l-299 2q-100 0 -100 100q-2 49 23.5 73.5t78.5 24.5h598q100 0 101 -100v-404q0 -98 -101 -98l-591 -2l-5 -96q-4 -94 -104 -103 q-100 1 -100 101z" />
<glyph unicode="@" horiz-adv-x="2078" />
<glyph unicode="A" horiz-adv-x="1099" d="M27 53q0 16 6 29l-2 2l205 856l34 143l11 41q18 78 88 78q4 0 8 -1t8 -1v2h330v-2q2 0 8 1t8 1q70 0 88 -78l10 -41l246 -999q4 -16 4 -33q0 -51 -51 -51h-260h-18q-70 0 -88 78l-211 862h-2l-201 -860q-18 -78 -90 -78l-82 2q-49 0 -49 49zM354 301q0 100 101 100 q90 0 100 -102v-199q-10 -100 -100 -100q-100 0 -101 98v203z" />
<glyph unicode="B" d="M100 98v1002q0 98 101 98h483q98 0 98 -102v-400l119 2q98 0 98 -102l-2 -494q0 -102 -100 -102h-477h-17h-202q-101 0 -101 98zM299 700h301v299l-301 2v-301zM500 199h301l2 299l-303 2v-301z" />
<glyph unicode="C" d="M98 100l2 1012q0 96 99 96h700q100 0 100 -98v-203q0 -94 -100 -96q-100 0 -100 94v94l-299 2l2 -800h297q98 0 100 -101q-8 -100 -94 -100h-606q-101 0 -101 100z" />
<glyph unicode="D" d="M100 98v1006q0 98 101 98l397 2v-2h90q49 0 80 -57l231 -443q25 -51 25 -102t-27 -102l-223 -443q-31 -55 -80 -55h-155h-13h-325q-101 0 -101 98zM301 1001l2 -800h158l198 395l-206 408z" />
<glyph unicode="E" d="M100 100v504q0 102 101 103v397q0 98 100 98l598 2q100 0 100 -104q0 -96 -100 -96h-299v-295l297 -2q100 0 100 -103q0 -100 -100 -100h-598v-307l598 -2h6q97 0 96 -97q3 -98 -98 -98h-700q-101 0 -101 100z" />
<glyph unicode="F" d="M100 98v1006q0 98 101 98l700 2q98 0 98 -96v-6q0 -94 -96 -94h-6l-598 -2v-306h598q100 0 100 -100q0 -104 -100 -104l-397 4l4 -396q0 -104 -101 -104h-202q-101 0 -101 98z" />
<glyph unicode="G" d="M98 1108q0 100 101 100h506q86 0 94 -100q-2 -100 -103 -100h-395l-2 -605l502 -4v201l-199 2q-100 0 -100 103q0 100 100 100l197 -2h100q100 -2 100 -96v-609q0 -98 -100 -98q-98 0 -98 104v97q-102 -201 -250 -201h-352q-98 0 -99 96z" />
<glyph unicode="H" d="M100 98v1002q0 98 101 98q98 0 98 -98v-400h305v400q0 98 94 98h203q98 0 98 -102l-2 -994q0 -102 -100 -102q-94 0 -94 102v396l-303 2v-400q0 -100 -101 -100h-198q-101 0 -101 98z" />
<glyph unicode="I" horiz-adv-x="796" d="M201 1104q0 100 98 100h211q86 0 94 -100l-4 -1006q-10 -98 -94 -98h-205q-100 0 -100 98v1006z" />
<glyph unicode="J" horiz-adv-x="798" d="M0 98q0 106 98 109h103q102 0 102 90l-4 807q12 100 100 100l205 4q100 0 101 -100l-3 -815q0 -293 -303 -293h-301q-98 0 -98 98z" />
<glyph unicode="K" horiz-adv-x="1128" d="M100 98v1006q0 98 101 98l202 2q98 0 99 -102l-2 -397l133 2l239 458q31 57 80 58q23 0 56 -17q61 -31 61 -86q0 -27 -12 -53l-244 -471l242 -473q12 -29 12 -53q0 -55 -61 -86q-29 -14 -56 -15q-49 0 -80 58l-243 471l-127 2l4 -396q0 -104 -101 -104h-202 q-101 0 -101 98z" />
<glyph unicode="L" d="M98 1108q0 100 101 100h204q88 0 97 -100v-901l299 -4v100q0 94 100 94q100 -2 100 -96v-203q0 -98 -100 -98h-700q-98 0 -99 96z" />
<glyph unicode="M" horiz-adv-x="1341" d="M98 100l2 1012q0 96 99 96h270v-4q51 -6 84 -61l215 -576l217 574q18 51 74 63h78q100 -2 100 -96v-1010q0 -98 -98 -98q-102 0 -103 92v610l-159 -432q-25 -66 -109 -65v2q-80 0 -104 63l-164 443v-613q-8 -100 -97 -100h-204q-101 0 -101 100z" />
<glyph unicode="N" horiz-adv-x="1198" d="M98 98v1010q0 92 103 96h145q55 0 92 -63l262 -690v657q8 100 97 100h202q100 0 101 -100v-1012q0 -96 -99 -96h-270q-82 0 -106 66l-326 874v-848q0 -92 -100.5 -92t-100.5 98z" />
<glyph unicode="O" d="M98 1108q0 100 101 100l700 -2q100 0 100 -98v-1010q0 -98 -100 -98h-700q-98 0 -99 98zM307 201h494v600l-494 2v-602z" />
<glyph unicode="P" d="M100 98v1006q0 98 101 98l700 2q98 0 98 -102l-2 -504q0 -102 -100 -102l-397 4l4 -396q0 -104 -101 -104h-202q-101 0 -101 98zM299 700h301l2 308l-303 -2v-306z" />
<glyph unicode="Q" d="M98 100l2 1010q0 98 99 98h700q100 0 100 -98v-1010q0 -100 -100 -100h-86l74 -143q12 -29 12 -54q0 -55 -61 -86q-29 -14 -56 -14q-49 0 -80 57l-122 240h-381q-101 0 -101 100zM307 201l494 2v600h-494v-602z" />
<glyph unicode="R" d="M100 98v1006q0 98 101 98l700 2q98 0 98 -102l-2 -504q0 -102 -100 -102l-92 2l180 -353q12 -29 12 -52q0 -55 -61 -87q-30 -16 -56 -16q-49 0 -79 59l-232 449l-69 2l4 -396q0 -104 -101 -104h-202q-101 0 -101 98zM299 700h301v308l-301 -2v-306z" />
<glyph unicode="S" d="M98 1104q0 100 101 100l694 -2q98 -8 100 -98q0 -100 -100 -100l-590 -3l4 -200l592 2q100 0 100 -98v-609q0 -100 -100 -100h-594q-104 0 -100 100q0 100 98 101h498v204h-602q-95 0 -99 99z" />
<glyph unicode="T" horiz-adv-x="997" d="M49 899v213q0 96 98 96h703q100 0 100 -98v-14q0 -90 -100 -90h-246v-906q-8 -100 -108.5 -100t-100.5 100l2 709h-245q-103 0 -103 90z" />
<glyph unicode="U" d="M98 1108q0 100 100.5 100t108.5 -100v-709h494v709q0 98 98 98q100 0 100 -98v-1010q0 -98 -100 -98h-700q-98 0 -99 98z" />
<glyph unicode="V" horiz-adv-x="1099" d="M27 1151q0 49 49 49h262q2 0 8 1t8 1q72 0 90 -78l211 -862l203 860q18 78 88 78l84 -2q49 0 49 -49q0 -16 -6 -29v-2l-205 -856l-32 -143l-11 -41q-18 -78 -90 -78h-16h-328h-16q-72 0 -90 78l-11 41l-245 999q-2 8 -2 33z" />
<glyph unicode="W" horiz-adv-x="1458" d="M27 1151q0 49 49 49h262q2 0 8 1t8 1q72 0 90 -78l156 -637l131 560l19 75q18 72 79 78h21q61 -6 80 -78l18 -75l127 -547l148 622q18 78 88 78l84 -2q49 0 49 -49q0 -16 -6 -29v-2l-205 -856l-35 -143l-8 -41q-16 -59 -57 -74v-4h-113v4q-41 14 -57 74l-11 41l-32 143 l-80 332l-80 -332l-35 -143l-8 -41q-15 -61 -62 -74v-4h-264h-16q-72 0 -90 78l-11 41l-245 999q-2 8 -2 33z" />
<glyph unicode="X" d="M55 98q0 25 13 54l235 514l-235 381q-12 27 -13 53q0 55 62 86q33 16 55 16l162 2q47 0 78 -57l247 -406l175 410q31 57 79 57q27 0 56 -14q61 -31 61 -86q0 -27 -12 -53l-223 -531l223 -370q10 -23 10 -54q0 -55 -59 -86q-29 -14 -56 -14h-159q-49 0 -80 57l-244 400 l-178 -402q-31 -57 -82 -57q-25 0 -53 14q-62 31 -62 86z" />
<glyph unicode="Y" d="M55 1100q0 55 62 86q33 16 55 16l160 2q49 0 80 -57l200 -406l222 410q31 57 79 57q27 0 56 -14q59 -31 59 -86q0 -31 -10 -53l-268 -527l-2 -430q-10 -98 -95 -98h-204q-100 0 -101 98v416l-280 533q-13 26 -13 53z" />
<glyph unicode="Z" d="M100 98v207q0 43 35 82l543 614h-477q-100 10 -101 101q0 98 99 98h667l45 2q68 -6 86 -74q4 -16 4 -26q0 -16 -10 -41q-4 -12 -14 -25q0 -4 -2 -6l-559 -627h483q100 0 100 -98v-207q-2 -90 -102 -98h-696q-101 10 -101 98z" />
<glyph unicode="[" horiz-adv-x="567" />
<glyph unicode="\" horiz-adv-x="567" />
<glyph unicode="]" horiz-adv-x="567" />
<glyph unicode="^" horiz-adv-x="960" />
<glyph unicode="_" horiz-adv-x="1138" />
<glyph unicode="`" d="M276 1604q0 23 17 59q31 66 86 78q8 2 22 2q10 0 31 -4l291 -111q57 -18 57 -65l-2 -21q0 -27 -14 -57q-31 -68 -86 -80q-8 -2 -25 -2q-8 0 -28 4l-287 111q-59 18 -59 67z" />
<glyph unicode="a" horiz-adv-x="1099" d="M27 53q0 16 6 29l-2 2l205 856l34 143l11 41q18 78 88 78q4 0 8 -1t8 -1v2h330v-2q2 0 8 1t8 1q70 0 88 -78l10 -41l246 -999q4 -16 4 -33q0 -51 -51 -51h-260h-18q-70 0 -88 78l-211 862h-2l-201 -860q-18 -78 -90 -78l-82 2q-49 0 -49 49zM354 301q0 100 101 100 q90 0 100 -102v-199q-10 -100 -100 -100q-100 0 -101 98v203z" />
<glyph unicode="b" d="M100 98v1002q0 98 101 98h483q98 0 98 -102v-400l119 2q98 0 98 -102l-2 -494q0 -102 -100 -102h-477h-17h-202q-101 0 -101 98zM299 700h301v299l-301 2v-301zM500 199h301l2 299l-303 2v-301z" />
<glyph unicode="c" d="M98 100l2 1012q0 96 99 96h700q100 0 100 -98v-203q0 -94 -100 -96q-100 0 -100 94v94l-299 2l2 -800h297q98 0 100 -101q-8 -100 -94 -100h-606q-101 0 -101 100z" />
<glyph unicode="d" d="M100 98v1006q0 98 101 98l397 2v-2h90q49 0 80 -57l231 -443q25 -51 25 -102t-27 -102l-223 -443q-31 -55 -80 -55h-155h-13h-325q-101 0 -101 98zM301 1001l2 -800h158l198 395l-206 408z" />
<glyph unicode="e" d="M100 100v504q0 102 101 103v397q0 98 100 98l598 2q100 0 100 -104q0 -96 -100 -96h-299v-295l297 -2q100 0 100 -103q0 -100 -100 -100h-598v-307l598 -2h6q97 0 96 -97q3 -98 -98 -98h-700q-101 0 -101 100z" />
<glyph unicode="f" d="M100 98v1006q0 98 101 98l700 2q98 0 98 -96v-6q0 -94 -96 -94h-6l-598 -2v-306h598q100 0 100 -100q0 -104 -100 -104l-397 4l4 -396q0 -104 -101 -104h-202q-101 0 -101 98z" />
<glyph unicode="g" d="M98 1108q0 100 101 100h506q86 0 94 -100q-2 -100 -103 -100h-395l-2 -605l502 -4v201l-199 2q-100 0 -100 103q0 100 100 100l197 -2h100q100 -2 100 -96v-609q0 -98 -100 -98q-98 0 -98 104v97q-102 -201 -250 -201h-352q-98 0 -99 96z" />
<glyph unicode="h" d="M100 98v1002q0 98 101 98q98 0 98 -98v-400h305v400q0 98 94 98h203q98 0 98 -102l-2 -994q0 -102 -100 -102q-94 0 -94 102v396l-303 2v-400q0 -100 -101 -100h-198q-101 0 -101 98z" />
<glyph unicode="i" horiz-adv-x="796" d="M201 1104q0 100 98 100h211q86 0 94 -100l-4 -1006q-10 -98 -94 -98h-205q-100 0 -100 98v1006z" />
<glyph unicode="j" horiz-adv-x="798" d="M0 98q0 106 98 109h103q102 0 102 90l-4 807q12 100 100 100l205 4q100 0 101 -100l-3 -815q0 -293 -303 -293h-301q-98 0 -98 98z" />
<glyph unicode="k" horiz-adv-x="1128" d="M100 98v1006q0 98 101 98l202 2q98 0 99 -102l-2 -397l133 2l239 458q31 57 80 58q23 0 56 -17q61 -31 61 -86q0 -27 -12 -53l-244 -471l242 -473q12 -29 12 -53q0 -55 -61 -86q-29 -14 -56 -15q-49 0 -80 58l-243 471l-127 2l4 -396q0 -104 -101 -104h-202 q-101 0 -101 98z" />
<glyph unicode="l" d="M98 1108q0 100 101 100h204q88 0 97 -100v-901l299 -4v100q0 94 100 94q100 -2 100 -96v-203q0 -98 -100 -98h-700q-98 0 -99 96z" />
<glyph unicode="m" horiz-adv-x="1341" d="M98 100l2 1012q0 96 99 96h270v-4q51 -6 84 -61l215 -576l217 574q18 51 74 63h78q100 -2 100 -96v-1010q0 -98 -98 -98q-102 0 -103 92v610l-159 -432q-25 -66 -109 -65v2q-80 0 -104 63l-164 443v-613q-8 -100 -97 -100h-204q-101 0 -101 100z" />
<glyph unicode="n" horiz-adv-x="1198" d="M98 98v1010q0 92 103 96h145q55 0 92 -63l262 -690v657q8 100 97 100h202q100 0 101 -100v-1012q0 -96 -99 -96h-270q-82 0 -106 66l-326 874v-848q0 -92 -100.5 -92t-100.5 98z" />
<glyph unicode="o" d="M98 1108q0 100 101 100l700 -2q100 0 100 -98v-1010q0 -98 -100 -98h-700q-98 0 -99 98zM307 201h494v600l-494 2v-602z" />
<glyph unicode="p" d="M100 98v1006q0 98 101 98l700 2q98 0 98 -102l-2 -504q0 -102 -100 -102l-397 4l4 -396q0 -104 -101 -104h-202q-101 0 -101 98zM299 700h301l2 308l-303 -2v-306z" />
<glyph unicode="q" d="M98 100l2 1010q0 98 99 98h700q100 0 100 -98v-1010q0 -100 -100 -100h-86l74 -143q12 -29 12 -54q0 -55 -61 -86q-29 -14 -56 -14q-49 0 -80 57l-122 240h-381q-101 0 -101 100zM307 201l494 2v600h-494v-602z" />
<glyph unicode="r" d="M100 98v1006q0 98 101 98l700 2q98 0 98 -102l-2 -504q0 -102 -100 -102l-92 2l180 -353q12 -29 12 -52q0 -55 -61 -87q-30 -16 -56 -16q-49 0 -79 59l-232 449l-69 2l4 -396q0 -104 -101 -104h-202q-101 0 -101 98zM299 700h301v308l-301 -2v-306z" />
<glyph unicode="s" d="M98 1104q0 100 101 100l694 -2q98 -8 100 -98q0 -100 -100 -100l-590 -3l4 -200l592 2q100 0 100 -98v-609q0 -100 -100 -100h-594q-104 0 -100 100q0 100 98 101h498v204h-602q-95 0 -99 99z" />
<glyph unicode="t" horiz-adv-x="997" d="M49 899v213q0 96 98 96h703q100 0 100 -98v-14q0 -90 -100 -90h-246v-906q-8 -100 -108.5 -100t-100.5 100l2 709h-245q-103 0 -103 90z" />
<glyph unicode="u" d="M98 1108q0 100 100.5 100t108.5 -100v-709h494v709q0 98 98 98q100 0 100 -98v-1010q0 -98 -100 -98h-700q-98 0 -99 98z" />
<glyph unicode="v" horiz-adv-x="1099" d="M27 1151q0 49 49 49h262q2 0 8 1t8 1q72 0 90 -78l211 -862l203 860q18 78 88 78l84 -2q49 0 49 -49q0 -16 -6 -29v-2l-205 -856l-32 -143l-11 -41q-18 -78 -90 -78h-16h-328h-16q-72 0 -90 78l-11 41l-245 999q-2 8 -2 33z" />
<glyph unicode="w" horiz-adv-x="1458" d="M27 1151q0 49 49 49h262q2 0 8 1t8 1q72 0 90 -78l156 -637l131 560l19 75q18 72 79 78h21q61 -6 80 -78l18 -75l127 -547l148 622q18 78 88 78l84 -2q49 0 49 -49q0 -16 -6 -29v-2l-205 -856l-35 -143l-8 -41q-16 -59 -57 -74v-4h-113v4q-41 14 -57 74l-11 41l-32 143 l-80 332l-80 -332l-35 -143l-8 -41q-15 -61 -62 -74v-4h-264h-16q-72 0 -90 78l-11 41l-245 999q-2 8 -2 33z" />
<glyph unicode="x" d="M55 98q0 25 13 54l235 514l-235 381q-12 27 -13 53q0 55 62 86q33 16 55 16l162 2q47 0 78 -57l247 -406l175 410q31 57 79 57q27 0 56 -14q61 -31 61 -86q0 -27 -12 -53l-223 -531l223 -370q10 -23 10 -54q0 -55 -59 -86q-29 -14 -56 -14h-159q-49 0 -80 57l-244 400 l-178 -402q-31 -57 -82 -57q-25 0 -53 14q-62 31 -62 86z" />
<glyph unicode="y" d="M55 1100q0 55 62 86q33 16 55 16l160 2q49 0 80 -57l200 -406l222 410q31 57 79 57q27 0 56 -14q59 -31 59 -86q0 -31 -10 -53l-268 -527l-2 -430q-10 -98 -95 -98h-204q-100 0 -101 98v416l-280 533q-13 26 -13 53z" />
<glyph unicode="z" d="M100 98v207q0 43 35 82l543 614h-477q-100 10 -101 101q0 98 99 98h667l45 2q68 -6 86 -74q4 -16 4 -26q0 -16 -10 -41q-4 -12 -14 -25q0 -4 -2 -6l-559 -627h483q100 0 100 -98v-207q-2 -90 -102 -98h-696q-101 10 -101 98z" />
<glyph unicode="{" horiz-adv-x="681" />
<glyph unicode="|" horiz-adv-x="530" />
<glyph unicode="}" horiz-adv-x="681" />
<glyph unicode="~" horiz-adv-x="1193" />
<glyph unicode="&#xa1;" horiz-adv-x="897" d="M201 102v504q0 100 100 101h205q84 0 94 -101l4 -502q-10 -102 -94 -102h-211q-98 0 -98 100zM250 1006v100q0 98 100 98l101 -2q90 0 100 -98v-96q-8 -100 -96 -101l-107 -2q-98 1 -98 101z" />
<glyph unicode="&#xa2;" horiz-adv-x="1138" />
<glyph unicode="&#xa3;" horiz-adv-x="1138" />
<glyph unicode="&#xa5;" horiz-adv-x="1138" />
<glyph unicode="&#xa6;" horiz-adv-x="530" />
<glyph unicode="&#xa7;" horiz-adv-x="1138" />
<glyph unicode="&#xa8;" d="M199 1634q0 68 86 68l90 -2q74 0 80 -68l2 -65q-6 -68 -86 -68l-86 -2q-84 0 -84 68zM641 1565v69q0 68 86 68h88q76 0 82 -68l2 -67q-6 -68 -86 -68h-86q-86 0 -86 66z" />
<glyph unicode="&#xa9;" horiz-adv-x="1507" />
<glyph unicode="&#xaa;" horiz-adv-x="757" />
<glyph unicode="&#xab;" horiz-adv-x="1138" />
<glyph unicode="&#xac;" horiz-adv-x="1193" />
<glyph unicode="&#xad;" horiz-adv-x="696" d="M98 637q0 66 99 65l303 3q100 0 100 -68v-70q0 -59 -100 -65h-301q-100 6 -101 65v70z" />
<glyph unicode="&#xae;" horiz-adv-x="1507" />
<glyph unicode="&#xb0;" horiz-adv-x="817" />
<glyph unicode="&#xb1;" horiz-adv-x="1122" />
<glyph unicode="&#xb2;" horiz-adv-x="681" />
<glyph unicode="&#xb3;" horiz-adv-x="681" />
<glyph unicode="&#xb4;" d="M276 1563q0 47 60 65l291 111q20 4 28 4q16 0 25 -2q55 -12 86 -78q14 -31 14 -59l-2 -19q0 -49 -57 -67l-287 -111q-20 -4 -31 -4q-14 0 -22 2q-55 12 -86 80q-16 37 -16 57z" />
<glyph unicode="&#xb5;" horiz-adv-x="1179" />
<glyph unicode="&#xb6;" horiz-adv-x="1099" />
<glyph unicode="&#xb7;" horiz-adv-x="567" />
<glyph unicode="&#x2219;" horiz-adv-x="567" />
<glyph unicode="&#xb8;" d="M367 -104l61 90h143l-67 -92h92q47 0 47 -48v-51l-100 -166q-14 -27 -37 -26h-88q-51 0 -51 47v2q0 47 49 47h33l59 96h-92q-49 0 -49 49v52z" />
<glyph unicode="&#xb9;" horiz-adv-x="681" />
<glyph unicode="&#xba;" horiz-adv-x="747" />
<glyph unicode="&#xbb;" horiz-adv-x="1138" />
<glyph unicode="&#xbc;" horiz-adv-x="1705" />
<glyph unicode="&#xbd;" horiz-adv-x="1705" />
<glyph unicode="&#xbe;" horiz-adv-x="1705" />
<glyph unicode="&#xbf;" horiz-adv-x="1198" d="M94 100v404q0 96 101 96h593l3 102q2 90 106 101q98 0 98 -101v-198q-3 -98 -98 -98h-401v-205h299q100 0 100 -101q2 -49 -24.5 -74.5t-77.5 -25.5h-598q-101 0 -101 100zM750 1008v96q10 100 98 100h100q100 0 101 -98l2 -98q0 -100 -101 -101h-104q-88 1 -96 101z" />
<glyph unicode="&#xc0;" horiz-adv-x="1099" d="M29 53q0 16 6 29v2l205 856l32 143l11 41q18 78 90 78q4 0 8 -1t8 -1v2h328v-2q4 0 8 1t8 1q72 0 90 -78l11 -41l245 -999q2 -8 2 -33q0 -51 -49 -51h-262h-16q-72 0 -90 78l-211 862l-203 -860q-18 -78 -88 -78l-84 2q-49 0 -49 49zM248 1604q0 29 14 59q31 66 86 78 q8 2 25 2q8 0 28 -4l291 -111q59 -18 60 -65l-2 -21q0 -20 -17 -57q-31 -68 -86 -80q-8 -2 -22 -2q-10 0 -31 4l-287 111q-57 18 -57 67zM356 301q0 100 101 100q90 0 100 -102v-199q-10 -100 -98 -100q-100 0 -101 98z" />
<glyph unicode="&#xc1;" horiz-adv-x="1099" d="M27 53q0 16 6 29l-2 2l205 856l34 143l11 41q18 78 88 78q4 0 8 -1t8 -1v2h330v-2q2 0 8 1t8 1q70 0 88 -78l10 -41l246 -999q4 -16 4 -33q0 -51 -51 -51h-260h-18q-70 0 -88 78l-211 862h-2l-201 -860q-18 -78 -90 -78l-82 2q-49 0 -49 49zM350 1561q0 49 58 67l290 111 q10 2 31 2q14 0 23 -2q55 -12 86 -78q16 -37 16 -59l-2 -19q0 -47 -57 -65l-287 -113q-10 -2 -31 -2q-14 0 -22 2q-57 12 -86 78q-16 37 -17 59zM354 301q0 100 101 100q90 0 100 -102v-199q-10 -100 -100 -100q-100 0 -101 98v203z" />
<glyph unicode="&#xc2;" horiz-adv-x="1099" d="M27 53q0 16 6 29l-2 2l205 856l34 143l11 41q18 78 88 78q4 0 8 -1t8 -1v2h330v-2q2 0 8 1t8 1q70 0 88 -78l10 -41l246 -999q4 -16 4 -33q0 -51 -51 -51h-260h-18q-70 0 -88 78l-211 862h-2l-201 -860q-18 -78 -90 -78l-82 2q-49 0 -49 49zM315 1331q0 8 4 17v2l50 202 l20 84l6 23q12 45 51 45h11h188h8q41 0 54 -45l4 -23l71 -284q2 -4 2 -19q0 -29 -28 -28h-152q-2 0 -5 -1l-3 -1q-39 0 -51 45l-51 204h-2l-50 -204q-12 -45 -51 -45h-47q-29 -1 -29 28zM354 301q0 100 101 100q90 0 100 -102v-199q-10 -100 -100 -100q-100 0 -101 98v203z " />
<glyph unicode="&#xc3;" horiz-adv-x="1099" d="M27 53q0 16 6 29l-2 2l205 856l34 143l11 41q18 78 88 78q4 0 8 -1t8 -1v2h330v-2q2 0 8 1t8 1q70 0 88 -78l10 -41l246 -999q4 -16 4 -33q0 -51 -51 -51h-260h-18q-70 0 -88 78l-211 862h-2l-201 -860q-18 -78 -90 -78l-82 2q-49 0 -49 49zM252 1331q0 8 4 17v2l49 202 l21 82l6 25q12 45 51 45h8h168h10q10 0 15 -2l8 2q39 0 51 -45l51 -207l49 207q12 45 54 45h47q29 0 28 -31q0 -6 -4 -14v-2l-51 -205l-18 -82l-6 -22q-12 -45 -52 -45h-186h-16h-7q-39 0 -51 45l-53 204l-49 -204q-12 -45 -51 -45h-47q-29 -1 -29 28zM354 301 q0 100 101 100q90 0 100 -102v-199q-10 -100 -100 -100q-100 0 -101 98v203z" />
<glyph unicode="&#xc4;" horiz-adv-x="1099" d="M27 53q0 16 6 29l-2 2l205 856l34 143l11 41q18 78 88 78q4 0 8 -1t8 -1v2h330v-2q2 0 8 1t8 1q70 0 88 -78l10 -41l246 -999q4 -16 4 -33q0 -51 -51 -51h-260h-18q-70 0 -88 78l-211 862h-2l-201 -860q-18 -78 -90 -78l-82 2q-49 0 -49 49zM205 1634q0 68 86 68h88 q76 0 82 -70v-65q-6 -68 -84 -68h-86q-86 0 -86 66v69zM354 301q0 100 101 100q90 0 100 -102v-199q-10 -100 -100 -100q-100 0 -101 98v203zM647 1634q0 68 84 68h90q76 0 82 -68v-67q-6 -68 -84 -68h-86q-86 0 -86 66v69z" />
<glyph unicode="&#xc5;" horiz-adv-x="1363" />
<glyph unicode="&#xc6;" horiz-adv-x="2048" />
<glyph unicode="&#xc7;" d="M98 100l2 1012q0 96 99 96h700q100 0 100 -98v-203q0 -94 -100 -96q-100 0 -100 94v94l-299 2l2 -800h297q98 0 100 -101q-8 -100 -94 -100h-606q-101 0 -101 100zM403 -104l62 90h141l-67 -92h94q47 0 47 -48v-51l-100 -166q-14 -27 -39 -26h-88q-49 0 -50 47 q0 49 50 49h32l60 96h-94q-47 0 -48 49v52z" />
<glyph unicode="&#xc8;" d="M100 100v504q0 102 101 103v397q0 98 100 98l598 2q100 0 100 -104q0 -96 -100 -96h-299v-295l297 -2q100 0 100 -103q0 -100 -100 -100h-598v-307l598 -2q102 4 102 -97q3 -98 -98 -98h-700q-101 0 -101 100zM311 1604q0 23 17 59q31 66 86 78q8 2 22 2q10 0 31 -4 l291 -111q57 -18 57 -65l-2 -21q0 -20 -16 -57q-31 -68 -86 -80q-8 -2 -23 -2q-10 0 -31 4l-286 111q-57 18 -58 67z" />
<glyph unicode="&#xc9;" d="M100 100v504q0 102 101 103v397q0 98 100 98l598 2q100 0 100 -104q0 -96 -100 -96h-299v-295l297 -2q100 0 100 -103q0 -100 -100 -100h-598v-307l598 -2q102 4 102 -97q3 -98 -98 -98h-700q-101 0 -101 100zM395 1561q0 49 60 67l290 111q10 2 29 2q16 0 25 -2 q55 -12 86 -78q14 -31 14 -59l-2 -19q0 -47 -57 -65l-287 -113q-10 -2 -31 -2q-14 0 -22 2q-57 12 -86 78q-16 37 -17 59z" />
<glyph unicode="&#xca;" d="M100 100v504q0 102 101 103v397q0 98 100 98l598 2q100 0 100 -104q0 -96 -100 -96h-299v-295l297 -2q100 0 100 -103q0 -100 -100 -100h-598v-307l598 -2q102 4 102 -97q3 -98 -98 -98h-700q-101 0 -101 100zM393 1331q0 8 4 17l52 204l18 82l6 25q12 45 51 45h11h188 h10q39 0 51 -45l7 -25l71 -282q2 -4 2 -21q0 -29 -28 -28h-152h-10q-39 0 -51 45l-52 204h-2l-49 -204q-12 -45 -51 -45h-47q-29 -1 -29 28z" />
<glyph unicode="&#xcb;" d="M100 100v504q0 102 101 103v397q0 98 100 98l598 2q100 0 100 -104q0 -96 -100 -96h-299v-295l297 -2q100 0 100 -103q0 -100 -100 -100h-598v-307l598 -2q102 4 102 -97q3 -98 -98 -98h-700q-101 0 -101 100zM227 1634q0 68 86 68l90 -2q74 0 80 -68l2 -65 q-6 -68 -86 -68l-86 -2q-84 0 -84 68zM672 1565v69q0 68 84 68h90q76 0 82 -68v-67q-6 -68 -84 -68h-86q-86 0 -86 66z" />
<glyph unicode="&#xcc;" horiz-adv-x="796" d="M78 1604q0 29 14 59q31 66 86 78q8 2 25 2q8 0 28 -4l291 -111q59 -18 60 -65l-2 -21q0 -20 -17 -57q-31 -68 -86 -80q-8 -2 -22 -2q-10 0 -31 4l-287 111q-57 18 -57 67zM201 1104q0 100 100 100h209q86 0 94 -100l-2 -1006q-8 -98 -94 -98h-207q-98 0 -98 98z" />
<glyph unicode="&#xcd;" horiz-adv-x="796" d="M201 1104q0 100 98 100h211q86 0 94 -100l-4 -1006q-10 -98 -94 -98h-205q-100 0 -100 98v1006zM252 1563q0 47 57 65l291 111q20 4 31 4q14 0 22 -2q55 -12 86 -78q16 -37 17 -59l-2 -19q0 -49 -58 -67l-286 -111q-20 -4 -31 -4q-14 0 -23 2q-55 12 -86 80 q-16 37 -16 57z" />
<glyph unicode="&#xce;" horiz-adv-x="796" d="M201 1104q0 100 98 100h211q86 0 94 -100l-4 -1006q-10 -98 -94 -98h-205q-100 0 -100 98v1006zM215 1331q0 12 2 17v2l41 202l14 82l7 25q8 45 40 45h9h149h8q33 0 41 -45l4 -25l60 -282v-21q0 -27 -23 -26h-121q-2 0 -5 -1l-3 -1q-33 0 -41 45l-41 204l-39 -204 q-8 -45 -41 -45h-38q-23 -1 -23 28z" />
<glyph unicode="&#xcf;" horiz-adv-x="796" d="M49 1634q0 68 84 68l90 -2q76 0 82 -68v-65q-6 -68 -84 -68l-86 -2q-86 0 -86 68v69zM201 1104q0 100 98 100h211q86 0 94 -100l-4 -1006q-10 -98 -94 -98h-205q-100 0 -100 98v1006zM492 1565v69q0 68 86 68h88q76 0 82 -68l2 -67q-6 -68 -86 -68h-86q-86 0 -86 66z" />
<glyph unicode="&#xd0;" horiz-adv-x="1478" />
<glyph unicode="&#xd1;" horiz-adv-x="1198" d="M98 98v1010q0 92 103 96h145q55 0 92 -63l262 -690v657q8 100 97 100h202q100 0 101 -100v-1012q0 -96 -99 -96h-270q-82 0 -106 66l-326 874v-848q0 -92 -100.5 -92t-100.5 98zM305 1331q0 8 4 17v2l51 202l19 82l6 25q12 45 51 45h10h168h11q10 0 14 -2l8 2 q39 0 51 -45l52 -207l49 207q12 45 53 45h45q31 0 31 -31q0 -6 -4 -14v-2l-52 -205l-18 -82l-6 -22q-12 -45 -51 -45h-189h-14h-8q-39 0 -51 45l-52 204h-2l-49 -204q-12 -45 -49 -45h-49q-29 -1 -29 28z" />
<glyph unicode="&#xd2;" d="M98 1108q0 100 101 100l700 -2q100 0 100 -98v-1010q0 -98 -100 -98h-700q-98 0 -99 98zM252 1602q0 23 16 59q31 66 86 78q8 2 23 2q20 0 31 -2l290 -111q57 -18 58 -67l-2 -19q0 -23 -17 -59q-29 -66 -86 -78q-8 -2 -22 -2q-20 0 -31 2l-287 113q-57 18 -57 65z M307 201h494v600l-494 2v-602z" />
<glyph unicode="&#xd3;" d="M98 1108q0 100 101 100l700 -2q100 0 100 -98v-1010q0 -98 -100 -98h-700q-98 0 -99 98zM307 201h494v600l-494 2v-602zM385 1563q0 47 57 65l291 111q20 4 31 4q14 0 22 -2q55 -12 86 -78q16 -37 17 -59l-2 -19q0 -49 -60 -67l-286 -111q-20 -4 -29 -4q-16 0 -25 2 q-55 12 -86 80q-16 37 -16 57v21z" />
<glyph unicode="&#xd4;" d="M98 1108q0 100 101 100l700 -2q100 0 100 -98v-1010q0 -98 -100 -98h-700q-98 0 -99 98zM307 201h494v600l-494 2v-602zM315 1331q0 8 4 17l-2 2l52 202l20 82l4 25q12 45 53 45h9h188h10q39 0 52 -45l6 -25l71 -282q2 -4 2 -19q0 -29 -28 -28h-152q-2 0 -4 -1t-4 -1 q-39 0 -51 45l-53 204l-50 -204q-12 -45 -51 -45h-47q-29 -1 -29 28z" />
<glyph unicode="&#xd5;" d="M98 1108q0 100 101 100l700 -2q100 0 100 -98v-1010q0 -98 -100 -98h-700q-98 0 -99 98zM250 1331q0 8 4 17v2l49 202l21 82l6 25q12 45 51 45h8h168h10h17h6q39 0 51 -45l51 -207l49 207q12 45 54 45h47q29 0 28 -31q0 -6 -4 -14v-2l-51 -205l-18 -82l-6 -22 q-12 -45 -52 -45h-186q-10 0 -14 2q-2 0 -4.5 -1t-4.5 -1q-39 0 -51 45l-53 204l-49 -204q-12 -45 -51 -45h-47q-29 -1 -29 28zM307 201h494v600l-494 2v-602z" />
<glyph unicode="&#xd6;" d="M98 1108q0 100 101 100l700 -2q100 0 100 -98v-1010q0 -98 -100 -98h-700q-98 0 -99 98zM199 1634q0 68 86 68l90 -2q76 0 82 -68v-65q-6 -68 -86 -68l-86 -2q-84 0 -84 68zM307 201h494v600l-494 2v-602zM641 1634q0 68 86 68h90q76 0 82 -68v-67q-6 -68 -86 -68h-86 q-84 0 -84 66z" />
<glyph unicode="&#xd7;" horiz-adv-x="1193" />
<glyph unicode="&#xd8;" horiz-adv-x="1591" />
<glyph unicode="&#xd9;" d="M98 1108q0 100 100.5 100t108.5 -100v-709h494v709q0 98 98 98q100 0 100 -98v-1010q0 -98 -100 -98h-700q-98 0 -99 98zM227 1602q0 23 17 59q31 66 86 78q8 2 22 2q20 0 31 -2l291 -111q57 -18 57 -67l-2 -19q0 -23 -16 -59q-29 -66 -86 -78q-8 -2 -23 -2q-20 0 -31 2 l-286 113q-57 18 -58 65z" />
<glyph unicode="&#xda;" d="M98 1108q0 100 100.5 100t108.5 -100v-709h494v709q0 98 98 98q100 0 100 -98v-1010q0 -98 -100 -98h-700q-98 0 -99 98zM434 1561q0 49 60 67l290 111q10 2 29 2q16 0 25 -2q55 -12 86 -78q14 -31 14 -59v-19q0 -47 -59 -65l-287 -113q-10 -2 -31 -2q-14 0 -22 2 q-57 12 -86 78q-16 37 -17 59z" />
<glyph unicode="&#xdb;" d="M98 1108q0 100 100.5 100t108.5 -100v-709h494v709q0 98 98 98q100 0 100 -98v-1010q0 -98 -100 -98h-700q-98 0 -99 98zM313 1331q0 10 4 19h-2l52 204l20 82l4 25q12 43 53 43h9h188h10q39 0 51 -43l7 -25l71 -284q2 -4 2 -19q0 -29 -28 -28h-152h-8q-39 0 -51 45 l-54 204l-49 -206q-12 -45 -51 -45l-47 2q-29 -1 -29 26z" />
<glyph unicode="&#xdc;" d="M98 1108q0 100 100.5 100t108.5 -100v-709h494v709q0 98 98 98q100 0 100 -98v-1010q0 -98 -100 -98h-700q-98 0 -99 98zM199 1634q0 68 86 68l90 -2q76 0 82 -68v-65q-6 -68 -86 -68l-86 -2q-84 0 -84 68zM641 1634q0 68 86 68h90q76 0 82 -68v-67q-6 -68 -86 -68h-86 q-84 0 -84 66z" />
<glyph unicode="&#xdd;" horiz-adv-x="1363" />
<glyph unicode="&#xde;" horiz-adv-x="1363" />
<glyph unicode="&#xdf;" d="M100 100l2 1010q0 98 101 98h598q96 0 96 -96v-131q-6 -154 -57 -205l-129 -176h190q100 0 100 -96v-107l-208 -340q-31 -57 -80 -57h-181q-102 0 -102 96v4q0 100 100 101l68 -2l123 202h-193q-100 0 -100 99v104l127 205h-248l-2 -711q0 -98 -96 -98q-101 0 -109 100z " />
<glyph unicode="&#xe0;" horiz-adv-x="1099" d="M29 53q0 16 6 29l-2 2l205 856l34 143l11 41q18 78 88 78q4 0 8 -1t8 -1v2h330v-2q2 0 8 1t8 1q70 0 88 -78l10 -41l246 -999q4 -16 4 -33q0 -51 -51 -51h-260h-18q-70 0 -88 78l-211 862h-2l-201 -860q-18 -78 -90 -78l-82 2q-49 0 -49 49zM356 301q0 100 101 100 q90 0 100 -102v-199q-10 -100 -100 -100q-100 0 -101 98v203zM245 1604q0 23 17 59q31 66 86 78q8 2 22 2q10 0 31 -4l291 -111q57 -18 57 -65l-2 -21q0 -27 -14 -57q-31 -68 -86 -80q-8 -2 -25 -2q-8 0 -28 4l-287 111q-59 18 -59 67z" />
<glyph unicode="&#xe1;" horiz-adv-x="1099" d="M27 53q0 16 6 29l-2 2l205 856l34 143l11 41q18 78 88 78q4 0 8 -1t8 -1v2h330v-2q2 0 8 1t8 1q70 0 88 -78l10 -41l246 -999q4 -16 4 -33q0 -51 -51 -51h-260h-18q-70 0 -88 78l-211 862h-2l-201 -860q-18 -78 -90 -78l-82 2q-49 0 -49 49zM354 301q0 100 101 100 q90 0 100 -102v-199q-10 -100 -100 -100q-100 0 -101 98v203zM350 1563q0 47 60 65l291 111q20 4 28 4q16 0 25 -2q55 -12 86 -78q14 -31 14 -59l-2 -19q0 -49 -57 -67l-287 -111q-20 -4 -31 -4q-14 0 -22 2q-55 12 -86 80q-16 37 -16 57z" />
<glyph unicode="&#xe2;" horiz-adv-x="1099" d="M27 53q0 16 6 29l-2 2l205 856l34 143l11 41q18 78 88 78q4 0 8 -1t8 -1v2h330v-2q2 0 8 1t8 1q70 0 88 -78l10 -41l246 -999q4 -16 4 -33q0 -51 -51 -51h-260h-18q-70 0 -88 78l-211 862h-2l-201 -860q-18 -78 -90 -78l-82 2q-49 0 -49 49zM354 301q0 100 101 100 q90 0 100 -102v-199q-10 -100 -100 -100q-100 0 -101 98v203zM318 1331q0 12 2 17v2l51 202l18 82l7 25q12 45 51 45h10h188h11q39 0 51 -45l6 -25l72 -282q0 -2 1 -8.5t1 -10.5q0 -29 -29 -28h-152q-2 0 -5 -1t-5 -1q-39 0 -51 45l-51 204l-49 -204q-12 -45 -52 -45h-49 q-26 -1 -26 28z" />
<glyph unicode="&#xe3;" horiz-adv-x="1099" d="M27 53q0 16 6 29l-2 2l205 856l34 143l11 41q18 78 88 78q4 0 8 -1t8 -1v2h330v-2q2 0 8 1t8 1q70 0 88 -78l10 -41l246 -999q4 -16 4 -33q0 -51 -51 -51h-260h-18q-70 0 -88 78l-211 862h-2l-201 -860q-18 -78 -90 -78l-82 2q-49 0 -49 49zM354 301q0 100 101 100 q90 0 100 -102v-199q-10 -100 -100 -100q-100 0 -101 98v203zM252 1331q0 12 2 17v2l51 202l18 82l7 25q12 45 51 45h10h170h8h14h9q39 0 51 -45l51 -207l49 207q12 45 53 45h48q29 0 28 -31q0 -6 -4 -14v-2l-49 -205l-21 -82l-6 -22q-12 -45 -51 -45h-188q-10 0 -15 2 l-4 -1l-4 -1q-39 0 -51 45l-51 204l-49 -204q-12 -45 -52 -45h-49q-26 -1 -26 28z" />
<glyph unicode="&#xe4;" horiz-adv-x="1099" d="M27 53q0 16 6 29l-2 2l205 856l34 143l11 41q18 78 88 78q4 0 8 -1t8 -1v2h330v-2q2 0 8 1t8 1q70 0 88 -78l10 -41l246 -999q4 -16 4 -33q0 -51 -51 -51h-260h-18q-70 0 -88 78l-211 862h-2l-201 -860q-18 -78 -90 -78l-82 2q-49 0 -49 49zM354 301q0 100 101 100 q90 0 100 -102v-199q-10 -100 -100 -100q-100 0 -101 98v203zM203 1634q0 68 86 68l90 -2q74 0 80 -68l2 -65q-6 -68 -86 -68l-86 -2q-84 0 -84 68zM645 1565v69q0 68 86 68h88q76 0 82 -68l2 -67q-6 -68 -86 -68h-86q-86 0 -86 66z" />
<glyph unicode="&#xe5;" horiz-adv-x="1138" />
<glyph unicode="&#xe6;" horiz-adv-x="1820" />
<glyph unicode="&#xe7;" d="M98 100l2 1012q0 96 99 96h700q100 0 100 -98v-203q0 -94 -100 -96q-100 0 -100 94v94l-299 2l2 -800h297q98 0 100 -101q-8 -100 -94 -100h-606q-101 0 -101 100zM404 -104l61 90h143l-67 -92h92q47 0 47 -48v-51l-100 -166q-14 -27 -37 -26h-88q-51 0 -51 47v2 q0 47 49 47h33l59 96h-92q-49 0 -49 49v52z" />
<glyph unicode="&#xe8;" d="M100 100v504q0 102 101 103v397q0 98 100 98l598 2q100 0 100 -104q0 -96 -100 -96h-299v-295l297 -2q100 0 100 -103q0 -100 -100 -100h-598v-307l598 -2h6q97 0 96 -97q3 -98 -98 -98h-700q-101 0 -101 100zM311 1604q0 23 17 59q31 66 86 78q8 2 22 2q10 0 31 -4 l291 -111q57 -18 57 -65l-2 -21q0 -27 -14 -57q-31 -68 -86 -80q-8 -2 -25 -2q-8 0 -28 4l-287 111q-59 18 -59 67z" />
<glyph unicode="&#xe9;" d="M100 100v504q0 102 101 103v397q0 98 100 98l598 2q100 0 100 -104q0 -96 -100 -96h-299v-295l297 -2q100 0 100 -103q0 -100 -100 -100h-598v-307l598 -2h6q97 0 96 -97q3 -98 -98 -98h-700q-101 0 -101 100zM395 1563q0 47 60 65l291 111q20 4 28 4q16 0 25 -2 q55 -12 86 -78q14 -31 14 -59l-2 -19q0 -49 -57 -67l-287 -111q-20 -4 -31 -4q-14 0 -22 2q-55 12 -86 80q-16 37 -16 57z" />
<glyph unicode="&#xea;" d="M100 100v504q0 102 101 103v397q0 98 100 98l598 2q100 0 100 -104q0 -96 -100 -96h-299v-295l297 -2q100 0 100 -103q0 -100 -100 -100h-598v-307l598 -2h6q97 0 96 -97q3 -98 -98 -98h-700q-101 0 -101 100zM396 1331q0 12 2 17v2l51 202l18 82l7 25q12 45 51 45h10 h188h11q39 0 51 -45l6 -25l72 -282q0 -2 1 -8.5t1 -10.5q0 -29 -29 -28h-152q-2 0 -5 -1t-5 -1q-39 0 -51 45l-51 204l-49 -204q-12 -45 -52 -45h-49q-26 -1 -26 28z" />
<glyph unicode="&#xeb;" d="M100 100v504q0 102 101 103v397q0 98 100 98l598 2q100 0 100 -104q0 -96 -100 -96h-299v-295l297 -2q100 0 100 -103q0 -100 -100 -100h-598v-307l598 -2h6q97 0 96 -97q3 -98 -98 -98h-700q-101 0 -101 100zM228 1634q0 68 86 68l90 -2q74 0 80 -68l2 -65 q-6 -68 -86 -68l-86 -2q-84 0 -84 68zM670 1565v69q0 68 86 68h88q76 0 82 -68l2 -67q-6 -68 -86 -68h-86q-86 0 -86 66z" />
<glyph unicode="&#xec;" horiz-adv-x="796" d="M201 1104q0 100 98 100h211q86 0 94 -100l-4 -1006q-10 -98 -94 -98h-205q-100 0 -100 98v1006zM75 1604q0 23 17 59q31 66 86 78q8 2 22 2q10 0 31 -4l291 -111q57 -18 57 -65l-2 -21q0 -27 -14 -57q-31 -68 -86 -80q-8 -2 -25 -2q-8 0 -28 4l-287 111q-59 18 -59 67z " />
<glyph unicode="&#xed;" horiz-adv-x="796" d="M201 1104q0 100 98 100h211q86 0 94 -100l-4 -1006q-10 -98 -94 -98h-205q-100 0 -100 98v1006zM251 1563q0 47 60 65l291 111q20 4 28 4q16 0 25 -2q55 -12 86 -78q14 -31 14 -59l-2 -19q0 -49 -57 -67l-287 -111q-20 -4 -31 -4q-14 0 -22 2q-55 12 -86 80 q-16 37 -16 57z" />
<glyph unicode="&#xee;" horiz-adv-x="796" d="M201 1104q0 100 98 100h211q86 0 94 -100l-4 -1006q-10 -98 -94 -98h-205q-100 0 -100 98v1006zM217.396 1331q0 12 1.59961 17v2l40.7988 202l14.4004 82l5.59961 25q9.59961 45 40.7998 45h8h150.397h8.7998q31.1992 0 40.7988 -45l4.80078 -25l57.5986 -282 q0 -2 0.799805 -8.5t0.799805 -10.5q0 -29 -23.1992 -28h-121.598q-1.60059 0 -4 -1q-2.40039 -1 -4 -1q-31.2002 0 -40.7998 45l-40.7998 204l-39.1992 -204q-9.59961 -45 -41.5986 -45h-39.2002q-20.7988 -1 -20.7988 28z" />
<glyph unicode="&#xef;" horiz-adv-x="796" d="M201 1104q0 100 98 100h211q86 0 94 -100l-4 -1006q-10 -98 -94 -98h-205q-100 0 -100 98v1006zM49 1634q0 68 86 68l90 -2q74 0 80 -68l2 -65q-6 -68 -86 -68l-86 -2q-84 0 -84 68zM491 1565v69q0 68 86 68h88q76 0 82 -68l2 -67q-6 -68 -86 -68h-86q-86 0 -86 66z" />
<glyph unicode="&#xf0;" horiz-adv-x="1138" />
<glyph unicode="&#xf1;" horiz-adv-x="1198" d="M98 98v1010q0 92 103 96h145q55 0 92 -63l262 -690v657q8 100 97 100h202q100 0 101 -100v-1012q0 -96 -99 -96h-270q-82 0 -106 66l-326 874v-848q0 -92 -100.5 -92t-100.5 98zM308 1331q0 12 2 17v2l51 202l18 82l7 25q12 45 51 45h10h170h8h14h9q39 0 51 -45l51 -207 l49 207q12 45 53 45h48q29 0 28 -31q0 -6 -4 -14v-2l-49 -205l-21 -82l-6 -22q-12 -45 -51 -45h-188q-10 0 -15 2l-4 -1l-4 -1q-39 0 -51 45l-51 204l-49 -204q-12 -45 -52 -45h-49q-26 -1 -26 28z" />
<glyph unicode="&#xf2;" d="M98 1108q0 100 101 100l700 -2q100 0 100 -98v-1010q0 -98 -100 -98h-700q-98 0 -99 98zM307 201h494v600l-494 2v-602zM251 1604q0 23 17 59q31 66 86 78q8 2 22 2q10 0 31 -4l291 -111q57 -18 57 -65l-2 -21q0 -27 -14 -57q-31 -68 -86 -80q-8 -2 -25 -2q-8 0 -28 4 l-287 111q-59 18 -59 67z" />
<glyph unicode="&#xf3;" d="M98 1108q0 100 101 100l700 -2q100 0 100 -98v-1010q0 -98 -100 -98h-700q-98 0 -99 98zM307 201h494v600l-494 2v-602zM382 1563q0 47 60 65l291 111q20 4 28 4q16 0 25 -2q55 -12 86 -78q14 -31 14 -59l-2 -19q0 -49 -57 -67l-287 -111q-20 -4 -31 -4q-14 0 -22 2 q-55 12 -86 80q-16 37 -16 57z" />
<glyph unicode="&#xf4;" d="M98 1108q0 100 101 100l700 -2q100 0 100 -98v-1010q0 -98 -100 -98h-700q-98 0 -99 98zM307 201h494v600l-494 2v-602zM318 1331q0 12 2 17v2l51 202l18 82l7 25q12 45 51 45h10h188h11q39 0 51 -45l6 -25l72 -282q0 -2 1 -8.5t1 -10.5q0 -29 -29 -28h-152q-2 0 -5 -1 t-5 -1q-39 0 -51 45l-51 204l-49 -204q-12 -45 -52 -45h-49q-26 -1 -26 28z" />
<glyph unicode="&#xf5;" d="M98 1108q0 100 101 100l700 -2q100 0 100 -98v-1010q0 -98 -100 -98h-700q-98 0 -99 98zM307 201h494v600l-494 2v-602zM250 1331q0 12 2 17v2l51 202l18 82l7 25q12 45 51 45h10h170h8h14h9q39 0 51 -45l51 -207l49 207q12 45 53 45h48q29 0 28 -31q0 -6 -4 -14v-2 l-49 -205l-21 -82l-6 -22q-12 -45 -51 -45h-188q-10 0 -15 2l-4 -1l-4 -1q-39 0 -51 45l-51 204l-49 -204q-12 -45 -52 -45h-49q-26 -1 -26 28z" />
<glyph unicode="&#xf6;" d="M98 1108q0 100 101 100l700 -2q100 0 100 -98v-1010q0 -98 -100 -98h-700q-98 0 -99 98zM307 201h494v600l-494 2v-602zM199 1634q0 68 86 68l90 -2q74 0 80 -68l2 -65q-6 -68 -86 -68l-86 -2q-84 0 -84 68zM641 1565v69q0 68 86 68h88q76 0 82 -68l2 -67q-6 -68 -86 -68 h-86q-86 0 -86 66z" />
<glyph unicode="&#xf7;" horiz-adv-x="1122" />
<glyph unicode="&#xf8;" horiz-adv-x="1249" />
<glyph unicode="&#xf9;" d="M98 1108q0 100 100.5 100t108.5 -100v-709h494v709q0 98 98 98q100 0 100 -98v-1010q0 -98 -100 -98h-700q-98 0 -99 98zM227 1604q0 23 17 59q31 66 86 78q8 2 22 2q10 0 31 -4l291 -111q57 -18 57 -65l-2 -21q0 -27 -14 -57q-31 -68 -86 -80q-8 -2 -25 -2q-8 0 -28 4 l-287 111q-59 18 -59 67z" />
<glyph unicode="&#xfa;" d="M98 1108q0 100 100.5 100t108.5 -100v-709h494v709q0 98 98 98q100 0 100 -98v-1010q0 -98 -100 -98h-700q-98 0 -99 98zM434 1563q0 47 60 65l291 111q20 4 28 4q16 0 25 -2q55 -12 86 -78q14 -31 14 -59l-2 -19q0 -49 -57 -67l-287 -111q-20 -4 -31 -4q-14 0 -22 2 q-55 12 -86 80q-16 37 -16 57z" />
<glyph unicode="&#xfb;" d="M98 1108q0 100 100.5 100t108.5 -100v-709h494v709q0 98 98 98q100 0 100 -98v-1010q0 -98 -100 -98h-700q-98 0 -99 98zM316 1331q0 12 2 17v2l51 202l18 82l7 25q12 45 51 45h10h188h11q39 0 51 -45l6 -25l72 -282q0 -2 1 -8.5t1 -10.5q0 -29 -29 -28h-152q-2 0 -5 -1 t-5 -1q-39 0 -51 45l-51 204l-49 -204q-12 -45 -52 -45h-49q-26 -1 -26 28z" />
<glyph unicode="&#xfc;" d="M98 1108q0 100 100.5 100t108.5 -100v-709h494v709q0 98 98 98q100 0 100 -98v-1010q0 -98 -100 -98h-700q-98 0 -99 98zM199 1634q0 68 86 68l90 -2q74 0 80 -68l2 -65q-6 -68 -86 -68l-86 -2q-84 0 -84 68zM641 1565v69q0 68 86 68h88q76 0 82 -68l2 -67 q-6 -68 -86 -68h-86q-86 0 -86 66z" />
<glyph unicode="&#xfd;" horiz-adv-x="1024" />
<glyph unicode="&#xfe;" horiz-adv-x="1138" />
<glyph unicode="&#xff;" d="M55 1100q0 55 62 86q33 16 55 16l160 2q49 0 80 -57l200 -406l222 410q31 57 79 57q27 0 56 -14q59 -31 59 -86q0 -31 -10 -53l-268 -527l-2 -430q-10 -98 -95 -98h-204q-100 0 -101 98v416l-280 533q-13 26 -13 53zM209 1634q0 68 86 68l90 -2q74 0 80 -68l2 -65 q-6 -68 -86 -68l-86 -2q-84 0 -84 68zM651 1565v69q0 68 86 68h88q76 0 82 -68l2 -67q-6 -68 -86 -68h-86q-86 0 -86 66z" />
<glyph unicode="&#x131;" horiz-adv-x="796" d="M201 1104q0 100 98 100h211q86 0 94 -100l-4 -1006q-10 -98 -94 -98h-205q-100 0 -100 98v1006z" />
<glyph unicode="&#x141;" horiz-adv-x="1138" />
<glyph unicode="&#x142;" horiz-adv-x="454" />
<glyph unicode="&#x152;" horiz-adv-x="2048" />
<glyph unicode="&#x153;" horiz-adv-x="1931" />
<glyph unicode="&#x160;" horiz-adv-x="1363" />
<glyph unicode="&#x161;" horiz-adv-x="1024" />
<glyph unicode="&#x178;" d="M55 1100q0 55 62 86q33 16 55 16l160 2q49 0 80 -57l200 -406l222 410q31 57 79 57q27 0 56 -14q59 -31 59 -86q0 -31 -10 -53l-268 -527l-2 -430q-10 -98 -95 -98h-204q-100 0 -101 98v416l-280 533q-13 26 -13 53zM211 1634q0 68 86 68l88 -2q76 0 82 -68v-65 q-6 -68 -84 -68l-86 -2q-86 0 -86 68v69zM653 1634q0 68 84 68h90q76 0 82 -68v-67q-6 -68 -84 -68h-86q-86 0 -86 66v69z" />
<glyph unicode="&#x17d;" horiz-adv-x="1249" />
<glyph unicode="&#x17e;" horiz-adv-x="1024" />
<glyph unicode="&#x192;" horiz-adv-x="1138" />
<glyph unicode="&#x2c6;" horiz-adv-x="1099" d="M328 1331q0 12 2 17v2l51 202l18 82l7 25q12 45 51 45h10h188h11q39 0 51 -45l6 -25l72 -282q0 -2 1 -8.5t1 -10.5q0 -29 -29 -28h-152q-2 0 -5 -1t-5 -1q-39 0 -51 45l-51 204l-49 -204q-12 -45 -52 -45h-49q-26 -1 -26 28z" />
<glyph unicode="&#x2c7;" horiz-adv-x="681" />
<glyph unicode="&#x2c9;" horiz-adv-x="681" />
<glyph unicode="&#x2d8;" horiz-adv-x="681" />
<glyph unicode="&#x2d9;" horiz-adv-x="681" />
<glyph unicode="&#x2da;" horiz-adv-x="681" />
<glyph unicode="&#x2db;" horiz-adv-x="681" />
<glyph unicode="&#x2dc;" horiz-adv-x="1099" d="M328 1331q0 12 2 17v2l51 202l18 82l7 25q12 45 51 45h10h170h8h14h9q39 0 51 -45l51 -207l49 207q12 45 53 45h48q29 0 28 -31q0 -6 -4 -14v-2l-49 -205l-21 -82l-6 -22q-12 -45 -51 -45h-188q-10 0 -15 2l-4 -1l-4 -1q-39 0 -51 45l-51 204l-49 -204q-12 -45 -52 -45 h-49q-26 -1 -26 28z" />
<glyph unicode="&#x2dd;" horiz-adv-x="681" />
<glyph unicode="&#x2000;" horiz-adv-x="870" />
<glyph unicode="&#x2001;" horiz-adv-x="1740" />
<glyph unicode="&#x2002;" horiz-adv-x="870" />
<glyph unicode="&#x2003;" horiz-adv-x="1740" />
<glyph unicode="&#x2004;" horiz-adv-x="579" />
<glyph unicode="&#x2005;" horiz-adv-x="434" />
<glyph unicode="&#x2006;" horiz-adv-x="288" />
<glyph unicode="&#x2007;" horiz-adv-x="288" />
<glyph unicode="&#x2008;" horiz-adv-x="215" />
<glyph unicode="&#x2009;" horiz-adv-x="346" />
<glyph unicode="&#x200a;" horiz-adv-x="94" />
<glyph unicode="&#x2010;" horiz-adv-x="696" d="M98 637q0 66 99 65l303 3q100 0 100 -68v-70q0 -59 -100 -65h-301q-100 6 -101 65v70z" />
<glyph unicode="&#x2011;" horiz-adv-x="696" d="M98 637q0 66 99 65l303 3q100 0 100 -68v-70q0 -59 -100 -65h-301q-100 6 -101 65v70z" />
<glyph unicode="&#x2012;" horiz-adv-x="696" d="M98 637q0 66 99 65l303 3q100 0 100 -68v-70q0 -59 -100 -65h-301q-100 6 -101 65v70z" />
<glyph unicode="&#x2013;" horiz-adv-x="1138" />
<glyph unicode="&#x2014;" horiz-adv-x="2048" />
<glyph unicode="&#x2018;" horiz-adv-x="350" d="M96 1221q0 84 51 84l54 2q51 0 51 -86v-187q0 -76 -51 -82h-51q-51 6 -52 84z" />
<glyph unicode="&#x2019;" horiz-adv-x="350" d="M96 1221q0 84 51 84l54 2q51 0 51 -86v-187q0 -76 -51 -82h-51q-51 6 -52 84z" />
<glyph unicode="&#x201a;" horiz-adv-x="454" />
<glyph unicode="&#x201c;" horiz-adv-x="583" d="M96 1221q0 84 51 84l54 2q51 0 51 -86v-187q0 -76 -51 -82h-51q-51 6 -52 84zM326 1221q0 86 51 86h53q51 0 51 -86v-187q0 -76 -53 -82h-49q-51 6 -51 86z" />
<glyph unicode="&#x201d;" horiz-adv-x="583" d="M96 1221q0 84 51 84l54 2q51 0 51 -86v-187q0 -76 -51 -82h-51q-51 6 -52 84zM326 1221q0 86 51 86h53q51 0 51 -86v-187q0 -76 -53 -82h-49q-51 6 -51 86z" />
<glyph unicode="&#x201e;" horiz-adv-x="681" />
<glyph unicode="&#x2020;" horiz-adv-x="1138" />
<glyph unicode="&#x2021;" horiz-adv-x="1138" />
<glyph unicode="&#x2022;" horiz-adv-x="716" />
<glyph unicode="&#x2026;" horiz-adv-x="2048" />
<glyph unicode="&#x202f;" horiz-adv-x="346" />
<glyph unicode="&#x2030;" horiz-adv-x="2048" />
<glyph unicode="&#x2039;" horiz-adv-x="681" />
<glyph unicode="&#x203a;" horiz-adv-x="681" />
<glyph unicode="&#x2044;" horiz-adv-x="339" />
<glyph unicode="&#x2215;" horiz-adv-x="339" />
<glyph unicode="&#x205f;" horiz-adv-x="434" />
<glyph unicode="&#x20ac;" d="M102 291v620q0 289 301 289l494 2q100 0 100 -90q0 -104 -100 -106l-295 -2q-102 0 -102 -93v-82l280 2q80 0 80 -77q0 -83 -80 -86h-280v-142h280q80 0 80 -77q0 -86 -80 -87h-280v-63q0 -92 102 -92h295q100 -2 100 -109q0 -98 -100 -98h-496q-299 0 -299 291z" />
<glyph unicode="&#x2122;" horiz-adv-x="2048" />
<glyph unicode="&#x2126;" horiz-adv-x="1572" />
<glyph unicode="&#x2202;" horiz-adv-x="1011" />
<glyph unicode="&#x2206;" horiz-adv-x="1251" />
<glyph unicode="&#x220f;" horiz-adv-x="1685" />
<glyph unicode="&#x2211;" horiz-adv-x="1458" />
<glyph unicode="&#x2212;" horiz-adv-x="1193" />
<glyph unicode="&#x221a;" horiz-adv-x="1122" />
<glyph unicode="&#x221e;" horiz-adv-x="1458" />
<glyph unicode="&#x222b;" horiz-adv-x="559" />
<glyph unicode="&#x2248;" horiz-adv-x="1122" />
<glyph unicode="&#x2260;" horiz-adv-x="1122" />
<glyph unicode="&#x2264;" horiz-adv-x="1122" />
<glyph unicode="&#x2265;" horiz-adv-x="1122" />
<glyph unicode="&#x25ca;" horiz-adv-x="1011" />
<glyph unicode="&#xe000;" horiz-adv-x="1210" d="M0 1210h1210v-1210h-1210v1210z" />
<glyph unicode="&#xf001;" horiz-adv-x="1024" />
<glyph unicode="&#xfb01;" horiz-adv-x="1024" />
<glyph unicode="&#xf002;" horiz-adv-x="1024" />
<glyph unicode="&#xfb02;" horiz-adv-x="1024" />
<glyph horiz-adv-x="1122" />
</font>
</defs>
</svg>
