<?xml version="1.0" standalone="no"?>
<!DOCTYPE svg PUBLIC "-//W3C//DTD SVG 1.1//EN" "http://www.w3.org/Graphics/SVG/1.1/DTD/svg11.dtd" >
<svg>
<metadata>
Created by FontForge 20090914 at Sun Feb  3 14:22:40 2013
 By www-data
Converted by ALLTYPE
</metadata>
<defs>
<font id="Trajan-Regular" horiz-adv-x="325" >
  <font-face 
    font-family="Trajan-Regular"
    font-weight="5"
    font-stretch="normal"
    units-per-em="1000"
    panose-1="0 0 0 0 0 0 0 0 0 0"
    ascent="800"
    descent="-200"
    x-height="751.998"
    cap-height="752.001"
    bbox="-69.002 -251.998 1517 964.004"
    underline-thickness="50"
    underline-position="-55"
    unicode-range="U+0020-U+F002"
  />
<missing-glyph 
 />
    <glyph glyph-name=".notdef" 
 />
    <glyph glyph-name="space" unicode=" " 
 />
    <glyph glyph-name="space" unicode="&#xa0;" 
 />
    <glyph glyph-name="exclam" unicode="!" horiz-adv-x="320" 
d="M160 -17c-14.667 0 -26.001 4.00098 -34.001 12.001s-13 17 -15 27c0 2 -0.166992 3.83301 -0.5 5.5s-0.5 3.5 -0.5 5.5c0 2.66699 0.166992 5.33398 0.5 8.00098s0.833008 5 1.5 7c3.33301 9.33301 8.83301 17.666 16.5 24.999s18.5 11 32.5 11
c14.667 0 26.834 -4.33301 36.501 -13s14.5 -20.334 14.5 -35.001s-4.83301 -27.167 -14.5 -37.5s-22.167 -15.5 -37.5 -15.5v0zM157.999 154.001c-4.66699 -0.666992 -7.83594 2.00293 -9.50293 8.00293s-3.16699 16.333 -4.5 31c0 2 -0.166992 4 -0.5 6s-0.5 4 -0.5 6
c-0.666992 7.33301 -1.66699 23.833 -3 49.5s-3 52.834 -5 81.501l-5.5 88.5c-1.66699 27 -2.5 42.5 -2.5 46.5s-0.5 15.667 -1.5 35s-2.16699 40 -3.5 62c-1.33301 19.333 -2.83301 37.666 -4.5 54.999s-3.5 29.666 -5.5 36.999c-0.666992 4 -1.5 7.5 -2.5 10.5
s-1.5 5.83301 -1.5 8.5c0 1.33301 0.166992 2.5 0.5 3.5s0.5 2.16699 0.5 3.5c0.666992 1.33301 1.33398 2.5 2.00098 3.5s1.33398 2.16699 2.00098 3.5c2 3.33301 4.16699 6.66602 6.5 9.99902s5.16602 7 8.49902 11c6 6.66699 12.833 13.334 20.5 20.001
s15.167 12.667 22.5 18c2.66699 2 5.33398 3.66699 8.00098 5l8 4c3.33301 2 6 3.33301 8 4s3.66699 1 5 1h1.5h0.5c2 0 3.5 -0.666992 4.5 -2s1.5 -4 1.5 -8c0 -2 -1 -8.83301 -3 -20.5s-4 -26.834 -6 -45.501c-1.33301 -10 -2.5 -20.333 -3.5 -31
s-1.83301 -22.334 -2.5 -35.001c0 -4.66699 -1.16699 -30 -3.5 -76s-5.16602 -96 -8.49902 -150c-2 -50.667 -4.16699 -97.334 -6.5 -140.001s-3.83301 -67 -4.5 -73v-4c0 -1.33301 -0.333008 -2.66602 -1 -3.99902c0 -6 -0.833008 -11.5 -2.5 -16.5s-4.5 -7.5 -8.5 -7.5v1z
" />
    <glyph glyph-name="quotedbl" unicode="&#x22;" horiz-adv-x="500" 
 />
    <glyph glyph-name="numbersign" unicode="#" horiz-adv-x="500" 
 />
    <glyph glyph-name="dollar" unicode="$" horiz-adv-x="558" 
d="M265 0l-7 -80.9941c-0.666992 -2.66699 -1.83398 -4.5 -3.50098 -5.5s-3.83398 -1.83301 -6.50098 -2.5l-19 -6c-2.66699 -0.666992 -4.5 -0.5 -5.5 0.5s-1.5 3.16699 -1.5 6.5v1.5v1.5l8 85c-8 0 -18.833 0.5 -32.5 1.5s-27.834 2.83301 -42.501 5.5
c-10 2 -19.833 4.33301 -29.5 7s-18.5 5.66699 -26.5 9c-3.33301 1.33301 -6.5 2.66602 -9.5 3.99902s-5.5 2.66602 -7.5 3.99902c-4.66699 3.33301 -7.66699 7 -9 11s-2 9.66699 -2 17c0 16.667 0.666992 32.667 2 48s2.66602 29 3.99902 41
c0.666992 6.66699 1.5 12.667 2.5 18s1.83301 9 2.5 11c1.33301 6 2.83301 10.667 4.5 14s3.83398 5 6.50098 5c2 0 3.33301 -0.833008 4 -2.5s1 -4.83398 1 -9.50098v-4.5v-5.5v-3v-3v-3.5v-3.5c0 -14.667 1.66699 -28.5 5 -41.5s10.333 -25.833 21 -38.5
c11.333 -13.333 25 -23.5 41 -30.5s32.667 -11.167 50 -12.5c2.66699 -0.666992 5.66699 -1 9 -1h9l29 321c-22.667 15.333 -43 30 -61 44s-33.667 27.667 -47 41c-20 20.667 -35.167 41.667 -45.5 63s-15.5 45.333 -15.5 72c0 48 15.167 86 45.5 114s63.833 47 100.5 57
c10 3.33301 20.333 5.66602 31 6.99902s20.667 2 30 2l7 81c0 2 0.5 3.66699 1.5 5s2.5 2.33301 4.5 3l23 8c0.666992 -0.666992 1.16699 -1 1.5 -1h1.5c1.33301 0 2.5 -0.333008 3.5 -1s1.5 -2 1.5 -4l-9 -90c24.667 -0.666992 47.334 -2.5 68.001 -5.5
s35.334 -6.16699 44.001 -9.5c3.33301 -1.33301 5.5 -3 6.5 -5s1.5 -5.33301 1.5 -10s-0.166992 -12.5 -0.5 -23.5s-0.5 -22.5 -0.5 -34.5c-0.666992 -12.667 -1.16699 -24.5 -1.5 -35.5s-0.833008 -18.833 -1.5 -23.5c-0.666992 -4 -1.66699 -6.66699 -3 -8s-3 -2 -5 -2
c-2.66699 0 -4.66699 1 -6 3s-2 6 -2 12s-0.166992 12 -0.5 18s-1.5 12 -3.5 18c-2 7.33301 -4.83301 14.666 -8.5 21.999s-9.16699 14.333 -16.5 21c-5.33301 5.33301 -12.166 10 -20.499 14s-16.833 7.33301 -25.5 10c-4.66699 1.33301 -9.5 2.5 -14.5 3.5
s-9.83301 1.5 -14.5 1.5l-29 -297c5.33301 -4 10.5 -7.66699 15.5 -11l15.5 -10c40 -27.333 74 -56.5 102 -87.5s42 -71.5 42 -121.5c0 -49.333 -13 -88.5 -39 -117.5s-54.667 -49.833 -86 -62.5c-16 -6.66699 -31.5 -11.334 -46.5 -14.001s-28.5 -4 -40.5 -4v0z
M295 335.006l-26 -297c42.667 1.33301 76 14.5 100 39.5s36 57.833 36 98.5c0 33.333 -9.83301 62.5 -29.5 87.5s-46.5 48.5 -80.5 70.5v1zM270 453.006l26.001 273c-6.66699 -0.666992 -15.667 -2 -27 -4s-23 -5.33301 -35 -10c-18.667 -8 -35.667 -20.333 -51 -37
s-23 -40.334 -23 -71.001c0 -20.667 4.5 -39.667 13.5 -57s22.167 -34 39.5 -50c8 -7.33301 16.667 -14.666 26 -21.999s19.666 -15 30.999 -23v1z" />
    <glyph glyph-name="percent" unicode="%" horiz-adv-x="870" 
d="M300 -4l-46.0029 -8.00098h-0.5h-1.5h-1.5h-0.5c-2.66699 0 -4.83398 0.666992 -6.50098 2s-2.16699 3 -1.5 5v0.5v1.5c0 0.666992 0.166992 1.16699 0.5 1.5l0.5 0.5l60.5 137.5l71.5 163.5c0.666992 2 1.33398 3.83301 2.00098 5.5s1.33398 3.5 2.00098 5.5l121 282.5
c36.667 86.333 56.334 132.833 59.001 139.5c-12.667 -0.666992 -28.5 -1.66699 -47.5 -3l-58.5 -4c-0.666992 0 -1.5 -0.166992 -2.5 -0.5s-2.16699 -0.5 -3.5 -0.5l-76 -5.5c-23.333 -1.66699 -38.666 -2.5 -45.999 -2.5h-0.5h-0.5h-0.5h-0.5v-1
c18 -13.333 33.333 -32.666 46 -57.999s19 -54 19 -86c0 -4 -0.166992 -7.83301 -0.5 -11.5s-0.5 -7.5 -0.5 -11.5c-4 -42 -20 -80.5 -48 -115.5s-69 -52.5 -123 -52.5c-48 0 -85.167 14 -111.5 42s-43.166 59 -50.499 93c-1.33301 7.33301 -2.33301 14.333 -3 21
s-1 13.334 -1 20.001v8c0 2.66699 0.333008 5.33398 1 8.00098c2.66699 44 18.5 84.333 47.5 121s72.167 55 129.5 55h20.5h21.5c35.333 1.33301 70.5 3 105.5 5s67.167 4.33301 96.5 7c35.333 2.66699 65.166 5.16699 89.499 7.5s39.833 3.5 46.5 3.5
c2 0 3.66699 -0.333008 5 -1s2 -1.66699 2 -3c0 -2.66699 -1 -6.33398 -3 -11.001l-8 -18l-294 -731c-0.666992 -2 -1.16699 -3.33301 -1.5 -4s-0.5 -1.66699 -0.5 -3c-1.33301 -1.33301 -2.5 -2.33301 -3.5 -3s-2.5 -1.33398 -4.5 -2.00098v0zM219.997 409.999
c38.667 -0.666992 65.999 13.834 81.999 43.501s24 64.5 24 104.5v8.5c0 3 -0.333008 6.16699 -1 9.5c-2.66699 36 -13 69.167 -31 99.5s-43.333 45.5 -76 45.5c-38 0 -65.167 -14.833 -81.5 -44.5s-24.5 -64.834 -24.5 -105.501v-8v-8
c2.66699 -36.667 12.834 -70.167 30.501 -100.5s43.5 -45.5 77.5 -45.5v1zM646.996 0c-48 0 -85.1709 13.833 -111.504 41.5s-43.166 58.5 -50.499 92.5c-1.33301 7.33301 -2.33301 14.333 -3 21s-1 13.334 -1 20.001v9.5c0 3 0.333008 5.83301 1 8.5
c2.66699 43.333 17.834 83 45.501 119s69.834 54 126.501 54c48 0 85.333 -14.333 112 -43s43.334 -60.334 50.001 -95.001c1.33301 -6.66699 2.33301 -13.167 3 -19.5s1 -12.5 1 -18.5c0 -4 -0.166992 -7.83301 -0.5 -11.5s-0.5 -7.5 -0.5 -11.5
c-4 -42 -19.833 -80.333 -47.5 -115s-69.167 -52 -124.5 -52v0zM650.992 28c38.667 -0.666992 66.165 13.832 82.498 43.499s24.5 64.5 24.5 104.5v8c0 2.66699 -0.333008 5.33398 -1 8.00098c-2 36.667 -12.167 70.167 -30.5 100.5s-44.166 45.5 -77.499 45.5
c-38 0 -65.167 -14.667 -81.5 -44s-24.5 -64.333 -24.5 -105v-8v-8c2.66699 -36.667 12.834 -70.167 30.501 -100.5s43.5 -45.5 77.5 -45.5v1z" />
    <glyph glyph-name="ampersand" unicode="&#x26;" horiz-adv-x="775" 
d="M293 -17c-64.667 0 -115.329 15.167 -151.996 45.5s-62.334 63.833 -77.001 100.5c-4.66699 12.667 -8.16699 25.334 -10.5 38.001s-3.5 24.667 -3.5 36c0 58.667 15.833 107.834 47.5 147.501s66.834 70.834 105.501 93.501
c-13.333 19.333 -23.666 37.166 -30.999 53.499s-12.333 32.833 -15 49.5c-1.33301 5.33301 -2.16602 11 -2.49902 17s-0.5 12 -0.5 18c0 8 0.833008 16.167 2.5 24.5s3.83398 16.5 6.50098 24.5c12.667 34 36.667 65 72 93s80 42 134 42c25.333 0 48.5 -2.33301 69.5 -7
s38.167 -10.667 51.5 -18c0.666992 -0.666992 1.5 -1.16699 2.5 -1.5s1.5 -0.833008 1.5 -1.5c4 -2.66699 6.5 -5.66699 7.5 -9s1.5 -7.66602 1.5 -12.999c0 -6 -0.166992 -13.667 -0.5 -23s-0.833008 -19 -1.5 -29c0 -8.66699 -0.333008 -17.334 -1 -26.001
s-1.33398 -16 -2.00098 -22c-0.666992 -3.33301 -1.16699 -6.33301 -1.5 -9s-0.5 -4.66699 -0.5 -6c-1.33301 -7.33301 -2.83301 -12 -4.5 -14s-3.5 -3 -5.5 -3c-2.66699 0 -4.33398 1.33301 -5.00098 4s-1 7.66699 -1 15c0 6.66699 -0.5 13.5 -1.5 20.5
s-2.5 14.5 -4.5 22.5c-2.66699 7.33301 -6 14.5 -10 21.5s-9 13.833 -15 20.5c-10.667 11.333 -24.5 21.5 -41.5 30.5s-36.5 13.5 -58.5 13.5c-2.66699 0 -5.5 -0.166992 -8.5 -0.5s-5.83301 -0.5 -8.5 -0.5c-27.333 -3.33301 -52.5 -15.166 -75.5 -35.499
s-34.5 -51.833 -34.5 -94.5c0 -8 0.666992 -16.167 2 -24.5s3 -16.5 5 -24.5c9.33301 -29.333 26.666 -60 51.999 -92s58.333 -70.333 99 -115c8 -8.66699 20.167 -21 36.5 -37l51.5 -50c1.33301 -0.666992 2.5 -1.5 3.5 -2.5l2.5 -2.5l56.5 -52.5
c17.667 -16.333 30.5 -27.833 38.5 -34.5c11.333 16 21.5 36 30.5 60s15.167 48.667 18.5 74c0.666992 5.33301 1.16699 10.666 1.5 15.999s0.5 10.666 0.5 15.999c0 4 -0.333008 8 -1 12s-1.66699 8.33301 -3 13c-1.33301 4 -3.16602 8 -5.49902 12s-5.5 8 -9.5 12
s-8.33301 7 -13 9s-9.66699 3.66699 -15 5c-3.33301 0.666992 -6.83301 1.16699 -10.5 1.5s-7.16699 0.5 -10.5 0.5c-2.66699 0 -5.33398 0.5 -8.00098 1.5s-4 2.83301 -4 5.5s1.66699 4.5 5 5.5s7 1.5 11 1.5c12 0 28 -0.333008 48 -1s44 -2.66699 72 -6
c7.33301 -0.666992 12.166 -2.83398 14.499 -6.50098s3.5 -8.16699 3.5 -13.5c0 -12 -1.16699 -24.5 -3.5 -37.5s-5.5 -25.833 -9.5 -38.5c-7.33301 -23.333 -16.666 -46.166 -27.999 -68.499s-23 -42.5 -35 -60.5l-11.5 -16.5c-3.66699 -5 -7.5 -9.83301 -11.5 -14.5
c33.333 -28 61.166 -49.5 83.499 -64.5s40.5 -26.5 54.5 -34.5c0.666992 -0.666992 1.33398 -1.16699 2.00098 -1.5l3 -1.5c8.66699 -4.66699 18.167 -9.33398 28.5 -14.001s21.166 -8.66699 32.499 -12c9.33301 -3.33301 18.5 -5.83301 27.5 -7.5s17.5 -2.5 25.5 -2.5
c4.66699 0 8.16699 -0.333008 10.5 -1s3.5 -2.66699 3.5 -6c0 -2 -1.66699 -3.5 -5 -4.5s-7.33301 -1.5 -12 -1.5h-98c-13.333 0 -25.5 0.333008 -36.5 1s-21.5 2 -31.5 4c-17.333 5.33301 -36.333 14.5 -57 27.5s-48.334 33.167 -83.001 60.5l-22 -21.5
c-10 -9.66699 -22.667 -19.5 -38 -29.5c-20.667 -14 -46.834 -26.833 -78.501 -38.5s-68.834 -17.5 -111.501 -17.5v0zM328.005 36c42 -0.666992 77.834 5.66797 107.501 19.001s53.5 28 71.5 44l5.5 5.5l4.5 4.5c-10.667 8.66699 -22.334 18.667 -35.001 30l-39 35
l-5.5 5.5l-5.5 5.5l-58 55c-18 17.333 -30.667 30 -38 38l-26.5 29l-33.5 38c-2 2 -3.83301 4 -5.5 6s-3.16699 4 -4.5 6l-26.5 32.5c-8.33301 10.333 -15.5 19.833 -21.5 28.5c-26 -16.667 -47.5 -38.834 -64.5 -66.501s-25.5 -61.5 -25.5 -101.5
c0 -62.667 19.333 -114.167 58 -154.5s86 -60.5 142 -60.5v1z" />
    <glyph glyph-name="quotesingle" unicode="'" horiz-adv-x="500" 
 />
    <glyph glyph-name="parenleft" unicode="(" horiz-adv-x="360" 
d="M137 369c0 -103.333 13.335 -187.663 40.002 -252.996s60.667 -122.333 102 -171c1.33301 -2 2.5 -3.5 3.5 -4.5s1.83301 -2.16699 2.5 -3.5c0.666992 -0.666992 1 -1.33398 1 -2.00098v-2c0 -2 -0.666992 -3.66699 -2 -5s-3 -2 -5 -2
c-0.666992 0 -1.83398 0.5 -3.50098 1.5s-3.5 2.16699 -5.5 3.5c-11.333 8 -23.333 18.167 -36 30.5s-25.667 26.166 -39 41.499c-33.333 39.333 -63.833 88.833 -91.5 148.5s-41.5 127.5 -41.5 203.5c0 68 12.167 131 36.5 189s51.166 107 80.499 147
c16.667 23.333 33 43.166 49 59.499s29.667 28.5 41 36.5l6 4c2 1.33301 3.66699 2 5 2c2 0 3.66699 -0.833008 5 -2.5s2 -3.5 2 -5.5c0 -1.33301 -0.666992 -3 -2 -5s-3 -4 -5 -6c-8 -8 -17 -18.833 -27 -32.5s-20.333 -29.834 -31 -48.501
c-21.333 -37.333 -40.833 -83.833 -58.5 -139.5s-26.5 -117.5 -26.5 -185.5v1z" />
    <glyph glyph-name="parenright" unicode=")" horiz-adv-x="360" 
d="M223 351c0 102.667 -13.333 186.498 -40 251.498s-60.667 122.167 -102 171.5c-1.33301 2 -2.5 3.5 -3.5 4.5s-1.83301 2.16699 -2.5 3.5c-0.666992 0.666992 -1 1.33398 -1 2.00098v2c0 2 0.666992 3.66699 2 5s3 2 5 2c1.33301 0 2.66602 -0.5 3.99902 -1.5
s3 -2.16699 5 -3.5c11.333 -8 23.333 -18.167 36 -30.5s25.667 -26.166 39 -41.499c33.333 -39.333 63.833 -88.833 91.5 -148.5s41.5 -127.167 41.5 -202.5c0 -68.667 -12.167 -132.167 -36.5 -190.5s-51.166 -107.5 -80.499 -147.5c-16.667 -22.667 -33 -42.167 -49 -58.5
s-29.667 -28.5 -41 -36.5l-6 -4c-2 -1.33301 -3.66699 -2 -5 -2c-2 0 -3.66699 0.833008 -5 2.5s-2 3.5 -2 5.5c0 1.33301 0.666992 3 2 5s3 4 5 6c8 8 17 18.833 27 32.5s20.333 29.5 31 47.5c21.333 37.333 40.833 83.833 58.5 139.5s26.5 117.5 26.5 185.5v1z" />
    <glyph glyph-name="asterisk" unicode="*" horiz-adv-x="350" 
d="M207 797c0 -8 -1.16504 -18.6641 -3.49805 -31.9971s-5.16602 -27.333 -8.49902 -42c-1.33301 -6 -2.83301 -11.667 -4.5 -17s-3.16699 -10.666 -4.5 -15.999c-0.666992 -4 -1.5 -7.66699 -2.5 -11s-2.16699 -6.66602 -3.5 -9.99902
c0 -0.666992 -0.166992 -1.33398 -0.5 -2.00098l-0.5 -1c0 -0.666992 0.166992 -1.33398 0.5 -2.00098s0.5 -1.33398 0.5 -2.00098c0.666992 -0.666992 1.33398 -1 2.00098 -1s1.66699 0.333008 3 1c10.667 2.66699 20.834 6.5 30.501 11.5l27.5 14.5
c9.33301 6 17.166 11.667 23.499 17s10.5 9.33301 12.5 12c2 1.33301 3.5 2.66602 4.5 3.99902s2.16699 2 3.5 2c0 0.666992 0.166992 1 0.5 1h1.5c1.33301 0 3.16602 -1.5 5.49902 -4.5s4.83301 -6.83301 7.5 -11.5c1.33301 -3.33301 2.83301 -6.66602 4.5 -9.99902
s3.16699 -7 4.5 -11c2 -4.66699 3.5 -9.33398 4.5 -14.001s1.5 -8.66699 1.5 -12c0 -2.66699 -0.833008 -4.5 -2.5 -5.5s-4.83398 -2.16699 -9.50098 -3.5c-0.666992 0 -5.66699 -0.166992 -15 -0.5s-20.333 -0.833008 -33 -1.5h-7h-8
c-10 -0.666992 -19.667 -1.16699 -29 -1.5s-17 -0.5 -23 -0.5c-0.666992 0 -1.33398 -0.166992 -2.00098 -0.5s-1.33398 -0.5 -2.00098 -0.5s-1 -0.166992 -1 -0.5s-0.333008 -0.5 -1 -0.5c-0.666992 -0.666992 -0.833984 -1.66699 -0.500977 -3
s0.833008 -2.66602 1.5 -3.99902c2 -4 5.83301 -8.66699 11.5 -14l17.5 -17c2.66699 -1.33301 5 -2.83301 7 -4.5s4 -3.5 6 -5.5c9.33301 -7.33301 18 -13.666 26 -18.999s13.333 -8.66602 16 -9.99902c1.33301 -0.666992 2.66602 -1.16699 3.99902 -1.5
s2.33301 -0.833008 3 -1.5c1.33301 -0.666992 2.33301 -1.5 3 -2.5s1 -2.16699 1 -3.5c0 -2.66699 -1 -5.83398 -3 -9.50098s-4.66699 -7.5 -8 -11.5c-2 -3.33301 -4.66699 -6.5 -8 -9.5s-6.66602 -5.83301 -9.99902 -8.5c-4 -3.33301 -8 -6 -12 -8s-7.33301 -3 -10 -3
c-2 0 -4.16699 1.16699 -6.5 3.5s-4.83301 5.83301 -7.5 10.5s-5.66699 10.834 -9 18.501l-11 24.5c-0.666992 2 -1.33398 3.83301 -2.00098 5.5s-1.33398 3.5 -2.00098 5.5c-4 9.33301 -7.66699 18.333 -11 27s-6 16 -8 22c0 0.666992 -0.166992 1.16699 -0.5 1.5l-0.5 0.5
l-1.5 3c-0.333008 0.666992 -0.833008 1 -1.5 1h-0.5h-1.5l-1.5 -1.5c-0.333008 -0.333008 -0.5 -0.833008 -0.5 -1.5c-1.33301 -2 -3.83301 -6.83301 -7.5 -14.5l-11.5 -24.5c0 -0.666992 -0.166992 -1.33398 -0.5 -2.00098l-0.5 -1l-11 -24.5
c-3.33301 -7.66699 -5.66602 -13.167 -6.99902 -16.5c0 -1.33301 -0.333008 -2.5 -1 -3.5s-1 -2.16699 -1 -3.5c-1.33301 -2.66699 -2.33301 -5.33398 -3 -8.00098s-1 -5.33398 -1 -8.00098c0 -1.33301 -1 -2.5 -3 -3.5s-5 -1.5 -9 -1.5h-1.5h-1.5
c-14.667 0 -28.334 1.33301 -41.001 4s-19 5.66699 -19 9c0 2 0.5 4.16699 1.5 6.5s2.83301 5.5 5.5 9.5c2.66699 3.33301 8.5 9.33301 17.5 18s18.833 17.667 29.5 27l1.5 1.5l1.5 1.5l31 26.5c9.33301 8.33301 15.666 13.833 18.999 16.5
c1.33301 1.33301 2.16602 2.5 2.49902 3.5s0.5 1.83301 0.5 2.5c0 1.33301 -0.333008 2.16602 -1 2.49902s-1.66699 0.5 -3 0.5c-5.33301 1.33301 -11.833 2.5 -19.5 3.5s-15.834 1.5 -24.501 1.5c-10.667 0.666992 -21 1.16699 -31 1.5s-16.667 0.5 -20 0.5
c-1.33301 0 -2.66602 -0.166992 -3.99902 -0.5s-2.33301 -0.5 -3 -0.5l-3 -1.5c-0.666992 -0.333008 -1.33398 -0.5 -2.00098 -0.5c-2.66699 0 -4.66699 3.66699 -6 11s-2.33301 15.666 -3 24.999c-0.666992 6 -1.16699 11.833 -1.5 17.5s-0.5 10.167 -0.5 13.5
c0 2.66699 1 4.66699 3 6s4.33301 2 7 2c6 0 13.5 -2 22.5 -6s18.5 -9 28.5 -15c3.33301 -1.33301 6.5 -3.16602 9.5 -5.49902s6.16699 -4.5 9.5 -6.5c10 -6.66699 19 -13 27 -19l16 -12c0.666992 -0.666992 1.33398 -1.16699 2.00098 -1.5s1.33398 -0.5 2.00098 -0.5
s1.33398 0.166992 2.00098 0.5s1.33398 0.5 2.00098 0.5c0.666992 1.33301 1 2.5 1 3.5v3.5v0v1v0v0c0 4 -1 10.5 -3 19.5s-4.33301 18.167 -7 27.5l-2 6l-2 6c-2 8.66699 -4.16699 16.5 -6.5 23.5s-4.16602 11.833 -5.49902 14.5c0 0.666992 -0.166992 1.16699 -0.5 1.5
s-0.5 0.833008 -0.5 1.5c-1.33301 2 -2.16602 3.66699 -2.49902 5s-0.5 2.33301 -0.5 3c0 1.33301 1.16699 3 3.5 5l8.5 7c3.33301 1.33301 7 3 11 5s8.33301 3.66699 13 5c5.33301 2 10.5 3.66699 15.5 5s9.16699 2 12.5 2c2.66699 0 4.66699 -0.833008 6 -2.5
s2 -4.5 2 -8.5v1z" />
    <glyph glyph-name="plus" unicode="+" horiz-adv-x="500" 
 />
    <glyph glyph-name="comma" unicode="," horiz-adv-x="250" 
d="M111 -2c0 10.667 -1.83398 19.832 -5.50098 27.499s-7.5 14.167 -11.5 19.5s-7.83301 9.83301 -11.5 13.5s-5.5 6.83398 -5.5 9.50098c0 10.667 4.66699 20.834 14 30.501s19.333 16.5 30 20.5c3.33301 0.666992 6.5 1.33398 9.5 2.00098s5.83301 1 8.5 1h1.5
c0.333008 0 0.833008 -0.333008 1.5 -1c2 -0.666992 4 -2.33398 6 -5.00098s5 -7 9 -13c6.66699 -10 11.167 -18.5 13.5 -25.5s3.5 -12.833 3.5 -17.5c0 -2.66699 -0.5 -6.33398 -1.5 -11.001s-2.16699 -9.33398 -3.5 -14.001c-0.666992 -2.66699 -1.5 -5.16699 -2.5 -7.5
s-1.83301 -4.5 -2.5 -6.5c-2.66699 -6.66699 -6.66699 -15.167 -12 -25.5s-11.666 -21.5 -18.999 -33.5c-4.66699 -8.66699 -9.83398 -17 -15.501 -25s-11.5 -15.333 -17.5 -22c-0.666992 -1.33301 -1.66699 -2.5 -3 -3.5s-2.33301 -1.83301 -3 -2.5
c-1.33301 -1.33301 -2.5 -2.16602 -3.5 -2.49902s-2.16699 -0.5 -3.5 -0.5h-0.5h-1.5c-1.33301 0.666992 -2.5 1.66699 -3.5 3s-1.5 2.66602 -1.5 3.99902c0 0.666992 0.333008 1.66699 1 3l2 4l0.5 0.5c0.333008 0.333008 0.5 0.833008 0.5 1.5
c0.666992 0.666992 1.16699 1.5 1.5 2.5s0.833008 1.83301 1.5 2.5c8.66699 14.667 14.834 27.834 18.501 39.501s5.5 22.167 5.5 31.5v0z" />
    <glyph glyph-name="hyphen" unicode="-" horiz-adv-x="390" 
d="M73 410l252 -0.00195312c8.66699 -0.666992 15.834 -1.66699 21.501 -3s8.5 -4 8.5 -8c0 -5.33301 -3 -9.16602 -9 -11.499s-12.333 -3.83301 -19 -4.5c-1.33301 0 -2.5 -0.166992 -3.5 -0.5s-2.16699 -0.5 -3.5 -0.5c-6.66699 -1.33301 -21.667 -3.66602 -45 -6.99902
l-75 -11c-2.66699 0 -5.33398 -0.166992 -8.00098 -0.5s-5.33398 -0.833008 -8.00098 -1.5l-62.5 -9.5c-19 -3 -32.167 -5.5 -39.5 -7.5c-3.33301 -0.666992 -6.5 -1.5 -9.5 -2.5s-5.83301 -2.16699 -8.5 -3.5c-5.33301 -2 -10 -4 -14 -6s-7 -3 -9 -3
s-3.66699 0.666992 -5 2s-1.66602 3.33301 -0.999023 6v3.5c0 1 0.333008 2.16699 1 3.5l15 57c1.33301 2.66699 3.33301 4.5 6 5.5s8 1.5 16 1.5v1z" />
    <glyph glyph-name="period" unicode="." horiz-adv-x="250" 
d="M124 0c-16 0 -28.3311 4.49805 -36.998 13.498s-14 18.833 -16 29.5c-0.666992 2 -1 3.83301 -1 5.5v5.5c0 2.66699 0.166992 5.33398 0.5 8.00098s0.833008 5.33398 1.5 8.00098c3.33301 10 9.16602 19 17.499 27s20.166 12 35.499 12s28.333 -4.66699 39 -14
s16 -22 16 -38s-5 -29.5 -15 -40.5s-23.667 -16.5 -41 -16.5v0z" />
    <glyph glyph-name="slash" unicode="/" horiz-adv-x="552" 
d="M55 -15l-31.9971 21.001c-0.666992 0 -1.33398 0.5 -2.00098 1.5s-1 1.83301 -1 2.5c0 1.33301 0.5 2.83301 1.5 4.5s1.83301 3.5 2.5 5.5l461 740c0.666992 0 1.16699 0.166992 1.5 0.5s0.5 0.833008 0.5 1.5c2 2 3.83301 3 5.5 3s3.83398 -0.666992 6.50098 -2l30 -17
c1.33301 -1.33301 2.16602 -2.5 2.49902 -3.5s0.5 -2.16699 0.5 -3.5v-2c0 -0.666992 -0.333008 -1.33398 -1 -2.00098l-464 -745c-0.666992 -1.33301 -1.33398 -2.33301 -2.00098 -3l-2 -2c-0.666992 -0.666992 -1.33398 -1 -2.00098 -1h-2h-0.5h-1.5
c-0.666992 0 -1.16699 0.166992 -1.5 0.5l-0.5 0.5v0z" />
    <glyph glyph-name="zero" unicode="0" horiz-adv-x="651" 
d="M64 352c0 118.667 23.1641 217.334 69.4971 296.001s112.833 118 199.5 118c74.667 0 130.834 -26.833 168.501 -80.5s62.834 -112.5 75.501 -176.5c3.33301 -19.333 5.83301 -38.5 7.5 -57.5s2.5 -37.167 2.5 -54.5c0 -118.667 -23.667 -217.334 -71 -296.001
s-113.666 -118 -198.999 -118c-73.333 0 -129 26.667 -167 80s-63 112 -75 176c-4 19.333 -6.83301 38.5 -8.5 57.5s-2.5 37.167 -2.5 54.5v1zM147.997 393c0 -10.667 0.165039 -20.834 0.498047 -30.501s0.833008 -19.5 1.5 -29.5c5.33301 -78.667 23 -150.667 53 -216
s74.667 -98 134 -98c49.333 0 89.333 30.167 120 90.5s46 141.833 46 244.5c0 11.333 -0.333008 22.833 -1 34.5l-2 34.5c-6.66699 76.667 -25.167 146.834 -55.5 210.501s-74.166 95.5 -131.499 95.5c-49.333 0 -89.166 -30.333 -119.499 -91s-45.5 -142.667 -45.5 -246v1z
" />
    <glyph glyph-name="one" unicode="1" horiz-adv-x="470" 
d="M293 486l0.00195312 -184.999c0 -50.667 0.166992 -96.334 0.5 -137.001s1.83301 -72 4.5 -94c2 -15.333 5.16699 -27.166 9.5 -35.499s14.5 -14.166 30.5 -17.499c3.33301 -0.666992 7.83301 -1.33398 13.5 -2.00098l17.5 -2c7.33301 -0.666992 14.333 -1.16699 21 -1.5
s11.334 -0.5 14.001 -0.5c2 0 3.83301 -0.833008 5.5 -2.5s2.5 -3.5 2.5 -5.5s-1.33301 -3.5 -4 -4.5s-7 -1.5 -13 -1.5c-18.667 0 -36.5 0.166992 -53.5 0.5s-31.833 0.5 -44.5 0.5c-13.333 0.666992 -24 1.16699 -32 1.5s-12.667 0.5 -14 0.5s-7 -0.166992 -17 -0.5
s-22.333 -0.833008 -37 -1.5h-28.5c-9.66699 0 -19.834 -0.333008 -30.501 -1h-20h-20c-5.33301 0 -9.33301 0.5 -12 1.5s-4 2.5 -4 4.5s0.833008 3.83301 2.5 5.5s3.5 2.5 5.5 2.5c3.33301 0 9 0.166992 17 0.5s16.333 0.833008 25 1.5c7.33301 0.666992 14.5 1.5 21.5 2.5
s12.5 1.83301 16.5 2.5c16.667 3.33301 27.667 9 33 17s8.33301 19.667 9 35c1.33301 22 2.16602 53.333 2.49902 94s0.5 86 0.5 136v176v36v35v2v2c-0.666992 12 -1 24.167 -1 36.5v39.5c0 10 -1 17.667 -3 23s-7 8 -15 8c-5.33301 0 -13.5 -2.16699 -24.5 -6.5
s-22.5 -9.16602 -34.5 -14.499c-1.33301 -1.33301 -2.83301 -2.33301 -4.5 -3s-3.5 -1.33398 -5.5 -2.00098l-25 -12l-20 -10l-4 -2l-4 -2h-2h-2c-1.33301 0 -2.5 0.666992 -3.5 2s-1.83301 3 -2.5 5v1v1c0 0.666992 0.166992 1.5 0.5 2.5s0.833008 1.83301 1.5 2.5l2.5 2.5
l2.5 2.5c1.33301 1.33301 12 8.5 32 21.5l65 43.5l63.5 42.5l32.5 21.5c4.66699 3.33301 9 6.16602 13 8.49902s7.66699 3.5 11 3.5c4 0 6.66699 -2 8 -6s2 -8 2 -12v-1.5v-1.5c0 -2 -0.333008 -9.5 -1 -22.5s-1 -30.833 -1 -53.5
c-0.666992 -22 -1.33398 -48.667 -2.00098 -80s-1 -66 -1 -104v1z" />
    <glyph glyph-name="two" unicode="2" horiz-adv-x="585" 
d="M417 0l-378.997 0.00878906c-3.33301 0 -6.5 1.16699 -9.5 3.5s-4.5 5.5 -4.5 9.5c0 1.33301 0.333008 2.66602 1 3.99902l2 4c1.33301 2 3 4.16699 5 6.5s4 4.16602 6 5.49902l2 2l2 2l120 109c37.333 34.667 70.666 69.334 99.999 104.001
c40 46 71.5 92.833 94.5 140.5s34.5 99.167 34.5 154.5c0 56 -11.833 97.667 -35.5 125s-49.834 45.333 -78.501 54c-7.33301 2 -14.833 3.5 -22.5 4.5s-15.167 1.5 -22.5 1.5c-24 0 -44.167 -3 -60.5 -9s-31.833 -15.667 -46.5 -29c-12 -11.333 -20.833 -25.5 -26.5 -42.5
s-8.5 -35.167 -8.5 -54.5c0 -4.66699 -0.833008 -8.33398 -2.5 -11.001s-3.83398 -4 -6.50098 -4c-2 0 -3.66699 1 -5 3s-2.33301 5.33301 -3 10c0 2 -0.333008 7.16699 -1 15.5s-1.33398 18.166 -2.00098 29.499c0 3.33301 -0.166992 6.83301 -0.5 10.5s-0.5 7.5 -0.5 11.5
c-0.666992 10.667 -1.16699 21 -1.5 31s-0.5 18.333 -0.5 25c0 1.33301 0.166992 2.66602 0.5 3.99902s0.833008 2.66602 1.5 3.99902l3 3c1.33301 1.33301 3 2.66602 5 3.99902c0.666992 0.666992 1.5 1.16699 2.5 1.5s2.16699 0.833008 3.5 1.5c18.667 8 42 15.333 70 22
s61.333 10 100 10c75.333 0 131.833 -20.333 169.5 -61s56.5 -87.667 56.5 -141c0 -71.333 -22.333 -139.5 -67 -204.5s-93.667 -123.167 -147 -174.5c-24 -23.333 -47.5 -44.833 -70.5 -64.5l-63.5 -54.5l-1.5 -1.5l-0.5 -0.5c-0.666992 -0.666992 -1 -1.16699 -1 -1.5
v-1.5c0 -0.666992 0.5 -1.16699 1.5 -1.5s2.16699 -0.5 3.5 -0.5l73 1c4.66699 -0.666992 15.834 -0.833984 33.501 -0.500977s36.5 0.5 56.5 0.5l46.5 2c15 0.666992 26.5 1.33398 34.5 2.00098c36.667 3.33301 63.834 13.5 81.501 30.5s29.5 38.833 35.5 65.5
c1.33301 5.33301 3 9.16602 5 11.499s4.33301 3.5 7 3.5c2 0 3.33301 -1 4 -3s1.33398 -4.33301 2.00098 -7v-2.5v-2.5c0 -5.33301 -1.33301 -14.833 -4 -28.5s-6 -27.834 -10 -42.501c-0.666992 -2.66699 -1.33398 -5.16699 -2.00098 -7.5s-1.33398 -4.83301 -2.00098 -7.5
c-2 -8.66699 -4 -16.834 -6 -24.501s-4 -14.5 -6 -20.5c-4 -13.333 -10.5 -21.5 -19.5 -24.5s-24.167 -4.5 -45.5 -4.5v0z" />
    <glyph glyph-name="three" unicode="3" horiz-adv-x="590" 
d="M423 203c0 45.333 -11.8311 81.5088 -35.498 108.509s-49.5 47.167 -77.5 60.5c-12.667 6 -25.334 11 -38.001 15s-24 7 -34 9c-2.66699 0.666992 -5.16699 1.16699 -7.5 1.5s-4.16602 0.833008 -5.49902 1.5c-4.66699 1.33301 -8 2.66602 -10 3.99902s-3 3.33301 -3 6
c0 3.33301 2.16699 6 6.5 8s9.83301 3.33301 16.5 4c8.66699 1.33301 19 4.16602 31 8.49902s24.333 10.166 37 17.499c22.667 12.667 43.5 31.167 62.5 55.5s28.5 55.166 28.5 92.499c0 7.33301 -1 16 -3 26s-5.33301 20.333 -10 31c-8.66699 20 -23.167 38 -43.5 54
s-49.5 24 -87.5 24c-36.667 0 -66.834 -10 -90.501 -30s-35.5 -49.333 -35.5 -88c0 -4 -0.5 -6.83301 -1.5 -8.5s-2.16699 -2.83398 -3.5 -3.50098h-1.5h-0.5c-1.33301 0 -2.66602 0.666992 -3.99902 2s-2.33301 4.33301 -3 9c-0.666992 6 -1.33398 12.333 -2.00098 19
l-2 20c-0.666992 12 -1.33398 23.333 -2.00098 34s-1 19.667 -1 27c0 2.66699 0.166992 4.83398 0.5 6.50098s1.16602 3.5 2.49902 5.5c0.666992 1.33301 1.83398 2.66602 3.50098 3.99902l6.5 5c2.66699 1.33301 5.5 2.66602 8.5 3.99902s6.16699 2.66602 9.5 3.99902
c16.667 6.66699 37.167 12.667 61.5 18s51.833 8 82.5 8c54.667 0 96 -9.33301 124 -28s47.667 -39 59 -61c5.33301 -11.333 9.16602 -22.166 11.499 -32.499s3.5 -19.833 3.5 -28.5c0 -29.333 -7.5 -55.666 -22.5 -78.999s-31.167 -43 -48.5 -59
c-12.667 -10.667 -24.667 -19.667 -36 -27s-20.333 -12.333 -27 -15v-4c8.66699 -2.66699 18 -6 28 -10s20 -8.66699 30 -14c26.667 -15.333 51.167 -36.833 73.5 -64.5s33.5 -62.5 33.5 -104.5c0 -70 -27.5 -130.167 -82.5 -180.5s-127.167 -75.5 -216.5 -75.5
c-6.66699 0 -13.834 0.333008 -21.501 1l-22.5 2c-16 2.66699 -31.167 5.66699 -45.5 9s-25.166 7 -32.499 11c-2 1.33301 -3.83301 2.66602 -5.5 3.99902s-2.83398 2.33301 -3.50098 3c-3.33301 3.33301 -5.33301 6.66602 -6 9.99902s-1 7 -1 11v15v15
c0.666992 14.667 1.5 28.834 2.5 42.501s1.83301 25.5 2.5 35.5c0.666992 3.33301 1.16699 6.5 1.5 9.5s0.5 5.5 0.5 7.5c0.666992 5.33301 1.5 9.16602 2.5 11.499s2.83301 3.5 5.5 3.5s4.33398 -1 5.00098 -3s1.33398 -5.66699 2.00098 -11
c3.33301 -38.667 16 -70.834 38 -96.501s59.333 -38.5 112 -38.5c50.667 0 93.5 14.667 128.5 44s52.5 73.666 52.5 132.999v1z" />
    <glyph glyph-name="four" unicode="4" horiz-adv-x="637" 
d="M455 600l-0.00292969 -320.998h76c6.66699 -0.666992 12.334 -0.5 17.001 0.5s8.66699 2.5 12 4.5c3.33301 1.33301 6 2.5 8 3.5s3.33301 1.5 4 1.5c2 0 3.33301 -0.833008 4 -2.5s1 -3.5 1 -5.5v-2v-2c0 -1.33301 -0.5 -4.33301 -1.5 -9s-1.83301 -9.33398 -2.5 -14.001
c-0.666992 -2 -1.16699 -3.83301 -1.5 -5.5s-0.833008 -3.16699 -1.5 -4.5c0 -1.33301 -0.166992 -2.5 -0.5 -3.5s-0.833008 -2.16699 -1.5 -3.5c0 -0.666992 -0.166992 -1.16699 -0.5 -1.5l-1.5 -1.5c-2 -4 -4.33301 -6.66699 -7 -8s-6.66699 -2 -12 -2l-92 1v-15v-18
c0 -8 -0.166992 -16.5 -0.5 -25.5s-0.166016 -18.167 0.500977 -27.5c0 -12.667 0.166992 -25 0.5 -37s0.833008 -22.667 1.5 -32c1.33301 -14.667 4.83301 -26.5 10.5 -35.5s16.5 -15.5 32.5 -19.5c2.66699 -0.666992 5.5 -1.16699 8.5 -1.5s5.83301 -0.833008 8.5 -1.5
c5.33301 0 10.333 -0.166992 15 -0.5s8.66699 -0.5 12 -0.5c2.66699 0 4.83398 -0.833008 6.50098 -2.5s2.5 -3.5 2.5 -5.5s-1.33301 -3.5 -4 -4.5s-6.66699 -1.5 -12 -1.5h-11.5h-11.5c-10 0 -20 0.166992 -30 0.5s-19.333 0.833008 -28 1.5c-12 0 -22 0.166992 -30 0.5
s-13 0.5 -15 0.5s-6.5 -0.166992 -13.5 -0.5s-15.833 -0.833008 -26.5 -1.5c-10.667 0 -22.5 -0.166992 -35.5 -0.5s-26.5 -0.5 -40.5 -0.5c-5.33301 0 -9.33301 0.5 -12 1.5s-4 2.5 -4 4.5s0.666992 3.83301 2 5.5s3.33301 2.5 6 2.5
c3.33301 0 7.66602 0.166992 12.999 0.5s11.333 0.5 18 0.5c2.66699 0.666992 5.33398 1.16699 8.00098 1.5s5.33398 0.5 8.00098 0.5c16.667 2.66699 27.667 9 33 19s8.66602 22.333 9.99902 37c0.666992 9.33301 1.16699 20 1.5 32s0.5 24.333 0.5 37
c0.666992 9.33301 0.833984 18.5 0.500977 27.5s-0.5 17.5 -0.5 25.5v18v14l-330 1c-6 -0.666992 -11 -0.166992 -15 1.5s-6 4.83398 -6 9.50098c0 3.33301 0.666992 6.66602 2 9.99902s3 6 5 8c0 0.666992 0.333008 1.16699 1 1.5s1 0.833008 1 1.5
c1.33301 2 22.166 28.167 62.499 78.5l132.5 166.5l124 157l69 89c2.66699 4 5.16699 7.33301 7.5 10s4.5 4.66699 6.5 6c1.33301 0.666992 2.5 1.16699 3.5 1.5s2.16699 0.5 3.5 0.5c3.33301 0 5.83301 -1.5 7.5 -4.5s2.5 -7.16699 2.5 -12.5v-22v-38
c-0.666992 -6.66699 -1 -13.334 -1 -20.001v-20v-26v-24v1zM378.997 279.002v354h-2c-4 -7.33301 -20 -28.833 -48 -64.5l-92 -116.5l-90 -113l-49 -61l281 1v0z" />
    <glyph glyph-name="five" unicode="5" horiz-adv-x="569" 
d="M189 687l-13.9932 -154.006c15.333 -2.66699 31.166 -6 47.499 -10s33.166 -9 50.499 -15c53.333 -18.667 102.333 -48 147 -88s67 -94 67 -162c0 -7.33301 -0.333008 -14.5 -1 -21.5s-1.66699 -14.167 -3 -21.5c-9.33301 -58 -38.5 -111.167 -87.5 -159.5
s-118.5 -72.5 -208.5 -72.5c-5.33301 0 -11 0.166992 -17 0.5s-12 0.833008 -18 1.5c-10 1.33301 -20 3.16602 -30 5.49902s-19 5.5 -27 9.5c-8.66699 4.66699 -14 9.33398 -16 14.001s-3 9.33398 -3 14.001v8v8v21.5v23.5c0 12 0.333008 23.833 1 35.5s1.66699 21.5 3 29.5
c1.33301 5.33301 2.66602 9.66602 3.99902 12.999s3 5 5 5c3.33301 0 5.5 -1.33301 6.5 -4s1.5 -7 1.5 -13c0 -53.333 13.667 -88.166 41 -104.499s59.333 -24.5 96 -24.5c3.33301 0 6.66602 0.166992 9.99902 0.5s6.66602 0.5 9.99902 0.5
c39.333 4 75.166 21.333 107.499 52s48.5 77.667 48.5 141c0 51.333 -15 94.333 -45 129s-63.333 61.334 -100 80.001c-20 10.667 -39.667 18.834 -59 24.501s-36 8.83398 -50 9.50098c-10 0.666992 -17 2.5 -21 5.5s-5.66699 7.16699 -5 12.5l23 256
c0.666992 4.66699 2.66699 7.83398 6 9.50098s7.66602 2.5 12.999 2.5l235 1c14 -0.666992 25.667 -0.666992 35 0s17 1.66699 23 3c6 0.666992 10.5 1.33398 13.5 2.00098s5.5 1 7.5 1s3.66699 -0.666992 5 -2s2 -4 2 -8c0 -4.66699 -0.833008 -17.667 -2.5 -39
s-5.16699 -50.333 -10.5 -87v-1.5c0 -0.333008 -0.333008 -0.5 -1 -0.5c-0.666992 -2 -1.5 -4 -2.5 -6s-2.5 -3 -4.5 -3s-3.5 1.33301 -4.5 4s-1.5 5.66699 -1.5 9c0 19.333 -4.83301 34.833 -14.5 46.5s-34.167 17.5 -73.5 17.5l-189 1v0z" />
    <glyph glyph-name="six" unicode="6" horiz-adv-x="603" 
d="M461 195c0 52 -10.6758 94.498 -32.0088 127.498s-45 55.833 -71 68.5c-8 4.66699 -16.167 8 -24.5 10s-16.166 3 -23.499 3c-12.667 0 -25.5 -0.833008 -38.5 -2.5s-25.167 -5.16699 -36.5 -10.5c-0.666992 0 -1.5 -0.166992 -2.5 -0.5s-1.83301 -0.833008 -2.5 -1.5
h-0.5h-0.5c-1.33301 -0.666992 -2.66602 -1.16699 -3.99902 -1.5s-2.33301 -0.5 -3 -0.5c-1.33301 0 -2.33301 0.666992 -3 2s-1 3.33301 -1 6c0 2 0.333008 3.5 1 4.5s1.66699 2.16699 3 3.5c0.666992 0.666992 1.5 1.33398 2.5 2.00098s1.83301 1.33398 2.5 2.00098
c2.66699 2 5.5 3.83301 8.5 5.5s6.5 3.5 10.5 5.5c10.667 6 24.334 11.5 41.001 16.5s35.334 7.5 56.001 7.5c57.333 0 101.833 -16 133.5 -48s52.167 -67 61.5 -105c2 -8.66699 3.5 -17.167 4.5 -25.5s1.5 -16.5 1.5 -24.5c0 -39.333 -6.5 -75.5 -19.5 -108.5
s-30.5 -60.167 -52.5 -81.5c-23.333 -22.667 -48.666 -39.334 -75.999 -50.001s-59.666 -16 -96.999 -16c-70 0 -126.667 25.167 -170 75.5s-65 120.833 -65 211.5c0 11.333 0.5 22.833 1.5 34.5s2.5 23.167 4.5 34.5c15.333 86.667 54.5 169 117.5 247
s137.167 135.667 222.5 173c4.66699 2 8.83398 3.66699 12.501 5s6.5 2 8.5 2s3.83301 -0.666992 5.5 -2s2.5 -3.66602 2.5 -6.99902c0 -2.66699 -0.833008 -5 -2.5 -7s-4.16699 -3.66699 -7.5 -5c-1.33301 -1.33301 -2.66602 -2.33301 -3.99902 -3s-3 -1.66699 -5 -3
c-5.33301 -2.66699 -10.666 -5.66699 -15.999 -9l-17 -11c-58.667 -39.333 -112.667 -96.833 -162 -172.5s-74 -167.834 -74 -276.501c0 -6 0.166992 -12.167 0.5 -18.5s0.833008 -12.833 1.5 -19.5c4.66699 -53.333 20.5 -102 47.5 -146s66.167 -66 117.5 -66
c40 0 73.833 15.333 101.5 46s41.5 73.334 41.5 128.001v1z" />
    <glyph glyph-name="seven" unicode="7" horiz-adv-x="550" 
d="M176 750l324.003 -0.00195312c6.66699 -0.666992 11.334 -1.83398 14.001 -3.50098s4 -4.16699 4 -7.5c0 -2 -0.333008 -4.66699 -1 -8s-2.33398 -7 -5.00098 -11c-14.667 -21.333 -31.5 -50.5 -50.5 -87.5s-38.5 -77.833 -58.5 -122.5l-24.5 -56l-24.5 -59
c-26 -63.333 -48.667 -124 -68 -182s-31 -103 -35 -135c-0.666992 -2.66699 -1 -5.33398 -1 -8.00098v-7v-5.5c0 -1.66699 0.333008 -3.16699 1 -4.5v-4.5v-5.5c0 -3.33301 -2 -7.16602 -6 -11.499s-9.33301 -8.83301 -16 -13.5c-4 -3.33301 -8.5 -6.5 -13.5 -9.5
s-10.167 -5.83301 -15.5 -8.5c-10 -4.66699 -19.333 -8.66699 -28 -12s-15 -5 -19 -5c-2.66699 0 -4.83398 0.833008 -6.50098 2.5s-2.5 4.16699 -2.5 7.5c0 2 0.166992 4.33301 0.5 7s0.833008 5.33398 1.5 8.00098c0 3.33301 0.5 6.5 1.5 9.5s1.83301 5.83301 2.5 8.5
c18.667 63.333 52.5 152.833 101.5 268.5s109.167 236.834 180.5 363.501l8 14l8 14l-246 1c-6 -0.666992 -12.333 -1.16699 -19 -1.5s-13.334 -1.16602 -20.001 -2.49902c-10 -2 -19.667 -4.66699 -29 -8s-17.666 -8 -24.999 -14c-8 -6.66699 -15 -15.334 -21 -26.001
s-10.667 -21.667 -14 -33c-0.666992 -3.33301 -1.33398 -6.5 -2.00098 -9.5s-1 -5.83301 -1 -8.5c-0.666992 -4.66699 -1.66699 -8.16699 -3 -10.5s-3.33301 -3.5 -6 -3.5s-4.33398 1.33301 -5.00098 4s-1 6.66699 -1 12c0 7.33301 0.666992 18 2 32l4 44
c0.666992 2 1 4 1 6s0.333008 4 1 6c1.33301 17.333 2.83301 32.833 4.5 46.5s2.5 21.834 2.5 24.501c0 5.33301 1 9 3 11s4.33301 3 7 3c1.33301 0 4 -0.5 8 -1.5s9.66699 -2.16699 17 -3.5c8 -1.33301 17.667 -2.5 29 -3.5s25 -1.5 41 -1.5v1z" />
    <glyph glyph-name="eight" unicode="8" horiz-adv-x="625" 
d="M80 177c0 55.333 18.334 101.665 55.001 138.998s77.667 65 123 83c-38.667 23.333 -71.667 49.333 -99 78s-41 65.334 -41 110.001c0 8 0.666992 16.167 2 24.5s3.66602 16.833 6.99902 25.5c11.333 32 33.666 61.5 66.999 88.5s79 40.5 137 40.5
c52 0 95.5 -13.167 130.5 -39.5s52.5 -64.166 52.5 -113.499c0 -38.667 -9.83301 -71.5 -29.5 -98.5s-41.5 -48.833 -65.5 -65.5c-8 -6 -16.167 -11.333 -24.5 -16l-23.5 -13c9.33301 -4.66699 19.333 -10 30 -16s21.334 -12.667 32.001 -20
c28 -18.667 53.667 -42.667 77 -72s35 -66 35 -110c0 -58 -21.833 -109 -65.5 -153s-101.167 -66 -172.5 -66c-62.667 0 -116.167 17 -160.5 51s-66.5 81.333 -66.5 142v1zM315.001 20.999c46 -0.666992 83.001 14.332 111.001 44.999s42 68.334 42 113.001
c0 54.667 -18 96.5 -54 125.5s-76.667 55.167 -122 78.5c-36.667 -18 -68.334 -42.833 -95.001 -74.5s-40 -72.5 -40 -122.5c0 -44.667 14.667 -83.5 44 -116.5s67.333 -49.5 114 -49.5v1zM319.002 732.998c-36.667 -0.666992 -65.333 -10.8311 -86 -30.498
s-34 -41.5 -40 -65.5c-1.33301 -5.33301 -2.33301 -10.5 -3 -15.5s-1 -10.167 -1 -15.5c0 -40 13.167 -72.167 39.5 -96.5s58.833 -46.833 97.5 -67.5c2 -1.33301 3.83301 -2.33301 5.5 -3s3.5 -1.66699 5.5 -3c6 3.33301 12.333 7.16602 19 11.499
s13.667 9.16602 21 14.499c16.667 13.333 32 30.833 46 52.5s21 50.5 21 86.5c0 38 -11.167 69.333 -33.5 94s-52.833 37 -91.5 37v1z" />
    <glyph glyph-name="nine" unicode="9" horiz-adv-x="590" 
d="M297 767c70.667 -0.666992 126.499 -27.333 167.499 -80s61.5 -117 61.5 -193c0 -96.667 -22 -180.5 -66 -251.5s-92.667 -128.833 -146 -173.5c-24 -20.667 -47.5 -38.334 -70.5 -53.001s-44.167 -26.667 -63.5 -36c-2.66699 -1.33301 -5.5 -2.33301 -8.5 -3
s-5.5 -1 -7.5 -1s-3.83301 0.833008 -5.5 2.5s-2.5 4.16699 -2.5 7.5c0 2.66699 1 5.33398 3 8.00098s4.33301 4.66699 7 6c11.333 5.33301 22.833 12 34.5 20s23.5 17 35.5 27c50.667 41.333 97 97.5 139 168.5s63 154.167 63 249.5c0 87.333 -16.5 153.166 -49.5 197.499
s-71.5 66.5 -115.5 66.5c-44.667 0 -78.667 -15.667 -102 -47s-35 -66.666 -35 -105.999c0 -46.667 8 -83.5 24 -110.5s34 -47.5 54 -61.5c14.667 -10 28.834 -17 42.501 -21s23.5 -6 29.5 -6c19.333 0 34.666 1.5 45.999 4.5s20.333 6.16699 27 9.5
c1.33301 0.666992 2.5 1.33398 3.5 2.00098s2.16699 1.33398 3.5 2.00098c3.33301 2 6 3.5 8 4.5s3.66699 1.5 5 1.5s2.33301 -0.5 3 -1.5s1.33398 -2.16699 2.00098 -3.5v-1.5v-0.5v-2c0 -0.666992 -0.333008 -1.33398 -1 -2.00098
c0 -0.666992 -0.333008 -1.33398 -1 -2.00098l-2 -2c-9.33301 -10 -21 -18.5 -35 -25.5s-28.333 -12.167 -43 -15.5c-6.66699 -1.33301 -13.667 -2.5 -21 -3.5s-14.333 -1.5 -21 -1.5c-58 0 -102.667 15 -134 45s-52 63 -62 99c-2 8.66699 -3.5 17 -4.5 25s-1.5 16 -1.5 24
c0 69.333 22.667 125.5 68 168.5s102.333 64.5 171 64.5v1z" />
    <glyph glyph-name="colon" unicode=":" horiz-adv-x="250" 
d="M124 30c-16 -0.666992 -28.3311 3.66504 -36.998 12.998s-14 19.333 -16 30c-0.666992 2 -1 3.83301 -1 5.5v5.5c0 2.66699 0.166992 5.33398 0.5 8.00098s0.833008 5.33398 1.5 8.00098c3.33301 10 9.16602 19 17.499 27s20.166 12 35.499 12s28.333 -4.66699 39 -14
s16 -22 16 -38s-5 -29.667 -15 -41s-23.667 -17 -41 -17v1zM124.002 367.999c-16 -0.666992 -28.3311 3.66504 -36.998 12.998s-14 19.333 -16 30c-0.666992 2 -1 3.83301 -1 5.5v5.5c0 2.66699 0.166992 5.33398 0.5 8.00098s0.833008 5.33398 1.5 8.00098
c3.33301 10 9.16602 19 17.499 27s20.166 12 35.499 12s28.333 -4.66699 39 -14s16 -22 16 -38s-5 -29.667 -15 -41s-23.667 -17 -41 -17v1z" />
    <glyph glyph-name="semicolon" unicode=";" horiz-adv-x="250" 
d="M116 -2c0 10.667 -1.83398 19.832 -5.50098 27.499s-7.5 14.167 -11.5 19.5s-7.83301 9.83301 -11.5 13.5s-5.5 6.83398 -5.5 9.50098c0 10.667 4.66699 20.834 14 30.501s19.333 16.5 30 20.5c3.33301 0.666992 6.5 1.33398 9.5 2.00098s5.83301 1 8.5 1h1.5
c0.333008 0 0.833008 -0.333008 1.5 -1c2 -0.666992 4 -2.33398 6 -5.00098s5 -7 9 -13c6.66699 -10 11.167 -18.5 13.5 -25.5s3.5 -12.833 3.5 -17.5c0 -2.66699 -0.5 -6.33398 -1.5 -11.001s-2.16699 -9.33398 -3.5 -14.001c-0.666992 -2.66699 -1.5 -5.16699 -2.5 -7.5
s-1.83301 -4.5 -2.5 -6.5c-2.66699 -6.66699 -6.66699 -15.167 -12 -25.5s-11.666 -21.5 -18.999 -33.5c-4.66699 -8.66699 -9.83398 -17 -15.501 -25s-11.5 -15.333 -17.5 -22c-0.666992 -1.33301 -1.66699 -2.5 -3 -3.5s-2.33301 -1.83301 -3 -2.5
c-1.33301 -1.33301 -2.5 -2.16602 -3.5 -2.49902s-2.16699 -0.5 -3.5 -0.5h-0.5h-1.5c-1.33301 0.666992 -2.5 1.66699 -3.5 3s-1.5 2.66602 -1.5 3.99902c0 0.666992 0.333008 1.66699 1 3l2 4l0.5 0.5c0.333008 0.333008 0.5 0.833008 0.5 1.5
c0.666992 0.666992 1.16699 1.5 1.5 2.5s0.833008 1.83301 1.5 2.5c8.66699 14.667 14.834 27.834 18.501 39.501s5.5 22.167 5.5 31.5v0zM123.999 367.998c-16 -0.666992 -28.3311 3.66504 -36.998 12.998s-14 19.333 -16 30c-0.666992 2 -1 3.83301 -1 5.5v5.5
c0 2.66699 0.166992 5.33398 0.5 8.00098s0.833008 5.33398 1.5 8.00098c3.33301 10 9.16602 19 17.499 27s20.166 12 35.499 12s28.333 -4.66699 39 -14s16 -22 16 -38s-5 -29.667 -15 -41s-23.667 -17 -41 -17v1z" />
    <glyph glyph-name="less" unicode="&#x3c;" horiz-adv-x="500" 
 />
    <glyph glyph-name="equal" unicode="=" horiz-adv-x="500" 
 />
    <glyph glyph-name="greater" unicode="&#x3e;" horiz-adv-x="500" 
 />
    <glyph glyph-name="question" unicode="?" horiz-adv-x="488" 
d="M224 -17c-14.667 0 -26.001 4.00098 -34.001 12.001s-13 17 -15 27c0 2 -0.166992 3.83301 -0.5 5.5s-0.5 3.5 -0.5 5.5c0 2.66699 0.166992 5.33398 0.5 8.00098s0.833008 5 1.5 7c3.33301 9.33301 8.83301 17.666 16.5 24.999s18.5 11 32.5 11
c14.667 0 26.834 -4.33301 36.501 -13s14.5 -20.334 14.5 -35.001s-4.83301 -27.167 -14.5 -37.5s-22.167 -15.5 -37.5 -15.5v0zM222.999 733.001c-24.667 -0.666992 -45.168 -4.98926 -61.501 -12.9893s-28.5 -17 -36.5 -27c-12 -14.667 -20.5 -29.5 -25.5 -44.5
s-8.16699 -31.167 -9.5 -48.5c-0.666992 -4.66699 -1.5 -8.66699 -2.5 -12s-2.83301 -5 -5.5 -5s-4.5 0.833008 -5.5 2.5s-1.83301 4.16699 -2.5 7.5c-0.666992 4.66699 -1.33398 14 -2.00098 28l-2 44v23.5v21.5c0 1.33301 0.166992 2.66602 0.5 3.99902
s0.833008 2.66602 1.5 3.99902s1.66699 2.66602 3 3.99902s3.33301 2.66602 6 3.99902c2 1.33301 4.33301 2.66602 7 3.99902s5.66699 2.66602 9 3.99902c16 8 36.833 15.333 62.5 22s54.834 10 87.501 10c58 0 100.833 -13.333 128.5 -40s44.5 -56.334 50.5 -89.001
c0.666992 -4.66699 1.16699 -9.16699 1.5 -13.5s0.5 -8.83301 0.5 -13.5c0 -28.667 -4.33301 -54.167 -13 -76.5s-20.667 -43.833 -36 -64.5c-15.333 -21.333 -33.5 -43.5 -54.5 -66.5s-43.833 -49.5 -68.5 -79.5c-18 -22.667 -29.333 -39.334 -34 -50.001s-7 -20 -7 -28
v-1.5v-0.5c0 -7.33301 1.5 -15.333 4.5 -24s7.83301 -17.667 14.5 -27c3.33301 -4.66699 5.66602 -8.33398 6.99902 -11.001s2 -4.66699 2 -6v-1c0 -0.666992 -0.333008 -1 -1 -1c0 -1.33301 -0.666992 -2.5 -2 -3.5s-2.66602 -1.83301 -3.99902 -2.5
c-0.666992 0 -1.33398 -0.166992 -2.00098 -0.5s-1.33398 -0.5 -2.00098 -0.5c-2.66699 0 -6 1.5 -10 4.5s-8.33301 6.5 -13 10.5c-2 1.33301 -3.83301 3 -5.5 5s-3.5 4 -5.5 6c-1.33301 1.33301 -2.66602 2.83301 -3.99902 4.5s-2.66602 3.16699 -3.99902 4.5
c-8 10 -14.333 18.833 -19 26.5s-7.66699 15.167 -9 22.5c-0.666992 2 -1 3.83301 -1 5.5v4.5c0 7.33301 1.83301 15.166 5.5 23.499s9.16699 17.166 16.5 26.499l11.5 15l11.5 14c3.33301 4 6.83301 7.83301 10.5 11.5s7.16699 7.5 10.5 11.5
c4 5.33301 8.16699 10.5 12.5 15.5s8.5 10.167 12.5 15.5c26.667 33.333 46.334 62.833 59.001 88.5s21 50.5 25 74.5c1.33301 8 2.33301 15.833 3 23.5s1 15.5 1 23.5c0 6.66699 -0.5 14 -1.5 22s-2.83301 16 -5.5 24c-6 20.667 -17.667 39.667 -35 57s-42.333 26 -75 26v1
z" />
    <glyph glyph-name="at" unicode="@" horiz-adv-x="500" 
 />
    <glyph glyph-name="A" unicode="A" horiz-adv-x="700" 
d="M95 107l226.998 621.003c4.66699 12.667 8.33398 21.667 11.001 27s5.33398 8.66602 8.00098 9.99902c0 0.666992 0.333008 1 1 1h2h2c0.666992 0 1 -0.333008 1 -1c2.66699 -0.666992 5.33398 -3.5 8.00098 -8.5s6.33398 -13.833 11.001 -26.5
c4.66699 -11.333 19.667 -50.333 45 -117l83 -216l58.5 -151.5l46.5 -118.5c18 -44.667 34.167 -73.5 48.5 -86.5s26.833 -21.167 37.5 -24.5c7.33301 -2.66699 14.666 -4.33398 21.999 -5.00098s13.333 -1 18 -1c3.33301 0 5.83301 -0.333008 7.5 -1
s2.5 -2.33398 2.5 -5.00098s-2 -4.5 -6 -5.5s-8.66699 -1.5 -14 -1.5h-53c-28 0 -58.333 0.666992 -91 2h-6.5h-6.5h-4h-4c-6.66699 0.666992 -12 1.16699 -16 1.5s-6 1.83301 -6 4.5c0 2 0.666992 3.5 2 4.5s3 1.83301 5 2.5h0.5c0.333008 0 0.833008 0.333008 1.5 1
c1.33301 0.666992 2.83301 2.16699 4.5 4.5s2.16699 5.5 1.5 9.5v2v2c0 1.33301 -0.166992 2.66602 -0.5 3.99902s-0.833008 2.66602 -1.5 3.99902l-93 247c-0.666992 1.33301 -1.66699 2.5 -3 3.5s-3.33301 1.5 -6 1.5l-215 1c-2.66699 -0.666992 -4.66699 -1.66699 -6 -3
s-2.66602 -3.33301 -3.99902 -6l-60 -176c-4.66699 -13.333 -8.16699 -25.666 -10.5 -36.999s-3.5 -21.666 -3.5 -30.999c0 -8.66699 3.16699 -15.167 9.5 -19.5s13.166 -7.16602 20.499 -8.49902c1.33301 -0.666992 2.66602 -1 3.99902 -1h4l10 1
c3.33301 -0.666992 5.83301 -1.5 7.5 -2.5s2.5 -2.5 2.5 -4.5c0 -2.66699 -1.33301 -4.5 -4 -5.5s-6.33398 -1.5 -11.001 -1.5s-9.66699 0.166992 -15 0.5s-11 0.5 -17 0.5h-6h-6c-7.33301 0.666992 -14.166 1.16699 -20.499 1.5s-10.833 0.5 -13.5 0.5
s-7.83398 -0.166992 -15.501 -0.5s-16.834 -0.833008 -27.501 -1.5c-7.33301 0 -15 -0.166992 -23 -0.5s-16.333 -0.5 -25 -0.5h-10.5h-10.5c-6.66699 0 -11.5 0.5 -14.5 1.5s-4.5 2.83301 -4.5 5.5c0 2 0.833008 3.5 2.5 4.5s3.83398 1.5 6.50098 1.5h7
c2.66699 0 5.33398 0.333008 8.00098 1c2 0 4.16699 0.166992 6.5 0.5s4.5 0.5 6.5 0.5c23.333 3.33301 41 13.666 53 30.999s22.333 38.333 31 63v1zM234.998 328.003l191.001 0.00195312c2.66699 -0.666992 4.16699 -0.333984 4.5 0.999023s0.166016 3 -0.500977 5
l-95 271c-2.66699 6.66699 -5.16699 10 -7.5 10s-4.83301 -3.66699 -7.5 -11l-88 -269c-0.666992 -1.33301 -1 -2.33301 -1 -3v-2c0 -0.666992 0.5 -1.33398 1.5 -2.00098s1.83301 -1 2.5 -1v1z" />
    <glyph glyph-name="B" unicode="B" horiz-adv-x="687" 
d="M178 287l-0.00195312 175.998v150.5c0 25.667 -0.666992 46.167 -2 61.5v1.5v1.5c-0.666992 17.333 -3.83398 30.333 -9.50098 39s-16.834 14.667 -33.501 18c-2 0.666992 -4.66699 1.16699 -8 1.5s-6.66602 0.5 -9.99902 0.5c-2.66699 0.666992 -5.5 1 -8.5 1h-7.5
c-2 0 -3.83301 0.5 -5.5 1.5s-2.5 2.5 -2.5 4.5c0 3.33301 1.33301 5.5 4 6.5s6.66699 1.5 12 1.5h16.5h17.5c6.66699 -0.666992 13.167 -1 19.5 -1h18.5c10.667 -0.666992 19.834 -1.16699 27.501 -1.5s12.167 -0.5 13.5 -0.5c6 0 12.833 0.166992 20.5 0.5
s16.167 0.833008 25.5 1.5c9.33301 0 19.333 0.166992 30 0.5s21.667 0.5 33 0.5c54.667 0 96.167 -9.33301 124.5 -28s48.5 -39 60.5 -61c5.33301 -11.333 9.16602 -22.166 11.499 -32.499s3.5 -19.833 3.5 -28.5c0 -40.667 -9.83301 -74.667 -29.5 -102
s-41.167 -53.333 -64.5 -78c7.33301 -2 15 -4.66699 23 -8s16 -7.33301 24 -12c31.333 -16.667 60.166 -41 86.499 -73s39.5 -71.333 39.5 -118v-5.5v-5.5c-3.33301 -52 -26 -99.333 -68 -142s-104.333 -64 -187 -64c-5.33301 0 -14 0.333008 -26 1
s-24.667 1.33398 -38 2.00098h-4h-4c-14.667 0.666992 -28 1.33398 -40 2.00098s-19 1 -21 1c-1.33301 0 -5.83301 -0.166992 -13.5 -0.5s-16.5 -0.833008 -26.5 -1.5h-8h-9c-7.33301 0 -14.666 -0.166992 -21.999 -0.5s-13.666 -0.5 -18.999 -0.5s-9.33301 0.5 -12 1.5
s-4 2.83301 -4 5.5c0 1.33301 0.666992 2.66602 2 3.99902s3.33301 2 6 2c2 0 4.33301 0.166992 7 0.5s5.33398 0.5 8.00098 0.5c2.66699 0.666992 5.33398 1.16699 8.00098 1.5s5 0.833008 7 1.5c10 2 16.833 8 20.5 18s6.5 22.333 8.5 37
c2.66699 21.333 4.16699 50.833 4.5 88.5s0.5 80.5 0.5 128.5v1zM257.998 391.998l-0.00195312 -56.9971v-38.5v-40.5v-89c0 -27.333 0.333008 -43.666 1 -48.999c0 -2 0.166992 -4 0.5 -6s0.5 -4 0.5 -6c1.33301 -19.333 3.5 -33.333 6.5 -42s10.833 -16.334 23.5 -23.001
c0.666992 0 1.16699 -0.166992 1.5 -0.5s0.833008 -0.5 1.5 -0.5c5.33301 -2.66699 11.166 -4.83398 17.499 -6.50098s12.5 -3.16699 18.5 -4.5c10.667 -1.33301 20.667 -2.33301 30 -3s16.666 -1 21.999 -1c7.33301 0 15.333 0.666992 24 2s17.334 3.33301 26.001 6
c22.667 7.33301 43.5 21.333 62.5 42s28.5 51.334 28.5 92.001c0 13.333 -1.16699 27.666 -3.5 42.999s-6.16602 31 -11.499 47c-6.66699 20 -16.667 39.667 -30 59s-30.666 36.333 -51.999 51c-16.667 11.333 -31.667 18.666 -45 21.999s-26 5.66602 -38 6.99902
c-3.33301 0.666992 -8.66602 1.16699 -15.999 1.5s-15.333 0.5 -24 0.5h-22h-16c-2 0 -3.5 -0.5 -4.5 -1.5s-1.5 -2.83301 -1.5 -5.5v1zM257.996 709.001l0.000976562 -267.999c0 -4 0.5 -6.66699 1.5 -8s2.83301 -2.66602 5.5 -3.99902c1.33301 0 3 -0.166992 5 -0.5
s4.66699 -0.833008 8 -1.5c5.33301 -0.666992 11.833 -1.16699 19.5 -1.5s17.167 -0.5 28.5 -0.5c24 0 41.5 0.833008 52.5 2.5s20.833 6.5 29.5 14.5c1.33301 1.33301 2.83301 2.66602 4.5 3.99902s3.16699 3 4.5 5c10.667 12 19.334 26.667 26.001 44s10 36.333 10 57v8v8
c-2.66699 38.667 -14.334 74.334 -35.001 107.001s-54 49 -100 49c-3.33301 0 -7.83301 -0.166992 -13.5 -0.5s-11.5 -0.833008 -17.5 -1.5c-2.66699 0 -5.5 -0.333008 -8.5 -1s-5.83301 -1.33398 -8.5 -2.00098c-4.66699 -0.666992 -7.83398 -1.83398 -9.50098 -3.50098
s-2.5 -4.16699 -2.5 -7.5v1z" />
    <glyph glyph-name="C" unicode="C" horiz-adv-x="805" 
d="M515 -17c-74.667 0 -138.49 9.00195 -191.49 27.002s-99.167 44.667 -138.5 80c-28.667 25.333 -51.334 52.833 -68.001 82.5s-29 59.5 -37 89.5c-6 21.333 -10.167 42.5 -12.5 63.5s-3.5 41.167 -3.5 60.5c0 21.333 2.83301 47 8.5 77s16.167 61 31.5 93
c8 18 18 35.667 30 53s26 34 42 50c30 30 69.167 55.333 117.5 76s110.833 31 187.5 31c14 0 29.5 -0.333008 46.5 -1s34.5 -2 52.5 -4c8 -1.33301 15.833 -2.5 23.5 -3.5s15.167 -2.16699 22.5 -3.5l53.5 -9c16.333 -2.66699 32.5 -4.66699 48.5 -6
c5.33301 -0.666992 8.83301 -1.83398 10.5 -3.50098s2.5 -4.16699 2.5 -7.5c0 -2.66699 -0.333008 -6.5 -1 -11.5s-1.33398 -12.167 -2.00098 -21.5c-0.666992 -3.33301 -1.16699 -6.83301 -1.5 -10.5s-0.5 -7.83398 -0.5 -12.501c-0.666992 -6 -1 -12.5 -1 -19.5
s-0.333008 -14.167 -1 -21.5v-18.5v-17.5c0 -6 -0.166992 -11.167 -0.5 -15.5s-0.5 -7.83301 -0.5 -10.5c-0.666992 -7.33301 -1.5 -12.666 -2.5 -15.999s-3.16699 -5 -6.5 -5s-5.5 1.83301 -6.5 5.5s-1.5 8.83398 -1.5 15.501v5.5v5.5
c-1.33301 18 -5.66602 35.167 -12.999 51.5s-17 29.5 -29 39.5c-17.333 15.333 -44 28.666 -80 39.999s-76 17 -120 17c-58.667 0 -104.834 -6.33301 -138.501 -19s-59.834 -26.667 -78.501 -42c-2.66699 -2 -5 -4 -7 -6l-6 -6c-36.667 -34.667 -60.834 -74 -72.501 -118
s-17.5 -91.667 -17.5 -143c0 -95.333 33.5 -180.166 100.5 -254.499s153.833 -111.5 260.5 -111.5c37.333 0 70.666 3.16699 99.999 9.5s54 19.833 74 40.5c4.66699 5.33301 9 11.333 13 18s7.66699 13.667 11 21c3.33301 9.33301 6.16602 18 8.49902 26
s3.83301 14.333 4.5 19c1.33301 5.33301 2.66602 9.16602 3.99902 11.499s3.33301 3.5 6 3.5s4.5 -1.5 5.5 -4.5s1.5 -6.5 1.5 -10.5c0 -2 -1 -10.167 -3 -24.5s-4.33301 -29.833 -7 -46.5l-4 -20.5c-1.33301 -7 -2.66602 -13.5 -3.99902 -19.5
c-0.666992 -3.33301 -1.33398 -6.33301 -2.00098 -9l-2 -8c-0.666992 -2 -1.16699 -3.83301 -1.5 -5.5s-0.833008 -3.16699 -1.5 -4.5c-1.33301 -3.33301 -2.83301 -6 -4.5 -8s-4.16699 -4 -7.5 -6c-1.33301 -0.666992 -2.83301 -1.33398 -4.5 -2.00098
s-3.83398 -1.66699 -6.50098 -3c-14.667 -5.33301 -33.834 -9.83301 -57.501 -13.5s-47.834 -6.16699 -72.501 -7.5c-8.66699 0 -17.167 -0.166992 -25.5 -0.5s-16.5 -0.5 -24.5 -0.5v0z" />
    <glyph glyph-name="D" unicode="D" horiz-adv-x="917" 
d="M178 287l-0.00488281 176.002v150.5c0 25.667 -0.666992 46.167 -2 61.5v1.5v1.5c-0.666992 17.333 -3.83398 30.333 -9.50098 39s-16.834 14.667 -33.501 18c-2 0.666992 -4.66699 1.16699 -8 1.5s-6.66602 0.5 -9.99902 0.5c-2.66699 0.666992 -5.5 1 -8.5 1h-7.5
c-2 0 -3.83301 0.5 -5.5 1.5s-2.5 2.5 -2.5 4.5c0 3.33301 1.33301 5.5 4 6.5s6.66699 1.5 12 1.5h16.5h17.5c6.66699 -0.666992 13.167 -1 19.5 -1h18.5c10.667 -0.666992 19.834 -1.16699 27.501 -1.5s12.167 -0.5 13.5 -0.5c3.33301 0 9.33301 0.166992 18 0.5
s19.334 0.833008 32.001 1.5c10.667 0 22.5 0.166992 35.5 0.5s26.167 0.5 39.5 0.5h5h5h10h10c27.333 0 58.666 -0.666992 93.999 -2s71.666 -6.33301 108.999 -15c31.333 -7.33301 62.333 -18.666 93 -33.999s59 -36.333 85 -63c25.333 -26 47.833 -60 67.5 -102
s29.5 -92.667 29.5 -152c0 -62.667 -11 -118 -33 -166s-47 -86.667 -75 -116c-5.33301 -6 -11.666 -12.333 -18.999 -19s-15.666 -13.334 -24.999 -20.001c-26 -18.667 -60 -35.834 -102 -51.501s-94.333 -23.5 -157 -23.5c-11.333 0 -23 0.166992 -35 0.5
s-24 0.833008 -36 1.5l-35.5 2c-11.667 0.666992 -22.5 1.33398 -32.5 2.00098c-22 1.33301 -40.667 2.66602 -56 3.99902s-24.333 2 -27 2c-1.33301 0 -5.83301 -0.166992 -13.5 -0.5s-16.5 -0.833008 -26.5 -1.5h-8h-9c-7.33301 0 -14.666 -0.166992 -21.999 -0.5
s-13.666 -0.5 -18.999 -0.5s-9.33301 0.5 -12 1.5s-4 2.83301 -4 5.5c0 1.33301 0.666992 2.66602 2 3.99902s3.33301 2 6 2c2 0 4.33301 0.166992 7 0.5s5.33398 0.5 8.00098 0.5c2.66699 0.666992 5.33398 1.16699 8.00098 1.5s5 0.833008 7 1.5c10 2 16.833 8 20.5 18
s6.5 22.333 8.5 37c2.66699 21.333 4.16699 50.833 4.5 88.5s0.5 80.5 0.5 128.5v1zM261.995 479.002l0.000976562 -124.001c0 -53.333 0.166992 -100.666 0.5 -141.999s0.833008 -66.666 1.5 -75.999c0 -4 0.166992 -8.5 0.5 -13.5s0.833008 -10.167 1.5 -15.5
c0.666992 -10 1.66699 -19.5 3 -28.5s3.33301 -15.167 6 -18.5c0.666992 -0.666992 1.33398 -1.5 2.00098 -2.5s1.33398 -1.83301 2.00098 -2.5c8 -8.66699 24.167 -16.667 48.5 -24s63.5 -11 117.5 -11c46.667 0 90.667 8.16699 132 24.5s76.666 39.166 105.999 68.499
c24 23.333 42.667 54.666 56 93.999s21 80 23 122c0.666992 4 1 7.83301 1 11.5v11.5c0 50.667 -7.33301 94.334 -22 131.001s-30.667 66.667 -48 90c-4.66699 6 -9.16699 11.5 -13.5 16.5l-12.5 14.5c-46.667 49.333 -98 80.5 -154 93.5s-113.667 19.5 -173 19.5
c-4 0 -8.33301 -0.166992 -13 -0.5s-9.33398 -0.5 -14.001 -0.5c-8 -0.666992 -15.667 -1.5 -23 -2.5s-12.333 -2.16699 -15 -3.5c-4.66699 -2 -7.83398 -4.5 -9.50098 -7.5s-2.5 -7.16699 -2.5 -12.5c-0.666992 -12.667 -1 -32.667 -1 -60v-87v-33.5v-32.5v1z" />
    <glyph glyph-name="E" unicode="E" horiz-adv-x="610" 
d="M178 287l-0.00488281 176v150.5c0 25.667 -0.666992 46.167 -2 61.5v1.5v1.5c-0.666992 17.333 -3.83398 30.333 -9.50098 39s-16.834 14.667 -33.501 18c-2 0.666992 -4.66699 1.16699 -8 1.5s-6.66602 0.5 -9.99902 0.5c-2.66699 0.666992 -5.5 1 -8.5 1h-7.5
c-2 0 -3.83301 0.5 -5.5 1.5s-2.5 2.5 -2.5 4.5c0 3.33301 1.33301 5.5 4 6.5s6.66699 1.5 12 1.5h16.5h17.5c6.66699 -0.666992 13.167 -1 19.5 -1h18.5c10.667 -0.666992 19.834 -1.16699 27.501 -1.5s12.167 -0.5 13.5 -0.5h38.5h76.5c26 0 50.167 0.166992 72.5 0.5
s36.166 0.5 41.499 0.5c9.33301 0.666992 17.833 1.5 25.5 2.5s13.5 1.83301 17.5 2.5c1.33301 0 2.5 0.333008 3.5 1s1.83301 1 2.5 1c0 0.666992 0.166992 1 0.5 1h0.5c1.33301 0.666992 2.5 1.16699 3.5 1.5s2.16699 0.5 3.5 0.5s2.33301 -0.833008 3 -2.5
s1 -3.83398 1 -6.50098s-0.5 -6 -1.5 -10s-2.16699 -9.66699 -3.5 -17c-0.666992 -2.66699 -1.16699 -5.66699 -1.5 -9s-0.833008 -7 -1.5 -11c0 -2.66699 -0.333008 -7.16699 -1 -13.5s-1 -13.166 -1 -20.499c-0.666992 -6.66699 -1.16699 -13 -1.5 -19
s-0.833008 -10.333 -1.5 -13v-1.5v-0.5c-0.666992 -2 -1.5 -4 -2.5 -6s-2.5 -3 -4.5 -3c-2.66699 0 -4.66699 1.16699 -6 3.5s-2 5.5 -2 9.5c0 2.66699 -0.166992 6 -0.5 10s-0.833008 8.33301 -1.5 13c-0.666992 2 -1.33398 4.16699 -2.00098 6.5
s-1.33398 4.5 -2.00098 6.5c-3.33301 8 -9.16602 15 -17.499 21s-26.166 10.333 -53.499 13c-4 0.666992 -12.5 1.16699 -25.5 1.5s-27.167 0.5 -42.5 0.5c-16 0.666992 -30.833 1 -44.5 1h-24.5c-2 0 -3.5 -0.833008 -4.5 -2.5s-1.5 -4.16699 -1.5 -7.5v-275
c0 -4 0.333008 -6.83301 1 -8.5s2.33398 -2.5 5.00098 -2.5h29h52c16.667 0 32.5 0.166992 47.5 0.5s25.167 0.833008 30.5 1.5c12 1.33301 21.667 2.83301 29 4.5s13.333 4.83398 18 9.50098c3.33301 4 6.16602 7.16699 8.49902 9.5s4.5 3.5 6.5 3.5
c1.33301 0 2.5 -0.5 3.5 -1.5s1.5 -3.16699 1.5 -6.5c0 -2 -0.5 -5.66699 -1.5 -11s-2.16699 -12.333 -3.5 -21c-0.666992 -3.33301 -1.16699 -7 -1.5 -11s-0.833008 -8.33301 -1.5 -13c-0.666992 -3.33301 -1.16699 -7.33301 -1.5 -12s-0.5 -9.33398 -0.5 -14.001
c-0.666992 -8.66699 -1.16699 -16.667 -1.5 -24s-0.5 -12 -0.5 -14v-2.5v-2.5c0 -4 -0.5 -7.33301 -1.5 -10s-2.83301 -4 -5.5 -4s-4.5 0.833008 -5.5 2.5s-1.5 3.83398 -1.5 6.50098c0 5.33301 -0.166992 10.5 -0.5 15.5s-1.5 10.833 -3.5 17.5
c-0.666992 1.33301 -1.16699 2.66602 -1.5 3.99902s-0.833008 2.66602 -1.5 3.99902c-2.66699 6 -7.5 11.667 -14.5 17s-18.5 8.66602 -34.5 9.99902c-6 0.666992 -15.5 1.33398 -28.5 2.00098s-26.5 1 -40.5 1c-16.667 0.666992 -32 1.16699 -46 1.5s-23.333 0.5 -28 0.5
c-2.66699 0 -4.5 -0.666992 -5.5 -2s-1.5 -3 -1.5 -5v-87v-24v-32v-13.5v-13.5v-55v-34c1.33301 -34.667 8.83301 -57 22.5 -67s44.834 -15 93.501 -15h22.5c8.33301 0 16.833 0.333008 25.5 1s17.167 1.83398 25.5 3.50098s15.833 3.83398 22.5 6.50098
c13.333 5.33301 23.333 13.5 30 24.5s11.667 26.833 15 47.5c1.33301 5.33301 2.5 9.16602 3.5 11.499s2.83301 3.5 5.5 3.5s4.33398 -1.33301 5.00098 -4s1 -5.66699 1 -9v-0.5v-1.5c0 -2 -0.5 -8.16699 -1.5 -18.5s-2.5 -21.166 -4.5 -32.499
c0 -3.33301 -0.333008 -6.83301 -1 -10.5s-1 -7.16699 -1 -10.5c-1.33301 -4.66699 -2.33301 -9.33398 -3 -14.001s-1.33398 -8.33398 -2.00098 -11.001c-3.33301 -12.667 -8.33301 -20 -15 -22s-19.667 -3 -39 -3c-38 0 -70.833 0.333008 -98.5 1
s-51.167 1.33398 -70.5 2.00098c-20 0.666992 -36.167 1.33398 -48.5 2.00098s-22.166 1 -29.499 1c-1.33301 0 -5.83301 -0.166992 -13.5 -0.5s-16.5 -0.833008 -26.5 -1.5h-8h-9c-7.33301 0 -14.666 -0.166992 -21.999 -0.5s-13.666 -0.5 -18.999 -0.5
s-9.33301 0.5 -12 1.5s-4 2.83301 -4 5.5c0 1.33301 0.666992 2.66602 2 3.99902s3.33301 2 6 2c2 0 4.33301 0.166992 7 0.5s5.33398 0.5 8.00098 0.5c2.66699 0.666992 5.33398 1.16699 8.00098 1.5s5 0.833008 7 1.5c10 2 16.833 8 20.5 18s6.5 22.333 8.5 37
c2.66699 21.333 4.16699 50.833 4.5 88.5s0.5 80.5 0.5 128.5v1z" />
    <glyph glyph-name="F" unicode="F" horiz-adv-x="592" 
d="M178 287v176.002v150.5c0 25.667 -0.666992 46.167 -2 61.5v1.5v1.5c-0.666992 17.333 -3.83398 30.333 -9.50098 39s-16.834 14.667 -33.501 18c-2 0.666992 -4.66699 1.16699 -8 1.5s-6.66602 0.5 -9.99902 0.5c-2.66699 0.666992 -5.5 1 -8.5 1h-7.5
c-2 0 -3.83301 0.5 -5.5 1.5s-2.5 2.5 -2.5 4.5c0 3.33301 1.33301 5.5 4 6.5s6.66699 1.5 12 1.5h16.5h17.5c6.66699 -0.666992 13.167 -1 19.5 -1h18.5c10.667 -0.666992 19.834 -1.16699 27.501 -1.5s12.167 -0.5 13.5 -0.5h44.5h78.5c28 0 54 0.166992 78 0.5
s39 0.5 45 0.5h7c2 0 4.33301 0.333008 7 1c6 0 11.667 0.166992 17 0.5s9.66602 1.16602 12.999 2.49902l3 1.5c0.666992 0.333008 1.33398 0.5 2.00098 0.5c2 1.33301 3.66699 2.33301 5 3s2.66602 1 3.99902 1c2 0 3.5 -0.833008 4.5 -2.5s1.5 -3.83398 1.5 -6.50098
s-0.5 -6 -1.5 -10s-2.16699 -9.66699 -3.5 -17c-0.666992 -2.66699 -1.16699 -5.66699 -1.5 -9s-0.833008 -7 -1.5 -11c0 -2.66699 -0.333008 -7.16699 -1 -13.5s-1 -13.166 -1 -20.499c-0.666992 -6.66699 -1.16699 -13 -1.5 -19s-0.833008 -10.333 -1.5 -13v-1.5v-0.5
c-0.666992 -2 -1.66699 -4 -3 -6s-3 -3 -5 -3c-2.66699 0 -4.5 1.16699 -5.5 3.5s-1.5 5.16602 -1.5 8.49902c0 2.66699 -0.333008 6.33398 -1 11.001s-1.66699 9.33398 -3 14.001c-0.666992 2.66699 -1.5 5 -2.5 7s-1.83301 4 -2.5 6
c-0.666992 1.33301 -1.5 2.83301 -2.5 4.5s-2.5 3.16699 -4.5 4.5c-5.33301 6 -13 11.167 -23 15.5s-22.667 6.83301 -38 7.5l-154 4c-2.66699 -0.666992 -4.83398 -1.83398 -6.50098 -3.50098s-2.5 -4.5 -2.5 -8.5v-275c0 -3.33301 0.5 -5.83301 1.5 -7.5
s2.83301 -2.5 5.5 -2.5l128 2c8.66699 -0.666992 16.667 -1 24 -1s14.333 0.333008 21 1c12 1.33301 21.5 3 28.5 5s12.833 6.33301 17.5 13c1.33301 1.33301 2.33301 2.5 3 3.5s1.66699 2.16699 3 3.5c0.666992 0.666992 1.5 1.33398 2.5 2.00098s1.83301 1 2.5 1
c2 0 3.33301 -0.666992 4 -2s1 -3.33301 1 -6c0 -2 -0.5 -5.66699 -1.5 -11s-2.16699 -12.333 -3.5 -21c-0.666992 -3.33301 -1.16699 -7 -1.5 -11s-0.833008 -8.33301 -1.5 -13c-0.666992 -4 -1.16699 -8.5 -1.5 -13.5s-0.5 -9.83301 -0.5 -14.5
c-0.666992 -8.66699 -1.16699 -16.834 -1.5 -24.501s-0.5 -12.5 -0.5 -14.5v-1.5v-0.5c0 -4.66699 -0.333008 -8.66699 -1 -12s-2.66699 -5 -6 -5c-2.66699 0 -4.5 0.833008 -5.5 2.5s-1.5 3.83398 -1.5 6.50098c0 3.33301 -0.333008 7 -1 11s-1.33398 8.33301 -2.00098 13
c0 2 -0.333008 4 -1 6l-2 6c-0.666992 1.33301 -1.33398 2.83301 -2.00098 4.5s-1.66699 3.5 -3 5.5c-4 5.33301 -9.83301 10.666 -17.5 15.999s-17.5 8.66602 -29.5 9.99902c-6 0.666992 -16 1.16699 -30 1.5s-28.667 0.833008 -44 1.5h-48h-29
c-2.66699 0 -4.5 -0.666992 -5.5 -2s-1.5 -3.66602 -1.5 -6.99902v-84c0 -48.667 0.166992 -91.834 0.5 -129.501s1.83301 -67.167 4.5 -88.5c1.33301 -14.667 4.5 -27 9.5 -37s14.833 -16 29.5 -18c2.66699 -0.666992 5.5 -1.16699 8.5 -1.5s6.16699 -0.5 9.5 -0.5
c5.33301 -0.666992 10.5 -1.16699 15.5 -1.5s8.83301 -0.5 11.5 -0.5c3.33301 0 5.5 -0.666992 6.5 -2s1.5 -2.66602 1.5 -3.99902c0 -2.66699 -1.33301 -4.5 -4 -5.5s-6.66699 -1.5 -12 -1.5h-10h-10c-10.667 0 -21.167 0.166992 -31.5 0.5s-19.833 0.5 -28.5 0.5
c-12 0.666992 -21.833 1.16699 -29.5 1.5s-12.167 0.5 -13.5 0.5s-5.83301 -0.166992 -13.5 -0.5s-16.5 -0.833008 -26.5 -1.5h-8h-9c-7.33301 0 -14.666 -0.166992 -21.999 -0.5s-13.666 -0.5 -18.999 -0.5s-9.33301 0.5 -12 1.5s-4 2.83301 -4 5.5
c0 1.33301 0.666992 2.66602 2 3.99902s3.33301 2 6 2c2 0 4.33301 0.166992 7 0.5s5.33398 0.5 8.00098 0.5c2.66699 0.666992 5.33398 1.16699 8.00098 1.5s5 0.833008 7 1.5c10 2 16.833 8 20.5 18s6.5 22.333 8.5 37c2.66699 21.333 4.16699 50.833 4.5 88.5
s0.5 80.5 0.5 128.5v1z" />
    <glyph glyph-name="G" unicode="G" horiz-adv-x="862" 
d="M653 82l0.00683594 170c0 40 -2.5 65.667 -7.5 77s-17.5 19.666 -37.5 24.999c-2 0.666992 -4.66699 1.16699 -8 1.5s-6.66602 0.5 -9.99902 0.5c-2.66699 0.666992 -5.5 1 -8.5 1h-7.5c-2 0 -3.83301 0.5 -5.5 1.5s-2.5 2.5 -2.5 4.5c0 3.33301 1.33301 5.5 4 6.5
s6.66699 1.5 12 1.5h16.5h17.5c6.66699 -0.666992 13.167 -1 19.5 -1h18.5c10.667 -0.666992 19.834 -1.16699 27.501 -1.5s12.167 -0.5 13.5 -0.5s5.83301 0.166992 13.5 0.5s16.5 0.833008 26.5 1.5h8h9c7.33301 0 14.666 0.166992 21.999 0.5s13.666 0.5 18.999 0.5
s9.33301 -0.5 12 -1.5s4 -3.16699 4 -6.5c0 -2 -0.833008 -3.5 -2.5 -4.5s-3.5 -1.5 -5.5 -1.5h-1.5h-1.5c-2.66699 0 -5.66699 -0.333008 -9 -1s-7.66602 -1.33398 -12.999 -2.00098c-13.333 -2.66699 -22.5 -8.5 -27.5 -17.5s-8.16699 -22.167 -9.5 -39.5
c0 -2 -0.166992 -4.16699 -0.5 -6.5s-0.5 -4.83301 -0.5 -7.5c-0.666992 -13.333 -1 -27.166 -1 -41.499v-48.5v-111c0 -20.667 -0.5 -34 -1.5 -40s-3.83301 -10.333 -8.5 -13l-1 -0.5c-0.666992 -0.333008 -1.33398 -0.833008 -2.00098 -1.5
c-14.667 -7.33301 -30.167 -13.666 -46.5 -18.999s-33.166 -9.66602 -50.499 -12.999c-20.667 -4 -41 -7 -61 -9s-38 -3 -54 -3c-26 0 -58.333 2.16699 -97 6.5s-78.334 14.5 -119.001 30.5c-19.333 8 -38.5 17.667 -57.5 29s-37.5 24.666 -55.5 39.999
c-30.667 26.667 -58.167 65.167 -82.5 115.5s-36.5 106.833 -36.5 169.5c0 80 16.667 147.833 50 203.5s72.333 97.5 117 125.5c13.333 8 26.666 15.167 39.999 21.5s26.666 11.5 39.999 15.5c32.667 11.333 65 18.5 97 21.5s61.667 4.5 89 4.5h12.5
c4.33301 0 8.5 -0.333008 12.5 -1c14.667 -0.666992 29.167 -1.66699 43.5 -3s27.5 -3 39.5 -5c10 -1.33301 19 -2.83301 27 -4.5s14 -2.83398 18 -3.50098c6 -1.33301 13.167 -2.66602 21.5 -3.99902s16.5 -2.33301 24.5 -3l18 -2c6 -0.666992 11.667 -1 17 -1
c5.33301 -0.666992 8.66602 -1.83398 9.99902 -3.50098s2 -3.5 2 -5.5c0 -3.33301 -0.333008 -8 -1 -14s-1.33398 -14.333 -2.00098 -25c-1.33301 -10.667 -2.33301 -24.167 -3 -40.5s-1 -37.166 -1 -62.499c0 -8 -0.666992 -13.5 -2 -16.5s-3.66602 -4.5 -6.99902 -4.5
c-2.66699 0 -4.33398 1.33301 -5.00098 4s-1.33398 6.33398 -2.00098 11.001c-0.666992 5.33301 -1.83398 12.5 -3.50098 21.5s-4.5 18.5 -8.5 28.5l-4 8c-1.33301 2.66699 -3 5.33398 -5 8.00098c-1.33301 2 -2.83301 4 -4.5 6s-3.5 4 -5.5 6
c-16 17.333 -43 33.166 -81 47.499s-86 21.5 -144 21.5c-31.333 0 -65.333 -3.5 -102 -10.5s-74 -25.5 -112 -55.5c-28.667 -22.667 -52.334 -56 -71.001 -100s-28 -95.333 -28 -154c0 -46.667 6.5 -88.834 19.5 -126.501s27.5 -69.167 43.5 -94.5
c7.33301 -12.667 14.833 -23.667 22.5 -33s14.5 -17 20.5 -23c39.333 -38.667 81.333 -66.167 126 -82.5s90 -24.5 136 -24.5c6.66699 0 14 0.166992 22 0.5s16 1.16602 24 2.49902c12.667 1.33301 25.167 3.5 37.5 6.5s22.5 6.83301 30.5 11.5
c6.66699 3.33301 11.667 7.83301 15 13.5s5 12.834 5 21.501v1z" />
    <glyph glyph-name="H" unicode="H" horiz-adv-x="960" 
d="M782 463l-0.00488281 -175.996c0 -48.667 0.166992 -91.834 0.5 -129.501s1.83301 -67.167 4.5 -88.5c1.33301 -14.667 4.5 -27 9.5 -37s14.833 -16 29.5 -18c2.66699 -0.666992 5.5 -1.16699 8.5 -1.5s6.16699 -0.5 9.5 -0.5c5.33301 -0.666992 10.5 -1.16699 15.5 -1.5
s8.83301 -0.5 11.5 -0.5c3.33301 0 5.5 -0.666992 6.5 -2s1.5 -2.66602 1.5 -3.99902c0 -2.66699 -1.33301 -4.5 -4 -5.5s-6.66699 -1.5 -12 -1.5h-10h-10c-10.667 0 -21.167 0.166992 -31.5 0.5s-19.833 0.5 -28.5 0.5c-12 0.666992 -21.833 1.16699 -29.5 1.5
s-12.167 0.5 -13.5 0.5s-5.83301 -0.166992 -13.5 -0.5s-16.5 -0.833008 -26.5 -1.5h-8h-9c-7.33301 0 -14.666 -0.166992 -21.999 -0.5s-13.666 -0.5 -18.999 -0.5s-9.33301 0.5 -12 1.5s-4 2.83301 -4 5.5c0 1.33301 0.666992 2.66602 2 3.99902s3.33301 2 6 2
c2 0 4.33301 0.166992 7 0.5s5.33398 0.5 8.00098 0.5c2.66699 0.666992 5.33398 1.16699 8.00098 1.5s5 0.833008 7 1.5c10 2 16.833 8 20.5 18s6.5 22.333 8.5 37c2.66699 21.333 4.16699 50.833 4.5 88.5s0.5 80.5 0.5 128.5v106c0 1.33301 -0.666992 2.5 -2 3.5
s-2.66602 1.5 -3.99902 1.5l-424 1l-4 -2c-1.33301 -0.666992 -2 -2.33398 -2 -5.00098v-104c0 -48.667 0.166992 -91.834 0.5 -129.501s1.83301 -67.167 4.5 -88.5c1.33301 -14.667 4.5 -27 9.5 -37s14.833 -16 29.5 -18c2.66699 -0.666992 5.5 -1.16699 8.5 -1.5
s6.16699 -0.5 9.5 -0.5c5.33301 -0.666992 10.5 -1.16699 15.5 -1.5s8.83301 -0.5 11.5 -0.5c3.33301 0 5.5 -0.666992 6.5 -2s1.5 -2.66602 1.5 -3.99902c0 -2.66699 -1.33301 -4.5 -4 -5.5s-6.66699 -1.5 -12 -1.5h-10h-10c-10.667 0 -21.167 0.166992 -31.5 0.5
s-19.833 0.5 -28.5 0.5c-12 0.666992 -21.833 1.16699 -29.5 1.5s-12.167 0.5 -13.5 0.5s-5.83301 -0.166992 -13.5 -0.5s-16.5 -0.833008 -26.5 -1.5h-8h-9c-7.33301 0 -14.666 -0.166992 -21.999 -0.5s-13.666 -0.5 -18.999 -0.5s-9.33301 0.5 -12 1.5s-4 2.83301 -4 5.5
c0 1.33301 0.666992 2.66602 2 3.99902s3.33301 2 6 2c2 0 4.33301 0.166992 7 0.5s5.33398 0.5 8.00098 0.5c2.66699 0.666992 5.33398 1.16699 8.00098 1.5s5 0.833008 7 1.5c10 2 16.833 8 20.5 18s6.5 22.333 8.5 37c2.66699 21.333 4.16699 50.833 4.5 88.5
s0.5 80.5 0.5 128.5v177v150.5c0 25.667 -0.666992 46.167 -2 61.5v1.5v1.5c-0.666992 17.333 -3.83398 30.333 -9.50098 39s-16.834 14.667 -33.501 18c-2 0.666992 -4.66699 1.16699 -8 1.5s-6.66602 0.5 -9.99902 0.5c-2.66699 0.666992 -5.5 1 -8.5 1h-7.5
c-2 0 -3.83301 0.5 -5.5 1.5s-2.5 2.5 -2.5 4.5c0 3.33301 1.33301 5.5 4 6.5s6.66699 1.5 12 1.5h16.5h17.5c6.66699 -0.666992 13.167 -1 19.5 -1h18.5c10.667 -0.666992 19.834 -1.16699 27.501 -1.5s12.167 -0.5 13.5 -0.5s5.83301 0.166992 13.5 0.5
s16.5 0.833008 26.5 1.5h8h9c7.33301 0 14.666 0.166992 21.999 0.5s13.666 0.5 18.999 0.5s9.33301 -0.5 12 -1.5s4 -3.16699 4 -6.5c0 -2 -0.833008 -3.5 -2.5 -4.5s-3.5 -1.5 -5.5 -1.5h-1.5h-1.5c-2.66699 0 -5.66699 -0.333008 -9 -1
s-7.66602 -1.33398 -12.999 -2.00098c-13.333 -2.66699 -22.5 -8.5 -27.5 -17.5s-8.16699 -22.167 -9.5 -39.5v-1.5v-1.5c-1.33301 -15.333 -2 -35.833 -2 -61.5v-151.5v-20c0 -3.33301 0.666992 -5.33301 2 -6s2.66602 -1 3.99902 -1l424 1
c1.33301 -0.666992 2.66602 -0.666992 3.99902 0s2 2.33398 2 5.00098v22v150.5c0 25.667 -0.666992 46.167 -2 61.5v1.5v1.5c-0.666992 17.333 -3.83398 30.333 -9.50098 39s-16.834 14.667 -33.501 18c-2 0.666992 -4.66699 1.16699 -8 1.5s-6.66602 0.5 -9.99902 0.5
c-2.66699 0.666992 -5.5 1 -8.5 1h-7.5c-2 0 -3.83301 0.5 -5.5 1.5s-2.5 2.5 -2.5 4.5c0 3.33301 1.33301 5.5 4 6.5s6.66699 1.5 12 1.5h16.5h17.5c6.66699 -0.666992 13.167 -1 19.5 -1h18.5c10.667 -0.666992 19.834 -1.16699 27.501 -1.5s12.167 -0.5 13.5 -0.5
s5.83301 0.166992 13.5 0.5s16.5 0.833008 26.5 1.5h8h9c7.33301 0 14.666 0.166992 21.999 0.5s13.666 0.5 18.999 0.5s9.33301 -0.5 12 -1.5s4 -3.16699 4 -6.5c0 -2 -0.833008 -3.5 -2.5 -4.5s-3.5 -1.5 -5.5 -1.5h-1.5h-1.5c-2.66699 0 -5.66699 -0.333008 -9 -1
s-7.66602 -1.33398 -12.999 -2.00098c-13.333 -2.66699 -22.5 -8.5 -27.5 -17.5s-8.16699 -22.167 -9.5 -39.5v-1.5v-1.5c-1.33301 -15.333 -2 -35.833 -2 -61.5v-151.5v1z" />
    <glyph glyph-name="I" unicode="I" horiz-adv-x="440" 
d="M262 463l-0.00488281 -175.999c0 -48.667 0.166992 -91.834 0.5 -129.501s1.83301 -67.167 4.5 -88.5c1.33301 -14.667 4.5 -27 9.5 -37s14.833 -16 29.5 -18c2.66699 -0.666992 5.5 -1.16699 8.5 -1.5s6.16699 -0.5 9.5 -0.5c5.33301 -0.666992 10.5 -1.16699 15.5 -1.5
s8.83301 -0.5 11.5 -0.5c3.33301 0 5.5 -0.666992 6.5 -2s1.5 -2.66602 1.5 -3.99902c0 -2.66699 -1.33301 -4.5 -4 -5.5s-6.66699 -1.5 -12 -1.5h-10h-10c-10.667 0 -21.167 0.166992 -31.5 0.5s-19.833 0.5 -28.5 0.5c-12 0.666992 -21.833 1.16699 -29.5 1.5
s-12.167 0.5 -13.5 0.5s-5.83301 -0.166992 -13.5 -0.5s-16.5 -0.833008 -26.5 -1.5h-8h-9c-7.33301 0 -14.666 -0.166992 -21.999 -0.5s-13.666 -0.5 -18.999 -0.5s-9.33301 0.5 -12 1.5s-4 2.83301 -4 5.5c0 1.33301 0.666992 2.66602 2 3.99902s3.33301 2 6 2
c2 0 4.33301 0.166992 7 0.5s5.33398 0.5 8.00098 0.5c2.66699 0.666992 5.33398 1.16699 8.00098 1.5s5 0.833008 7 1.5c10 2 16.833 8 20.5 18s6.5 22.333 8.5 37c2.66699 21.333 4.16699 50.833 4.5 88.5s0.5 80.5 0.5 128.5v177v150.5
c0 25.667 -0.666992 46.167 -2 61.5v1.5v1.5c-0.666992 17.333 -3.66699 30.333 -9 39s-13.666 14.334 -24.999 17.001c-1.33301 0.666992 -2.66602 1.16699 -3.99902 1.5s-2.66602 0.5 -3.99902 0.5c-4.66699 0.666992 -9 1.16699 -13 1.5s-7.33301 0.5 -10 0.5
c-2 0 -3.83301 0.5 -5.5 1.5s-2.5 2.5 -2.5 4.5c0 3.33301 1.33301 5.5 4 6.5s6.66699 1.5 12 1.5h19c7.33301 0 14.666 -0.333008 21.999 -1h10h10c10 -0.666992 18.833 -1.16699 26.5 -1.5s12.167 -0.5 13.5 -0.5s5.83301 0.166992 13.5 0.5s16.5 0.833008 26.5 1.5h8h9
c7.33301 0 14.666 0.166992 21.999 0.5s13.666 0.5 18.999 0.5s9.33301 -0.5 12 -1.5s4 -3.16699 4 -6.5c0 -2 -0.833008 -3.5 -2.5 -4.5s-3.5 -1.5 -5.5 -1.5h-1.5h-1.5c-2.66699 0 -5.66699 -0.333008 -9 -1s-7.66602 -1.33398 -12.999 -2.00098
c-13.333 -2.66699 -22.5 -8.5 -27.5 -17.5s-8.16699 -22.167 -9.5 -39.5v-1.5v-1.5c-1.33301 -15.333 -2 -35.833 -2 -61.5v-151.5v1z" />
    <glyph glyph-name="J" unicode="J" horiz-adv-x="414" 
d="M262 463l0.000976562 -239.998c0 -74.667 -1 -131.5 -3 -170.5s-8.66699 -74.833 -20 -107.5c-1.33301 -2.66699 -2.5 -5.5 -3.5 -8.5s-2.16699 -5.83301 -3.5 -8.5c-2.66699 -6 -5.66699 -12.167 -9 -18.5s-7 -12.5 -11 -18.5
c-12.667 -18.667 -29.167 -37.5 -49.5 -56.5s-45.833 -38.833 -76.5 -59.5c-1.33301 -1.33301 -3 -2.5 -5 -3.5s-3.66699 -2.16699 -5 -3.5c-0.666992 -0.666992 -1.33398 -1.16699 -2.00098 -1.5s-1.33398 -0.5 -2.00098 -0.5l-13.5 -9.5
c-4.33301 -3 -8.16602 -5.16699 -11.499 -6.5c-0.666992 -0.666992 -1.66699 -1.16699 -3 -1.5s-2.66602 -0.5 -3.99902 -0.5h-0.5h-1.5c-1.33301 0.666992 -2.5 1.5 -3.5 2.5s-1.5 2.16699 -1.5 3.5s0.333008 2.66602 1 3.99902s1.66699 2.33301 3 3
c0.666992 1.33301 2 2.66602 4 3.99902l6 4c2 0.666992 3.83301 1.66699 5.5 3s3.5 2.66602 5.5 3.99902s4 2.83301 6 4.5s4 3.5 6 5.5s4 3.83301 6 5.5s4 3.5 6 5.5l6 6c2 2 3.66699 4 5 6c28.667 30.667 50 68.834 64 114.501s21 128.834 21 249.501v290v150.5
c0 25.667 -0.666992 46.167 -2 61.5v1.5v1.5c-0.666992 17.333 -3.83398 30.333 -9.50098 39s-16.834 14.667 -33.501 18c-2 0.666992 -4.66699 1.16699 -8 1.5s-6.66602 0.5 -9.99902 0.5c-2.66699 0.666992 -5.5 1 -8.5 1h-7.5c-2 0 -3.83301 0.5 -5.5 1.5
s-2.5 2.5 -2.5 4.5c0 3.33301 1.33301 5.5 4 6.5s6.66699 1.5 12 1.5h16.5h17.5c6.66699 -0.666992 13.167 -1 19.5 -1h18.5c10.667 -0.666992 19.834 -1.16699 27.501 -1.5s12.167 -0.5 13.5 -0.5s5.83301 0.166992 13.5 0.5s16.5 0.833008 26.5 1.5h8h9
c7.33301 0 14.666 0.166992 21.999 0.5s13.666 0.5 18.999 0.5s9.33301 -0.5 12 -1.5s4 -3.16699 4 -6.5c0 -2 -0.833008 -3.5 -2.5 -4.5s-3.5 -1.5 -5.5 -1.5h-1.5h-1.5c-2.66699 0 -5.66699 -0.333008 -9 -1s-7.66602 -1.33398 -12.999 -2.00098
c-13.333 -2.66699 -22.5 -8.5 -27.5 -17.5s-8.16699 -22.167 -9.5 -39.5v-1.5v-1.5c-1.33301 -15.333 -2 -35.833 -2 -61.5v-151.5v1z" />
    <glyph glyph-name="K" unicode="K" horiz-adv-x="752" 
d="M178 287l0.00488281 176.003v150.5c0 25.667 -0.666992 46.167 -2 61.5v1.5v1.5c-0.666992 17.333 -3.83398 30.333 -9.50098 39s-16.834 14.667 -33.501 18c-2 0.666992 -4.66699 1.16699 -8 1.5s-6.66602 0.5 -9.99902 0.5c-2.66699 0.666992 -5.5 1 -8.5 1h-7.5
c-2 0 -3.83301 0.5 -5.5 1.5s-2.5 2.5 -2.5 4.5c0 3.33301 1.33301 5.5 4 6.5s6.66699 1.5 12 1.5h14.5h14.5c7.33301 -0.666992 14.333 -1 21 -1h20c10 -0.666992 18.833 -1.16699 26.5 -1.5s12.167 -0.5 13.5 -0.5c2 0 6.83301 0.166992 14.5 0.5s16.5 0.833008 26.5 1.5
h8h8c7.33301 0 14.5 0.166992 21.5 0.5s13.167 0.5 18.5 0.5s9.33301 -0.5 12 -1.5s4 -3.16699 4 -6.5c0 -2 -0.833008 -3.5 -2.5 -4.5s-3.5 -1.5 -5.5 -1.5h-1.5h-1.5c-2.66699 0 -5.66699 -0.333008 -9 -1s-7.66602 -1.33398 -12.999 -2.00098
c-13.333 -2.66699 -22.5 -8.5 -27.5 -17.5s-8.16699 -22.167 -9.5 -39.5v-1.5v-1.5c-1.33301 -15.333 -2 -35.833 -2 -61.5v-151.5v-59h4l42.5 43.5l76.5 78.5l69.5 71.5l45.5 47.5l37.5 40.5c11 12.333 16.5 22.833 16.5 31.5c0 6 -1.16699 10.667 -3.5 14
s-5.5 5.66602 -9.5 6.99902c-2.66699 1.33301 -4.83398 2.5 -6.50098 3.5s-2.5 2.5 -2.5 4.5c0 2.66699 1.16699 4.5 3.5 5.5s5.16602 1.5 8.49902 1.5c5.33301 0 11 -0.166992 17 -0.5s12.333 -0.5 19 -0.5c1.33301 -0.666992 2.83301 -1 4.5 -1h4.5
c5.33301 0 10.5 -0.166992 15.5 -0.5s9.83301 -0.5 14.5 -0.5c1.33301 0 5.83301 0.166992 13.5 0.5s16.834 0.833008 27.501 1.5h5.5h6.5c8 0 15.833 0.166992 23.5 0.5s14.167 0.5 19.5 0.5s9.16602 -0.5 11.499 -1.5s3.5 -2.83301 3.5 -5.5s-0.666992 -4.5 -2 -5.5
s-4 -1.5 -8 -1.5c-6.66699 0 -14 -0.833008 -22 -2.5s-16.333 -4.16699 -25 -7.5c-2 -0.666992 -3.66699 -1.33398 -5 -2.00098l-4 -2c-9.33301 -4 -17.833 -8.5 -25.5 -13.5s-15.167 -10.5 -22.5 -16.5c-8.66699 -7.33301 -17.834 -15.5 -27.501 -24.5l-32.5 -31.5l-41 -40
l-69 -67l-69.5 -70c-21.667 -22 -35.167 -36 -40.5 -42l51 -54l89 -92l81.5 -83c25.667 -26 43.5 -43.667 53.5 -53l66.5 -61c15.667 -14 30.167 -25 43.5 -33c4.66699 -3.33301 9.5 -6.33301 14.5 -9s10.5 -5 16.5 -7l4 -2l4 -2
c1.33301 -0.666992 2.83301 -1.33398 4.5 -2.00098s3.16699 -1.33398 4.5 -2.00098c12 -3.33301 23 -5.66602 33 -6.99902s16.667 -2 20 -2s6.33301 -0.5 9 -1.5s4 -2.5 4 -4.5c0 -2.66699 -1.5 -4.5 -4.5 -5.5s-8.83301 -1.5 -17.5 -1.5h-51h-28.5
c-8.33301 0 -16.5 0.333008 -24.5 1c-2.66699 0 -5.33398 0.166992 -8.00098 0.5s-5.33398 0.5 -8.00098 0.5c-16 0.666992 -30 3.33398 -42 8.00098s-23.333 10.667 -34 18c-7.33301 4.66699 -14.5 9.83398 -21.5 15.501l-23.5 18.5c-11.333 9.33301 -31.5 29 -60.5 59
l-92.5 97l-5.5 5.5c-1.66699 1.66699 -3.16699 3.5 -4.5 5.5l-85.5 93c-26.333 29.333 -45.166 51 -56.499 65l-5 1v-98c0 -48.667 0.166992 -91.834 0.5 -129.501s1.83301 -67.167 4.5 -88.5c1.33301 -14.667 4.5 -27 9.5 -37s14.833 -16 29.5 -18
c1.33301 0 2.83301 -0.166992 4.5 -0.5s3.5 -0.5 5.5 -0.5l16 -2c5.33301 -0.666992 9.66602 -1 12.999 -1s5.5 -0.666992 6.5 -2s1.5 -2.66602 1.5 -3.99902c0 -2.66699 -1.33301 -4.5 -4 -5.5s-6.66699 -1.5 -12 -1.5h-11.5h-11.5
c-8.66699 0 -17.334 0.166992 -26.001 0.5s-16.667 0.833008 -24 1.5c-10.667 0 -19.834 0.166992 -27.501 0.5s-12.5 0.5 -14.5 0.5s-6.66699 -0.166992 -14 -0.5s-16 -0.833008 -26 -1.5h-8h-8c-7.33301 0 -14.5 -0.166992 -21.5 -0.5s-13.167 -0.5 -18.5 -0.5
s-9.33301 0.5 -12 1.5s-4 2.83301 -4 5.5c0 1.33301 0.666992 2.66602 2 3.99902s3.33301 2 6 2c2 0 4.33301 0.166992 7 0.5s5.33398 0.5 8.00098 0.5c2.66699 0.666992 5.33398 1.16699 8.00098 1.5s5 0.833008 7 1.5c10 2 16.833 8 20.5 18s6.5 22.333 8.5 37
c2.66699 21.333 4.16699 50.833 4.5 88.5s0.5 80.5 0.5 128.5v1z" />
    <glyph glyph-name="L" unicode="L" horiz-adv-x="592" 
d="M262 463l-0.00390625 -178.004c0 -74 1.5 -128.5 4.5 -163.5s8.83301 -57.167 17.5 -66.5c8 -8 20.333 -13.833 37 -17.5s44.334 -5.5 83.001 -5.5c26.667 0 50.5 1.33301 71.5 4s37.5 11.334 49.5 26.001c4 4.66699 7.66699 10.167 11 16.5s6 12.5 8 18.5
c2 4.66699 3.5 9 4.5 13s1.83301 8 2.5 12s1.66699 7.16699 3 9.5s3.33301 3.5 6 3.5s4.33398 -1.16699 5.00098 -3.5s1 -6.16602 1 -11.499c0 -3.33301 -0.666992 -10.5 -2 -21.5s-2.66602 -22.833 -3.99902 -35.5c-1.33301 -8 -2.83301 -15.833 -4.5 -23.5
s-3.16699 -14.167 -4.5 -19.5c0 -0.666992 -0.166992 -1.5 -0.5 -2.5s-0.833008 -1.83301 -1.5 -2.5c-2.66699 -9.33301 -7.33398 -15.166 -14.001 -17.499s-22.334 -3.5 -47.001 -3.5c-36 0 -67.5 0.333008 -94.5 1s-50.833 1.33398 -71.5 2.00098
c-21.333 0.666992 -40 1.33398 -56 2.00098s-31.333 1 -46 1c-2 0 -6.83301 -0.166992 -14.5 -0.5s-16.5 -0.833008 -26.5 -1.5h-8h-8c-7.33301 0 -14.666 -0.166992 -21.999 -0.5s-13.666 -0.5 -18.999 -0.5s-9.33301 0.5 -12 1.5s-4 2.83301 -4 5.5
c0 1.33301 0.666992 2.66602 2 3.99902s3.33301 2 6 2c2 0 4.33301 0.166992 7 0.5s5.33398 0.5 8.00098 0.5c2.66699 0.666992 5.33398 1.16699 8.00098 1.5s5 0.833008 7 1.5c10 2 16.833 8 20.5 18s6.5 22.333 8.5 37c2.66699 21.333 4.16699 50.833 4.5 88.5
s0.5 80.5 0.5 128.5v177v150.5c0 25.667 -0.666992 46.167 -2 61.5v1.5v1.5c-0.666992 17.333 -3.83398 30.333 -9.50098 39s-16.834 14.667 -33.501 18c-2 0.666992 -4.66699 1.16699 -8 1.5s-6.66602 0.5 -9.99902 0.5c-2.66699 0.666992 -5.5 1 -8.5 1h-7.5
c-2 0 -3.83301 0.5 -5.5 1.5s-2.5 2.5 -2.5 4.5c0 3.33301 1.33301 5.5 4 6.5s6.66699 1.5 12 1.5h16.5h17.5c6.66699 -0.666992 13.167 -1 19.5 -1h18.5c10.667 -0.666992 19.834 -1.16699 27.501 -1.5s12.167 -0.5 13.5 -0.5s6.33301 0.166992 15 0.5
s18.667 0.833008 30 1.5h7h8c9.33301 0 18.166 0.166992 26.499 0.5s15.5 0.5 21.5 0.5c5.33301 0 9.33301 -0.5 12 -1.5s4 -3.16699 4 -6.5c0 -2 -0.833008 -3.5 -2.5 -4.5s-3.5 -1.5 -5.5 -1.5c-2.66699 0 -6.33398 -0.166992 -11.001 -0.5
s-9.33398 -0.833008 -14.001 -1.5c-1.33301 0 -2.66602 -0.166992 -3.99902 -0.5s-2.66602 -0.5 -3.99902 -0.5c-14.667 -2.66699 -24.5 -8.5 -29.5 -17.5s-8.16699 -22.167 -9.5 -39.5v-1.5v-1.5c-1.33301 -15.333 -2 -35.833 -2 -61.5v-151.5v1z" />
    <glyph glyph-name="M" unicode="M" horiz-adv-x="1050" 
d="M855 740l66.999 -613.999c0.666992 -6.66699 1.5 -13.334 2.5 -20.001s2.16699 -13.334 3.5 -20.001c3.33301 -14.667 8.5 -28.334 15.5 -41.001s17.833 -21.334 32.5 -26.001s28 -7.33398 40 -8.00098s20.333 -1 25 -1c2.66699 0 4.66699 -0.333008 6 -1s2 -2 2 -4
c0 -2.66699 -2 -4.66699 -6 -6s-9 -2 -15 -2s-17.333 0.166992 -34 0.5s-34.667 0.833008 -54 1.5c-15.333 0.666992 -30.166 1.16699 -44.499 1.5s-25.833 0.833008 -34.5 1.5c-11.333 1.33301 -18.833 2.66602 -22.5 3.99902s-5.5 3.33301 -5.5 6c0 2 0.5 3.5 1.5 4.5
s2.83301 1.83301 5.5 2.5c1.33301 0.666992 2.5 2.83398 3.5 6.50098s1.5 8.16699 1.5 13.5v8c0 2.66699 -0.333008 5.33398 -1 8.00098l-48 517h-3l-245 -520c-8 -17.333 -13.833 -29.666 -17.5 -36.999s-6.83398 -12.333 -9.50098 -15
c-0.666992 0 -1.5 -0.166992 -2.5 -0.5s-2.16699 -0.5 -3.5 -0.5h-1.5h-1.5c-2.66699 0.666992 -6 4.33398 -10 11.001s-10 18 -18 34l-23 45.5l-32 62.5l-41 82l-21 42c-2 4.66699 -9.66699 21 -23 49l-43 92l-42.5 91.5c-13 28.333 -20.833 45.833 -23.5 52.5l-4 1
l-40 -464c0 -6 -0.166992 -11.833 -0.5 -17.5s-0.5 -11.5 -0.5 -17.5v-8.5v-8.5c0 -7.33301 2.5 -14 7.5 -20s11.167 -9.66699 18.5 -11c8.66699 -2 16.5 -3.33301 23.5 -4s11.833 -1 14.5 -1c2 0 3.83301 -0.5 5.5 -1.5s2.5 -2.16699 2.5 -3.5
c0 -3.33301 -1.5 -5.5 -4.5 -6.5s-7.5 -1.5 -13.5 -1.5h-12.5h-12.5c-5.33301 0.666992 -10.833 1 -16.5 1h-15.5c-9.33301 0.666992 -17.166 1.16699 -23.499 1.5s-10.5 0.5 -12.5 0.5s-6.33301 -0.166992 -13 -0.5s-14 -0.833008 -22 -1.5h-8h-8
c-6 -0.666992 -11.833 -1 -17.5 -1h-15.5c-4.66699 0 -8.66699 0.5 -12 1.5s-5 3.16699 -5 6.5c0 1.33301 1 2.5 3 3.5s4.33301 1.5 7 1.5h1.5h1.5c3.33301 0 7 0.166992 11 0.5s9.33301 1.16602 16 2.49902c16 2.66699 26.167 12 30.5 28s7.5 33 9.5 51v2v2l72 653
c1.33301 4.66699 2.83301 8.66699 4.5 12s3.83398 5 6.50098 5c2 0 3.83301 -0.5 5.5 -1.5s3.16699 -2.5 4.5 -4.5c0.666992 -1.33301 1.5 -2.66602 2.5 -3.99902s1.83301 -3 2.5 -5l306 -628l294 628c2 4 4.16699 7.5 6.5 10.5s5.16602 4.5 8.49902 4.5s6 -2.16699 8 -6.5
s3.33301 -11.166 4 -20.499v1z" />
    <glyph glyph-name="N" unicode="N" horiz-adv-x="947" 
d="M192 612l13.0029 -479c1.33301 -41.333 4.83301 -70.166 10.5 -86.499s15.167 -26.5 28.5 -30.5c2 -0.666992 3.83301 -1.16699 5.5 -1.5s3.5 -0.5 5.5 -0.5c8 -2 15.667 -3.16699 23 -3.5s12.666 -0.5 15.999 -0.5c2.66699 0 4.66699 -0.5 6 -1.5s2 -2.5 2 -4.5
c0 -2.66699 -1.5 -4.5 -4.5 -5.5s-7.5 -1.5 -13.5 -1.5c-14 0 -27 0.166992 -39 0.5s-22.667 0.5 -32 0.5c-9.33301 0.666992 -17 1.16699 -23 1.5s-10 0.5 -12 0.5s-6.16699 -0.166992 -12.5 -0.5s-13.5 -0.833008 -21.5 -1.5c-8.66699 0 -18.334 -0.166992 -29.001 -0.5
s-21.667 -0.5 -33 -0.5c-4.66699 0 -8.5 0.5 -11.5 1.5s-4.5 2.83301 -4.5 5.5c0 2 0.666992 3.5 2 4.5s3.33301 1.5 6 1.5c3.33301 0 7.66602 0.166992 12.999 0.5s11 1.16602 17 2.49902c2 0.666992 3.83301 1.16699 5.5 1.5s3.5 0.833008 5.5 1.5
c12.667 3.33301 20.834 14 24.501 32s5.5 49.667 5.5 95l1 574c0 18.667 0.833008 31.5 2.5 38.5s4.5 10.5 8.5 10.5c2 0 4.83301 -1.5 8.5 -4.5s7.16699 -6.5 10.5 -10.5l2 -2l1 -1c2.66699 -2.66699 5 -5.16699 7 -7.5s4 -4.5 6 -6.5
c7.33301 -8.66699 43 -47.334 107 -116.001l211 -227c6 -6 11.833 -12.167 17.5 -18.5l16.5 -18.5l6 -6l6 -6l118.5 -130l75.5 -82l-11 509c-0.666992 32 -3.5 54.667 -8.5 68s-15.167 22 -30.5 26c-2 0.666992 -4.33301 1.16699 -7 1.5s-5 0.5 -7 0.5
c-7.33301 1.33301 -14.166 2.16602 -20.499 2.49902s-11.166 0.5 -14.499 0.5s-5.5 0.666992 -6.5 2s-1.5 3 -1.5 5c0 3.33301 1.83301 5.33301 5.5 6s8.5 1 14.5 1h5.5h4.5c10 0 19.667 -0.166992 29 -0.5s18 -0.5 26 -0.5c9.33301 -0.666992 17.5 -1.16699 24.5 -1.5
s11.833 -0.5 14.5 -0.5s6.66699 0.166992 12 0.5s11.666 0.833008 18.999 1.5c7.33301 0 15.666 0.166992 24.999 0.5s19 0.5 29 0.5c5.33301 0 9.66602 -0.333008 12.999 -1s5 -2.66699 5 -6c0 -2 -1 -3.66699 -3 -5s-4.66699 -2 -8 -2
c-2.66699 0 -5.83398 -0.166992 -9.50098 -0.5s-8.5 -1.16602 -14.5 -2.49902c-16.667 -3.33301 -27 -11.5 -31 -24.5s-6 -34.5 -6 -64.5l-2 -585c0 -33.333 -0.666992 -53.5 -2 -60.5s-3.66602 -10.5 -6.99902 -10.5c-4 0 -10.5 3.83301 -19.5 11.5
s-26.833 24.834 -53.5 51.501l-63 64l-124 128c-1.33301 2 -2.83301 3.83301 -4.5 5.5l-4.5 4.5l-33.5 35l-31.5 34l-2 2l-2 2l-159.5 174.5l-97.5 108.5v1z" />
    <glyph glyph-name="O" unicode="O" horiz-adv-x="915" 
d="M64 376c0 18 1.5 36.835 4.5 56.502s7.83301 39.5 14.5 59.5c21.333 68.667 62.5 131.5 123.5 188.5s144.833 85.5 251.5 85.5c112.667 0 206.334 -33.333 281.001 -100s112 -158.334 112 -275.001c0 -112 -36.333 -208 -109 -288s-169.334 -120 -290.001 -120
c-118.667 0 -208.5 33.167 -269.5 99.5s-98.5 139.166 -112.5 218.499c-2 12.667 -3.5 25.167 -4.5 37.5s-1.5 24.5 -1.5 36.5v1zM159 404.002c0 -117.333 30.832 -210.666 92.499 -279.999s137.5 -104 227.5 -104c15.333 0 33 1.83301 53 5.5s40.333 10.167 61 19.5
c40.667 19.333 77.834 53.166 111.501 101.499s50.5 120.5 50.5 216.5c0 120 -30.833 211.5 -92.5 274.5s-132.167 94.5 -211.5 94.5c-83.333 0 -152.833 -27.5 -208.5 -82.5s-83.5 -137.167 -83.5 -246.5v1z" />
    <glyph glyph-name="P" unicode="P" horiz-adv-x="642" 
d="M178 287l-0.000976562 176v150.5c0 25.667 -0.666992 46.167 -2 61.5v1.5v1.5c-0.666992 17.333 -3.83398 30.333 -9.50098 39s-16.834 14.667 -33.501 18c-2 0.666992 -4.66699 1.16699 -8 1.5s-6.66602 0.5 -9.99902 0.5c-2.66699 0.666992 -5.5 1 -8.5 1h-7.5
c-2 0 -3.83301 0.5 -5.5 1.5s-2.5 2.5 -2.5 4.5c0 3.33301 1.33301 5.5 4 6.5s6.66699 1.5 12 1.5h16h16c6.66699 -0.666992 13.167 -1 19.5 -1h18.5c11.333 -0.666992 20.833 -1.16699 28.5 -1.5s12.5 -0.5 14.5 -0.5c5.33301 0 12.833 0.166992 22.5 0.5
s20.167 0.833008 31.5 1.5h18c6 0 12 0.333008 18 1h18h18c38 0 69.167 -3.16699 93.5 -9.5s43.5 -13.5 57.5 -21.5c8.66699 -5.33301 15.834 -10.333 21.501 -15l13.5 -11l6 -6c2 -2 4 -4.33301 6 -7c9.33301 -12 18 -27.167 26 -45.5s12 -38.5 12 -60.5
c0 -70.667 -23.167 -128 -69.5 -172s-105.166 -66 -176.499 -66h-4.5h-5.5c-2 0 -4 0.166992 -6 0.5s-3.66699 0.5 -5 0.5h-1.5h-0.5c-2 0.666992 -4 1.5 -6 2.5s-3 2.5 -3 4.5c0 4 1.83301 6.5 5.5 7.5s10.834 1.5 21.501 1.5c48.667 0 89.667 15.667 123 47s50 70 50 116
c0 12 -1.16699 27.667 -3.5 47s-8.83301 39.333 -19.5 60c-4 8 -8.66699 16 -14 24s-11.666 15.667 -18.999 23c-4.66699 4.66699 -9.33398 9 -14.001 13s-9.33398 7.33301 -14.001 10c-20.667 14 -40.5 22 -59.5 24s-33.833 3 -44.5 3h-2.5h-2.5
c-8.66699 0 -16.834 -0.5 -24.501 -1.5s-13.834 -2.5 -18.501 -4.5c-2.66699 -0.666992 -4.66699 -2.66699 -6 -6s-2 -7.66602 -2 -12.999v-410c0 -48.667 0.166992 -91.834 0.5 -129.501s1.83301 -67.167 4.5 -88.5c1.33301 -14.667 4.5 -27 9.5 -37s14.833 -16 29.5 -18
c2.66699 -0.666992 5.5 -1.16699 8.5 -1.5s6.16699 -0.5 9.5 -0.5c5.33301 -0.666992 10.5 -1.16699 15.5 -1.5s8.83301 -0.5 11.5 -0.5c3.33301 0 5.5 -0.666992 6.5 -2s1.5 -2.66602 1.5 -3.99902c0 -2.66699 -1.33301 -4.5 -4 -5.5s-6.66699 -1.5 -12 -1.5h-10h-10
c-10.667 0 -21.167 0.166992 -31.5 0.5s-19.833 0.5 -28.5 0.5c-12 0.666992 -21.833 1.16699 -29.5 1.5s-12.167 0.5 -13.5 0.5c-0.666992 0 -4.66699 -0.166992 -12 -0.5s-16 -0.833008 -26 -1.5h-8.5h-9.5c-7.33301 -0.666992 -14.5 -1 -21.5 -1h-18.5
c-5.33301 0 -9.33301 0.5 -12 1.5s-4 2.83301 -4 5.5c0 1.33301 0.666992 2.66602 2 3.99902s3.33301 2 6 2c2 0 4.33301 0.166992 7 0.5s5.33398 0.5 8.00098 0.5c2.66699 0.666992 5.33398 1.16699 8.00098 1.5s5 0.833008 7 1.5c10 2 16.833 8 20.5 18s6.5 22.333 8.5 37
c2.66699 21.333 4.16699 50.833 4.5 88.5s0.5 80.5 0.5 128.5v1z" />
    <glyph glyph-name="Q" unicode="Q" horiz-adv-x="920" 
d="M780 -76l-168.002 93c-12 -7.33301 -27.333 -13.333 -46 -18s-37.667 -8.66699 -57 -12c-9.33301 -1.33301 -18.5 -2.33301 -27.5 -3s-17.833 -1 -26.5 -1c-120 0 -210.667 33.167 -272 99.5s-99 139.166 -113 218.499c-2 12.667 -3.5 25.167 -4.5 37.5
s-1.5 24.5 -1.5 36.5c0 18.667 1.5 37.834 4.5 57.501s7.83301 39.5 14.5 59.5c21.333 68.667 62.5 131.5 123.5 188.5s144.833 85.5 251.5 85.5c112.667 0 206.334 -33.5 281.001 -100.5s112 -158.5 112 -274.5c0 -62.667 -11.667 -117.667 -35 -165s-49 -86 -77 -116
c-11.333 -12 -22.666 -22.667 -33.999 -32s-21.666 -17 -30.999 -23l205 -105c109.333 -56.667 200.666 -90.5 273.999 -101.5s122.333 -16.5 147 -16.5c18.667 0 40.834 1.66699 66.501 5s52.167 8.66602 79.5 15.999c8.66699 2.66699 17.167 5.5 25.5 8.5l25.5 9.5
c3.33301 0.666992 6.16602 1.5 8.49902 2.5s4.16602 1.5 5.49902 1.5c2 0 3.5 -0.666992 4.5 -2s1.5 -2.66602 1.5 -3.99902c0 -2 -0.5 -3.83301 -1.5 -5.5s-3.16699 -3.16699 -6.5 -4.5c-8 -4 -17.167 -8 -27.5 -12l-33.5 -13c-31.333 -10.667 -68.5 -20.667 -111.5 -30
s-91.167 -14 -144.5 -14c-60.667 0 -124.167 11.167 -190.5 33.5s-140.166 55.833 -221.499 100.5v0zM158.998 404c0 -117.333 30.832 -210.666 92.499 -279.999s137.5 -104 227.5 -104c15.333 0 33 1.83301 53 5.5s40.333 10.167 61 19.5
c40.667 19.333 77.834 53.166 111.501 101.499s50.5 120.5 50.5 216.5c0 120 -30.833 211.5 -92.5 274.5s-132.167 94.5 -211.5 94.5c-83.333 0 -152.833 -27.5 -208.5 -82.5s-83.5 -137.167 -83.5 -246.5v1z" />
    <glyph glyph-name="R" unicode="R" horiz-adv-x="754" 
d="M178 287l-0.00976562 175.997v150.5c0 25.667 -0.666992 46.167 -2 61.5v1.5v1.5c-0.666992 17.333 -3.83398 30.333 -9.50098 39s-16.834 14.667 -33.501 18c-2 0.666992 -4.66699 1.16699 -8 1.5s-6.66602 0.5 -9.99902 0.5c-2.66699 0.666992 -5.5 1 -8.5 1h-7.5
c-2 0 -3.83301 0.5 -5.5 1.5s-2.5 2.5 -2.5 4.5c0 3.33301 1.33301 5.5 4 6.5s6.66699 1.5 12 1.5h16.5h17.5c6.66699 -0.666992 13.167 -1 19.5 -1h18.5c10.667 -0.666992 19.834 -1.16699 27.501 -1.5s12.167 -0.5 13.5 -0.5c2.66699 0 8.83398 0.166992 18.501 0.5
s20.834 0.833008 33.501 1.5h6.5h6.5c10 0 19.667 0.166992 29 0.5s17.333 0.5 24 0.5c7.33301 0 14.5 -0.166992 21.5 -0.5s13.833 -0.5 20.5 -0.5c25.333 -1.33301 50 -5.16602 74 -11.499s46.333 -16.833 67 -31.5c4 -2.66699 8.16699 -6 12.5 -10
s8.83301 -8.66699 13.5 -14c10.667 -12.667 20.5 -28.5 29.5 -47.5s13.5 -40.5 13.5 -64.5c0 -36.667 -8.83301 -74 -26.5 -112s-49.167 -77.667 -94.5 -119l113.5 -144c34.333 -43.333 65.833 -80.666 94.5 -111.999c27.333 -28.667 51.333 -47.334 72 -56.001
s37.334 -14 50.001 -16c9.33301 -1.33301 17.5 -2.16602 24.5 -2.49902s11.833 -0.5 14.5 -0.5s4.83398 -0.666992 6.50098 -2s2.5 -2.66602 2.5 -3.99902c0 -2.66699 -1.66699 -4.5 -5 -5.5s-9.66602 -1.5 -18.999 -1.5h-71c-27.333 0 -48.5 1.16699 -63.5 3.5
s-28.833 6.83301 -41.5 13.5l-0.5 0.5c-0.333008 0.333008 -0.833008 0.5 -1.5 0.5c-6 3.33301 -11.667 7 -17 11s-10.666 8.33301 -15.999 13c-15.333 13.333 -31 30.333 -47 51l-55 72c-3.33301 4 -6.66602 8.33301 -9.99902 13s-6.66602 9 -9.99902 13l-4.5 6.5l-4.5 6.5
l-46.5 63.5c-14.333 20.333 -25.5 35.5 -33.5 45.5l-1.5 1.5l-1.5 1.5c-1.33301 0.666992 -2.83301 1.33398 -4.5 2.00098s-3.5 1 -5.5 1l-123 3c-2.66699 -0.666992 -4.5 -1.66699 -5.5 -3s-1.5 -3.33301 -1.5 -6v-23c0 -48.667 0.166992 -91.834 0.5 -129.501
s1.83301 -67.167 4.5 -88.5c1.33301 -14.667 4.5 -27 9.5 -37s14.833 -16 29.5 -18c2.66699 -0.666992 5.5 -1.16699 8.5 -1.5s6.16699 -0.5 9.5 -0.5c5.33301 -0.666992 10.5 -1.16699 15.5 -1.5s8.83301 -0.5 11.5 -0.5c3.33301 0 5.5 -0.666992 6.5 -2
s1.5 -2.66602 1.5 -3.99902c0 -2.66699 -1.33301 -4.5 -4 -5.5s-6.66699 -1.5 -12 -1.5h-10h-10c-10.667 0 -21.167 0.166992 -31.5 0.5s-19.833 0.5 -28.5 0.5c-12 0.666992 -21.833 1.16699 -29.5 1.5s-12.167 0.5 -13.5 0.5l-10.5 -0.5
c-7 -0.333008 -15.5 -0.833008 -25.5 -1.5h-9.5h-9.5c-7.33301 -0.666992 -14.333 -1 -21 -1h-18c-5.33301 0 -9.33301 0.5 -12 1.5s-4 2.83301 -4 5.5c0 1.33301 0.666992 2.66602 2 3.99902s3.33301 2 6 2c2 0 4.33301 0.166992 7 0.5s5.33398 0.5 8.00098 0.5
c2.66699 0.666992 5.33398 1.16699 8.00098 1.5s5 0.833008 7 1.5c10 2 16.833 8 20.5 18s6.5 22.333 8.5 37c2.66699 21.333 4.16699 50.833 4.5 88.5s0.5 80.5 0.5 128.5v1zM257.99 702.997v-326.999c0 -3.33301 0.5 -6 1.5 -8s2.83301 -3.66699 5.5 -5
c7.33301 -4 20.166 -7.5 38.499 -10.5s37.833 -4.83301 58.5 -5.5h4h4c5.33301 0 10.833 0.166992 16.5 0.5s11.5 1.16602 17.5 2.49902c6.66699 1.33301 13.5 3.16602 20.5 5.49902s13.833 5.83301 20.5 10.5c17.333 12 31.833 31.167 43.5 57.5s17.5 58.5 17.5 96.5
c0 62.667 -15.5 111.667 -46.5 147s-73.167 53 -126.5 53c-14.667 0 -28.167 -0.666992 -40.5 -2s-21.166 -2.66602 -26.499 -3.99902c-2.66699 -0.666992 -4.66699 -2 -6 -4s-2 -4.66699 -2 -8v1z" />
    <glyph glyph-name="S" unicode="S" horiz-adv-x="570" 
d="M248 -17c-23.333 0 -46.3311 2.00098 -68.998 6.00098s-44.334 10.667 -65.001 20c-0.666992 0.666992 -1.33398 1.16699 -2.00098 1.5s-1.33398 0.5 -2.00098 0.5c-5.33301 3.33301 -8.5 7.16602 -9.5 11.499s-1.5 12.5 -1.5 24.5c0 14 0.333008 27.333 1 40
s1.33398 23.667 2.00098 33c0 7.33301 0.333008 13.833 1 19.5s1 10.167 1 13.5c0.666992 5.33301 1.5 9.33301 2.5 12s2.83301 4 5.5 4c3.33301 0 5.33301 -0.833008 6 -2.5s1 -4.5 1 -8.5c0 -4.66699 0.166992 -10.167 0.5 -16.5s1.16602 -13.166 2.49902 -20.499
c7.33301 -36.667 25.5 -62.834 54.5 -78.501s60.167 -23.5 93.5 -23.5c44.667 0 78.834 12.5 102.501 37.5s36.834 52.5 39.501 82.5c0.666992 2 1 4.16699 1 6.5v6.5c0 16.667 -1.83301 32 -5.5 46s-9.5 27.667 -17.5 41c-9.33301 14 -21.5 28.333 -36.5 43
s-33.5 31.334 -55.5 50.001l-45 38c-42.667 34.667 -73.334 66.167 -92.001 94.5s-30.334 55.833 -35.001 82.5c-1.33301 6.66699 -2.16602 13.167 -2.49902 19.5s-0.5 12.833 -0.5 19.5c0 53.333 18.667 96.666 56 129.999s87.666 50 150.999 50
c19.333 0 36.5 -0.833008 51.5 -2.5s28.833 -4.16699 41.5 -7.5c9.33301 -2 16.5 -3.33301 21.5 -4s9.5 -1 13.5 -1s6.66699 -0.5 8 -1.5s2 -2.83301 2 -5.5c0 -1.33301 -0.166992 -4.33301 -0.5 -9l-1.5 -20c-0.666992 -8.66699 -1.16699 -19.334 -1.5 -32.001
s-0.5 -27.667 -0.5 -45c0 -8 -0.5 -13.833 -1.5 -17.5s-2.83301 -5.5 -5.5 -5.5s-4.5 1.16699 -5.5 3.5s-1.83301 5.5 -2.5 9.5c0 2.66699 -0.5 6.16699 -1.5 10.5s-1.83301 8.83301 -2.5 13.5c-1.33301 5.33301 -2.83301 10.333 -4.5 15s-3.16699 8.33398 -4.5 11.001
s-3.66602 6.16699 -6.99902 10.5s-8.33301 9.16602 -15 14.499c-9.33301 7.33301 -22.166 13.833 -38.499 19.5s-37.833 8.5 -64.5 8.5c-34.667 0 -63.834 -10.167 -87.501 -30.5s-35.5 -48.833 -35.5 -85.5c0 -10 1 -19.333 3 -28s5 -17.334 9 -26.001
c8 -16 20.667 -32.667 38 -50s41.333 -38.666 72 -63.999l28 -21c37.333 -30 66.333 -57.167 87 -81.5s35.667 -48.166 45 -71.499c5.33301 -13.333 9 -26.833 11 -40.5s3 -27.834 3 -42.501c0 -11.333 -1.5 -25.166 -4.5 -41.499s-8.83301 -33.166 -17.5 -50.499
c-6.66699 -13.333 -15 -26.333 -25 -39s-22.667 -24.334 -38 -35.001c-21.333 -14.667 -45 -25.167 -71 -31.5s-52.667 -9.5 -80 -9.5v0z" />
    <glyph glyph-name="T" unicode="T" horiz-adv-x="691" 
d="M391 710l-0.00292969 -423.003c0 -48.667 0.166992 -91.834 0.5 -129.501s1.83301 -67.167 4.5 -88.5c1.33301 -14.667 4.5 -27 9.5 -37s14.833 -16 29.5 -18c2.66699 -0.666992 5.5 -1.16699 8.5 -1.5s6.16699 -0.5 9.5 -0.5c5.33301 -0.666992 10.5 -1.16699 15.5 -1.5
s8.83301 -0.5 11.5 -0.5c3.33301 0 5.5 -0.666992 6.5 -2s1.5 -2.66602 1.5 -3.99902c0 -2.66699 -1.33301 -4.5 -4 -5.5s-6.66699 -1.5 -12 -1.5h-10h-10c-10.667 0 -21.167 0.166992 -31.5 0.5s-19.833 0.5 -28.5 0.5c-12 0.666992 -21.833 1.16699 -29.5 1.5
s-12.167 0.5 -13.5 0.5s-5.83301 -0.166992 -13.5 -0.5s-16.5 -0.833008 -26.5 -1.5h-8h-9c-7.33301 0 -14.666 -0.166992 -21.999 -0.5s-13.666 -0.5 -18.999 -0.5s-9.33301 0.5 -12 1.5s-4 2.83301 -4 5.5c0 1.33301 0.666992 2.66602 2 3.99902s3.33301 2 6 2
c2 0 4.33301 0.166992 7 0.5s5.33398 0.5 8.00098 0.5c2.66699 0.666992 5.33398 1.16699 8.00098 1.5s5 0.833008 7 1.5c10 2 16.833 8 20.5 18s6.5 22.333 8.5 37c2.66699 21.333 4.16699 50.833 4.5 88.5s0.5 80.5 0.5 128.5v424l-148 -2
c-30.667 -1.33301 -53.334 -4.16602 -68.001 -8.49902s-26 -12.5 -34 -24.5c-5.33301 -8.66699 -9.16602 -15.167 -11.499 -19.5s-4.16602 -8.16602 -5.49902 -11.499c-1.33301 -4 -2.83301 -6.66699 -4.5 -8s-3.5 -2 -5.5 -2c-1.33301 0 -2.5 0.833008 -3.5 2.5
s-1.5 3.83398 -1.5 6.50098s1 9 3 19s4.33301 21 7 33c0 0.666992 0.166992 1.33398 0.5 2.00098s0.5 1.33398 0.5 2.00098c2.66699 11.333 5 21.666 7 30.999s3.33301 15 4 17c0.666992 1.33301 1.16699 2.66602 1.5 3.99902s0.833008 2.66602 1.5 3.99902
c0.666992 2.66699 1.66699 5.16699 3 7.5s2.66602 3.5 3.99902 3.5c2 0 4.33301 -0.666992 7 -2s6 -2.66602 10 -3.99902c3.33301 -1.33301 7.16602 -2.5 11.499 -3.5s9.5 -1.83301 15.5 -2.5c4 -0.666992 8 -1.16699 12 -1.5s8 -0.5 12 -0.5l32.5 -2
c10.333 -0.666992 17.833 -1 22.5 -1l375 1c16 -0.666992 29.833 -0.5 41.5 0.5s21.5 2.16699 29.5 3.5c7.33301 1.33301 13.333 2.5 18 3.5s8 1.5 10 1.5c2.66699 0 4.16699 -1.16699 4.5 -3.5s0.5 -5.16602 0.5 -8.49902c0 -6 -0.166992 -13.333 -0.5 -22
s-0.5 -17.667 -0.5 -27v-6.5v-6.5c-0.666992 -11.333 -1.16699 -21.5 -1.5 -30.5s-0.5 -14.833 -0.5 -17.5c0 -4.66699 -0.666992 -8 -2 -10s-3 -3 -5 -3c-2.66699 0 -4.5 1.16699 -5.5 3.5s-1.83301 6.83301 -2.5 13.5l-1 12c-2 14.667 -11 27.167 -27 37.5
s-48 15.833 -96 16.5l-126 3v0z" />
    <glyph glyph-name="U" unicode="U" horiz-adv-x="830" 
d="M120 317l0.00488281 145.998v150.5c0 25.667 -0.666992 46.167 -2 61.5v1.5v1.5c-0.666992 17.333 -3.83398 30.333 -9.50098 39s-16.834 14.667 -33.501 18c-2 0.666992 -4.66699 1.16699 -8 1.5s-6.66602 0.5 -9.99902 0.5c-2.66699 0.666992 -5.5 1 -8.5 1h-7.5
c-2 0 -3.83301 0.5 -5.5 1.5s-2.5 2.5 -2.5 4.5c0 3.33301 1.33301 5.5 4 6.5s6.66699 1.5 12 1.5h16.5h17.5c6 -0.666992 12.167 -1 18.5 -1h18.5c11.333 -0.666992 21 -1.16699 29 -1.5s13 -0.5 15 -0.5s7 0.166992 15 0.5s17 0.833008 27 1.5h7h8
c8 0 15.667 0.166992 23 0.5s13.666 0.5 18.999 0.5s9.33301 -0.5 12 -1.5s4 -3.16699 4 -6.5c0 -2 -0.833008 -3.5 -2.5 -4.5s-3.5 -1.5 -5.5 -1.5h-1.5h-1.5c-2.66699 0 -5.66699 -0.333008 -9 -1s-7.66602 -1.33398 -12.999 -2.00098
c-13.333 -2 -22.5 -7.66699 -27.5 -17s-8.16699 -22.666 -9.5 -39.999v-1.5v-1.5c-1.33301 -15.333 -2 -35.833 -2 -61.5v-151.5v-139c0 -72.667 7.16699 -127 21.5 -163s32.166 -64.333 53.499 -85c6 -6 12 -11.333 18 -16s12 -8.66699 18 -12
c18 -10.667 36.333 -17.834 55 -21.501s38.667 -5.5 60 -5.5c30.667 0 60 6.66699 88 20s51 30.666 69 51.999c23.333 28.667 38.833 63.834 46.5 105.501s11.5 88.167 11.5 139.5v126v150.5c0 25.667 -0.666992 46.167 -2 61.5v1.5v1.5
c-0.666992 17.333 -3.83398 30.333 -9.50098 39s-16.834 14.667 -33.501 18c-2 0.666992 -4.66699 1.16699 -8 1.5s-6.66602 0.5 -9.99902 0.5c-2.66699 0.666992 -5.5 1 -8.5 1h-7.5c-2 0 -3.83301 0.5 -5.5 1.5s-2.5 2.5 -2.5 4.5c0 3.33301 1.33301 5.5 4 6.5
s6.66699 1.5 12 1.5h12h11c8 0 15.833 -0.166992 23.5 -0.5s14.834 -0.5 21.501 -0.5c10 -0.666992 18.5 -1.16699 25.5 -1.5s11.167 -0.5 12.5 -0.5c2 0 6 0.166992 12 0.5s13 0.833008 21 1.5h10.5h10.5c5.33301 0.666992 10.5 1 15.5 1h14.5
c5.33301 0 9.33301 -0.5 12 -1.5s4 -3.16699 4 -6.5c0 -2 -0.833008 -3.5 -2.5 -4.5s-3.5 -1.5 -5.5 -1.5h-1.5h-1.5c-2.66699 0 -5.66699 -0.166992 -9 -0.5s-7.66602 -1.16602 -12.999 -2.49902c-13.333 -2.66699 -22.5 -8.5 -27.5 -17.5s-8.16699 -22.167 -9.5 -39.5
v-1.5v-1.5c-1.33301 -15.333 -2 -35.833 -2 -61.5v-151.5v-106c0 -11.333 -0.166992 -22.333 -0.5 -33s-0.833008 -21.667 -1.5 -33c-2.66699 -44 -10.334 -86.833 -23.001 -128.5s-35 -76.834 -67 -105.501c-6 -5.33301 -11.833 -10.166 -17.5 -14.499
s-11.167 -8.16602 -16.5 -11.499c-30.667 -20 -60.834 -32.833 -90.501 -38.5s-56.834 -8.5 -81.501 -8.5c-12 0 -30.5 1.33301 -55.5 4s-51.167 9.33398 -78.5 20.001c-12.667 5.33301 -25.167 11.666 -37.5 18.999s-23.833 16.333 -34.5 27
c-24.667 23.333 -45.334 54.833 -62.001 94.5s-25 95.834 -25 168.501v1z" />
    <glyph glyph-name="V" unicode="V" horiz-adv-x="742" 
d="M203 631l192.003 -512.001c12 26.667 26.333 60.834 43 102.501l52 131.5c1.33301 4 2.83301 7.83301 4.5 11.5s3.16699 7.5 4.5 11.5l69 181.5c21.333 57 35 95.5 41 115.5c2.66699 7.33301 4.83398 14.333 6.50098 21s2.5 12.334 2.5 17.001v3.5
c0 1 -0.333008 2.16699 -1 3.5c-0.666992 3.33301 -2 6.33301 -4 9s-4.66699 5 -8 7l-8 2c-2.66699 0.666992 -5.66699 1 -9 1c-3.33301 0.666992 -6.83301 1 -10.5 1h-10.5c-2.66699 0 -5.16699 0.333008 -7.5 1s-3.5 2.33398 -3.5 5.00098c0 3.33301 1.66699 5.5 5 6.5
s9 1.5 17 1.5h9.5h8.5c7.33301 0 14.5 -0.166992 21.5 -0.5s13.5 -0.5 19.5 -0.5c9.33301 -0.666992 17.5 -1.16699 24.5 -1.5s11.833 -0.5 14.5 -0.5c1.33301 0 4.83301 0.166992 10.5 0.5s12.167 0.833008 19.5 1.5h10.5h11.5c4.66699 0.666992 9.16699 1 13.5 1h12.5
c5.33301 0 9.5 -0.5 12.5 -1.5s4.5 -2.83301 4.5 -5.5s-1 -4.5 -3 -5.5s-5 -1.5 -9 -1.5c-2.66699 0 -7.66699 -0.333008 -15 -1s-15 -2.66699 -23 -6c-2 -0.666992 -3.83301 -1.33398 -5.5 -2.00098s-3.16699 -1.66699 -4.5 -3c-6.66699 -4.66699 -14.167 -13 -22.5 -25
s-19.166 -35 -32.499 -69c-5.33301 -14 -19 -47.333 -41 -100l-71 -171l-79 -187.5c-22 -52.333 -38.667 -90.833 -50 -115.5c-11.333 -24 -19.333 -41.333 -24 -52s-8.66699 -17.667 -12 -21l-3 -1.5c-0.666992 -0.333008 -1.66699 -0.5 -3 -0.5
c-2 0 -3.83301 0.5 -5.5 1.5s-3.16699 2.16699 -4.5 3.5c-3.33301 4 -6.83301 10.333 -10.5 19l-15.5 37l-245 614c-2.66699 6.66699 -5.33398 12.834 -8.00098 18.501s-5.33398 10.834 -8.00098 15.501c-7.33301 13.333 -15.333 22.666 -24 27.999s-19.334 10 -32.001 14
c-1.33301 0 -2.5 0.166992 -3.5 0.5s-2.16699 0.833008 -3.5 1.5c-6.66699 0.666992 -12.667 1.16699 -18 1.5s-9.33301 0.5 -12 0.5c-3.33301 0 -5.5 0.666992 -6.5 2s-1.5 3 -1.5 5c0 3.33301 2.33301 5.33301 7 6s10.667 1 18 1h12h13c8 0 16 -0.166992 24 -0.5
s15.667 -0.5 23 -0.5c10.667 -0.666992 20.167 -1.16699 28.5 -1.5s13.833 -0.5 16.5 -0.5s7.16699 0.166992 13.5 0.5s13.833 0.833008 22.5 1.5c6 0 12.167 0.166992 18.5 0.5s12.833 0.5 19.5 0.5h9.5h9.5c9.33301 0 16.166 -0.5 20.499 -1.5s6.5 -2.83301 6.5 -5.5
s-0.833008 -4.5 -2.5 -5.5s-4.16699 -1.5 -7.5 -1.5h-8.5c-3 0 -5.83301 -0.333008 -8.5 -1c-4 0 -7.83301 -0.333008 -11.5 -1s-6.83398 -1.66699 -9.50098 -3c-4 -2 -7 -4.33301 -9 -7s-3.33301 -5.33398 -4 -8.00098v-2.5v-2.5c0 -6.66699 2.66699 -17.334 8 -32.001
l19 -51v1z" />
    <glyph glyph-name="W" unicode="W" horiz-adv-x="1100" 
d="M599 702l199.004 -566.997h4l33 108l47 152c0.666992 2 1.16699 3.83301 1.5 5.5s0.833008 3.5 1.5 5.5l40 131l31 107c5.33301 18.667 8.5 32.334 9.5 41.001s1.5 16.334 1.5 23.001c0 9.33301 -3.66699 16.666 -11 21.999s-22.666 8 -45.999 8
c-2.66699 0 -4.83398 0.666992 -6.50098 2s-2.5 3 -2.5 5c0 2.66699 1.33301 4.5 4 5.5s7 1.5 13 1.5c12.667 0 24.667 -0.166992 36 -0.5s21.666 -0.5 30.999 -0.5c8.66699 -0.666992 16.167 -1.16699 22.5 -1.5s10.5 -0.5 12.5 -0.5s5.83301 0.166992 11.5 0.5
s12.5 0.833008 20.5 1.5h11.5c4.33301 0 8.5 0.333008 12.5 1h13h12c4.66699 0 8.16699 -0.5 10.5 -1.5s3.5 -2.5 3.5 -4.5c0 -2.66699 -0.666992 -4.66699 -2 -6s-3.66602 -2 -6.99902 -2c-1.33301 0 -4 -0.166992 -8 -0.5s-8.33301 -0.833008 -13 -1.5
c-2 0 -4.16699 -0.333008 -6.5 -1s-4.5 -1.33398 -6.5 -2.00098c-12.667 -4.66699 -23.167 -14 -31.5 -28s-16.166 -31.333 -23.499 -52c-2 -4.66699 -3.66699 -9.33398 -5 -14.001s-3 -9.33398 -5 -14.001l-40 -119l-49 -151l-54 -164.5l-41 -122.5
c-10 -28.667 -17.5 -48.834 -22.5 -60.501s-9.16699 -19.167 -12.5 -22.5c-1.33301 -0.666992 -2.5 -1.16699 -3.5 -1.5s-2.16699 -0.5 -3.5 -0.5s-2.83301 0.333008 -4.5 1s-3.16699 2 -4.5 4c-2.66699 3.33301 -5.66699 8.66602 -9 15.999s-7.33301 17.333 -12 30
l-196 557h-2c-8.66699 -24.667 -22.834 -63 -42.501 -115l-61.5 -165l-62 -163.5l-43 -112.5c-4.66699 -12.667 -8.66699 -22.667 -12 -30s-6.33301 -12.666 -9 -15.999c-2 -2 -3.83301 -3.5 -5.5 -4.5s-3.83398 -1.5 -6.50098 -1.5c-1.33301 0 -2.5 0.166992 -3.5 0.5
s-2.16699 1.16602 -3.5 2.49902c-3.33301 2.66699 -7 9.5 -11 20.5s-9.66699 29.167 -17 54.5l-178 594c-1.33301 4 -2.83301 8.16699 -4.5 12.5s-3.16699 8.5 -4.5 12.5c-6 16 -12.5 27.667 -19.5 35s-15.833 13 -26.5 17c-2.66699 1.33301 -5.66699 2.33301 -9 3
s-6.66602 1 -9.99902 1c-5.33301 0.666992 -10.5 1.16699 -15.5 1.5s-8.16699 0.5 -9.5 0.5c-2.66699 0 -4.83398 0.5 -6.50098 1.5s-2.5 2.83301 -2.5 5.5s1.33301 4.5 4 5.5s6.33398 1.5 11.001 1.5h4.5h5.5c11.333 0 22.5 -0.166992 33.5 -0.5s21.167 -0.5 30.5 -0.5
c11.333 -0.666992 20.833 -1.16699 28.5 -1.5s12.834 -0.5 15.501 -0.5c2 0 6.16699 0.166992 12.5 0.5s14.166 0.833008 23.499 1.5c9.33301 0 19.666 0.166992 30.999 0.5s23.333 0.5 36 0.5c7.33301 0 12.166 -0.666992 14.499 -2s3.5 -3 3.5 -5
c0 -2.66699 -1 -4.5 -3 -5.5s-4.33301 -1.5 -7 -1.5h-10c-4 0 -8.33301 -0.333008 -13 -1l-8 -2c-2.66699 -0.666992 -5.33398 -1.66699 -8.00098 -3c-0.666992 0 -1.16699 -0.166992 -1.5 -0.5l-0.5 -0.5c-2.66699 -2 -5.16699 -4.83301 -7.5 -8.5s-3.5 -8.5 -3.5 -14.5
c0 -6.66699 2 -18.167 6 -34.5s8.33301 -35.5 13 -57.5c4 -16 12.5 -47.667 25.5 -95l41.5 -151l41.5 -149l25.5 -89l2 1l212 570c6.66699 16.667 11.5 28 14.5 34s5.5 9.66699 7.5 11h1.5h1.5h1.5c0.333008 0 0.833008 -0.333008 1.5 -1
c2.66699 -1.33301 5.66699 -5.66602 9 -12.999s7.66602 -18.333 12.999 -33v1z" />
    <glyph glyph-name="X" unicode="X" horiz-adv-x="694" 
d="M124 97l180.997 285.995l-160 269l-4.5 6.5c-1.66699 2.33301 -3.16699 4.83301 -4.5 7.5c-10 16 -20.333 29.5 -31 40.5s-23.334 19.167 -38.001 24.5c-2 0.666992 -3.83301 1.16699 -5.5 1.5s-3.5 0.833008 -5.5 1.5c-6.66699 1.33301 -12.834 2.33301 -18.501 3
s-9.83398 1 -12.501 1s-4.83398 0.666992 -6.50098 2s-2.5 3 -2.5 5c0 2.66699 1.16699 4.5 3.5 5.5s6.83301 1.5 13.5 1.5c6 0 13.833 -0.166992 23.5 -0.5s19.834 -0.5 30.501 -0.5h6h6c12.667 -0.666992 23.834 -1.16699 33.501 -1.5s15.5 -0.5 17.5 -0.5
s6.5 0.166992 13.5 0.5s15.167 0.833008 24.5 1.5h11.5h12.5c5.33301 0.666992 10.833 1 16.5 1h15.5c7.33301 0 12 -0.5 14 -1.5s3 -2.83301 3 -5.5s-0.666992 -4.5 -2 -5.5s-3.66602 -1.5 -6.99902 -1.5h-7c-2.66699 0 -5.33398 -0.333008 -8.00098 -1
c-2 0 -4 -0.166992 -6 -0.5s-4 -0.833008 -6 -1.5c-4.66699 -1.33301 -7.83398 -3.66602 -9.50098 -6.99902s-2.5 -6.66602 -2.5 -9.99902s0.5 -6.83301 1.5 -10.5s2.16699 -7.5 3.5 -11.5c0.666992 -2 1.5 -3.83301 2.5 -5.5s1.83301 -3.5 2.5 -5.5
c2 -3.33301 3.83301 -6.66602 5.5 -9.99902s3.16699 -6.66602 4.5 -9.99902c4.66699 -8 9.16699 -16.167 13.5 -24.5s8.83301 -16.5 13.5 -24.5l46.5 -82.5l51.5 -87.5c6.66699 9.33301 16.5 24 29.5 44l40.5 64c0.666992 1.33301 1.33398 2.33301 2.00098 3s1 1.66699 1 3
l48 77c14.667 24 23.334 38.667 26.001 44s4.66699 9.83301 6 13.5s2.33301 7.5 3 11.5c0 1.33301 0.166992 3 0.5 5s0.5 4 0.5 6v2c0 0.666992 -0.333008 1.33398 -1 2.00098c-0.666992 2.66699 -2.5 5.33398 -5.5 8.00098s-6.5 4.66699 -10.5 6
c-1.33301 0.666992 -3 1.16699 -5 1.5s-4 0.5 -6 0.5c-4 0.666992 -7.66699 1 -11 1h-8c-2.66699 0 -4.83398 0.5 -6.50098 1.5s-2.5 2.83301 -2.5 5.5c0 2 1.33301 3.66699 4 5s7 2 13 2h6h6c8 0 15.667 -0.166992 23 -0.5s14 -0.5 20 -0.5
c8.66699 -0.666992 16 -1.16699 22 -1.5s10 -0.5 12 -0.5s6 0.166992 12 0.5s13 0.833008 21 1.5c4.66699 0 9.83398 0.166992 15.501 0.5s11.167 0.5 16.5 0.5h9.5h9.5c5.33301 0 9.33301 -0.666992 12 -2s4 -3 4 -5s-1 -3.66699 -3 -5s-4.66699 -2 -8 -2
c-2 0 -5 -0.166992 -9 -0.5s-8 -0.833008 -12 -1.5c-2 0 -4 -0.333008 -6 -1l-6 -2c-7.33301 -2 -14 -5.33301 -20 -10s-12 -10.667 -18 -18c-6 -6.66699 -12.167 -14.5 -18.5 -23.5l-20.5 -29.5l-161 -241c4.66699 -8.66699 17.5 -30.5 38.5 -65.5l67.5 -113.5l66 -110
c20.667 -34 33.667 -54.333 39 -61c0.666992 -1.33301 1.5 -2.5 2.5 -3.5l3.5 -3.5c6.66699 -8.66699 14 -16.167 22 -22.5s18.333 -11.5 31 -15.5c0.666992 0 1.33398 -0.166992 2.00098 -0.5s1.33398 -0.5 2.00098 -0.5c6.66699 -2 12.834 -3.33301 18.501 -4
s9.83398 -1 12.501 -1s4.66699 -0.5 6 -1.5s2 -2.5 2 -4.5c0 -2.66699 -1.16699 -4.5 -3.5 -5.5s-5.83301 -1.5 -10.5 -1.5c-24.667 0 -47.667 0.166992 -69 0.5s-42.333 0.5 -63 0.5c-4.66699 0.666992 -9.33398 1 -14.001 1h-14c-2.66699 0 -5 0.166992 -7 0.5
s-4 0.5 -6 0.5c-7.33301 0 -12.166 0.5 -14.499 1.5s-3.5 2.5 -3.5 4.5s0.5 3.66699 1.5 5s2.5 2.33301 4.5 3c0.666992 0 1.16699 0.166992 1.5 0.5l0.5 0.5c2 1.33301 3.66699 3.16602 5 5.49902s2 5.16602 2 8.49902c0 2 -0.333008 4 -1 6s-1.66699 4.33301 -3 7
l-83.5 148l-88.5 150l-156 -264c-0.666992 -2 -1.5 -3.83301 -2.5 -5.5s-1.83301 -3.5 -2.5 -5.5c-2.66699 -6.66699 -4.66699 -13 -6 -19s-2 -11 -2 -15c0 -4.66699 1.5 -8.66699 4.5 -12s6.83301 -5.66602 11.5 -6.99902c1.33301 0 2.66602 -0.166992 3.99902 -0.5
s2.66602 -0.5 3.99902 -0.5c2 -0.666992 4 -1 6 -1h5c2.66699 0 4.66699 -0.666992 6 -2s2 -3 2 -5s-1.16699 -3.5 -3.5 -4.5s-5.16602 -1.5 -8.49902 -1.5c-5.33301 0 -11.833 0.166992 -19.5 0.5s-15.834 0.5 -24.501 0.5h-4.5h-5.5c-10 0.666992 -19 1.16699 -27 1.5
s-13 0.5 -15 0.5s-6.33301 -0.166992 -13 -0.5s-14.334 -0.833008 -23.001 -1.5h-12h-12c-5.33301 -0.666992 -10.666 -1 -15.999 -1h-15c-3.33301 0 -5.66602 0.5 -6.99902 1.5s-2 2.5 -2 4.5s0.666992 3.66699 2 5s3 2 5 2c4 0 9.5 0.333008 16.5 1s14.167 2 21.5 4
c6.66699 2 12.834 4.5 18.501 7.5s11.167 7.16699 16.5 12.5c7.33301 6 14.833 14 22.5 24s16.167 22.333 25.5 37v1z" />
    <glyph glyph-name="Y" unicode="Y" horiz-adv-x="654" 
d="M289 170l0.00195312 86.0039c0 21.333 -1.5 38.666 -4.5 51.999s-6.83301 25.666 -11.5 36.999c-1.33301 2.66699 -2.5 5.16699 -3.5 7.5s-2.16699 4.83301 -3.5 7.5c-2 4.66699 -12 21.834 -30 51.501l-59 97.5c-0.666992 0.666992 -1.16699 1.5 -1.5 2.5
s-0.833008 1.83301 -1.5 2.5l-49.5 79.5l-34.5 54.5c-12.667 18.667 -24.834 34.167 -36.501 46.5s-22.167 21.5 -31.5 27.5c-2 1.33301 -4.16699 2.66602 -6.5 3.99902s-4.83301 2.66602 -7.5 3.99902c-5.33301 2.66699 -10.5 4.66699 -15.5 6s-9.16699 2 -12.5 2
c-2.66699 0 -5 0.5 -7 1.5s-3 2.83301 -3 5.5c0 2 1 3.66699 3 5s5.33301 2 10 2c4 0 10.333 -0.166992 19 -0.5s17.667 -0.5 27 -0.5h4c1.33301 0 2.66602 -0.333008 3.99902 -1c10.667 0 20.334 -0.166992 29.001 -0.5s13.667 -0.5 15 -0.5c2 0 5.66699 0.166992 11 0.5
s11.666 0.833008 18.999 1.5c7.33301 0 15.666 0.166992 24.999 0.5s19 0.5 29 0.5c5.33301 0 8.83301 -0.666992 10.5 -2s2.5 -3 2.5 -5c0 -0.666992 -0.333008 -1.5 -1 -2.5s-1.66699 -1.5 -3 -1.5c-1.33301 -0.666992 -3 -1.33398 -5 -2.00098s-4 -1.66699 -6 -3
c-4 -2 -7.16699 -4.5 -9.5 -7.5s-3.5 -6.5 -3.5 -10.5c0 -6 1.16699 -12.167 3.5 -18.5s5.5 -13.166 9.5 -20.499s15.167 -26.666 33.5 -57.999l58.5 -102l58 -99c18 -30.667 29.333 -49.667 34 -57c4.66699 10 14.667 29 30 57l50 89
c0.666992 0.666992 1.16699 1.5 1.5 2.5s0.833008 1.83301 1.5 2.5l51.5 89.5l31.5 53.5c6.66699 10.667 11.167 20.167 13.5 28.5s3.5 15.833 3.5 22.5c0 7.33301 -1.16699 13.5 -3.5 18.5s-6.5 8.16699 -12.5 9.5c-1.33301 0.666992 -2.5 1.16699 -3.5 1.5
s-1.83301 0.5 -2.5 0.5c-2.66699 1.33301 -4.83398 2.5 -6.50098 3.5s-2.5 2.5 -2.5 4.5s1.5 3.5 4.5 4.5s6.83301 1.5 11.5 1.5h8h8c4 -0.666992 8 -1 12 -1h12c6 -0.666992 11.333 -1.16699 16 -1.5s8 -0.5 10 -0.5c1.33301 0 6.33301 0.166992 15 0.5
s18.334 0.833008 29.001 1.5h3h4c9.33301 0 18.333 0.166992 27 0.5s15 0.5 19 0.5c3.33301 0 6.33301 -0.5 9 -1.5s4 -2.5 4 -4.5c0 -2.66699 -1.16699 -4.66699 -3.5 -6s-5.5 -2 -9.5 -2s-8.83301 -0.5 -14.5 -1.5s-11.5 -2.83301 -17.5 -5.5
c-2.66699 -1.33301 -5.16699 -2.5 -7.5 -3.5s-4.5 -2.16699 -6.5 -3.5c-4.66699 -2.66699 -8.83398 -5.33398 -12.501 -8.00098s-7.16699 -6 -10.5 -10c-4.66699 -4 -9.33398 -8.66699 -14.001 -14l-16 -19c-8 -9.33301 -20.667 -27.666 -38 -54.999l-55 -89
c-1.33301 -2.66699 -2.83301 -5.33398 -4.5 -8.00098l-4.5 -7l-56.5 -97.5c-17 -30.333 -27.833 -50.833 -32.5 -61.5c-5.33301 -12.667 -9 -25 -11 -37s-3.33301 -23.667 -4 -35v-14v-14v-85c0 -8.66699 0.166992 -22.334 0.5 -41.001s1.16602 -38.667 2.49902 -60
c1.33301 -14.667 4.83301 -27 10.5 -37s15.834 -16 30.501 -18c2.66699 -0.666992 5.5 -1.16699 8.5 -1.5s6.16699 -0.5 9.5 -0.5c5.33301 -0.666992 10.5 -1.16699 15.5 -1.5s8.83301 -0.5 11.5 -0.5c3.33301 0 5.5 -0.666992 6.5 -2s1.5 -2.66602 1.5 -3.99902
c0 -2.66699 -1.33301 -4.5 -4 -5.5s-6.66699 -1.5 -12 -1.5h-10h-10c-10.667 0 -21.167 0.166992 -31.5 0.5s-19.833 0.5 -28.5 0.5c-12 0.666992 -21.833 1.16699 -29.5 1.5s-12.167 0.5 -13.5 0.5s-5.83301 -0.166992 -13.5 -0.5s-16.5 -0.833008 -26.5 -1.5h-8h-9
c-7.33301 0 -14.666 -0.166992 -21.999 -0.5s-13.666 -0.5 -18.999 -0.5s-9.33301 0.5 -12 1.5s-4 2.83301 -4 5.5c0 1.33301 0.666992 2.66602 2 3.99902s3.33301 2 6 2c2 0 4.33301 0.166992 7 0.5s5.33398 0.5 8.00098 0.5c2.66699 0.666992 5.33398 1.16699 8.00098 1.5
s5 0.833008 7 1.5c10 2 17.5 8 22.5 18s7.83301 22.333 8.5 37c1.33301 21.333 2.16602 41.333 2.49902 60s0.5 32 0.5 40v1z" />
    <glyph glyph-name="Z" unicode="Z" horiz-adv-x="692" 
d="M184 40l272.001 -0.00195312c52.667 -0.666992 89.5 3.5 110.5 12.5s36.833 20.833 47.5 35.5c2.66699 3.33301 5 7.5 7 12.5l6 15.5c2 4.66699 3.5 9.33398 4.5 14.001l2.5 12c1.33301 5.33301 2.5 9.33301 3.5 12s2.83301 4 5.5 4c3.33301 0 5.5 -1.5 6.5 -4.5
s1.5 -9.16699 1.5 -18.5c0 -6.66699 -0.666992 -14.834 -2 -24.501s-3 -19.167 -5 -28.5l-2 -12l-2 -12c-2 -8 -3.66699 -15.167 -5 -21.5s-2.66602 -11.833 -3.99902 -16.5c-0.666992 -2 -1.16699 -4 -1.5 -6s-0.833008 -3.66699 -1.5 -5c-2 -6 -4.66699 -9.83301 -8 -11.5
s-9.66602 -2.5 -18.999 -2.5c-42 0 -83.833 0.333008 -125.5 1s-83.834 1 -126.501 1l-128 2c-42.667 0.666992 -86 1 -130 1c-6 0 -10.5 0.333008 -13.5 1s-4.5 2.66699 -4.5 6c0 2.66699 0.833008 5.83398 2.5 9.50098s5.5 9.83398 11.5 18.501l32 48l32 48l191 290
l184 290l-217 1c-6.66699 -0.666992 -13.334 -1 -20.001 -1s-13.667 -0.333008 -21 -1c-19.333 -0.666992 -38.333 -2.5 -57 -5.5s-34 -7.5 -46 -13.5c-10 -5.33301 -18.667 -11.833 -26 -19.5s-13.333 -15.5 -18 -23.5c-4 -6.66699 -7 -13 -9 -19s-3.33301 -11.667 -4 -17
c-0.666992 -7.33301 -2 -12.166 -4 -14.499s-4.33301 -3.5 -7 -3.5s-4.33398 1.16699 -5.00098 3.5s-1 5.5 -1 9.5c0 3.33301 1 12 3 26s4.33301 29 7 45c0 0.666992 0.166992 1.5 0.5 2.5s0.5 2.16699 0.5 3.5l5.5 32c1.66699 10 2.83398 18 3.50098 24
c1.33301 7.33301 2.66602 12.333 3.99902 15s3.33301 4 6 4h1.5h1.5l6 -2c2 -0.666992 4.33301 -1.33398 7 -2.00098s6.16699 -1.33398 10.5 -2.00098s9.5 -1 15.5 -1c39.333 -1.33301 71.5 -2.16602 96.5 -2.49902s45.167 -0.5 60.5 -0.5h9h8l279 1
c7.33301 -0.666992 12.5 -1.5 15.5 -2.5s4.5 -3.16699 4.5 -6.5v-2v-2c0 -0.666992 -0.333008 -1.66699 -1 -3s-1.66699 -3 -3 -5l-221.5 -344.5l-226.5 -345.5v1z" />
    <glyph glyph-name="bracketleft" unicode="[" horiz-adv-x="360" 
d="M97 -58v838.996c0 4.66699 1 7.83398 3 9.50098s6.66699 2.5 14 2.5l170 1c4 -0.666992 7 -1.5 9 -2.5s3 -2.83301 3 -5.5c0 -2 -1.33301 -3.66699 -4 -5s-7 -2.33301 -13 -3c-8 -0.666992 -16.833 -1.5 -26.5 -2.5s-19.5 -2.5 -29.5 -4.5
c-9.33301 -1.33301 -18.666 -3.16602 -27.999 -5.49902s-17.666 -5.16602 -24.999 -8.49902c-2.66699 -10.667 -4.5 -23.5 -5.5 -38.5s-1.5 -33.167 -1.5 -54.5v-609c0 -21.333 0.5 -39.5 1.5 -54.5s2.83301 -27.833 5.5 -38.5
c7.33301 -3.33301 15.666 -6.16602 24.999 -8.49902s19 -4.5 29 -6.5c10 -1.33301 19.667 -2.5 29 -3.5s17.666 -1.83301 24.999 -2.5c6 -0.666992 10.333 -1.5 13 -2.5s4 -2.83301 4 -5.5s-1 -4.5 -3 -5.5s-5 -1.5 -9 -1.5h-170c-7.33301 0 -11.833 0.833008 -13.5 2.5
s-2.5 6.16699 -2.5 13.5v0z" />
    <glyph glyph-name="backslash" unicode="\" horiz-adv-x="500" 
 />
    <glyph glyph-name="bracketright" unicode="]" horiz-adv-x="360" 
d="M263 778v-838.996c0 -5.33301 -1 -8.83301 -3 -10.5s-6.66699 -2.5 -14 -2.5h-170c-4 0 -7 0.5 -9 1.5s-3 2.83301 -3 5.5c0 2 1.33301 3.66699 4 5s7 2.33301 13 3c8 0.666992 16.833 1.5 26.5 2.5s19.5 2.5 29.5 4.5c9.33301 1.33301 18.666 3.16602 27.999 5.49902
s17.666 5.16602 24.999 8.49902c2.66699 10.667 4.5 23.5 5.5 38.5s1.5 32.833 1.5 53.5v611c0 20.667 -0.5 38.5 -1.5 53.5s-2.83301 27.833 -5.5 38.5c-7.33301 3.33301 -15.666 6.16602 -24.999 8.49902s-19 4.5 -29 6.5c-10 1.33301 -19.667 2.5 -29 3.5
s-17.666 1.83301 -24.999 2.5c-6 0.666992 -10.333 1.5 -13 2.5s-4 2.83301 -4 5.5s1 4.5 3 5.5s5 1.5 9 1.5l170 1c7.33301 -0.666992 11.833 -1.83398 13.5 -3.50098s2.5 -6.16699 2.5 -13.5v1z" />
    <glyph glyph-name="asciicircum" unicode="^" horiz-adv-x="500" 
 />
    <glyph glyph-name="underscore" unicode="_" horiz-adv-x="500" 
d="M0 -75h500v-50h-500v50v0z" />
    <glyph glyph-name="grave" unicode="`" horiz-adv-x="911" 
d="M506 830c-4.66699 -0.666992 -15.8369 1.83203 -33.5039 7.49902l-56.5 18.5c-1.33301 0.666992 -2.83301 1.16699 -4.5 1.5s-3.16699 0.833008 -4.5 1.5l-52 18.5l-30 10.5c-8.66699 3.33301 -15.167 6 -19.5 8s-7.16602 4 -8.49902 6
c-0.666992 0.666992 -1 1.16699 -1 1.5v1.5c0 2 0.666992 3.5 2 4.5s3 1.83301 5 2.5c0.666992 0 1.33398 0.166992 2.00098 0.5s1.33398 0.5 2.00098 0.5c3.33301 0.666992 6.5 1.5 9.5 2.5s6.16699 2.16699 9.5 3.5c1.33301 0 2.66602 0.166992 3.99902 0.5
s2.66602 0.833008 3.99902 1.5c6.66699 2 13 4 19 6s10.667 3.66699 14 5c4 1.33301 7.16699 2.5 9.5 3.5s4.5 1.5 6.5 1.5c0.666992 0 1.33398 -0.166992 2.00098 -0.5s1.33398 -0.833008 2.00098 -1.5c1.33301 -1.33301 2.83301 -3.16602 4.5 -5.49902
s3.83398 -5.16602 6.50098 -8.49902c2.66699 -2.66699 9.83398 -8.66699 21.501 -18s24.834 -19.333 39.501 -30l8 -6c2.66699 -2 5.33398 -3.66699 8.00098 -5l11 -7.5c3.33301 -2.33301 6.66602 -4.5 9.99902 -6.5c4 -2.66699 7.66699 -4.83398 11 -6.50098
s5.66602 -3.5 6.99902 -5.5l0.5 -0.5c0.333008 -0.333008 0.5 -0.833008 0.5 -1.5c0 -1.33301 -0.833008 -2.5 -2.5 -3.5s-3.83398 -1.5 -6.50098 -1.5v1z" />
    <glyph glyph-name="a" unicode="a" horiz-adv-x="700" 
d="M95 107l226.998 621.003c4.66699 12.667 8.33398 21.667 11.001 27s5.33398 8.66602 8.00098 9.99902c0 0.666992 0.333008 1 1 1h2h2c0.666992 0 1 -0.333008 1 -1c2.66699 -0.666992 5.33398 -3.5 8.00098 -8.5s6.33398 -13.833 11.001 -26.5
c4.66699 -11.333 19.667 -50.333 45 -117l83 -216l58.5 -151.5l46.5 -118.5c18 -44.667 34.167 -73.5 48.5 -86.5s26.833 -21.167 37.5 -24.5c7.33301 -2.66699 14.666 -4.33398 21.999 -5.00098s13.333 -1 18 -1c3.33301 0 5.83301 -0.333008 7.5 -1
s2.5 -2.33398 2.5 -5.00098s-2 -4.5 -6 -5.5s-8.66699 -1.5 -14 -1.5h-53c-28 0 -58.333 0.666992 -91 2h-6.5h-6.5h-4h-4c-6.66699 0.666992 -12 1.16699 -16 1.5s-6 1.83301 -6 4.5c0 2 0.666992 3.5 2 4.5s3 1.83301 5 2.5h0.5c0.333008 0 0.833008 0.333008 1.5 1
c1.33301 0.666992 2.83301 2.16699 4.5 4.5s2.16699 5.5 1.5 9.5v2v2c0 1.33301 -0.166992 2.66602 -0.5 3.99902s-0.833008 2.66602 -1.5 3.99902l-93 247c-0.666992 1.33301 -1.66699 2.5 -3 3.5s-3.33301 1.5 -6 1.5l-215 1c-2.66699 -0.666992 -4.66699 -1.66699 -6 -3
s-2.66602 -3.33301 -3.99902 -6l-60 -176c-4.66699 -13.333 -8.16699 -25.666 -10.5 -36.999s-3.5 -21.666 -3.5 -30.999c0 -8.66699 3.16699 -15.167 9.5 -19.5s13.166 -7.16602 20.499 -8.49902c1.33301 -0.666992 2.66602 -1 3.99902 -1h4l10 1
c3.33301 -0.666992 5.83301 -1.5 7.5 -2.5s2.5 -2.5 2.5 -4.5c0 -2.66699 -1.33301 -4.5 -4 -5.5s-6.33398 -1.5 -11.001 -1.5s-9.66699 0.166992 -15 0.5s-11 0.5 -17 0.5h-6h-6c-7.33301 0.666992 -14.166 1.16699 -20.499 1.5s-10.833 0.5 -13.5 0.5
s-7.83398 -0.166992 -15.501 -0.5s-16.834 -0.833008 -27.501 -1.5c-7.33301 0 -15 -0.166992 -23 -0.5s-16.333 -0.5 -25 -0.5h-10.5h-10.5c-6.66699 0 -11.5 0.5 -14.5 1.5s-4.5 2.83301 -4.5 5.5c0 2 0.833008 3.5 2.5 4.5s3.83398 1.5 6.50098 1.5h7
c2.66699 0 5.33398 0.333008 8.00098 1c2 0 4.16699 0.166992 6.5 0.5s4.5 0.5 6.5 0.5c23.333 3.33301 41 13.666 53 30.999s22.333 38.333 31 63v1zM234.998 328.003l191.001 0.00195312c2.66699 -0.666992 4.16699 -0.333984 4.5 0.999023s0.166016 3 -0.500977 5
l-95 271c-2.66699 6.66699 -5.16699 10 -7.5 10s-4.83301 -3.66699 -7.5 -11l-88 -269c-0.666992 -1.33301 -1 -2.33301 -1 -3v-2c0 -0.666992 0.5 -1.33398 1.5 -2.00098s1.83301 -1 2.5 -1v1z" />
    <glyph glyph-name="b" unicode="b" horiz-adv-x="687" 
d="M178 287l-0.00195312 175.998v150.5c0 25.667 -0.666992 46.167 -2 61.5v1.5v1.5c-0.666992 17.333 -3.83398 30.333 -9.50098 39s-16.834 14.667 -33.501 18c-2 0.666992 -4.66699 1.16699 -8 1.5s-6.66602 0.5 -9.99902 0.5c-2.66699 0.666992 -5.5 1 -8.5 1h-7.5
c-2 0 -3.83301 0.5 -5.5 1.5s-2.5 2.5 -2.5 4.5c0 3.33301 1.33301 5.5 4 6.5s6.66699 1.5 12 1.5h16.5h17.5c6.66699 -0.666992 13.167 -1 19.5 -1h18.5c10.667 -0.666992 19.834 -1.16699 27.501 -1.5s12.167 -0.5 13.5 -0.5c6 0 12.833 0.166992 20.5 0.5
s16.167 0.833008 25.5 1.5c9.33301 0 19.333 0.166992 30 0.5s21.667 0.5 33 0.5c54.667 0 96.167 -9.33301 124.5 -28s48.5 -39 60.5 -61c5.33301 -11.333 9.16602 -22.166 11.499 -32.499s3.5 -19.833 3.5 -28.5c0 -40.667 -9.83301 -74.667 -29.5 -102
s-41.167 -53.333 -64.5 -78c7.33301 -2 15 -4.66699 23 -8s16 -7.33301 24 -12c31.333 -16.667 60.166 -41 86.499 -73s39.5 -71.333 39.5 -118v-5.5v-5.5c-3.33301 -52 -26 -99.333 -68 -142s-104.333 -64 -187 -64c-5.33301 0 -14 0.333008 -26 1
s-24.667 1.33398 -38 2.00098h-4h-4c-14.667 0.666992 -28 1.33398 -40 2.00098s-19 1 -21 1c-1.33301 0 -5.83301 -0.166992 -13.5 -0.5s-16.5 -0.833008 -26.5 -1.5h-8h-9c-7.33301 0 -14.666 -0.166992 -21.999 -0.5s-13.666 -0.5 -18.999 -0.5s-9.33301 0.5 -12 1.5
s-4 2.83301 -4 5.5c0 1.33301 0.666992 2.66602 2 3.99902s3.33301 2 6 2c2 0 4.33301 0.166992 7 0.5s5.33398 0.5 8.00098 0.5c2.66699 0.666992 5.33398 1.16699 8.00098 1.5s5 0.833008 7 1.5c10 2 16.833 8 20.5 18s6.5 22.333 8.5 37
c2.66699 21.333 4.16699 50.833 4.5 88.5s0.5 80.5 0.5 128.5v1zM257.998 391.998l-0.00195312 -56.9971v-38.5v-40.5v-89c0 -27.333 0.333008 -43.666 1 -48.999c0 -2 0.166992 -4 0.5 -6s0.5 -4 0.5 -6c1.33301 -19.333 3.5 -33.333 6.5 -42s10.833 -16.334 23.5 -23.001
c0.666992 0 1.16699 -0.166992 1.5 -0.5s0.833008 -0.5 1.5 -0.5c5.33301 -2.66699 11.166 -4.83398 17.499 -6.50098s12.5 -3.16699 18.5 -4.5c10.667 -1.33301 20.667 -2.33301 30 -3s16.666 -1 21.999 -1c7.33301 0 15.333 0.666992 24 2s17.334 3.33301 26.001 6
c22.667 7.33301 43.5 21.333 62.5 42s28.5 51.334 28.5 92.001c0 13.333 -1.16699 27.666 -3.5 42.999s-6.16602 31 -11.499 47c-6.66699 20 -16.667 39.667 -30 59s-30.666 36.333 -51.999 51c-16.667 11.333 -31.667 18.666 -45 21.999s-26 5.66602 -38 6.99902
c-3.33301 0.666992 -8.66602 1.16699 -15.999 1.5s-15.333 0.5 -24 0.5h-22h-16c-2 0 -3.5 -0.5 -4.5 -1.5s-1.5 -2.83301 -1.5 -5.5v1zM257.996 709.001l0.000976562 -267.999c0 -4 0.5 -6.66699 1.5 -8s2.83301 -2.66602 5.5 -3.99902c1.33301 0 3 -0.166992 5 -0.5
s4.66699 -0.833008 8 -1.5c5.33301 -0.666992 11.833 -1.16699 19.5 -1.5s17.167 -0.5 28.5 -0.5c24 0 41.5 0.833008 52.5 2.5s20.833 6.5 29.5 14.5c1.33301 1.33301 2.83301 2.66602 4.5 3.99902s3.16699 3 4.5 5c10.667 12 19.334 26.667 26.001 44s10 36.333 10 57v8v8
c-2.66699 38.667 -14.334 74.334 -35.001 107.001s-54 49 -100 49c-3.33301 0 -7.83301 -0.166992 -13.5 -0.5s-11.5 -0.833008 -17.5 -1.5c-2.66699 0 -5.5 -0.333008 -8.5 -1s-5.83301 -1.33398 -8.5 -2.00098c-4.66699 -0.666992 -7.83398 -1.83398 -9.50098 -3.50098
s-2.5 -4.16699 -2.5 -7.5v1z" />
    <glyph glyph-name="c" unicode="c" horiz-adv-x="805" 
d="M515 -17c-74.667 0 -138.49 9.00195 -191.49 27.002s-99.167 44.667 -138.5 80c-28.667 25.333 -51.334 52.833 -68.001 82.5s-29 59.5 -37 89.5c-6 21.333 -10.167 42.5 -12.5 63.5s-3.5 41.167 -3.5 60.5c0 21.333 2.83301 47 8.5 77s16.167 61 31.5 93
c8 18 18 35.667 30 53s26 34 42 50c30 30 69.167 55.333 117.5 76s110.833 31 187.5 31c14 0 29.5 -0.333008 46.5 -1s34.5 -2 52.5 -4c8 -1.33301 15.833 -2.5 23.5 -3.5s15.167 -2.16699 22.5 -3.5l53.5 -9c16.333 -2.66699 32.5 -4.66699 48.5 -6
c5.33301 -0.666992 8.83301 -1.83398 10.5 -3.50098s2.5 -4.16699 2.5 -7.5c0 -2.66699 -0.333008 -6.5 -1 -11.5s-1.33398 -12.167 -2.00098 -21.5c-0.666992 -3.33301 -1.16699 -6.83301 -1.5 -10.5s-0.5 -7.83398 -0.5 -12.501c-0.666992 -6 -1 -12.5 -1 -19.5
s-0.333008 -14.167 -1 -21.5v-18.5v-17.5c0 -6 -0.166992 -11.167 -0.5 -15.5s-0.5 -7.83301 -0.5 -10.5c-0.666992 -7.33301 -1.5 -12.666 -2.5 -15.999s-3.16699 -5 -6.5 -5s-5.5 1.83301 -6.5 5.5s-1.5 8.83398 -1.5 15.501v5.5v5.5
c-1.33301 18 -5.66602 35.167 -12.999 51.5s-17 29.5 -29 39.5c-17.333 15.333 -44 28.666 -80 39.999s-76 17 -120 17c-58.667 0 -104.834 -6.33301 -138.501 -19s-59.834 -26.667 -78.501 -42c-2.66699 -2 -5 -4 -7 -6l-6 -6c-36.667 -34.667 -60.834 -74 -72.501 -118
s-17.5 -91.667 -17.5 -143c0 -95.333 33.5 -180.166 100.5 -254.499s153.833 -111.5 260.5 -111.5c37.333 0 70.666 3.16699 99.999 9.5s54 19.833 74 40.5c4.66699 5.33301 9 11.333 13 18s7.66699 13.667 11 21c3.33301 9.33301 6.16602 18 8.49902 26
s3.83301 14.333 4.5 19c1.33301 5.33301 2.66602 9.16602 3.99902 11.499s3.33301 3.5 6 3.5s4.5 -1.5 5.5 -4.5s1.5 -6.5 1.5 -10.5c0 -2 -1 -10.167 -3 -24.5s-4.33301 -29.833 -7 -46.5l-4 -20.5c-1.33301 -7 -2.66602 -13.5 -3.99902 -19.5
c-0.666992 -3.33301 -1.33398 -6.33301 -2.00098 -9l-2 -8c-0.666992 -2 -1.16699 -3.83301 -1.5 -5.5s-0.833008 -3.16699 -1.5 -4.5c-1.33301 -3.33301 -2.83301 -6 -4.5 -8s-4.16699 -4 -7.5 -6c-1.33301 -0.666992 -2.83301 -1.33398 -4.5 -2.00098
s-3.83398 -1.66699 -6.50098 -3c-14.667 -5.33301 -33.834 -9.83301 -57.501 -13.5s-47.834 -6.16699 -72.501 -7.5c-8.66699 0 -17.167 -0.166992 -25.5 -0.5s-16.5 -0.5 -24.5 -0.5v0z" />
    <glyph glyph-name="d" unicode="d" horiz-adv-x="917" 
d="M178 287l-0.00488281 176.002v150.5c0 25.667 -0.666992 46.167 -2 61.5v1.5v1.5c-0.666992 17.333 -3.83398 30.333 -9.50098 39s-16.834 14.667 -33.501 18c-2 0.666992 -4.66699 1.16699 -8 1.5s-6.66602 0.5 -9.99902 0.5c-2.66699 0.666992 -5.5 1 -8.5 1h-7.5
c-2 0 -3.83301 0.5 -5.5 1.5s-2.5 2.5 -2.5 4.5c0 3.33301 1.33301 5.5 4 6.5s6.66699 1.5 12 1.5h16.5h17.5c6.66699 -0.666992 13.167 -1 19.5 -1h18.5c10.667 -0.666992 19.834 -1.16699 27.501 -1.5s12.167 -0.5 13.5 -0.5c3.33301 0 9.33301 0.166992 18 0.5
s19.334 0.833008 32.001 1.5c10.667 0 22.5 0.166992 35.5 0.5s26.167 0.5 39.5 0.5h5h5h10h10c27.333 0 58.666 -0.666992 93.999 -2s71.666 -6.33301 108.999 -15c31.333 -7.33301 62.333 -18.666 93 -33.999s59 -36.333 85 -63c25.333 -26 47.833 -60 67.5 -102
s29.5 -92.667 29.5 -152c0 -62.667 -11 -118 -33 -166s-47 -86.667 -75 -116c-5.33301 -6 -11.666 -12.333 -18.999 -19s-15.666 -13.334 -24.999 -20.001c-26 -18.667 -60 -35.834 -102 -51.501s-94.333 -23.5 -157 -23.5c-11.333 0 -23 0.166992 -35 0.5
s-24 0.833008 -36 1.5l-35.5 2c-11.667 0.666992 -22.5 1.33398 -32.5 2.00098c-22 1.33301 -40.667 2.66602 -56 3.99902s-24.333 2 -27 2c-1.33301 0 -5.83301 -0.166992 -13.5 -0.5s-16.5 -0.833008 -26.5 -1.5h-8h-9c-7.33301 0 -14.666 -0.166992 -21.999 -0.5
s-13.666 -0.5 -18.999 -0.5s-9.33301 0.5 -12 1.5s-4 2.83301 -4 5.5c0 1.33301 0.666992 2.66602 2 3.99902s3.33301 2 6 2c2 0 4.33301 0.166992 7 0.5s5.33398 0.5 8.00098 0.5c2.66699 0.666992 5.33398 1.16699 8.00098 1.5s5 0.833008 7 1.5c10 2 16.833 8 20.5 18
s6.5 22.333 8.5 37c2.66699 21.333 4.16699 50.833 4.5 88.5s0.5 80.5 0.5 128.5v1zM261.995 479.002l0.000976562 -124.001c0 -53.333 0.166992 -100.666 0.5 -141.999s0.833008 -66.666 1.5 -75.999c0 -4 0.166992 -8.5 0.5 -13.5s0.833008 -10.167 1.5 -15.5
c0.666992 -10 1.66699 -19.5 3 -28.5s3.33301 -15.167 6 -18.5c0.666992 -0.666992 1.33398 -1.5 2.00098 -2.5s1.33398 -1.83301 2.00098 -2.5c8 -8.66699 24.167 -16.667 48.5 -24s63.5 -11 117.5 -11c46.667 0 90.667 8.16699 132 24.5s76.666 39.166 105.999 68.499
c24 23.333 42.667 54.666 56 93.999s21 80 23 122c0.666992 4 1 7.83301 1 11.5v11.5c0 50.667 -7.33301 94.334 -22 131.001s-30.667 66.667 -48 90c-4.66699 6 -9.16699 11.5 -13.5 16.5l-12.5 14.5c-46.667 49.333 -98 80.5 -154 93.5s-113.667 19.5 -173 19.5
c-4 0 -8.33301 -0.166992 -13 -0.5s-9.33398 -0.5 -14.001 -0.5c-8 -0.666992 -15.667 -1.5 -23 -2.5s-12.333 -2.16699 -15 -3.5c-4.66699 -2 -7.83398 -4.5 -9.50098 -7.5s-2.5 -7.16699 -2.5 -12.5c-0.666992 -12.667 -1 -32.667 -1 -60v-87v-33.5v-32.5v1z" />
    <glyph glyph-name="e" unicode="e" horiz-adv-x="610" 
d="M178 287l-0.00585938 176v150.5c0 25.667 -0.666992 46.167 -2 61.5v1.5v1.5c-0.666992 17.333 -3.83398 30.333 -9.50098 39s-16.834 14.667 -33.501 18c-2 0.666992 -4.66699 1.16699 -8 1.5s-6.66602 0.5 -9.99902 0.5c-2.66699 0.666992 -5.5 1 -8.5 1h-7.5
c-2 0 -3.83301 0.5 -5.5 1.5s-2.5 2.5 -2.5 4.5c0 3.33301 1.33301 5.5 4 6.5s6.66699 1.5 12 1.5h16.5h17.5c6.66699 -0.666992 13.167 -1 19.5 -1h18.5c10.667 -0.666992 19.834 -1.16699 27.501 -1.5s12.167 -0.5 13.5 -0.5h38.5h76.5c26 0 50.167 0.166992 72.5 0.5
s36.166 0.5 41.499 0.5c9.33301 0.666992 17.833 1.5 25.5 2.5s13.5 1.83301 17.5 2.5c1.33301 0 2.5 0.333008 3.5 1s1.83301 1 2.5 1c0 0.666992 0.166992 1 0.5 1h0.5c1.33301 0.666992 2.5 1.16699 3.5 1.5s2.16699 0.5 3.5 0.5s2.33301 -0.833008 3 -2.5
s1 -3.83398 1 -6.50098s-0.5 -6 -1.5 -10s-2.16699 -9.66699 -3.5 -17c-0.666992 -2.66699 -1.16699 -5.66699 -1.5 -9s-0.833008 -7 -1.5 -11c0 -2.66699 -0.333008 -7.16699 -1 -13.5s-1 -13.166 -1 -20.499c-0.666992 -6.66699 -1.16699 -13 -1.5 -19
s-0.833008 -10.333 -1.5 -13v-1.5v-0.5c-0.666992 -2 -1.5 -4 -2.5 -6s-2.5 -3 -4.5 -3c-2.66699 0 -4.66699 1.16699 -6 3.5s-2 5.5 -2 9.5c0 2.66699 -0.166992 6 -0.5 10s-0.833008 8.33301 -1.5 13c-0.666992 2 -1.33398 4.16699 -2.00098 6.5
s-1.33398 4.5 -2.00098 6.5c-3.33301 8 -9.16602 15 -17.499 21s-26.166 10.333 -53.499 13c-4 0.666992 -12.5 1.16699 -25.5 1.5s-27.167 0.5 -42.5 0.5c-16 0.666992 -30.833 1 -44.5 1h-24.5c-2 0 -3.5 -0.833008 -4.5 -2.5s-1.5 -4.16699 -1.5 -7.5v-275
c0 -4 0.333008 -6.83301 1 -8.5s2.33398 -2.5 5.00098 -2.5h29h52c16.667 0 32.5 0.166992 47.5 0.5s25.167 0.833008 30.5 1.5c12 1.33301 21.667 2.83301 29 4.5s13.333 4.83398 18 9.50098c3.33301 4 6.16602 7.16699 8.49902 9.5s4.5 3.5 6.5 3.5
c1.33301 0 2.5 -0.5 3.5 -1.5s1.5 -3.16699 1.5 -6.5c0 -2 -0.5 -5.66699 -1.5 -11s-2.16699 -12.333 -3.5 -21c-0.666992 -3.33301 -1.16699 -7 -1.5 -11s-0.833008 -8.33301 -1.5 -13c-0.666992 -3.33301 -1.16699 -7.33301 -1.5 -12s-0.5 -9.33398 -0.5 -14.001
c-0.666992 -8.66699 -1.16699 -16.667 -1.5 -24s-0.5 -12 -0.5 -14v-2.5v-2.5c0 -4 -0.5 -7.33301 -1.5 -10s-2.83301 -4 -5.5 -4s-4.5 0.833008 -5.5 2.5s-1.5 3.83398 -1.5 6.50098c0 5.33301 -0.166992 10.5 -0.5 15.5s-1.5 10.833 -3.5 17.5
c-0.666992 1.33301 -1.16699 2.66602 -1.5 3.99902s-0.833008 2.66602 -1.5 3.99902c-2.66699 6 -7.5 11.667 -14.5 17s-18.5 8.66602 -34.5 9.99902c-6 0.666992 -15.5 1.33398 -28.5 2.00098s-26.5 1 -40.5 1c-16.667 0.666992 -32 1.16699 -46 1.5s-23.333 0.5 -28 0.5
c-2.66699 0 -4.5 -0.666992 -5.5 -2s-1.5 -3 -1.5 -5v-87v-24v-32v-13.5v-13.5v-55v-34c1.33301 -34.667 8.83301 -57 22.5 -67s44.834 -15 93.501 -15h22.5c8.33301 0 16.833 0.333008 25.5 1s17.167 1.83398 25.5 3.50098s15.833 3.83398 22.5 6.50098
c13.333 5.33301 23.333 13.5 30 24.5s11.667 26.833 15 47.5c1.33301 5.33301 2.5 9.16602 3.5 11.499s2.83301 3.5 5.5 3.5s4.33398 -1.33301 5.00098 -4s1 -5.66699 1 -9v-0.5v-1.5c0 -2 -0.5 -8.16699 -1.5 -18.5s-2.5 -21.166 -4.5 -32.499
c0 -3.33301 -0.333008 -6.83301 -1 -10.5s-1 -7.16699 -1 -10.5c-1.33301 -4.66699 -2.33301 -9.33398 -3 -14.001s-1.33398 -8.33398 -2.00098 -11.001c-3.33301 -12.667 -8.33301 -20 -15 -22s-19.667 -3 -39 -3c-38 0 -70.833 0.333008 -98.5 1
s-51.167 1.33398 -70.5 2.00098c-20 0.666992 -36.167 1.33398 -48.5 2.00098s-22.166 1 -29.499 1h-4.5c-2.33301 0 -5.16602 -0.333008 -8.49902 -1h-12h-15c-2.66699 0 -5.5 -0.166992 -8.5 -0.5s-5.83301 -0.5 -8.5 -0.5c-7.33301 0 -14.666 -0.166992 -21.999 -0.5
s-13.666 -0.5 -18.999 -0.5s-9.33301 0.5 -12 1.5s-4 2.83301 -4 5.5c0 1.33301 0.666992 2.66602 2 3.99902s3.33301 2 6 2c2 0 4.33301 0.166992 7 0.5s5.33398 0.5 8.00098 0.5c2.66699 0.666992 5.33398 1.16699 8.00098 1.5s5 0.833008 7 1.5c10 2 16.833 8 20.5 18
s6.5 22.333 8.5 37c2.66699 21.333 4.16699 50.833 4.5 88.5s0.5 80.5 0.5 128.5v1z" />
    <glyph glyph-name="f" unicode="f" horiz-adv-x="592" 
d="M178 287v176.002v150.5c0 25.667 -0.666992 46.167 -2 61.5v1.5v1.5c-0.666992 17.333 -3.83398 30.333 -9.50098 39s-16.834 14.667 -33.501 18c-2 0.666992 -4.66699 1.16699 -8 1.5s-6.66602 0.5 -9.99902 0.5c-2.66699 0.666992 -5.5 1 -8.5 1h-7.5
c-2 0 -3.83301 0.5 -5.5 1.5s-2.5 2.5 -2.5 4.5c0 3.33301 1.33301 5.5 4 6.5s6.66699 1.5 12 1.5h16.5h17.5c6.66699 -0.666992 13.167 -1 19.5 -1h18.5c10.667 -0.666992 19.834 -1.16699 27.501 -1.5s12.167 -0.5 13.5 -0.5h44.5h78.5c28 0 54 0.166992 78 0.5
s39 0.5 45 0.5h7c2 0 4.33301 0.333008 7 1c6 0 11.667 0.166992 17 0.5s9.66602 1.16602 12.999 2.49902l3 1.5c0.666992 0.333008 1.33398 0.5 2.00098 0.5c2 1.33301 3.66699 2.33301 5 3s2.66602 1 3.99902 1c2 0 3.5 -0.833008 4.5 -2.5s1.5 -3.83398 1.5 -6.50098
s-0.5 -6 -1.5 -10s-2.16699 -9.66699 -3.5 -17c-0.666992 -2.66699 -1.16699 -5.66699 -1.5 -9s-0.833008 -7 -1.5 -11c0 -2.66699 -0.333008 -7.16699 -1 -13.5s-1 -13.166 -1 -20.499c-0.666992 -6.66699 -1.16699 -13 -1.5 -19s-0.833008 -10.333 -1.5 -13v-1.5v-0.5
c-0.666992 -2 -1.66699 -4 -3 -6s-3 -3 -5 -3c-2.66699 0 -4.5 1.16699 -5.5 3.5s-1.5 5.16602 -1.5 8.49902c0 2.66699 -0.333008 6.33398 -1 11.001s-1.66699 9.33398 -3 14.001c-0.666992 2.66699 -1.5 5 -2.5 7s-1.83301 4 -2.5 6
c-0.666992 1.33301 -1.5 2.83301 -2.5 4.5s-2.5 3.16699 -4.5 4.5c-5.33301 6 -13 11.167 -23 15.5s-22.667 6.83301 -38 7.5l-154 4c-2.66699 -0.666992 -4.83398 -1.83398 -6.50098 -3.50098s-2.5 -4.5 -2.5 -8.5v-275c0 -3.33301 0.5 -5.83301 1.5 -7.5
s2.83301 -2.5 5.5 -2.5l128 2c8.66699 -0.666992 16.667 -1 24 -1s14.333 0.333008 21 1c12 1.33301 21.5 3 28.5 5s12.833 6.33301 17.5 13c1.33301 1.33301 2.33301 2.5 3 3.5s1.66699 2.16699 3 3.5c0.666992 0.666992 1.5 1.33398 2.5 2.00098s1.83301 1 2.5 1
c2 0 3.33301 -0.666992 4 -2s1 -3.33301 1 -6c0 -2 -0.5 -5.66699 -1.5 -11s-2.16699 -12.333 -3.5 -21c-0.666992 -3.33301 -1.16699 -7 -1.5 -11s-0.833008 -8.33301 -1.5 -13c-0.666992 -4 -1.16699 -8.5 -1.5 -13.5s-0.5 -9.83301 -0.5 -14.5
c-0.666992 -8.66699 -1.16699 -16.834 -1.5 -24.501s-0.5 -12.5 -0.5 -14.5v-1.5v-0.5c0 -4.66699 -0.333008 -8.66699 -1 -12s-2.66699 -5 -6 -5c-2.66699 0 -4.5 0.833008 -5.5 2.5s-1.5 3.83398 -1.5 6.50098c0 3.33301 -0.333008 7 -1 11s-1.33398 8.33301 -2.00098 13
c0 2 -0.333008 4 -1 6l-2 6c-0.666992 1.33301 -1.33398 2.83301 -2.00098 4.5s-1.66699 3.5 -3 5.5c-4 5.33301 -9.83301 10.666 -17.5 15.999s-17.5 8.66602 -29.5 9.99902c-6 0.666992 -16 1.16699 -30 1.5s-28.667 0.833008 -44 1.5h-48h-29
c-2.66699 0 -4.5 -0.666992 -5.5 -2s-1.5 -3.66602 -1.5 -6.99902v-84c0 -48.667 0.166992 -91.834 0.5 -129.501s1.83301 -67.167 4.5 -88.5c1.33301 -14.667 4.5 -27 9.5 -37s14.833 -16 29.5 -18c2.66699 -0.666992 5.5 -1.16699 8.5 -1.5s6.16699 -0.5 9.5 -0.5
c5.33301 -0.666992 10.5 -1.16699 15.5 -1.5s8.83301 -0.5 11.5 -0.5c3.33301 0 5.5 -0.666992 6.5 -2s1.5 -2.66602 1.5 -3.99902c0 -2.66699 -1.33301 -4.5 -4 -5.5s-6.66699 -1.5 -12 -1.5h-10h-10c-10.667 0 -21.167 0.166992 -31.5 0.5s-19.833 0.5 -28.5 0.5
c-12 0.666992 -21.833 1.16699 -29.5 1.5s-12.167 0.5 -13.5 0.5s-5.83301 -0.166992 -13.5 -0.5s-16.5 -0.833008 -26.5 -1.5h-8h-9c-7.33301 0 -14.666 -0.166992 -21.999 -0.5s-13.666 -0.5 -18.999 -0.5s-9.33301 0.5 -12 1.5s-4 2.83301 -4 5.5
c0 1.33301 0.666992 2.66602 2 3.99902s3.33301 2 6 2c2 0 4.33301 0.166992 7 0.5s5.33398 0.5 8.00098 0.5c2.66699 0.666992 5.33398 1.16699 8.00098 1.5s5 0.833008 7 1.5c10 2 16.833 8 20.5 18s6.5 22.333 8.5 37c2.66699 21.333 4.16699 50.833 4.5 88.5
s0.5 80.5 0.5 128.5v1z" />
    <glyph glyph-name="g" unicode="g" horiz-adv-x="862" 
d="M653 82l0.00683594 170c0 40 -2.5 65.667 -7.5 77s-17.5 19.666 -37.5 24.999c-2 0.666992 -4.66699 1.16699 -8 1.5s-6.66602 0.5 -9.99902 0.5c-2.66699 0.666992 -5.5 1 -8.5 1h-7.5c-2 0 -3.83301 0.5 -5.5 1.5s-2.5 2.5 -2.5 4.5c0 3.33301 1.33301 5.5 4 6.5
s6.66699 1.5 12 1.5h16.5h17.5c6.66699 -0.666992 13.167 -1 19.5 -1h18.5c10.667 -0.666992 19.834 -1.16699 27.501 -1.5s12.167 -0.5 13.5 -0.5s5.83301 0.166992 13.5 0.5s16.5 0.833008 26.5 1.5h8h9c7.33301 0 14.666 0.166992 21.999 0.5s13.666 0.5 18.999 0.5
s9.33301 -0.5 12 -1.5s4 -3.16699 4 -6.5c0 -2 -0.833008 -3.5 -2.5 -4.5s-3.5 -1.5 -5.5 -1.5h-1.5h-1.5c-2.66699 0 -5.66699 -0.333008 -9 -1s-7.66602 -1.33398 -12.999 -2.00098c-13.333 -2.66699 -22.5 -8.5 -27.5 -17.5s-8.16699 -22.167 -9.5 -39.5
c0 -2 -0.166992 -4.16699 -0.5 -6.5s-0.5 -4.83301 -0.5 -7.5c-0.666992 -13.333 -1 -27.166 -1 -41.499v-48.5v-111c0 -20.667 -0.5 -34 -1.5 -40s-3.83301 -10.333 -8.5 -13l-1 -0.5c-0.666992 -0.333008 -1.33398 -0.833008 -2.00098 -1.5
c-14.667 -7.33301 -30.167 -13.666 -46.5 -18.999s-33.166 -9.66602 -50.499 -12.999c-20.667 -4 -41 -7 -61 -9s-38 -3 -54 -3c-26 0 -58.333 2.16699 -97 6.5s-78.334 14.5 -119.001 30.5c-19.333 8 -38.5 17.667 -57.5 29s-37.5 24.666 -55.5 39.999
c-30.667 26.667 -58.167 65.167 -82.5 115.5s-36.5 106.833 -36.5 169.5c0 80 16.667 147.833 50 203.5s72.333 97.5 117 125.5c13.333 8 26.666 15.167 39.999 21.5s26.666 11.5 39.999 15.5c32.667 11.333 65 18.5 97 21.5s61.667 4.5 89 4.5h12.5
c4.33301 0 8.5 -0.333008 12.5 -1c14.667 -0.666992 29.167 -1.66699 43.5 -3s27.5 -3 39.5 -5c10 -1.33301 19 -2.83301 27 -4.5s14 -2.83398 18 -3.50098c6 -1.33301 13.167 -2.66602 21.5 -3.99902s16.5 -2.33301 24.5 -3l18 -2c6 -0.666992 11.667 -1 17 -1
c5.33301 -0.666992 8.66602 -1.83398 9.99902 -3.50098s2 -3.5 2 -5.5c0 -3.33301 -0.333008 -8 -1 -14s-1.33398 -14.333 -2.00098 -25c-1.33301 -10.667 -2.33301 -24.167 -3 -40.5s-1 -37.166 -1 -62.499c0 -8 -0.666992 -13.5 -2 -16.5s-3.66602 -4.5 -6.99902 -4.5
c-2.66699 0 -4.33398 1.33301 -5.00098 4s-1.33398 6.33398 -2.00098 11.001c-0.666992 5.33301 -1.83398 12.5 -3.50098 21.5s-4.5 18.5 -8.5 28.5l-4 8c-1.33301 2.66699 -3 5.33398 -5 8.00098c-1.33301 2 -2.83301 4 -4.5 6s-3.5 4 -5.5 6
c-16 17.333 -43 33.166 -81 47.499s-86 21.5 -144 21.5c-31.333 0 -65.333 -3.5 -102 -10.5s-74 -25.5 -112 -55.5c-28.667 -22.667 -52.334 -56 -71.001 -100s-28 -95.333 -28 -154c0 -46.667 6.5 -88.834 19.5 -126.501s27.5 -69.167 43.5 -94.5
c7.33301 -12.667 14.833 -23.667 22.5 -33s14.5 -17 20.5 -23c39.333 -38.667 81.333 -66.167 126 -82.5s90 -24.5 136 -24.5c6.66699 0 14 0.166992 22 0.5s16 1.16602 24 2.49902c12.667 1.33301 25.167 3.5 37.5 6.5s22.5 6.83301 30.5 11.5
c6.66699 3.33301 11.667 7.83301 15 13.5s5 12.834 5 21.501v1z" />
    <glyph glyph-name="h" unicode="h" horiz-adv-x="960" 
d="M782 463l-0.00488281 -175.996c0 -48.667 0.166992 -91.834 0.5 -129.501s1.83301 -67.167 4.5 -88.5c1.33301 -14.667 4.5 -27 9.5 -37s14.833 -16 29.5 -18c2.66699 -0.666992 5.5 -1.16699 8.5 -1.5s6.16699 -0.5 9.5 -0.5c5.33301 -0.666992 10.5 -1.16699 15.5 -1.5
s8.83301 -0.5 11.5 -0.5c3.33301 0 5.5 -0.666992 6.5 -2s1.5 -2.66602 1.5 -3.99902c0 -2.66699 -1.33301 -4.5 -4 -5.5s-6.66699 -1.5 -12 -1.5h-10h-10c-10.667 0 -21.167 0.166992 -31.5 0.5s-19.833 0.5 -28.5 0.5c-12 0.666992 -21.833 1.16699 -29.5 1.5
s-12.167 0.5 -13.5 0.5s-5.83301 -0.166992 -13.5 -0.5s-16.5 -0.833008 -26.5 -1.5h-8h-9c-7.33301 0 -14.666 -0.166992 -21.999 -0.5s-13.666 -0.5 -18.999 -0.5s-9.33301 0.5 -12 1.5s-4 2.83301 -4 5.5c0 1.33301 0.666992 2.66602 2 3.99902s3.33301 2 6 2
c2 0 4.33301 0.166992 7 0.5s5.33398 0.5 8.00098 0.5c2.66699 0.666992 5.33398 1.16699 8.00098 1.5s5 0.833008 7 1.5c10 2 16.833 8 20.5 18s6.5 22.333 8.5 37c2.66699 21.333 4.16699 50.833 4.5 88.5s0.5 80.5 0.5 128.5v106c0 1.33301 -0.666992 2.5 -2 3.5
s-2.66602 1.5 -3.99902 1.5l-424 1l-4 -2c-1.33301 -0.666992 -2 -2.33398 -2 -5.00098v-104c0 -48.667 0.166992 -91.834 0.5 -129.501s1.83301 -67.167 4.5 -88.5c1.33301 -14.667 4.5 -27 9.5 -37s14.833 -16 29.5 -18c2.66699 -0.666992 5.5 -1.16699 8.5 -1.5
s6.16699 -0.5 9.5 -0.5c5.33301 -0.666992 10.5 -1.16699 15.5 -1.5s8.83301 -0.5 11.5 -0.5c3.33301 0 5.5 -0.666992 6.5 -2s1.5 -2.66602 1.5 -3.99902c0 -2.66699 -1.33301 -4.5 -4 -5.5s-6.66699 -1.5 -12 -1.5h-10h-10c-10.667 0 -21.167 0.166992 -31.5 0.5
s-19.833 0.5 -28.5 0.5c-12 0.666992 -21.833 1.16699 -29.5 1.5s-12.167 0.5 -13.5 0.5s-5.83301 -0.166992 -13.5 -0.5s-16.5 -0.833008 -26.5 -1.5h-8h-9c-7.33301 0 -14.666 -0.166992 -21.999 -0.5s-13.666 -0.5 -18.999 -0.5s-9.33301 0.5 -12 1.5s-4 2.83301 -4 5.5
c0 1.33301 0.666992 2.66602 2 3.99902s3.33301 2 6 2c2 0 4.33301 0.166992 7 0.5s5.33398 0.5 8.00098 0.5c2.66699 0.666992 5.33398 1.16699 8.00098 1.5s5 0.833008 7 1.5c10 2 16.833 8 20.5 18s6.5 22.333 8.5 37c2.66699 21.333 4.16699 50.833 4.5 88.5
s0.5 80.5 0.5 128.5v177v150.5c0 25.667 -0.666992 46.167 -2 61.5v1.5v1.5c-0.666992 17.333 -3.83398 30.333 -9.50098 39s-16.834 14.667 -33.501 18c-2 0.666992 -4.66699 1.16699 -8 1.5s-6.66602 0.5 -9.99902 0.5c-2.66699 0.666992 -5.5 1 -8.5 1h-7.5
c-2 0 -3.83301 0.5 -5.5 1.5s-2.5 2.5 -2.5 4.5c0 3.33301 1.33301 5.5 4 6.5s6.66699 1.5 12 1.5h16.5h17.5c6.66699 -0.666992 13.167 -1 19.5 -1h18.5c10.667 -0.666992 19.834 -1.16699 27.501 -1.5s12.167 -0.5 13.5 -0.5s5.83301 0.166992 13.5 0.5
s16.5 0.833008 26.5 1.5h8h9c7.33301 0 14.666 0.166992 21.999 0.5s13.666 0.5 18.999 0.5s9.33301 -0.5 12 -1.5s4 -3.16699 4 -6.5c0 -2 -0.833008 -3.5 -2.5 -4.5s-3.5 -1.5 -5.5 -1.5h-1.5h-1.5c-2.66699 0 -5.66699 -0.333008 -9 -1
s-7.66602 -1.33398 -12.999 -2.00098c-13.333 -2.66699 -22.5 -8.5 -27.5 -17.5s-8.16699 -22.167 -9.5 -39.5v-1.5v-1.5c-1.33301 -15.333 -2 -35.833 -2 -61.5v-151.5v-20c0 -3.33301 0.666992 -5.33301 2 -6s2.66602 -1 3.99902 -1l424 1
c1.33301 -0.666992 2.66602 -0.666992 3.99902 0s2 2.33398 2 5.00098v22v150.5c0 25.667 -0.666992 46.167 -2 61.5v1.5v1.5c-0.666992 17.333 -3.83398 30.333 -9.50098 39s-16.834 14.667 -33.501 18c-2 0.666992 -4.66699 1.16699 -8 1.5s-6.66602 0.5 -9.99902 0.5
c-2.66699 0.666992 -5.5 1 -8.5 1h-7.5c-2 0 -3.83301 0.5 -5.5 1.5s-2.5 2.5 -2.5 4.5c0 3.33301 1.33301 5.5 4 6.5s6.66699 1.5 12 1.5h16.5h17.5c6.66699 -0.666992 13.167 -1 19.5 -1h18.5c10.667 -0.666992 19.834 -1.16699 27.501 -1.5s12.167 -0.5 13.5 -0.5
s5.83301 0.166992 13.5 0.5s16.5 0.833008 26.5 1.5h8h9c7.33301 0 14.666 0.166992 21.999 0.5s13.666 0.5 18.999 0.5s9.33301 -0.5 12 -1.5s4 -3.16699 4 -6.5c0 -2 -0.833008 -3.5 -2.5 -4.5s-3.5 -1.5 -5.5 -1.5h-1.5h-1.5c-2.66699 0 -5.66699 -0.333008 -9 -1
s-7.66602 -1.33398 -12.999 -2.00098c-13.333 -2.66699 -22.5 -8.5 -27.5 -17.5s-8.16699 -22.167 -9.5 -39.5v-1.5v-1.5c-1.33301 -15.333 -2 -35.833 -2 -61.5v-151.5v1z" />
    <glyph glyph-name="i" unicode="i" horiz-adv-x="440" 
d="M262 463l-0.00488281 -175.999c0 -48.667 0.166992 -91.834 0.5 -129.501s1.83301 -67.167 4.5 -88.5c1.33301 -14.667 4.5 -27 9.5 -37s14.833 -16 29.5 -18c2.66699 -0.666992 5.5 -1.16699 8.5 -1.5s6.16699 -0.5 9.5 -0.5c5.33301 -0.666992 10.5 -1.16699 15.5 -1.5
s8.83301 -0.5 11.5 -0.5c3.33301 0 5.5 -0.666992 6.5 -2s1.5 -2.66602 1.5 -3.99902c0 -2.66699 -1.33301 -4.5 -4 -5.5s-6.66699 -1.5 -12 -1.5h-10h-10c-10.667 0 -21.167 0.166992 -31.5 0.5s-19.833 0.5 -28.5 0.5c-12 0.666992 -21.833 1.16699 -29.5 1.5
s-12.167 0.5 -13.5 0.5s-5.83301 -0.166992 -13.5 -0.5s-16.5 -0.833008 -26.5 -1.5h-8h-9c-7.33301 0 -14.666 -0.166992 -21.999 -0.5s-13.666 -0.5 -18.999 -0.5s-9.33301 0.5 -12 1.5s-4 2.83301 -4 5.5c0 1.33301 0.666992 2.66602 2 3.99902s3.33301 2 6 2
c2 0 4.33301 0.166992 7 0.5s5.33398 0.5 8.00098 0.5c2.66699 0.666992 5.33398 1.16699 8.00098 1.5s5 0.833008 7 1.5c10 2 16.833 8 20.5 18s6.5 22.333 8.5 37c2.66699 21.333 4.16699 50.833 4.5 88.5s0.5 80.5 0.5 128.5v177v150.5
c0 25.667 -0.666992 46.167 -2 61.5v1.5v1.5c-0.666992 17.333 -3.66699 30.333 -9 39s-13.666 14.334 -24.999 17.001c-1.33301 0.666992 -2.66602 1.16699 -3.99902 1.5s-2.66602 0.5 -3.99902 0.5c-4.66699 0.666992 -9 1.16699 -13 1.5s-7.33301 0.5 -10 0.5
c-2 0 -3.83301 0.5 -5.5 1.5s-2.5 2.5 -2.5 4.5c0 3.33301 1.33301 5.5 4 6.5s6.66699 1.5 12 1.5h19c7.33301 0 14.666 -0.333008 21.999 -1h10h10c10 -0.666992 18.833 -1.16699 26.5 -1.5s12.167 -0.5 13.5 -0.5s5.83301 0.166992 13.5 0.5s16.5 0.833008 26.5 1.5h8h9
c7.33301 0 14.666 0.166992 21.999 0.5s13.666 0.5 18.999 0.5s9.33301 -0.5 12 -1.5s4 -3.16699 4 -6.5c0 -2 -0.833008 -3.5 -2.5 -4.5s-3.5 -1.5 -5.5 -1.5h-1.5h-1.5c-2.66699 0 -5.66699 -0.333008 -9 -1s-7.66602 -1.33398 -12.999 -2.00098
c-13.333 -2.66699 -22.5 -8.5 -27.5 -17.5s-8.16699 -22.167 -9.5 -39.5v-1.5v-1.5c-1.33301 -15.333 -2 -35.833 -2 -61.5v-151.5v1z" />
    <glyph glyph-name="j" unicode="j" horiz-adv-x="414" 
d="M262 463l0.000976562 -239.998c0 -74.667 -1 -131.5 -3 -170.5s-8.66699 -74.833 -20 -107.5c-1.33301 -2.66699 -2.5 -5.5 -3.5 -8.5s-2.16699 -5.83301 -3.5 -8.5c-2.66699 -6 -5.66699 -12.167 -9 -18.5s-7 -12.5 -11 -18.5
c-12.667 -18.667 -29.167 -37.5 -49.5 -56.5s-45.833 -38.833 -76.5 -59.5c-1.33301 -1.33301 -3 -2.5 -5 -3.5s-3.66699 -2.16699 -5 -3.5c-0.666992 -0.666992 -1.33398 -1.16699 -2.00098 -1.5s-1.33398 -0.5 -2.00098 -0.5l-13.5 -9.5
c-4.33301 -3 -8.16602 -5.16699 -11.499 -6.5c-0.666992 -0.666992 -1.66699 -1.16699 -3 -1.5s-2.66602 -0.5 -3.99902 -0.5h-0.5h-1.5c-1.33301 0.666992 -2.5 1.5 -3.5 2.5s-1.5 2.16699 -1.5 3.5s0.333008 2.66602 1 3.99902s1.66699 2.33301 3 3
c0.666992 1.33301 2 2.66602 4 3.99902l6 4c2 0.666992 3.83301 1.66699 5.5 3s3.5 2.66602 5.5 3.99902s4 2.83301 6 4.5s4 3.5 6 5.5s4 3.83301 6 5.5s4 3.5 6 5.5l6 6c2 2 3.66699 4 5 6c28.667 30.667 50 68.834 64 114.501s21 128.834 21 249.501v290v150.5
c0 25.667 -0.666992 46.167 -2 61.5v1.5v1.5c-0.666992 17.333 -3.83398 30.333 -9.50098 39s-16.834 14.667 -33.501 18c-2 0.666992 -4.66699 1.16699 -8 1.5s-6.66602 0.5 -9.99902 0.5c-2.66699 0.666992 -5.5 1 -8.5 1h-7.5c-2 0 -3.83301 0.5 -5.5 1.5
s-2.5 2.5 -2.5 4.5c0 3.33301 1.33301 5.5 4 6.5s6.66699 1.5 12 1.5h16.5h17.5c6.66699 -0.666992 13.167 -1 19.5 -1h18.5c10.667 -0.666992 19.834 -1.16699 27.501 -1.5s12.167 -0.5 13.5 -0.5s5.83301 0.166992 13.5 0.5s16.5 0.833008 26.5 1.5h8h9
c7.33301 0 14.666 0.166992 21.999 0.5s13.666 0.5 18.999 0.5s9.33301 -0.5 12 -1.5s4 -3.16699 4 -6.5c0 -2 -0.833008 -3.5 -2.5 -4.5s-3.5 -1.5 -5.5 -1.5h-1.5h-1.5c-2.66699 0 -5.66699 -0.333008 -9 -1s-7.66602 -1.33398 -12.999 -2.00098
c-13.333 -2.66699 -22.5 -8.5 -27.5 -17.5s-8.16699 -22.167 -9.5 -39.5v-1.5v-1.5c-1.33301 -15.333 -2 -35.833 -2 -61.5v-151.5v1z" />
    <glyph glyph-name="k" unicode="k" horiz-adv-x="752" 
d="M178 287l0.00488281 176.003v150.5c0 25.667 -0.666992 46.167 -2 61.5v1.5v1.5c-0.666992 17.333 -3.83398 30.333 -9.50098 39s-16.834 14.667 -33.501 18c-2 0.666992 -4.66699 1.16699 -8 1.5s-6.66602 0.5 -9.99902 0.5c-2.66699 0.666992 -5.5 1 -8.5 1h-7.5
c-2 0 -3.83301 0.5 -5.5 1.5s-2.5 2.5 -2.5 4.5c0 3.33301 1.33301 5.5 4 6.5s6.66699 1.5 12 1.5h14.5h14.5c7.33301 -0.666992 14.333 -1 21 -1h20c10 -0.666992 18.833 -1.16699 26.5 -1.5s12.167 -0.5 13.5 -0.5c2 0 6.83301 0.166992 14.5 0.5s16.5 0.833008 26.5 1.5
h8h8c7.33301 0 14.5 0.166992 21.5 0.5s13.167 0.5 18.5 0.5s9.33301 -0.5 12 -1.5s4 -3.16699 4 -6.5c0 -2 -0.833008 -3.5 -2.5 -4.5s-3.5 -1.5 -5.5 -1.5h-1.5h-1.5c-2.66699 0 -5.66699 -0.333008 -9 -1s-7.66602 -1.33398 -12.999 -2.00098
c-13.333 -2.66699 -22.5 -8.5 -27.5 -17.5s-8.16699 -22.167 -9.5 -39.5v-1.5v-1.5c-1.33301 -15.333 -2 -35.833 -2 -61.5v-151.5v-59h4l42.5 43.5l76.5 78.5l69.5 71.5l45.5 47.5l37.5 40.5c11 12.333 16.5 22.833 16.5 31.5c0 6 -1.16699 10.667 -3.5 14
s-5.5 5.66602 -9.5 6.99902c-2.66699 1.33301 -4.83398 2.5 -6.50098 3.5s-2.5 2.5 -2.5 4.5c0 2.66699 1.16699 4.5 3.5 5.5s5.16602 1.5 8.49902 1.5c5.33301 0 11 -0.166992 17 -0.5s12.333 -0.5 19 -0.5c1.33301 -0.666992 2.83301 -1 4.5 -1h4.5
c5.33301 0 10.5 -0.166992 15.5 -0.5s9.83301 -0.5 14.5 -0.5c1.33301 0 5.83301 0.166992 13.5 0.5s16.834 0.833008 27.501 1.5h5.5h6.5c8 0 15.833 0.166992 23.5 0.5s14.167 0.5 19.5 0.5s9.16602 -0.5 11.499 -1.5s3.5 -2.83301 3.5 -5.5s-0.666992 -4.5 -2 -5.5
s-4 -1.5 -8 -1.5c-6.66699 0 -14 -0.833008 -22 -2.5s-16.333 -4.16699 -25 -7.5c-2 -0.666992 -3.66699 -1.33398 -5 -2.00098l-4 -2c-9.33301 -4 -17.833 -8.5 -25.5 -13.5s-15.167 -10.5 -22.5 -16.5c-8.66699 -7.33301 -17.834 -15.5 -27.501 -24.5l-32.5 -31.5l-41 -40
l-69 -67l-69.5 -70c-21.667 -22 -35.167 -36 -40.5 -42l51 -54l89 -92l81.5 -83c25.667 -26 43.5 -43.667 53.5 -53l66.5 -61c15.667 -14 30.167 -25 43.5 -33c4.66699 -3.33301 9.5 -6.33301 14.5 -9s10.5 -5 16.5 -7l4 -2l4 -2
c1.33301 -0.666992 2.83301 -1.33398 4.5 -2.00098s3.16699 -1.33398 4.5 -2.00098c12 -3.33301 23 -5.66602 33 -6.99902s16.667 -2 20 -2s6.33301 -0.5 9 -1.5s4 -2.5 4 -4.5c0 -2.66699 -1.5 -4.5 -4.5 -5.5s-8.83301 -1.5 -17.5 -1.5h-51h-28.5
c-8.33301 0 -16.5 0.333008 -24.5 1c-2.66699 0 -5.33398 0.166992 -8.00098 0.5s-5.33398 0.5 -8.00098 0.5c-16 0.666992 -30 3.33398 -42 8.00098s-23.333 10.667 -34 18c-7.33301 4.66699 -14.5 9.83398 -21.5 15.501l-23.5 18.5c-11.333 9.33301 -31.5 29 -60.5 59
l-92.5 97l-5.5 5.5c-1.66699 1.66699 -3.16699 3.5 -4.5 5.5l-85.5 93c-26.333 29.333 -45.166 51 -56.499 65l-5 1v-98c0 -48.667 0.166992 -91.834 0.5 -129.501s1.83301 -67.167 4.5 -88.5c1.33301 -14.667 4.5 -27 9.5 -37s14.833 -16 29.5 -18
c1.33301 0 2.83301 -0.166992 4.5 -0.5s3.5 -0.5 5.5 -0.5l16 -2c5.33301 -0.666992 9.66602 -1 12.999 -1s5.5 -0.666992 6.5 -2s1.5 -2.66602 1.5 -3.99902c0 -2.66699 -1.33301 -4.5 -4 -5.5s-6.66699 -1.5 -12 -1.5h-11.5h-11.5
c-8.66699 0 -17.334 0.166992 -26.001 0.5s-16.667 0.833008 -24 1.5c-10.667 0 -19.834 0.166992 -27.501 0.5s-12.5 0.5 -14.5 0.5s-6.66699 -0.166992 -14 -0.5s-16 -0.833008 -26 -1.5h-8h-8c-7.33301 0 -14.5 -0.166992 -21.5 -0.5s-13.167 -0.5 -18.5 -0.5
s-9.33301 0.5 -12 1.5s-4 2.83301 -4 5.5c0 1.33301 0.666992 2.66602 2 3.99902s3.33301 2 6 2c2 0 4.33301 0.166992 7 0.5s5.33398 0.5 8.00098 0.5c2.66699 0.666992 5.33398 1.16699 8.00098 1.5s5 0.833008 7 1.5c10 2 16.833 8 20.5 18s6.5 22.333 8.5 37
c2.66699 21.333 4.16699 50.833 4.5 88.5s0.5 80.5 0.5 128.5v1z" />
    <glyph glyph-name="l" unicode="l" horiz-adv-x="592" 
d="M262 463l-0.00195312 -178.004c0 -74 1.5 -128.5 4.5 -163.5s8.83301 -57.167 17.5 -66.5c8 -8 20.333 -13.833 37 -17.5s44.334 -5.5 83.001 -5.5c26.667 0 50.5 1.33301 71.5 4s37.5 11.334 49.5 26.001c4 4.66699 7.66699 10.167 11 16.5s6 12.5 8 18.5
c2 4.66699 3.5 9 4.5 13s1.83301 8 2.5 12s1.66699 7.16699 3 9.5s3.33301 3.5 6 3.5s4.33398 -1.16699 5.00098 -3.5s1 -6.16602 1 -11.499c0 -3.33301 -0.666992 -10.5 -2 -21.5s-2.66602 -22.833 -3.99902 -35.5c-1.33301 -8 -2.83301 -15.833 -4.5 -23.5
s-3.16699 -14.167 -4.5 -19.5c0 -0.666992 -0.166992 -1.5 -0.5 -2.5s-0.833008 -1.83301 -1.5 -2.5c-2.66699 -9.33301 -7.33398 -15.166 -14.001 -17.499s-22.334 -3.5 -47.001 -3.5c-36 0 -67.5 0.333008 -94.5 1s-50.833 1.33398 -71.5 2.00098
c-21.333 0.666992 -40 1.33398 -56 2.00098s-31.333 1 -46 1h-5c-2.66699 0 -5.66699 -0.333008 -9 -1h-12.5h-14.5h-6.5c-2.33301 0 -4.83301 -0.333008 -7.5 -1c-7.33301 0 -14.833 -0.166992 -22.5 -0.5s-14.5 -0.5 -20.5 -0.5c-5.33301 0 -9.33301 0.5 -12 1.5
s-4 2.83301 -4 5.5c0 1.33301 0.666992 2.66602 2 3.99902s3.33301 2 6 2c2 0 4.33301 0.166992 7 0.5s5.33398 0.5 8.00098 0.5c2.66699 0.666992 5.33398 1.16699 8.00098 1.5s5 0.833008 7 1.5c10 2 16.833 8 20.5 18s6.5 22.333 8.5 37
c2.66699 21.333 4.16699 50.833 4.5 88.5s0.5 80.5 0.5 128.5v177v150.5c0 25.667 -0.666992 46.167 -2 61.5v1.5v1.5c-0.666992 17.333 -3.83398 30.333 -9.50098 39s-16.834 14.667 -33.501 18c-2 0.666992 -4.66699 1.16699 -8 1.5s-6.66602 0.5 -9.99902 0.5
c-2.66699 0.666992 -5.5 1 -8.5 1h-7.5c-2 0 -3.83301 0.5 -5.5 1.5s-2.5 2.5 -2.5 4.5c0 3.33301 1.33301 5.5 4 6.5s6.66699 1.5 12 1.5h16.5h17.5c6.66699 -0.666992 13.167 -1 19.5 -1h18.5c10.667 -0.666992 19.834 -1.16699 27.501 -1.5s12.167 -0.5 13.5 -0.5
s6.33301 0.166992 15 0.5s18.667 0.833008 30 1.5h7h8c9.33301 0 18.166 0.166992 26.499 0.5s15.5 0.5 21.5 0.5c5.33301 0 9.33301 -0.5 12 -1.5s4 -3.16699 4 -6.5c0 -2 -0.833008 -3.5 -2.5 -4.5s-3.5 -1.5 -5.5 -1.5c-2.66699 0 -6.33398 -0.166992 -11.001 -0.5
s-9.33398 -0.833008 -14.001 -1.5c-1.33301 0 -2.66602 -0.166992 -3.99902 -0.5s-2.66602 -0.5 -3.99902 -0.5c-14.667 -2.66699 -24.5 -8.5 -29.5 -17.5s-8.16699 -22.167 -9.5 -39.5v-1.5v-1.5c-1.33301 -15.333 -2 -35.833 -2 -61.5v-151.5v1z" />
    <glyph glyph-name="m" unicode="m" horiz-adv-x="1050" 
d="M855 740l66.999 -613.999c0.666992 -6.66699 1.5 -13.334 2.5 -20.001s2.16699 -13.334 3.5 -20.001c3.33301 -14.667 8.5 -28.334 15.5 -41.001s17.833 -21.334 32.5 -26.001s28 -7.33398 40 -8.00098s20.333 -1 25 -1c2.66699 0 4.66699 -0.333008 6 -1s2 -2 2 -4
c0 -2.66699 -2 -4.66699 -6 -6s-9 -2 -15 -2s-17.333 0.166992 -34 0.5s-34.667 0.833008 -54 1.5c-15.333 0.666992 -30.166 1.16699 -44.499 1.5s-25.833 0.833008 -34.5 1.5c-11.333 1.33301 -18.833 2.66602 -22.5 3.99902s-5.5 3.33301 -5.5 6c0 2 0.5 3.5 1.5 4.5
s2.83301 1.83301 5.5 2.5c1.33301 0.666992 2.5 2.83398 3.5 6.50098s1.5 8.16699 1.5 13.5v8c0 2.66699 -0.333008 5.33398 -1 8.00098l-48 517h-3l-245 -520c-8 -17.333 -13.833 -29.666 -17.5 -36.999s-6.83398 -12.333 -9.50098 -15
c-0.666992 0 -1.5 -0.166992 -2.5 -0.5s-2.16699 -0.5 -3.5 -0.5h-1.5h-1.5c-2.66699 0.666992 -6 4.33398 -10 11.001s-10 18 -18 34l-23 45.5l-32 62.5l-41 82l-21 42c-2 4.66699 -9.66699 21 -23 49l-43 92l-42.5 91.5c-13 28.333 -20.833 45.833 -23.5 52.5l-4 1
l-40 -464c0 -6 -0.166992 -11.833 -0.5 -17.5s-0.5 -11.5 -0.5 -17.5v-8.5v-8.5c0 -7.33301 2.5 -14 7.5 -20s11.167 -9.66699 18.5 -11c8.66699 -2 16.5 -3.33301 23.5 -4s11.833 -1 14.5 -1c2 0 3.83301 -0.5 5.5 -1.5s2.5 -2.16699 2.5 -3.5
c0 -3.33301 -1.5 -5.5 -4.5 -6.5s-7.5 -1.5 -13.5 -1.5h-12.5h-12.5c-5.33301 0.666992 -10.833 1 -16.5 1h-15.5c-9.33301 0.666992 -17.166 1.16699 -23.499 1.5s-10.5 0.5 -12.5 0.5s-6.33301 -0.166992 -13 -0.5s-14 -0.833008 -22 -1.5h-8h-8
c-6 -0.666992 -11.833 -1 -17.5 -1h-15.5c-4.66699 0 -8.66699 0.5 -12 1.5s-5 3.16699 -5 6.5c0 1.33301 1 2.5 3 3.5s4.33301 1.5 7 1.5h1.5h1.5c3.33301 0 7 0.166992 11 0.5s9.33301 1.16602 16 2.49902c16 2.66699 26.167 12 30.5 28s7.5 33 9.5 51v2v2l72 653
c1.33301 4.66699 2.83301 8.66699 4.5 12s3.83398 5 6.50098 5c2 0 3.83301 -0.5 5.5 -1.5s3.16699 -2.5 4.5 -4.5c0.666992 -1.33301 1.5 -2.66602 2.5 -3.99902s1.83301 -3 2.5 -5l306 -628l294 628c2 4 4.16699 7.5 6.5 10.5s5.16602 4.5 8.49902 4.5s6 -2.16699 8 -6.5
s3.33301 -11.166 4 -20.499v1z" />
    <glyph glyph-name="n" unicode="n" horiz-adv-x="947" 
d="M192 612l13.0029 -479c1.33301 -41.333 4.83301 -70.166 10.5 -86.499s15.167 -26.5 28.5 -30.5c2 -0.666992 3.83301 -1.16699 5.5 -1.5s3.5 -0.5 5.5 -0.5c8 -2 15.667 -3.16699 23 -3.5s12.666 -0.5 15.999 -0.5c2.66699 0 4.66699 -0.5 6 -1.5s2 -2.5 2 -4.5
c0 -2.66699 -1.5 -4.5 -4.5 -5.5s-7.5 -1.5 -13.5 -1.5c-14 0 -27 0.166992 -39 0.5s-22.667 0.5 -32 0.5c-9.33301 0.666992 -17 1.16699 -23 1.5s-10 0.5 -12 0.5s-6.16699 -0.166992 -12.5 -0.5s-13.5 -0.833008 -21.5 -1.5c-8.66699 0 -18.334 -0.166992 -29.001 -0.5
s-21.667 -0.5 -33 -0.5c-4.66699 0 -8.5 0.5 -11.5 1.5s-4.5 2.83301 -4.5 5.5c0 2 0.666992 3.5 2 4.5s3.33301 1.5 6 1.5c3.33301 0 7.66602 0.166992 12.999 0.5s11 1.16602 17 2.49902c2 0.666992 3.83301 1.16699 5.5 1.5s3.5 0.833008 5.5 1.5
c12.667 3.33301 20.834 14 24.501 32s5.5 49.667 5.5 95l1 574c0 18.667 0.833008 31.5 2.5 38.5s4.5 10.5 8.5 10.5c2 0 4.83301 -1.5 8.5 -4.5s7.16699 -6.5 10.5 -10.5l2 -2l1 -1c2.66699 -2.66699 5 -5.16699 7 -7.5s4 -4.5 6 -6.5
c7.33301 -8.66699 43 -47.334 107 -116.001l211 -227c6 -6 11.833 -12.167 17.5 -18.5l16.5 -18.5l6 -6l6 -6l118.5 -130l75.5 -82l-11 509c-0.666992 32 -3.5 54.667 -8.5 68s-15.167 22 -30.5 26c-2 0.666992 -4.33301 1.16699 -7 1.5s-5 0.5 -7 0.5
c-7.33301 1.33301 -14.166 2.16602 -20.499 2.49902s-11.166 0.5 -14.499 0.5s-5.5 0.666992 -6.5 2s-1.5 3 -1.5 5c0 3.33301 1.83301 5.33301 5.5 6s8.5 1 14.5 1h5.5h4.5c10 0 19.667 -0.166992 29 -0.5s18 -0.5 26 -0.5c9.33301 -0.666992 17.5 -1.16699 24.5 -1.5
s11.833 -0.5 14.5 -0.5s6.66699 0.166992 12 0.5s11.666 0.833008 18.999 1.5c7.33301 0 15.666 0.166992 24.999 0.5s19 0.5 29 0.5c5.33301 0 9.66602 -0.333008 12.999 -1s5 -2.66699 5 -6c0 -2 -1 -3.66699 -3 -5s-4.66699 -2 -8 -2
c-2.66699 0 -5.83398 -0.166992 -9.50098 -0.5s-8.5 -1.16602 -14.5 -2.49902c-16.667 -3.33301 -27 -11.5 -31 -24.5s-6 -34.5 -6 -64.5l-2 -585c0 -33.333 -0.666992 -53.5 -2 -60.5s-3.66602 -10.5 -6.99902 -10.5c-4 0 -10.5 3.83301 -19.5 11.5
s-26.833 24.834 -53.5 51.501l-63 64l-124 128c-1.33301 2 -2.83301 3.83301 -4.5 5.5l-4.5 4.5l-33.5 35l-31.5 34l-2 2l-2 2l-159.5 174.5l-97.5 108.5v1z" />
    <glyph glyph-name="o" unicode="o" horiz-adv-x="915" 
d="M64 376c0 18 1.5 36.835 4.5 56.502s7.83301 39.5 14.5 59.5c21.333 68.667 62.5 131.5 123.5 188.5s144.833 85.5 251.5 85.5c112.667 0 206.334 -33.333 281.001 -100s112 -158.334 112 -275.001c0 -112 -36.333 -208 -109 -288s-169.334 -120 -290.001 -120
c-118.667 0 -208.5 33.167 -269.5 99.5s-98.5 139.166 -112.5 218.499c-2 12.667 -3.5 25.167 -4.5 37.5s-1.5 24.5 -1.5 36.5v1zM159 404.002c0 -117.333 30.832 -210.666 92.499 -279.999s137.5 -104 227.5 -104c15.333 0 33 1.83301 53 5.5s40.333 10.167 61 19.5
c40.667 19.333 77.834 53.166 111.501 101.499s50.5 120.5 50.5 216.5c0 120 -30.833 211.5 -92.5 274.5s-132.167 94.5 -211.5 94.5c-83.333 0 -152.833 -27.5 -208.5 -82.5s-83.5 -137.167 -83.5 -246.5v1z" />
    <glyph glyph-name="p" unicode="p" horiz-adv-x="642" 
d="M178 287l-0.000976562 176v150.5c0 25.667 -0.666992 46.167 -2 61.5v1.5v1.5c-0.666992 17.333 -3.83398 30.333 -9.50098 39s-16.834 14.667 -33.501 18c-2 0.666992 -4.66699 1.16699 -8 1.5s-6.66602 0.5 -9.99902 0.5c-2.66699 0.666992 -5.5 1 -8.5 1h-7.5
c-2 0 -3.83301 0.5 -5.5 1.5s-2.5 2.5 -2.5 4.5c0 3.33301 1.33301 5.5 4 6.5s6.66699 1.5 12 1.5h16h16c6.66699 -0.666992 13.167 -1 19.5 -1h18.5c11.333 -0.666992 20.833 -1.16699 28.5 -1.5s12.5 -0.5 14.5 -0.5c5.33301 0 12.833 0.166992 22.5 0.5
s20.167 0.833008 31.5 1.5h18c6 0 12 0.333008 18 1h18h18c38 0 69.167 -3.16699 93.5 -9.5s43.5 -13.5 57.5 -21.5c8.66699 -5.33301 15.834 -10.333 21.501 -15l13.5 -11l6 -6c2 -2 4 -4.33301 6 -7c9.33301 -12 18 -27.167 26 -45.5s12 -38.5 12 -60.5
c0 -70.667 -23.167 -128 -69.5 -172s-105.166 -66 -176.499 -66h-4.5h-5.5c-2 0 -4 0.166992 -6 0.5s-3.66699 0.5 -5 0.5h-1.5h-0.5c-2 0.666992 -4 1.5 -6 2.5s-3 2.5 -3 4.5c0 4 1.83301 6.5 5.5 7.5s10.834 1.5 21.501 1.5c48.667 0 89.667 15.667 123 47s50 70 50 116
c0 12 -1.16699 27.667 -3.5 47s-8.83301 39.333 -19.5 60c-4 8 -8.66699 16 -14 24s-11.666 15.667 -18.999 23c-4.66699 4.66699 -9.33398 9 -14.001 13s-9.33398 7.33301 -14.001 10c-20.667 14 -40.5 22 -59.5 24s-33.833 3 -44.5 3h-2.5h-2.5
c-8.66699 0 -16.834 -0.5 -24.501 -1.5s-13.834 -2.5 -18.501 -4.5c-2.66699 -0.666992 -4.66699 -2.66699 -6 -6s-2 -7.66602 -2 -12.999v-410c0 -48.667 0.166992 -91.834 0.5 -129.501s1.83301 -67.167 4.5 -88.5c1.33301 -14.667 4.5 -27 9.5 -37s14.833 -16 29.5 -18
c2.66699 -0.666992 5.5 -1.16699 8.5 -1.5s6.16699 -0.5 9.5 -0.5c5.33301 -0.666992 10.5 -1.16699 15.5 -1.5s8.83301 -0.5 11.5 -0.5c3.33301 0 5.5 -0.666992 6.5 -2s1.5 -2.66602 1.5 -3.99902c0 -2.66699 -1.33301 -4.5 -4 -5.5s-6.66699 -1.5 -12 -1.5h-10h-10
c-10.667 0 -21.167 0.166992 -31.5 0.5s-19.833 0.5 -28.5 0.5c-12 0.666992 -21.833 1.16699 -29.5 1.5s-12.167 0.5 -13.5 0.5c-0.666992 0 -4.66699 -0.166992 -12 -0.5s-16 -0.833008 -26 -1.5h-8.5h-9.5c-7.33301 -0.666992 -14.5 -1 -21.5 -1h-18.5
c-5.33301 0 -9.33301 0.5 -12 1.5s-4 2.83301 -4 5.5c0 1.33301 0.666992 2.66602 2 3.99902s3.33301 2 6 2c2 0 4.33301 0.166992 7 0.5s5.33398 0.5 8.00098 0.5c2.66699 0.666992 5.33398 1.16699 8.00098 1.5s5 0.833008 7 1.5c10 2 16.833 8 20.5 18s6.5 22.333 8.5 37
c2.66699 21.333 4.16699 50.833 4.5 88.5s0.5 80.5 0.5 128.5v1z" />
    <glyph glyph-name="q" unicode="q" horiz-adv-x="920" 
d="M780 -76l-168.002 93c-12 -7.33301 -27.333 -13.333 -46 -18s-37.667 -8.66699 -57 -12c-9.33301 -1.33301 -18.5 -2.33301 -27.5 -3s-17.833 -1 -26.5 -1c-120 0 -210.667 33.167 -272 99.5s-99 139.166 -113 218.499c-2 12.667 -3.5 25.167 -4.5 37.5
s-1.5 24.5 -1.5 36.5c0 18.667 1.5 37.834 4.5 57.501s7.83301 39.5 14.5 59.5c21.333 68.667 62.5 131.5 123.5 188.5s144.833 85.5 251.5 85.5c112.667 0 206.334 -33.5 281.001 -100.5s112 -158.5 112 -274.5c0 -62.667 -11.667 -117.667 -35 -165s-49 -86 -77 -116
c-11.333 -12 -22.666 -22.667 -33.999 -32s-21.666 -17 -30.999 -23l205 -105c109.333 -56.667 200.666 -90.5 273.999 -101.5s122.333 -16.5 147 -16.5c18.667 0 40.834 1.66699 66.501 5s52.167 8.66602 79.5 15.999c8.66699 2.66699 17.167 5.5 25.5 8.5l25.5 9.5
c3.33301 0.666992 6.16602 1.5 8.49902 2.5s4.16602 1.5 5.49902 1.5c2 0 3.5 -0.666992 4.5 -2s1.5 -2.66602 1.5 -3.99902c0 -2 -0.5 -3.83301 -1.5 -5.5s-3.16699 -3.16699 -6.5 -4.5c-8 -4 -17.167 -8 -27.5 -12l-33.5 -13c-31.333 -10.667 -68.5 -20.667 -111.5 -30
s-91.167 -14 -144.5 -14c-60.667 0 -124.167 11.167 -190.5 33.5s-140.166 55.833 -221.499 100.5v0zM158.998 404c0 -117.333 30.832 -210.666 92.499 -279.999s137.5 -104 227.5 -104c15.333 0 33 1.83301 53 5.5s40.333 10.167 61 19.5
c40.667 19.333 77.834 53.166 111.501 101.499s50.5 120.5 50.5 216.5c0 120 -30.833 211.5 -92.5 274.5s-132.167 94.5 -211.5 94.5c-83.333 0 -152.833 -27.5 -208.5 -82.5s-83.5 -137.167 -83.5 -246.5v1z" />
    <glyph glyph-name="r" unicode="r" horiz-adv-x="754" 
d="M178 287l-0.00976562 175.997v150.5c0 25.667 -0.666992 46.167 -2 61.5v1.5v1.5c-0.666992 17.333 -3.83398 30.333 -9.50098 39s-16.834 14.667 -33.501 18c-2 0.666992 -4.66699 1.16699 -8 1.5s-6.66602 0.5 -9.99902 0.5c-2.66699 0.666992 -5.5 1 -8.5 1h-7.5
c-2 0 -3.83301 0.5 -5.5 1.5s-2.5 2.5 -2.5 4.5c0 3.33301 1.33301 5.5 4 6.5s6.66699 1.5 12 1.5h16.5h17.5c6.66699 -0.666992 13.167 -1 19.5 -1h18.5c10.667 -0.666992 19.834 -1.16699 27.501 -1.5s12.167 -0.5 13.5 -0.5c2.66699 0 8.83398 0.166992 18.501 0.5
s20.834 0.833008 33.501 1.5h6.5h6.5c10 0 19.667 0.166992 29 0.5s17.333 0.5 24 0.5c7.33301 0 14.5 -0.166992 21.5 -0.5s13.833 -0.5 20.5 -0.5c25.333 -1.33301 50 -5.16602 74 -11.499s46.333 -16.833 67 -31.5c4 -2.66699 8.16699 -6 12.5 -10
s8.83301 -8.66699 13.5 -14c10.667 -12.667 20.5 -28.5 29.5 -47.5s13.5 -40.5 13.5 -64.5c0 -36.667 -8.83301 -74 -26.5 -112s-49.167 -77.667 -94.5 -119l113.5 -144c34.333 -43.333 65.833 -80.666 94.5 -111.999c27.333 -28.667 51.333 -47.334 72 -56.001
s37.334 -14 50.001 -16c9.33301 -1.33301 17.5 -2.16602 24.5 -2.49902s11.833 -0.5 14.5 -0.5s4.83398 -0.666992 6.50098 -2s2.5 -2.66602 2.5 -3.99902c0 -2.66699 -1.66699 -4.5 -5 -5.5s-9.66602 -1.5 -18.999 -1.5h-71c-27.333 0 -48.5 1.16699 -63.5 3.5
s-28.833 6.83301 -41.5 13.5l-0.5 0.5c-0.333008 0.333008 -0.833008 0.5 -1.5 0.5c-6 3.33301 -11.667 7 -17 11s-10.666 8.33301 -15.999 13c-15.333 13.333 -31 30.333 -47 51l-55 72c-3.33301 4 -6.66602 8.33301 -9.99902 13s-6.66602 9 -9.99902 13l-4.5 6.5l-4.5 6.5
l-46.5 63.5c-14.333 20.333 -25.5 35.5 -33.5 45.5l-1.5 1.5l-1.5 1.5c-1.33301 0.666992 -2.83301 1.33398 -4.5 2.00098s-3.5 1 -5.5 1l-123 3c-2.66699 -0.666992 -4.5 -1.66699 -5.5 -3s-1.5 -3.33301 -1.5 -6v-23c0 -48.667 0.166992 -91.834 0.5 -129.501
s1.83301 -67.167 4.5 -88.5c1.33301 -14.667 4.5 -27 9.5 -37s14.833 -16 29.5 -18c2.66699 -0.666992 5.5 -1.16699 8.5 -1.5s6.16699 -0.5 9.5 -0.5c5.33301 -0.666992 10.5 -1.16699 15.5 -1.5s8.83301 -0.5 11.5 -0.5c3.33301 0 5.5 -0.666992 6.5 -2
s1.5 -2.66602 1.5 -3.99902c0 -2.66699 -1.33301 -4.5 -4 -5.5s-6.66699 -1.5 -12 -1.5h-10h-10c-10.667 0 -21.167 0.166992 -31.5 0.5s-19.833 0.5 -28.5 0.5c-12 0.666992 -21.833 1.16699 -29.5 1.5s-12.167 0.5 -13.5 0.5l-10.5 -0.5
c-7 -0.333008 -15.5 -0.833008 -25.5 -1.5h-9.5h-9.5c-7.33301 -0.666992 -14.333 -1 -21 -1h-18c-5.33301 0 -9.33301 0.5 -12 1.5s-4 2.83301 -4 5.5c0 1.33301 0.666992 2.66602 2 3.99902s3.33301 2 6 2c2 0 4.33301 0.166992 7 0.5s5.33398 0.5 8.00098 0.5
c2.66699 0.666992 5.33398 1.16699 8.00098 1.5s5 0.833008 7 1.5c10 2 16.833 8 20.5 18s6.5 22.333 8.5 37c2.66699 21.333 4.16699 50.833 4.5 88.5s0.5 80.5 0.5 128.5v1zM257.99 702.997v-326.999c0 -3.33301 0.5 -6 1.5 -8s2.83301 -3.66699 5.5 -5
c7.33301 -4 20.166 -7.5 38.499 -10.5s37.833 -4.83301 58.5 -5.5h4h4c5.33301 0 10.833 0.166992 16.5 0.5s11.5 1.16602 17.5 2.49902c6.66699 1.33301 13.5 3.16602 20.5 5.49902s13.833 5.83301 20.5 10.5c17.333 12 31.833 31.167 43.5 57.5s17.5 58.5 17.5 96.5
c0 62.667 -15.5 111.667 -46.5 147s-73.167 53 -126.5 53c-14.667 0 -28.167 -0.666992 -40.5 -2s-21.166 -2.66602 -26.499 -3.99902c-2.66699 -0.666992 -4.66699 -2 -6 -4s-2 -4.66699 -2 -8v1z" />
    <glyph glyph-name="s" unicode="s" horiz-adv-x="570" 
d="M248 -17c-23.333 0 -46.3311 2.00098 -68.998 6.00098s-44.334 10.667 -65.001 20c-0.666992 0.666992 -1.33398 1.16699 -2.00098 1.5s-1.33398 0.5 -2.00098 0.5c-5.33301 3.33301 -8.5 7.16602 -9.5 11.499s-1.5 12.5 -1.5 24.5c0 14 0.333008 27.333 1 40
s1.33398 23.667 2.00098 33c0 7.33301 0.333008 13.833 1 19.5s1 10.167 1 13.5c0.666992 5.33301 1.5 9.33301 2.5 12s2.83301 4 5.5 4c3.33301 0 5.33301 -0.833008 6 -2.5s1 -4.5 1 -8.5c0 -4.66699 0.166992 -10.167 0.5 -16.5s1.16602 -13.166 2.49902 -20.499
c7.33301 -36.667 25.5 -62.834 54.5 -78.501s60.167 -23.5 93.5 -23.5c44.667 0 78.834 12.5 102.501 37.5s36.834 52.5 39.501 82.5c0.666992 2 1 4.16699 1 6.5v6.5c0 16.667 -1.83301 32 -5.5 46s-9.5 27.667 -17.5 41c-9.33301 14 -21.5 28.333 -36.5 43
s-33.5 31.334 -55.5 50.001l-45 38c-42.667 34.667 -73.334 66.167 -92.001 94.5s-30.334 55.833 -35.001 82.5c-1.33301 6.66699 -2.16602 13.167 -2.49902 19.5s-0.5 12.833 -0.5 19.5c0 53.333 18.667 96.666 56 129.999s87.666 50 150.999 50
c19.333 0 36.5 -0.833008 51.5 -2.5s28.833 -4.16699 41.5 -7.5c9.33301 -2 16.5 -3.33301 21.5 -4s9.5 -1 13.5 -1s6.66699 -0.5 8 -1.5s2 -2.83301 2 -5.5c0 -1.33301 -0.166992 -4.33301 -0.5 -9l-1.5 -20c-0.666992 -8.66699 -1.16699 -19.334 -1.5 -32.001
s-0.5 -27.667 -0.5 -45c0 -8 -0.5 -13.833 -1.5 -17.5s-2.83301 -5.5 -5.5 -5.5s-4.5 1.16699 -5.5 3.5s-1.83301 5.5 -2.5 9.5c0 2.66699 -0.5 6.16699 -1.5 10.5s-1.83301 8.83301 -2.5 13.5c-1.33301 5.33301 -2.83301 10.333 -4.5 15s-3.16699 8.33398 -4.5 11.001
s-3.66602 6.16699 -6.99902 10.5s-8.33301 9.16602 -15 14.499c-9.33301 7.33301 -22.166 13.833 -38.499 19.5s-37.833 8.5 -64.5 8.5c-34.667 0 -63.834 -10.167 -87.501 -30.5s-35.5 -48.833 -35.5 -85.5c0 -10 1 -19.333 3 -28s5 -17.334 9 -26.001
c8 -16 20.667 -32.667 38 -50s41.333 -38.666 72 -63.999l28 -21c37.333 -30 66.333 -57.167 87 -81.5s35.667 -48.166 45 -71.499c5.33301 -13.333 9 -26.833 11 -40.5s3 -27.834 3 -42.501c0 -11.333 -1.5 -25.166 -4.5 -41.499s-8.83301 -33.166 -17.5 -50.499
c-6.66699 -13.333 -15 -26.333 -25 -39s-22.667 -24.334 -38 -35.001c-21.333 -14.667 -45 -25.167 -71 -31.5s-52.667 -9.5 -80 -9.5v0z" />
    <glyph glyph-name="t" unicode="t" horiz-adv-x="691" 
d="M391 710l-0.00292969 -423.004c0 -48.667 0.166992 -91.834 0.5 -129.501s1.83301 -67.167 4.5 -88.5c1.33301 -14.667 4.5 -27 9.5 -37s14.833 -16 29.5 -18c2.66699 -0.666992 5.5 -1.16699 8.5 -1.5s6.16699 -0.5 9.5 -0.5c5.33301 -0.666992 10.5 -1.16699 15.5 -1.5
s8.83301 -0.5 11.5 -0.5c3.33301 0 5.5 -0.666992 6.5 -2s1.5 -2.66602 1.5 -3.99902c0 -2.66699 -1.33301 -4.5 -4 -5.5s-6.66699 -1.5 -12 -1.5h-10h-10c-10.667 0 -21.167 0.166992 -31.5 0.5s-19.833 0.5 -28.5 0.5c-12 0.666992 -21.833 1.16699 -29.5 1.5
s-12.167 0.5 -13.5 0.5s-5.83301 -0.166992 -13.5 -0.5s-16.5 -0.833008 -26.5 -1.5h-8h-9c-7.33301 0 -14.666 -0.166992 -21.999 -0.5s-13.666 -0.5 -18.999 -0.5s-9.33301 0.5 -12 1.5s-4 2.83301 -4 5.5c0 1.33301 0.666992 2.66602 2 3.99902s3.33301 2 6 2
c2 0 4.33301 0.166992 7 0.5s5.33398 0.5 8.00098 0.5c2.66699 0.666992 5.33398 1.16699 8.00098 1.5s5 0.833008 7 1.5c10 2 16.833 8 20.5 18s6.5 22.333 8.5 37c2.66699 21.333 4.16699 50.833 4.5 88.5s0.5 80.5 0.5 128.5v424l-148 -2
c-30.667 -1.33301 -53.334 -4.16602 -68.001 -8.49902s-26 -12.5 -34 -24.5c-5.33301 -8.66699 -9.16602 -15.167 -11.499 -19.5s-4.16602 -8.16602 -5.49902 -11.499c-1.33301 -4 -2.83301 -6.66699 -4.5 -8s-3.5 -2 -5.5 -2c-1.33301 0 -2.5 0.833008 -3.5 2.5
s-1.5 3.83398 -1.5 6.50098s1 9 3 19s4.33301 21 7 33c0 0.666992 0.166992 1.33398 0.5 2.00098s0.5 1.33398 0.5 2.00098c2.66699 11.333 5 21.666 7 30.999s3.33301 15 4 17c0.666992 1.33301 1.16699 2.66602 1.5 3.99902s0.833008 2.66602 1.5 3.99902
c0.666992 2.66699 1.66699 5.16699 3 7.5s2.66602 3.5 3.99902 3.5c2 0 4.33301 -0.666992 7 -2s6 -2.66602 10 -3.99902c3.33301 -1.33301 7.16602 -2.5 11.499 -3.5s9.5 -1.83301 15.5 -2.5c4 -0.666992 8 -1.16699 12 -1.5s8 -0.5 12 -0.5l32.5 -2
c10.333 -0.666992 17.833 -1 22.5 -1l375 1c12 -0.666992 22.833 -0.666992 32.5 0s18.167 1.33398 25.5 2.00098c2 0.666992 4.16699 1.16699 6.5 1.5s4.5 0.5 6.5 0.5c7.33301 1.33301 13.333 2.5 18 3.5s8 1.5 10 1.5c2.66699 0 4.16699 -1.16699 4.5 -3.5
s0.5 -5.16602 0.5 -8.49902c0 -6 -0.166992 -13.333 -0.5 -22s-0.5 -17.667 -0.5 -27v-6.5v-6.5c-0.666992 -11.333 -1.16699 -21.5 -1.5 -30.5s-0.5 -14.833 -0.5 -17.5c0 -4.66699 -0.666992 -8 -2 -10s-3 -3 -5 -3c-2.66699 0 -4.5 1.16699 -5.5 3.5
s-1.83301 6.83301 -2.5 13.5l-1 12c-2 14.667 -11 27.167 -27 37.5s-48 15.833 -96 16.5l-126 3v0z" />
    <glyph glyph-name="u" unicode="u" horiz-adv-x="830" 
d="M120 317l0.00488281 145.998v150.5c0 25.667 -0.666992 46.167 -2 61.5v1.5v1.5c-0.666992 17.333 -3.83398 30.333 -9.50098 39s-16.834 14.667 -33.501 18c-2 0.666992 -4.66699 1.16699 -8 1.5s-6.66602 0.5 -9.99902 0.5c-2.66699 0.666992 -5.5 1 -8.5 1h-7.5
c-2 0 -3.83301 0.5 -5.5 1.5s-2.5 2.5 -2.5 4.5c0 3.33301 1.33301 5.5 4 6.5s6.66699 1.5 12 1.5h16.5h17.5c6 -0.666992 12.167 -1 18.5 -1h18.5c11.333 -0.666992 21 -1.16699 29 -1.5s13 -0.5 15 -0.5s7 0.166992 15 0.5s17 0.833008 27 1.5h7h8
c8 0 15.667 0.166992 23 0.5s13.666 0.5 18.999 0.5s9.33301 -0.5 12 -1.5s4 -3.16699 4 -6.5c0 -2 -0.833008 -3.5 -2.5 -4.5s-3.5 -1.5 -5.5 -1.5h-1.5h-1.5c-2.66699 0 -5.66699 -0.333008 -9 -1s-7.66602 -1.33398 -12.999 -2.00098
c-13.333 -2 -22.5 -7.66699 -27.5 -17s-8.16699 -22.666 -9.5 -39.999v-1.5v-1.5c-1.33301 -15.333 -2 -35.833 -2 -61.5v-151.5v-139c0 -72.667 7.16699 -127 21.5 -163s32.166 -64.333 53.499 -85c6 -6 12 -11.333 18 -16s12 -8.66699 18 -12
c18 -10.667 36.333 -17.834 55 -21.501s38.667 -5.5 60 -5.5c30.667 0 60 6.66699 88 20s51 30.666 69 51.999c23.333 28.667 38.833 63.834 46.5 105.501s11.5 88.167 11.5 139.5v126v150.5c0 25.667 -0.666992 46.167 -2 61.5v1.5v1.5
c-0.666992 17.333 -3.83398 30.333 -9.50098 39s-16.834 14.667 -33.501 18c-2 0.666992 -4.66699 1.16699 -8 1.5s-6.66602 0.5 -9.99902 0.5c-2.66699 0.666992 -5.5 1 -8.5 1h-7.5c-2 0 -3.83301 0.5 -5.5 1.5s-2.5 2.5 -2.5 4.5c0 3.33301 1.33301 5.5 4 6.5
s6.66699 1.5 12 1.5h12h11c8 0 15.833 -0.166992 23.5 -0.5s14.834 -0.5 21.501 -0.5c10 -0.666992 18.5 -1.16699 25.5 -1.5s11.167 -0.5 12.5 -0.5c2 0 6 0.166992 12 0.5s13 0.833008 21 1.5h10.5h10.5c5.33301 0.666992 10.5 1 15.5 1h14.5
c5.33301 0 9.33301 -0.5 12 -1.5s4 -3.16699 4 -6.5c0 -2 -0.833008 -3.5 -2.5 -4.5s-3.5 -1.5 -5.5 -1.5h-1.5h-1.5c-2.66699 0 -5.66699 -0.166992 -9 -0.5s-7.66602 -1.16602 -12.999 -2.49902c-13.333 -2.66699 -22.5 -8.5 -27.5 -17.5s-8.16699 -22.167 -9.5 -39.5
v-1.5v-1.5c-1.33301 -15.333 -2 -35.833 -2 -61.5v-151.5v-106c0 -11.333 -0.166992 -22.333 -0.5 -33s-0.833008 -21.667 -1.5 -33c-2.66699 -44 -10.334 -86.833 -23.001 -128.5s-35 -76.834 -67 -105.501c-6 -5.33301 -11.833 -10.166 -17.5 -14.499
s-11.167 -8.16602 -16.5 -11.499c-30.667 -20 -60.834 -32.833 -90.501 -38.5s-56.834 -8.5 -81.501 -8.5c-12 0 -30.5 1.33301 -55.5 4s-51.167 9.33398 -78.5 20.001c-12.667 5.33301 -25.167 11.666 -37.5 18.999s-23.833 16.333 -34.5 27
c-24.667 23.333 -45.334 54.833 -62.001 94.5s-25 95.834 -25 168.501v1z" />
    <glyph glyph-name="v" unicode="v" horiz-adv-x="742" 
d="M203 631l192.003 -512.001c12 26.667 26.333 60.834 43 102.501l52 131.5c1.33301 4 2.83301 7.83301 4.5 11.5s3.16699 7.5 4.5 11.5l69 181.5c21.333 57 35 95.5 41 115.5c2.66699 7.33301 4.83398 14.333 6.50098 21s2.5 12.334 2.5 17.001v3.5
c0 1 -0.333008 2.16699 -1 3.5c-0.666992 3.33301 -2 6.33301 -4 9s-4.66699 5 -8 7l-8 2c-2.66699 0.666992 -5.66699 1 -9 1c-3.33301 0.666992 -6.83301 1 -10.5 1h-10.5c-2.66699 0 -5.16699 0.333008 -7.5 1s-3.5 2.33398 -3.5 5.00098c0 3.33301 1.66699 5.5 5 6.5
s9 1.5 17 1.5h9.5h8.5c7.33301 0 14.5 -0.166992 21.5 -0.5s13.5 -0.5 19.5 -0.5c9.33301 -0.666992 17.5 -1.16699 24.5 -1.5s11.833 -0.5 14.5 -0.5c1.33301 0 4.83301 0.166992 10.5 0.5s12.167 0.833008 19.5 1.5h10.5h11.5c4.66699 0.666992 9.16699 1 13.5 1h12.5
c5.33301 0 9.5 -0.5 12.5 -1.5s4.5 -2.83301 4.5 -5.5s-1 -4.5 -3 -5.5s-5 -1.5 -9 -1.5c-2.66699 0 -7.66699 -0.333008 -15 -1s-15 -2.66699 -23 -6c-2 -0.666992 -3.83301 -1.33398 -5.5 -2.00098s-3.16699 -1.66699 -4.5 -3c-6.66699 -4.66699 -14.167 -13 -22.5 -25
s-19.166 -35 -32.499 -69c-5.33301 -14 -19 -47.333 -41 -100l-71 -171l-79 -187.5c-22 -52.333 -38.667 -90.833 -50 -115.5c-11.333 -24 -19.333 -41.333 -24 -52s-8.66699 -17.667 -12 -21l-3 -1.5c-0.666992 -0.333008 -1.66699 -0.5 -3 -0.5
c-2 0 -3.83301 0.5 -5.5 1.5s-3.16699 2.16699 -4.5 3.5c-3.33301 4 -6.83301 10.333 -10.5 19l-15.5 37l-245 614c-2.66699 6.66699 -5.33398 12.834 -8.00098 18.501s-5.33398 10.834 -8.00098 15.501c-7.33301 13.333 -15.333 22.666 -24 27.999s-19.334 10 -32.001 14
c-1.33301 0 -2.5 0.166992 -3.5 0.5s-2.16699 0.833008 -3.5 1.5c-6.66699 0.666992 -12.667 1.16699 -18 1.5s-9.33301 0.5 -12 0.5c-3.33301 0 -5.5 0.666992 -6.5 2s-1.5 3 -1.5 5c0 3.33301 2.33301 5.33301 7 6s10.667 1 18 1h12h13c8 0 16 -0.166992 24 -0.5
s15.667 -0.5 23 -0.5c10.667 -0.666992 20.167 -1.16699 28.5 -1.5s13.833 -0.5 16.5 -0.5s7.16699 0.166992 13.5 0.5s13.833 0.833008 22.5 1.5c6 0 12.167 0.166992 18.5 0.5s12.833 0.5 19.5 0.5h9.5h9.5c9.33301 0 16.166 -0.5 20.499 -1.5s6.5 -2.83301 6.5 -5.5
s-0.833008 -4.5 -2.5 -5.5s-4.16699 -1.5 -7.5 -1.5h-8.5c-3 0 -5.83301 -0.333008 -8.5 -1c-4 0 -7.83301 -0.333008 -11.5 -1s-6.83398 -1.66699 -9.50098 -3c-4 -2 -7 -4.33301 -9 -7s-3.33301 -5.33398 -4 -8.00098v-2.5v-2.5c0 -6.66699 2.66699 -17.334 8 -32.001
l19 -51v1z" />
    <glyph glyph-name="w" unicode="w" horiz-adv-x="1100" 
d="M599 702l199.004 -566.997h4l33 108l47 152c0.666992 2 1.16699 3.83301 1.5 5.5s0.833008 3.5 1.5 5.5l40 131l31 107c5.33301 18.667 8.5 32.334 9.5 41.001s1.5 16.334 1.5 23.001c0 9.33301 -3.66699 16.666 -11 21.999s-22.666 8 -45.999 8
c-2.66699 0 -4.83398 0.666992 -6.50098 2s-2.5 3 -2.5 5c0 2.66699 1.33301 4.5 4 5.5s7 1.5 13 1.5c12.667 0 24.667 -0.166992 36 -0.5s21.666 -0.5 30.999 -0.5c8.66699 -0.666992 16.167 -1.16699 22.5 -1.5s10.5 -0.5 12.5 -0.5s5.83301 0.166992 11.5 0.5
s12.5 0.833008 20.5 1.5h11.5c4.33301 0 8.5 0.333008 12.5 1h13h12c4.66699 0 8.16699 -0.5 10.5 -1.5s3.5 -2.5 3.5 -4.5c0 -2.66699 -0.666992 -4.66699 -2 -6s-3.66602 -2 -6.99902 -2c-1.33301 0 -4 -0.166992 -8 -0.5s-8.33301 -0.833008 -13 -1.5
c-2 0 -4.16699 -0.333008 -6.5 -1s-4.5 -1.33398 -6.5 -2.00098c-12.667 -4.66699 -23.167 -14 -31.5 -28s-16.166 -31.333 -23.499 -52c-2 -4.66699 -3.66699 -9.33398 -5 -14.001s-3 -9.33398 -5 -14.001l-40 -119l-49 -151l-54 -164.5l-41 -122.5
c-10 -28.667 -17.5 -48.834 -22.5 -60.501s-9.16699 -19.167 -12.5 -22.5c-1.33301 -0.666992 -2.5 -1.16699 -3.5 -1.5s-2.16699 -0.5 -3.5 -0.5s-2.83301 0.333008 -4.5 1s-3.16699 2 -4.5 4c-2.66699 3.33301 -5.66699 8.66602 -9 15.999s-7.33301 17.333 -12 30
l-196 557h-2c-8.66699 -24.667 -22.834 -63 -42.501 -115l-61.5 -165l-62 -163.5l-43 -112.5c-4.66699 -12.667 -8.66699 -22.667 -12 -30s-6.33301 -12.666 -9 -15.999c-2 -2 -3.83301 -3.5 -5.5 -4.5s-3.83398 -1.5 -6.50098 -1.5c-1.33301 0 -2.5 0.166992 -3.5 0.5
s-2.16699 1.16602 -3.5 2.49902c-3.33301 2.66699 -7 9.5 -11 20.5s-9.66699 29.167 -17 54.5l-178 594c-1.33301 4 -2.83301 8.16699 -4.5 12.5s-3.16699 8.5 -4.5 12.5c-6 16 -12.5 27.667 -19.5 35s-15.833 13 -26.5 17c-2.66699 1.33301 -5.66699 2.33301 -9 3
s-6.66602 1 -9.99902 1c-5.33301 0.666992 -10.5 1.16699 -15.5 1.5s-8.16699 0.5 -9.5 0.5c-2.66699 0 -4.83398 0.5 -6.50098 1.5s-2.5 2.83301 -2.5 5.5s1.33301 4.5 4 5.5s6.33398 1.5 11.001 1.5h4.5h5.5c11.333 0 22.5 -0.166992 33.5 -0.5s21.167 -0.5 30.5 -0.5
c11.333 -0.666992 20.833 -1.16699 28.5 -1.5s12.834 -0.5 15.501 -0.5c2 0 6.16699 0.166992 12.5 0.5s14.166 0.833008 23.499 1.5c9.33301 0 19.666 0.166992 30.999 0.5s23.333 0.5 36 0.5c7.33301 0 12.166 -0.666992 14.499 -2s3.5 -3 3.5 -5
c0 -2.66699 -1 -4.5 -3 -5.5s-4.33301 -1.5 -7 -1.5h-10c-4 0 -8.33301 -0.333008 -13 -1l-8 -2c-2.66699 -0.666992 -5.33398 -1.66699 -8.00098 -3c-0.666992 0 -1.16699 -0.166992 -1.5 -0.5l-0.5 -0.5c-2.66699 -2 -5.16699 -4.83301 -7.5 -8.5s-3.5 -8.5 -3.5 -14.5
c0 -6.66699 2 -18.167 6 -34.5s8.33301 -35.5 13 -57.5c4 -16 12.5 -47.667 25.5 -95l41.5 -151l41.5 -149l25.5 -89l2 1l212 570c6.66699 16.667 11.5 28 14.5 34s5.5 9.66699 7.5 11h1.5h1.5h1.5c0.333008 0 0.833008 -0.333008 1.5 -1
c2.66699 -1.33301 5.66699 -5.66602 9 -12.999s7.66602 -18.333 12.999 -33v1z" />
    <glyph glyph-name="x" unicode="x" horiz-adv-x="694" 
d="M124 97l180.997 285.995l-160 269l-4.5 6.5c-1.66699 2.33301 -3.16699 4.83301 -4.5 7.5c-10 16 -20.333 29.5 -31 40.5s-23.334 19.167 -38.001 24.5c-2 0.666992 -3.83301 1.16699 -5.5 1.5s-3.5 0.833008 -5.5 1.5c-6.66699 1.33301 -12.834 2.33301 -18.501 3
s-9.83398 1 -12.501 1s-4.83398 0.666992 -6.50098 2s-2.5 3 -2.5 5c0 2.66699 1.16699 4.5 3.5 5.5s6.83301 1.5 13.5 1.5c6 0 13.833 -0.166992 23.5 -0.5s19.834 -0.5 30.501 -0.5h6h6c12.667 -0.666992 23.834 -1.16699 33.501 -1.5s15.5 -0.5 17.5 -0.5
s6.5 0.166992 13.5 0.5s15.167 0.833008 24.5 1.5h11.5h12.5c5.33301 0.666992 10.833 1 16.5 1h15.5c7.33301 0 12 -0.5 14 -1.5s3 -2.83301 3 -5.5s-0.666992 -4.5 -2 -5.5s-3.66602 -1.5 -6.99902 -1.5h-7c-2.66699 0 -5.33398 -0.333008 -8.00098 -1
c-2 0 -4 -0.166992 -6 -0.5s-4 -0.833008 -6 -1.5c-4.66699 -1.33301 -7.83398 -3.66602 -9.50098 -6.99902s-2.5 -6.66602 -2.5 -9.99902s0.5 -6.83301 1.5 -10.5s2.16699 -7.5 3.5 -11.5c0.666992 -2 1.5 -3.83301 2.5 -5.5s1.83301 -3.5 2.5 -5.5
c2 -3.33301 3.83301 -6.66602 5.5 -9.99902s3.16699 -6.66602 4.5 -9.99902c4.66699 -8 9.16699 -16.167 13.5 -24.5s8.83301 -16.5 13.5 -24.5l46.5 -82.5l51.5 -87.5c6.66699 9.33301 16.5 24 29.5 44l40.5 64c0.666992 1.33301 1.33398 2.33301 2.00098 3s1 1.66699 1 3
l48 77c14.667 24 23.334 38.667 26.001 44s4.66699 9.83301 6 13.5s2.33301 7.5 3 11.5c0 1.33301 0.166992 3 0.5 5s0.5 4 0.5 6v2c0 0.666992 -0.333008 1.33398 -1 2.00098c-0.666992 2.66699 -2.5 5.33398 -5.5 8.00098s-6.5 4.66699 -10.5 6
c-1.33301 0.666992 -3 1.16699 -5 1.5s-4 0.5 -6 0.5c-4 0.666992 -7.66699 1 -11 1h-8c-2.66699 0 -4.83398 0.5 -6.50098 1.5s-2.5 2.83301 -2.5 5.5c0 2 1.33301 3.66699 4 5s7 2 13 2h6h6c8 0 15.667 -0.166992 23 -0.5s14 -0.5 20 -0.5
c8.66699 -0.666992 16 -1.16699 22 -1.5s10 -0.5 12 -0.5s6 0.166992 12 0.5s13 0.833008 21 1.5c4.66699 0 9.83398 0.166992 15.501 0.5s11.167 0.5 16.5 0.5h9.5h9.5c5.33301 0 9.33301 -0.666992 12 -2s4 -3 4 -5s-1 -3.66699 -3 -5s-4.66699 -2 -8 -2
c-2 0 -5 -0.166992 -9 -0.5s-8 -0.833008 -12 -1.5c-2 0 -4 -0.333008 -6 -1l-6 -2c-7.33301 -2 -14 -5.33301 -20 -10s-12 -10.667 -18 -18c-6 -6.66699 -12.167 -14.5 -18.5 -23.5l-20.5 -29.5l-161 -241c4.66699 -8.66699 17.5 -30.5 38.5 -65.5l67.5 -113.5l66 -110
c20.667 -34 33.667 -54.333 39 -61c0.666992 -1.33301 1.5 -2.5 2.5 -3.5l3.5 -3.5c6.66699 -8.66699 14 -16.167 22 -22.5s18.333 -11.5 31 -15.5c0.666992 0 1.33398 -0.166992 2.00098 -0.5s1.33398 -0.5 2.00098 -0.5c6.66699 -2 12.834 -3.33301 18.501 -4
s9.83398 -1 12.501 -1s4.66699 -0.5 6 -1.5s2 -2.5 2 -4.5c0 -2.66699 -1.16699 -4.5 -3.5 -5.5s-5.83301 -1.5 -10.5 -1.5c-24.667 0 -47.667 0.166992 -69 0.5s-42.333 0.5 -63 0.5c-4.66699 0.666992 -9.33398 1 -14.001 1h-14c-2.66699 0 -5 0.166992 -7 0.5
s-4 0.5 -6 0.5c-7.33301 0 -12.166 0.5 -14.499 1.5s-3.5 2.5 -3.5 4.5s0.5 3.66699 1.5 5s2.5 2.33301 4.5 3c0.666992 0 1.16699 0.166992 1.5 0.5l0.5 0.5c2 1.33301 3.66699 3.16602 5 5.49902s2 5.16602 2 8.49902c0 2 -0.333008 4 -1 6s-1.66699 4.33301 -3 7
l-83.5 148l-88.5 150l-156 -264c-0.666992 -2 -1.5 -3.83301 -2.5 -5.5s-1.83301 -3.5 -2.5 -5.5c-2.66699 -6.66699 -4.66699 -13 -6 -19s-2 -11 -2 -15c0 -4.66699 1.5 -8.66699 4.5 -12s6.83301 -5.66602 11.5 -6.99902c1.33301 0 2.66602 -0.166992 3.99902 -0.5
s2.66602 -0.5 3.99902 -0.5c2 -0.666992 4 -1 6 -1h5c2.66699 0 4.66699 -0.666992 6 -2s2 -3 2 -5s-1.16699 -3.5 -3.5 -4.5s-5.16602 -1.5 -8.49902 -1.5c-5.33301 0 -11.833 0.166992 -19.5 0.5s-15.834 0.5 -24.501 0.5h-4.5h-5.5c-10 0.666992 -19 1.16699 -27 1.5
s-13 0.5 -15 0.5s-6.33301 -0.166992 -13 -0.5s-14.334 -0.833008 -23.001 -1.5h-12h-12c-5.33301 -0.666992 -10.666 -1 -15.999 -1h-15c-3.33301 0 -5.66602 0.5 -6.99902 1.5s-2 2.5 -2 4.5s0.666992 3.66699 2 5s3 2 5 2c4 0 9.5 0.333008 16.5 1s14.167 2 21.5 4
c6.66699 2 12.834 4.5 18.501 7.5s11.167 7.16699 16.5 12.5c7.33301 6 14.833 14 22.5 24s16.167 22.333 25.5 37v1z" />
    <glyph glyph-name="y" unicode="y" horiz-adv-x="654" 
d="M289 170l0.00195312 86.0039c0 21.333 -1.5 38.666 -4.5 51.999s-6.83301 25.666 -11.5 36.999c-1.33301 2.66699 -2.5 5.16699 -3.5 7.5s-2.16699 4.83301 -3.5 7.5c-2 4.66699 -12 21.834 -30 51.501l-59 97.5c-0.666992 0.666992 -1.16699 1.5 -1.5 2.5
s-0.833008 1.83301 -1.5 2.5l-49.5 79.5l-34.5 54.5c-12.667 18.667 -24.834 34.167 -36.501 46.5s-22.167 21.5 -31.5 27.5c-2 1.33301 -4.16699 2.66602 -6.5 3.99902s-4.83301 2.66602 -7.5 3.99902c-5.33301 2.66699 -10.5 4.66699 -15.5 6s-9.16699 2 -12.5 2
c-2.66699 0 -5 0.5 -7 1.5s-3 2.83301 -3 5.5c0 2 1 3.66699 3 5s5.33301 2 10 2c4 0 10.333 -0.166992 19 -0.5s17.667 -0.5 27 -0.5h4c1.33301 0 2.66602 -0.333008 3.99902 -1c10.667 0 20.334 -0.166992 29.001 -0.5s13.667 -0.5 15 -0.5c2 0 5.66699 0.166992 11 0.5
s11.666 0.833008 18.999 1.5c7.33301 0 15.666 0.166992 24.999 0.5s19 0.5 29 0.5c5.33301 0 8.83301 -0.666992 10.5 -2s2.5 -3 2.5 -5c0 -0.666992 -0.333008 -1.5 -1 -2.5s-1.66699 -1.5 -3 -1.5c-1.33301 -0.666992 -3 -1.33398 -5 -2.00098s-4 -1.66699 -6 -3
c-4 -2 -7.16699 -4.5 -9.5 -7.5s-3.5 -6.5 -3.5 -10.5c0 -6 1.16699 -12.167 3.5 -18.5s5.5 -13.166 9.5 -20.499s15.167 -26.666 33.5 -57.999l58.5 -102l58 -99c18 -30.667 29.333 -49.667 34 -57c4.66699 10 14.667 29 30 57l50 89
c0.666992 0.666992 1.16699 1.5 1.5 2.5s0.833008 1.83301 1.5 2.5l51.5 89.5l31.5 53.5c6.66699 10.667 11.167 20.167 13.5 28.5s3.5 15.833 3.5 22.5c0 7.33301 -1.16699 13.5 -3.5 18.5s-6.5 8.16699 -12.5 9.5c-1.33301 0.666992 -2.5 1.16699 -3.5 1.5
s-1.83301 0.5 -2.5 0.5c-2.66699 1.33301 -4.83398 2.5 -6.50098 3.5s-2.5 2.5 -2.5 4.5s1.5 3.5 4.5 4.5s6.83301 1.5 11.5 1.5h8h8c4 -0.666992 8 -1 12 -1h12c6 -0.666992 11.333 -1.16699 16 -1.5s8 -0.5 10 -0.5c1.33301 0 6.33301 0.166992 15 0.5
s18.334 0.833008 29.001 1.5h3h4c9.33301 0 18.333 0.166992 27 0.5s15 0.5 19 0.5c3.33301 0 6.33301 -0.5 9 -1.5s4 -2.5 4 -4.5c0 -2.66699 -1.16699 -4.66699 -3.5 -6s-5.5 -2 -9.5 -2s-8.83301 -0.5 -14.5 -1.5s-11.5 -2.83301 -17.5 -5.5
c-2.66699 -1.33301 -5.16699 -2.5 -7.5 -3.5s-4.5 -2.16699 -6.5 -3.5c-4.66699 -2.66699 -8.83398 -5.33398 -12.501 -8.00098s-7.16699 -6 -10.5 -10c-4.66699 -4 -9.33398 -8.66699 -14.001 -14l-16 -19c-8 -9.33301 -20.667 -27.666 -38 -54.999l-55 -89
c-1.33301 -2.66699 -2.83301 -5.33398 -4.5 -8.00098l-4.5 -7l-56.5 -97.5c-17 -30.333 -27.833 -50.833 -32.5 -61.5c-5.33301 -12.667 -9 -25 -11 -37s-3.33301 -23.667 -4 -35v-14v-14v-85c0 -8.66699 0.166992 -22.334 0.5 -41.001s1.16602 -38.667 2.49902 -60
c1.33301 -14.667 4.83301 -27 10.5 -37s15.834 -16 30.501 -18c2.66699 -0.666992 5.5 -1.16699 8.5 -1.5s6.16699 -0.5 9.5 -0.5c5.33301 -0.666992 10.5 -1.16699 15.5 -1.5s8.83301 -0.5 11.5 -0.5c3.33301 0 5.5 -0.666992 6.5 -2s1.5 -2.66602 1.5 -3.99902
c0 -2.66699 -1.33301 -4.5 -4 -5.5s-6.66699 -1.5 -12 -1.5h-10h-10c-10.667 0 -21.167 0.166992 -31.5 0.5s-19.833 0.5 -28.5 0.5c-12 0.666992 -21.833 1.16699 -29.5 1.5s-12.167 0.5 -13.5 0.5s-5.83301 -0.166992 -13.5 -0.5s-16.5 -0.833008 -26.5 -1.5h-8h-9
c-7.33301 0 -14.666 -0.166992 -21.999 -0.5s-13.666 -0.5 -18.999 -0.5s-9.33301 0.5 -12 1.5s-4 2.83301 -4 5.5c0 1.33301 0.666992 2.66602 2 3.99902s3.33301 2 6 2c2 0 4.33301 0.166992 7 0.5s5.33398 0.5 8.00098 0.5c2.66699 0.666992 5.33398 1.16699 8.00098 1.5
s5 0.833008 7 1.5c10 2 17.5 8 22.5 18s7.83301 22.333 8.5 37c1.33301 21.333 2.16602 41.333 2.49902 60s0.5 32 0.5 40v1z" />
    <glyph glyph-name="z" unicode="z" horiz-adv-x="692" 
d="M184 40l272.001 -0.00195312c52.667 -0.666992 89.5 3.5 110.5 12.5s36.833 20.833 47.5 35.5c2.66699 3.33301 5 7.5 7 12.5l6 15.5c2 4.66699 3.5 9.33398 4.5 14.001l2.5 12c1.33301 5.33301 2.5 9.33301 3.5 12s2.83301 4 5.5 4c3.33301 0 5.5 -1.5 6.5 -4.5
s1.5 -9.16699 1.5 -18.5c0 -6.66699 -0.666992 -14.834 -2 -24.501s-3 -19.167 -5 -28.5l-2 -12l-2 -12c-2 -8 -3.66699 -15.167 -5 -21.5s-2.66602 -11.833 -3.99902 -16.5c-0.666992 -2 -1.16699 -4 -1.5 -6s-0.833008 -3.66699 -1.5 -5c-2 -6 -4.66699 -9.83301 -8 -11.5
s-9.66602 -2.5 -18.999 -2.5c-42 0 -83.833 0.333008 -125.5 1s-83.834 1 -126.501 1l-128 2c-42.667 0.666992 -86 1 -130 1c-6 0 -10.5 0.333008 -13.5 1s-4.5 2.66699 -4.5 6c0 2.66699 0.833008 5.83398 2.5 9.50098s5.5 9.83398 11.5 18.501l32 48l32 48l191 290
l184 290l-217 1c-6.66699 -0.666992 -13.334 -1 -20.001 -1s-13.667 -0.333008 -21 -1c-19.333 -0.666992 -38.333 -2.5 -57 -5.5s-34 -7.5 -46 -13.5c-10 -5.33301 -18.667 -11.833 -26 -19.5s-13.333 -15.5 -18 -23.5c-4 -6.66699 -7 -13 -9 -19s-3.33301 -11.667 -4 -17
c-0.666992 -7.33301 -2 -12.166 -4 -14.499s-4.33301 -3.5 -7 -3.5s-4.33398 1.16699 -5.00098 3.5s-1 5.5 -1 9.5c0 3.33301 1 12 3 26s4.33301 29 7 45c0 0.666992 0.166992 1.5 0.5 2.5s0.5 2.16699 0.5 3.5l5.5 32c1.66699 10 2.83398 18 3.50098 24
c1.33301 7.33301 2.66602 12.333 3.99902 15s3.33301 4 6 4h1.5h1.5l6 -2c2 -0.666992 4.33301 -1.33398 7 -2.00098s6.16699 -1.33398 10.5 -2.00098s9.5 -1 15.5 -1c39.333 -1.33301 71.5 -2.16602 96.5 -2.49902s45.167 -0.5 60.5 -0.5h9h8l279 1
c7.33301 -0.666992 12.5 -1.5 15.5 -2.5s4.5 -3.16699 4.5 -6.5v-2v-2c0 -0.666992 -0.333008 -1.66699 -1 -3s-1.66699 -3 -3 -5l-221.5 -344.5l-226.5 -345.5v1z" />
    <glyph glyph-name="braceleft" unicode="{" horiz-adv-x="360" 
d="M134 399l7.99902 -6.01074l8 -6c8.66699 -7.33301 16.834 -16.666 24.501 -27.999s13.5 -24.666 17.5 -39.999c0.666992 -2 1.16699 -3.83301 1.5 -5.5s0.833008 -3.16699 1.5 -4.5c3.33301 -16.667 5.33301 -35 6 -55s1 -48.333 1 -85c0 -72 6.16699 -123.5 18.5 -154.5
s26.166 -51.833 41.499 -62.5c2.66699 -1.33301 5.16699 -2.66602 7.5 -3.99902s4.83301 -2.66602 7.5 -3.99902c6.66699 -2.66699 11.5 -4.66699 14.5 -6s5.16699 -2.66602 6.5 -3.99902c0.666992 -0.666992 1 -1.16699 1 -1.5v-1.5c0 -2 -1.16699 -3.33301 -3.5 -4
s-7.16602 -1 -14.499 -1c-6.66699 0 -16.834 2.5 -30.501 7.5s-27.5 13.833 -41.5 26.5c-5.33301 4 -10.666 8.83301 -15.999 14.5s-10.333 11.834 -15 18.501c-12.667 17.333 -24.334 41.833 -35.001 73.5s-16 82.834 -16 153.501c0 7.33301 0.333008 15.5 1 24.5
s1.66699 18.167 3 27.5v3.5v3.5l2 25c0.666992 8 1 15.667 1 23c0 6.66699 -0.5 12.667 -1.5 18s-2.83301 10 -5.5 14c-4.66699 7.33301 -11.167 12.5 -19.5 15.5s-18.166 5.5 -29.499 7.5c-1.33301 0.666992 -2.83301 1.16699 -4.5 1.5s-3.5 0.5 -5.5 0.5
c-1.33301 0 -2.33301 0.166992 -3 0.5s-1.33398 0.5 -2.00098 0.5c-3.33301 0.666992 -5.33301 1.5 -6 2.5s-1 2.5 -1 4.5c0 3.33301 0.666992 5.5 2 6.5s4.66602 1.83301 9.99902 2.5c26 1.33301 44 5.33301 54 12s15 25.334 15 56.001
c0 5.33301 -0.166992 10.833 -0.5 16.5s-0.833008 11.5 -1.5 17.5c-0.666992 4 -1.16699 8 -1.5 12s-0.833008 8 -1.5 12c-1.33301 10 -2.5 19.167 -3.5 27.5s-1.5 15.5 -1.5 21.5c0 50.667 6 88.334 18 113.001s27.333 45.667 46 63c5.33301 4.66699 11 9 17 13
s12 7.66699 18 11c11.333 5.33301 22.333 9.5 33 12.5s19.334 4.5 26.001 4.5c4.66699 0 8 -0.5 10 -1.5s3 -2.16699 3 -3.5c0 -0.666992 -0.333008 -1.5 -1 -2.5s-1.33398 -1.5 -2.00098 -1.5c-1.33301 -0.666992 -3 -1.33398 -5 -2.00098s-4.66699 -1.66699 -8 -3
c-4.66699 -1.33301 -10 -3.5 -16 -6.5s-12.333 -7.16699 -19 -12.5c-11.333 -9.33301 -21.666 -22.5 -30.999 -39.5s-14 -39.167 -14 -66.5v-23v-21c0.666992 -31.333 0.666992 -57.666 0 -78.999s-3.33398 -40.333 -8.00098 -57c-3.33301 -12 -8.66602 -23.667 -15.999 -35
s-15 -20.666 -23 -27.999l-11 -7.5c-3.33301 -2.33301 -6.66602 -4.16602 -9.99902 -5.49902v1z" />
    <glyph glyph-name="bar" unicode="|" horiz-adv-x="500" 
 />
    <glyph glyph-name="braceright" unicode="}" horiz-adv-x="360" 
d="M226 399c-3.33301 0.666992 -6.67285 2.17285 -10.0059 4.50586l-11 7.5c-8 7.33301 -15.667 16.666 -23 27.999s-12.666 23 -15.999 35c-4.66699 16.667 -7.33398 35.667 -8.00098 57s-0.666992 47.666 0 78.999v21v23c0 26.667 -4.66699 48.5 -14 65.5
s-19.666 30.167 -30.999 39.5c-6.66699 5.33301 -13.167 9.66602 -19.5 12.999s-11.5 5.66602 -15.5 6.99902c-2.66699 1.33301 -5.16699 2.16602 -7.5 2.49902s-3.83301 0.833008 -4.5 1.5c-1.33301 0.666992 -2.33301 1.33398 -3 2.00098s-1 1.33398 -1 2.00098
c0 2 1 3.5 3 4.5s5.33301 1.5 10 1.5c6.66699 0 15.334 -1.5 26.001 -4.5s21.667 -7.16699 33 -12.5c6 -3.33301 12 -7 18 -11s11.667 -8.33301 17 -13c19.333 -17.333 34.833 -38.333 46.5 -63s17.5 -62.334 17.5 -113.001c0 -6.66699 -0.5 -14.5 -1.5 -23.5
s-2.16699 -18.833 -3.5 -29.5c-0.666992 -3.33301 -1.16699 -6.66602 -1.5 -9.99902s-0.5 -6.66602 -0.5 -9.99902l-2 -21.5c-0.666992 -7 -1 -13.833 -1 -20.5c0 -10 0.833008 -18.833 2.5 -26.5s4.5 -13.5 8.5 -17.5c3.33301 -3.33301 6.83301 -6 10.5 -8
s7.5 -3.33301 11.5 -4c4.66699 -2 9.5 -3.16699 14.5 -3.5s9.5 -0.5 13.5 -0.5h4h4c5.33301 -0.666992 8.66602 -1.5 9.99902 -2.5s2 -3.16699 2 -6.5c0 -2 -0.333008 -3.5 -1 -4.5s-2.66699 -1.83301 -6 -2.5c-0.666992 0 -1.33398 -0.166992 -2.00098 -0.5
s-1.66699 -0.5 -3 -0.5c-2 0 -3.83301 -0.166992 -5.5 -0.5s-3.16699 -0.833008 -4.5 -1.5c-11.333 -2 -21.166 -4.5 -29.499 -7.5s-14.833 -8.16699 -19.5 -15.5c-2.66699 -4.66699 -4.5 -10.167 -5.5 -16.5s-1.5 -13.5 -1.5 -21.5c0 -6.66699 0.333008 -13.667 1 -21
l2 -22v-4.5c0 -1.66699 0.333008 -3.16699 1 -4.5l2 -25.5c0.666992 -8.33301 1 -16.166 1 -23.499c0 -70.667 -5.16699 -121.834 -15.5 -153.501s-22.166 -56.167 -35.499 -73.5c-4.66699 -6.66699 -9.66699 -12.834 -15 -18.501s-10.666 -10.5 -15.999 -14.5
c-14 -12.667 -27.667 -21.5 -41 -26.5s-23.666 -7.5 -30.999 -7.5s-12.166 0.333008 -14.499 1s-3.5 1.66699 -3.5 3c0 0.666992 0.166992 1.5 0.5 2.5s0.833008 1.83301 1.5 2.5c1.33301 1.33301 3.5 2.66602 6.5 3.99902s7.5 3 13.5 5
c2.66699 0.666992 5.16699 1.66699 7.5 3s4.83301 3 7.5 5c15.333 10 29.166 30.667 41.499 62s18.5 83 18.5 155v13.5v12.5c0 22 0.166992 40.667 0.5 56s1.83301 30 4.5 44l2 12c0.666992 4 1.66699 8 3 12c4 15.333 9.83301 28.666 17.5 39.999
s15.834 20.666 24.501 27.999l8 6c2.66699 2 5.33398 3.66699 8.00098 5v1z" />
    <glyph glyph-name="asciitilde" unicode="~" horiz-adv-x="500" 
 />
    <glyph glyph-name="endash" unicode="&#xa1;" horiz-adv-x="320" 
d="M158 596c4.66699 -0.666992 7.83594 -4 9.50293 -10s3.16699 -16.333 4.5 -31c0 -2 0.166992 -4 0.5 -6s0.5 -4 0.5 -6c0.666992 -7.33301 1.66699 -23.833 3 -49.5s3 -52.834 5 -81.501l5.5 -88.5c1.66699 -27 2.5 -42.5 2.5 -46.5s0.5 -15.667 1.5 -35
s2.16699 -40 3.5 -62c1.33301 -19.333 2.83301 -37.666 4.5 -54.999s3.5 -29.666 5.5 -36.999c1.33301 -4 2.33301 -7.5 3 -10.5s1 -5.83301 1 -8.5c0 -1.33301 -0.166992 -2.5 -0.5 -3.5s-0.5 -2.16699 -0.5 -3.5c-0.666992 -1.33301 -1.33398 -2.5 -2.00098 -3.5
s-1.33398 -2.16699 -2.00098 -3.5c-2 -3.33301 -4.16699 -6.66602 -6.5 -9.99902s-5.16602 -7 -8.49902 -11c-6 -6.66699 -12.833 -13.334 -20.5 -20.001s-15.167 -12.334 -22.5 -17.001c-2.66699 -2 -5.33398 -3.66699 -8.00098 -5l-8 -4c-3.33301 -2 -6 -3.33301 -8 -4
s-3.66699 -1 -5 -1h-1h-1c-2 0 -3.5 0.666992 -4.5 2s-1.5 4 -1.5 8c0 2 1 8.66699 3 20s4 26.333 6 45c1.33301 10 2.5 20.5 3.5 31.5s1.83301 22.5 2.5 34.5c0 4.66699 1.16699 30 3.5 76s5.16602 96 8.49902 150c2 50.667 4.16699 97.334 6.5 140.001s3.83301 67 4.5 73
v4c0 1.33301 0.333008 2.66602 1 3.99902c0 6 0.833008 11.5 2.5 16.5s4.5 7.5 8.5 7.5v1zM162.002 767c14.667 -0.666992 26.001 -5.16699 34.001 -13.5s13 -17.5 15 -27.5c0 -2 0.166992 -3.83301 0.5 -5.5s0.5 -3.5 0.5 -5.5
c0 -2.66699 -0.166992 -5.33398 -0.5 -8.00098s-0.833008 -5 -1.5 -7c-3.33301 -9.33301 -8.83301 -17.666 -16.5 -24.999s-18.5 -11 -32.5 -11c-14.667 0 -26.834 4.33301 -36.501 13s-14.5 20.334 -14.5 35.001c0 15.333 4.83301 28.166 14.5 38.499
s22.167 15.5 37.5 15.5v1z" />
    <glyph glyph-name="cent" unicode="&#xa2;" horiz-adv-x="558" 
d="M360 597l-45.001 -434.005c4 -0.666992 8.16699 -1.16699 12.5 -1.5s8.5 -0.5 12.5 -0.5c4 -0.666992 8 -1 12 -1h12c35.333 0 64.166 4.83301 86.499 14.5s36.833 30.5 43.5 62.5c1.33301 5.33301 2.66602 9.16602 3.99902 11.499s3 3.5 5 3.5s3.5 -1.16699 4.5 -3.5
s1.5 -5.16602 1.5 -8.49902c0 -2 -0.5 -7.83301 -1.5 -17.5s-2.5 -19.834 -4.5 -30.501c0 -3.33301 -0.333008 -6.66602 -1 -9.99902s-1 -6.66602 -1 -9.99902c-1.33301 -5.33301 -2.33301 -10 -3 -14s-1.33398 -7.33301 -2.00098 -10
c-0.666992 -5.33301 -2 -9.16602 -4 -11.499s-5 -4.16602 -9 -5.49902c-6.66699 -2 -13.5 -3.66699 -20.5 -5l-21.5 -4c-16 -2.66699 -32 -4.5 -48 -5.5s-30.333 -1.5 -43 -1.5h-13h-12c-2.66699 0 -5.5 0.166992 -8.5 0.5s-6.16699 0.5 -9.5 0.5l-14 -134
c-0.666992 -3.33301 -1.66699 -5.83301 -3 -7.5s-3.33301 -2.83398 -6 -3.50098l-23 -5h-2h-2c-2 0 -3.5 0.333008 -4.5 1s-1.16699 2.33398 -0.5 5.00098l18 152c-59.333 10.667 -109.666 37.834 -150.999 81.501s-62 101.834 -62 174.501c0 34 5.16699 64 15.5 90
s21.5 47.333 33.5 64c5.33301 7.33301 10.5 13.666 15.5 18.999s9.5 9.66602 13.5 12.999l2 2c0.666992 0.666992 1.33398 1 2.00098 1c26 21.333 53.333 36.833 82 46.5s64.667 15.5 108 17.5l11 101c0.666992 2 1.5 3.66699 2.5 5s3.5 2.33301 7.5 3l20 5
c0.666992 -0.666992 1.16699 -1 1.5 -1s0.5 0.333008 0.5 1h1.5h0.5c2.66699 0 4.5 -0.666992 5.5 -2s1.16699 -3 0.5 -5l-13 -107c12 -0.666992 26.667 -2 44 -4s35 -5.33301 53 -10c7.33301 -1.33301 14.333 -3 21 -5s13.334 -4.33301 20.001 -7
c0.666992 -0.666992 1.33398 -1.16699 2.00098 -1.5s1.33398 -0.833008 2.00098 -1.5c1.33301 -1.33301 2.16602 -2.66602 2.49902 -3.99902s0.5 -3.66602 0.5 -6.99902c0 -5.33301 -0.166992 -11.666 -0.5 -18.999s-0.833008 -15.333 -1.5 -24c0 -4 -0.166992 -8 -0.5 -12
s-0.833008 -8 -1.5 -12c0 -5.33301 -0.166992 -10.166 -0.5 -14.499s-0.833008 -7.83301 -1.5 -10.5c-0.666992 -4.66699 -1.66699 -7.83398 -3 -9.50098s-3 -2.5 -5 -2.5s-3.33301 1 -4 3s-1 5 -1 9c-0.666992 6.66699 -1.66699 13.5 -3 20.5s-4 14.167 -8 21.5
c-1.33301 2 -2.66602 4.16699 -3.99902 6.5s-3 4.83301 -5 7.5c-1.33301 2 -3.33301 4 -6 6s-5.66699 4 -9 6c-9.33301 6 -22.333 11.667 -39 17s-36.334 8.66602 -59.001 9.99902v1zM276.999 173.995l45.001 424.001c-59.333 -0.666992 -106 -19.334 -140 -56.001
s-51 -81.667 -51 -135c0 -64 13.167 -113.833 39.5 -149.5s55.166 -61.167 86.499 -76.5l10 -4l10 -4v1z" />
    <glyph glyph-name="sterling" unicode="&#xa3;" horiz-adv-x="595" 
d="M254 0l-233.001 -0.00292969c-7.33301 0 -13.833 0.333008 -19.5 1s-8.5 3.33398 -8.5 8.00098c0 5.33301 1.83301 9.16602 5.5 11.499s8.16699 4.16602 13.5 5.49902c50 10 83.333 36 100 78s28.334 91 35.001 147l13 106h-75
c-2.66699 -0.666992 -5.16699 -1.16699 -7.5 -1.5s-4.16602 -0.5 -5.49902 -0.5c-2 0 -3.5 -0.166992 -4.5 -0.5s-2.16699 -0.5 -3.5 -0.5s-2.33301 0.5 -3 1.5s-1 2.16699 -1 3.5v2c0 0.666992 0.333008 1.33398 1 2.00098l12 22c1.33301 2.66699 3.16602 4.5 5.49902 5.5
s5.16602 1.5 8.49902 1.5l79 1l10 70c1.33301 11.333 3.16602 23.333 5.49902 36s4.83301 25.334 7.5 38.001c7.33301 32.667 18.166 64.334 32.499 95.001s33.833 56.667 58.5 78c3.33301 3.33301 6.83301 6.33301 10.5 9l11.5 8c24 16.667 47.333 27.334 70 32.001
s42.334 7 59.001 7h6.5h6.5c14 -0.666992 27.5 -2 40.5 -4s24.167 -4.66699 33.5 -8c3.33301 -0.666992 6.5 -1.33398 9.5 -2.00098s5.83301 -1.33398 8.5 -2.00098c1.33301 0 2.83301 -0.166992 4.5 -0.5s3.16699 -0.5 4.5 -0.5c2.66699 -0.666992 4.5 -2 5.5 -4
s1.5 -4.66699 1.5 -8v-6.5v-6.5c0 -16.667 -0.333008 -32.5 -1 -47.5s-1.33398 -27.5 -2.00098 -37.5c-0.666992 -4 -1.16699 -7.33301 -1.5 -10s-0.5 -4.66699 -0.5 -6c-0.666992 -3.33301 -1.5 -6.16602 -2.5 -8.49902s-2.83301 -3.5 -5.5 -3.5s-4.66699 1.16699 -6 3.5
s-2 6.16602 -2 11.499c0 4.66699 -0.833008 10.5 -2.5 17.5s-3.83398 14.5 -6.50098 22.5c-2 4.66699 -4.16699 9.33398 -6.5 14.001s-5.16602 9 -8.49902 13c-8.66699 12 -21.167 21.333 -37.5 28s-36.833 10 -61.5 10c-38.667 0 -71 -16.167 -97 -48.5
s-43 -78.833 -51 -139.5l-18 -150h109c7.33301 -0.666992 13.5 -0.666992 18.5 0s9.5 1.33398 13.5 2.00098c4 0 7.16699 0.333008 9.5 1s4.16602 1 5.49902 1c2 0 3.5 -0.5 4.5 -1.5s1.5 -2.16699 1.5 -3.5v-1.5v-0.5c0 -0.666992 -0.166992 -1.16699 -0.5 -1.5
s-0.5 -0.833008 -0.5 -1.5l-11 -23c-1.33301 -3.33301 -3.33301 -5.66602 -6 -6.99902s-6 -2 -10 -2l-140 1l-5 -42c-2 -16 -5.5 -36.667 -10.5 -62s-12.833 -51.333 -23.5 -78c-8 -21.333 -18.333 -42.333 -31 -63s-28 -38.667 -46 -54l2 -1l312 3c27.333 0 48.5 6 63.5 18
s24.833 33 29.5 63c0.666992 3.33301 1.66699 5.83301 3 7.5s3 2.5 5 2.5s3.66699 -1 5 -3s2 -6 2 -12c0 -3.33301 -0.833008 -11.833 -2.5 -25.5l-5.5 -43.5c-0.666992 -7.33301 -1.66699 -14.333 -3 -21s-2.66602 -13 -3.99902 -19
c0 -2.66699 -0.166992 -4.83398 -0.5 -6.50098s-0.833008 -3.5 -1.5 -5.5v-0.5v-1.5c-1.33301 -7.33301 -5 -12 -11 -14s-22.667 -3 -50 -3c-15.333 0 -29.666 0.166992 -42.999 0.5s-26.666 0.833008 -39.999 1.5h-9.5h-8.5l-51 2c-17.333 0.666992 -36.666 1 -57.999 1v0z
" />
    <glyph glyph-name="Idieresis" unicode="&#xa4;" horiz-adv-x="500" 
 />
    <glyph glyph-name="ae" unicode="&#xa5;" horiz-adv-x="635" 
d="M352 306l0.0078125 -140.996v-11v-10v-43c0 -14 0.333008 -25.667 1 -35c0.666992 -15.333 4.33398 -27.166 11.001 -35.499s18.334 -13.833 35.001 -16.5c2.66699 -0.666992 5.5 -1 8.5 -1s6.16699 -0.333008 9.5 -1c5.33301 0 10.5 -0.166992 15.5 -0.5
s8.83301 -0.5 11.5 -0.5c2 0 3.83301 -0.833008 5.5 -2.5s2.5 -3.5 2.5 -5.5s-1.33301 -3.5 -4 -4.5s-6.66699 -1.5 -12 -1.5h-12.5h-12.5c-9.33301 0 -18.666 0.166992 -27.999 0.5s-18 0.833008 -26 1.5c-11.333 0 -20.833 0.166992 -28.5 0.5s-11.834 0.5 -12.501 0.5
c-1.33301 0 -5.83301 -0.166992 -13.5 -0.5s-17.167 -0.833008 -28.5 -1.5c-8 0 -16.833 -0.166992 -26.5 -0.5s-19.5 -0.5 -29.5 -0.5h-11.5h-10.5c-6.66699 0 -11 0.5 -13 1.5s-3 2.5 -3 4.5s0.5 3.83301 1.5 5.5s2.83301 2.5 5.5 2.5c3.33301 0 7.33301 0.166992 12 0.5
s9.66699 0.5 15 0.5c3.33301 0 6.66602 0.166992 9.99902 0.5s6.33301 0.833008 9 1.5c17.333 2.66699 29.166 8.16699 35.499 16.5s9.83301 20.166 10.5 35.499c0.666992 9.33301 1 21 1 35v43v10v10v142h-162c-4 -0.666992 -6.16699 0 -6.5 2
s-0.166016 4.66699 0.500977 8l7 22c1.33301 2 2.83301 3.33301 4.5 4s3.83398 1 6.50098 1l148 1c-6.66699 8.66699 -18.834 27.667 -36.501 57l-56.5 95l-54.5 91c-17 28.667 -29.167 49.667 -36.5 63l-10 15.5c-3.33301 5 -6.33301 9.83301 -9 14.5
c-8 10.667 -15.667 19.667 -23 27s-14 13 -20 17c-2 1.33301 -4.16699 2.66602 -6.5 3.99902s-4.83301 2.33301 -7.5 3c-6.66699 2.66699 -12.667 4.33398 -18 5.00098s-9 1 -11 1c-2.66699 0 -5 0.5 -7 1.5s-3 2.83301 -3 5.5s0.833008 4.66699 2.5 6s4.16699 2 7.5 2
c4 0 10.167 -0.166992 18.5 -0.5s17.166 -0.5 26.499 -0.5h3h3c10.667 -0.666992 20.167 -1.16699 28.5 -1.5s13.166 -0.5 14.499 -0.5s4.5 0.166992 9.5 0.5s11.167 0.833008 18.5 1.5c7.33301 0 15.5 0.166992 24.5 0.5s18.167 0.5 27.5 0.5
c3.33301 0 6.16602 -0.5 8.49902 -1.5s3.5 -3.16699 3.5 -6.5c0 -2 -1.5 -3.66699 -4.5 -5s-6.16699 -2.66602 -9.5 -3.99902c-4 -0.666992 -7.16699 -2.83398 -9.5 -6.50098s-3.5 -7.5 -3.5 -11.5c0 -4.66699 1 -10.334 3 -17.001s5.33301 -13.667 10 -21l30.5 -54.5
l52.5 -94.5c0.666992 -0.666992 1.16699 -1.33398 1.5 -2.00098s0.833008 -1.33398 1.5 -2.00098l51.5 -90.5c16.333 -27.667 27.166 -45.5 32.499 -53.5c5.33301 8.66699 15.166 26.167 29.499 52.5l45.5 84.5l46.5 86c14.333 26.667 24.166 44.334 29.499 53.001
c6.66699 11.333 11.334 21.166 14.001 29.499s4 16.166 4 23.499c0 5.33301 -1.16699 9.83301 -3.5 13.5s-6.5 6.83398 -12.5 9.50098c-0.666992 0 -1.5 0.166992 -2.5 0.5s-1.83301 0.833008 -2.5 1.5c-2.66699 0.666992 -5 1.66699 -7 3s-3 3.33301 -3 6s1.5 4.5 4.5 5.5
s6.83301 1.5 11.5 1.5h6.5h7.5c4 0 8 -0.166992 12 -0.5s8 -0.5 12 -0.5c5.33301 -0.666992 10.166 -1.16699 14.499 -1.5s7.5 -0.5 9.5 -0.5c1.33301 0 6.16602 0.166992 14.499 0.5s17.5 0.833008 27.5 1.5h3.5h2.5c9.33301 0 18.166 0.166992 26.499 0.5
s14.5 0.5 18.5 0.5c3.33301 0 6.16602 -0.5 8.49902 -1.5s3.5 -2.83301 3.5 -5.5s-1.16699 -4.66699 -3.5 -6s-5.16602 -2 -8.49902 -2s-7.33301 -0.333008 -12 -1s-9.66699 -2 -15 -4c-2.66699 -0.666992 -5.33398 -1.66699 -8.00098 -3l-8 -4
c-5.33301 -2.66699 -10.166 -5.66699 -14.499 -9s-8.83301 -7 -13.5 -11l-11 -13.5c-4 -5 -8.33301 -10.833 -13 -17.5c-8 -10.667 -21 -31.334 -39 -62.001l-57 -100c-0.666992 -1.33301 -1.5 -2.66602 -2.5 -3.99902s-1.83301 -2.66602 -2.5 -3.99902l-53 -94.5l-37 -66.5
l162 1c4 -0.666992 6.66699 -1.83398 8 -3.50098s1.33301 -3.83398 0 -6.50098l-6 -22c-0.666992 -3.33301 -2.33398 -5.33301 -5.00098 -6s-5.66699 -1 -9 -1l-152 1v0z" />
    <glyph glyph-name="brokenbar" unicode="&#xa6;" 
 />
    <glyph glyph-name="section" unicode="&#xa7;" horiz-adv-x="500" 
 />
    <glyph glyph-name="dieresis" unicode="&#xa8;" horiz-adv-x="911" 
d="M354 830c-12.667 -0.666992 -22.167 2.5 -28.5 9.5s-10.5 14.5 -12.5 22.5c0 1.33301 -0.166992 3 -0.5 5s-0.5 3.66699 -0.5 5c0 2 0.166992 4 0.5 6s0.833008 4 1.5 6c2 8 6.33301 15.167 13 21.5s16 9.5 28 9.5s22.167 -3.5 30.5 -10.5s12.5 -16.833 12.5 -29.5
s-4 -23.5 -12 -32.5s-18.667 -13.5 -32 -13.5v1zM555 830c-12.667 -0.666992 -22.167 2.5 -28.5 9.5s-10.5 14.5 -12.5 22.5c0 1.33301 -0.166992 3 -0.5 5s-0.5 3.66699 -0.5 5c0 2 0.166992 4 0.5 6s0.833008 4 1.5 6c2 8 6.33301 15.167 13 21.5s16 9.5 28 9.5
s22.167 -3.5 30.5 -10.5s12.5 -16.833 12.5 -29.5s-4 -23.5 -12 -32.5s-18.667 -13.5 -32 -13.5v1z" />
    <glyph glyph-name="copyright" unicode="&#xa9;" horiz-adv-x="906" 
d="M454 -17c-108.667 0 -201.167 37.833 -277.5 113.5s-114.5 167.834 -114.5 276.501c0 109.333 38.167 202.166 114.5 278.499s168.833 114.5 277.5 114.5c107.333 0 199.166 -38.167 275.499 -114.5s114.5 -169.166 114.5 -278.499
c0 -108.667 -38.167 -200.834 -114.5 -276.501s-168.166 -113.5 -275.499 -113.5v0zM454 25c95.333 0 175.166 34.5 239.499 103.5s96.5 150.833 96.5 245.5c0 95.333 -32.167 177.5 -96.5 246.5s-144.166 103.5 -239.499 103.5c-96 0 -176.5 -34.5 -241.5 -103.5
s-97.167 -151.167 -96.5 -246.5c-0.666992 -94.667 31.5 -176.667 96.5 -246s145.5 -104 241.5 -104v1zM477 153c-72.667 -0.666992 -132.503 19.8408 -179.503 61.5078s-70.5 97.834 -70.5 168.501c0 29.333 4.5 55.166 13.5 77.499s18.833 40.833 29.5 55.5
c4 6 8.16699 11.5 12.5 16.5s8.5 9.16699 12.5 12.5c20 19.333 43.833 33.666 71.5 42.999s60.167 14 97.5 14c7.33301 0 18.5 -0.5 33.5 -1.5s31.167 -3.16699 48.5 -6.5l12 -2.5c4.66699 -1 9.66699 -1.83301 15 -2.5c0.666992 0 1.33398 -0.166992 2.00098 -0.5
s1.33398 -0.5 2.00098 -0.5c6.66699 -1.33301 13 -2.66602 19 -3.99902s9.33301 -2 10 -2h3c0.666992 0 1.66699 0.333008 3 1h2.5h2.5c1.33301 0 2 -0.5 2 -1.5v-3.5c0 -1.33301 -0.166992 -6.83301 -0.5 -16.5s-0.833008 -20.167 -1.5 -31.5
c-0.666992 -10 -1.33398 -19.333 -2.00098 -28s-1.33398 -14.667 -2.00098 -18c-0.666992 -2.66699 -1.5 -4.66699 -2.5 -6s-2.5 -2 -4.5 -2c-2.66699 0 -4.5 1.16699 -5.5 3.5s-1.5 4.83301 -1.5 7.5v1.5v1.5c-0.666992 4 -1.16699 8.16699 -1.5 12.5
s-1.16602 8.5 -2.49902 12.5c-0.666992 4 -2 7.83301 -4 11.5s-4.66699 7.16699 -8 10.5c-1.33301 1.33301 -4.16602 3.5 -8.49902 6.5s-10.166 6.16699 -17.499 9.5c-10 4.66699 -23.5 9 -40.5 13s-37.5 6 -61.5 6c-52.667 0 -93.167 -14.5 -121.5 -43.5
s-42.5 -69.833 -42.5 -122.5c0 -70.667 19.833 -124.834 59.5 -162.501s84.167 -56.5 133.5 -56.5c26 0 46 2.33301 60 7s24.333 9.66699 31 15l1.5 1.5l1.5 1.5c4 4 7.5 8.66699 10.5 14s5.16699 10.666 6.5 15.999c1.33301 3.33301 2.5 6.66602 3.5 9.99902
s1.83301 6.66602 2.5 9.99902c1.33301 3.33301 2.5 5.83301 3.5 7.5s2.83301 2.5 5.5 2.5s4.33398 -0.833008 5.00098 -2.5s1 -3.83398 1 -6.50098c0 -4 -0.666992 -12.5 -2 -25.5s-3.66602 -26.833 -6.99902 -41.5c0 -0.666992 -0.166992 -1.33398 -0.5 -2.00098
s-0.5 -1.33398 -0.5 -2.00098c-0.666992 -2 -1.16699 -4 -1.5 -6s-0.833008 -3.66699 -1.5 -5c-1.33301 -5.33301 -3 -9 -5 -11s-5.33301 -3.66699 -10 -5c-0.666992 0 -1.33398 -0.166992 -2.00098 -0.5s-1.33398 -0.5 -2.00098 -0.5c-2 -0.666992 -4 -1.16699 -6 -1.5
s-4 -0.833008 -6 -1.5c-20 -4.66699 -39 -7.33398 -57 -8.00098s-30.667 -1 -38 -1v1z" />
    <glyph glyph-name="ellipsis" unicode="&#xaa;" horiz-adv-x="400" 
d="M245 522l-120.003 -0.000976562c-1.33301 -0.666992 -2.33301 -1.5 -3 -2.5s-1.33398 -2.16699 -2.00098 -3.5l-22 -59c-0.666992 -2 -1.16699 -3.66699 -1.5 -5s-0.833008 -2.66602 -1.5 -3.99902l-2 -10c-0.666992 -3.33301 -1 -6 -1 -8
c0 -3.33301 1 -6.16602 3 -8.49902s4.33301 -3.83301 7 -4.5c0.666992 -0.666992 1.33398 -1 2.00098 -1h2l5 1c2 -0.666992 3.5 -1.33398 4.5 -2.00098s1.5 -1.66699 1.5 -3c0 -2 -0.833008 -3.33301 -2.5 -4s-3.83398 -1 -6.50098 -1h-9c-3.33301 0 -7 0.333008 -11 1h-2
h-2c-4 0 -8 0.166992 -12 0.5s-7 0.5 -9 0.5c-2.66699 0 -6.16699 -0.166992 -10.5 -0.5s-9.16602 -0.5 -14.499 -0.5s-10.833 -0.166992 -16.5 -0.5s-11.5 -0.5 -17.5 -0.5h-2h-2c-2.66699 0 -4.83398 0.333008 -6.50098 1s-2.5 2 -2.5 4c0 1.33301 0.5 2.33301 1.5 3
s2.16699 1 3.5 1h4h4c1.33301 0 2.66602 0.166992 3.99902 0.5s2.33301 0.5 3 0.5c11.333 1.33301 20.5 5.66602 27.5 12.999s12.833 17 17.5 29l127 296c2 4 4 6.83301 6 8.5s4.33301 2.5 7 2.5h1.5h0.5c2 -0.666992 3.83301 -2.16699 5.5 -4.5s3.83398 -6.5 6.50098 -12.5
c2.66699 -4.66699 10.667 -22.334 24 -53.001l44 -99c0.666992 -2 1.5 -4 2.5 -6l2.5 -5l30.5 -66.5c9.66699 -21 18.167 -38.167 25.5 -51.5c9.33301 -16.667 16.833 -28.5 22.5 -35.5s11.167 -11.5 16.5 -13.5c0.666992 0 1.33398 -0.166992 2.00098 -0.5
s1.33398 -0.5 2.00098 -0.5c4 -0.666992 8 -1.16699 12 -1.5s7.33301 -0.5 10 -0.5c1.33301 0 2.5 -0.333008 3.5 -1s1.5 -1.66699 1.5 -3c0 -2 -1 -3.33301 -3 -4s-4.66699 -1 -8 -1c-4 0 -15 0.166992 -33 0.5s-39.667 0.833008 -65 1.5c-5.33301 0 -9.5 0.333008 -12.5 1
s-4.5 1.33398 -4.5 2.00098c0 1.33301 0.5 2.33301 1.5 3s1.83301 1.33398 2.5 2.00098l0.5 0.5c0.333008 0.333008 0.833008 0.5 1.5 0.5c0.666992 0.666992 1.33398 1.5 2.00098 2.5s1 2.16699 1 3.5v0.5v1.5c-0.666992 0 -1 0.166992 -1 0.5v0.5l-40 91l-0.5 0.5
c-0.333008 0.333008 -0.833008 0.5 -1.5 0.5l-1.5 1.5c-0.333008 0.333008 -1.16602 0.5 -2.49902 0.5v1zM136.997 551.999h93.999c1.33301 -0.666992 2.33301 -0.5 3 0.5s0.666992 1.83301 0 2.5l-46 113c-0.666992 1.33301 -1.5 2.33301 -2.5 3s-1.83301 1 -2.5 1
s-1.5 -0.333008 -2.5 -1s-1.83301 -2 -2.5 -4l-43 -111c-0.666992 -1.33301 -0.666992 -2.5 0 -3.5s1.33398 -1.5 2.00098 -1.5v1z" />
    <glyph glyph-name="ydieresis" unicode="&#xab;" horiz-adv-x="560" 
d="M294 240l-29.999 -32.9951c-0.666992 -1.33301 -1.33398 -2.33301 -2.00098 -3l-2 -2c-0.666992 0 -1.33398 -0.166992 -2.00098 -0.5s-1.33398 -0.5 -2.00098 -0.5s-2.83398 1.5 -6.50098 4.5s-9.16699 8.83301 -16.5 17.5
c-5.33301 6.66699 -14.666 17.167 -27.999 31.5l-41 44.5l-43 46.5c-13.333 14.333 -22.666 24.166 -27.999 29.499c-6 6 -10.333 10.5 -13 13.5s-4.33398 5.83301 -5.00098 8.5v1.5v0.5c0 1.33301 1.5 3.83301 4.5 7.5s7.83301 8.5 14.5 14.5
c5.33301 4 16.5 14.333 33.5 31l54.5 54l59 58l31 31c4 3.33301 7.33301 6 10 8s5.33398 3 8.00098 3h1.5h0.5c2 -0.666992 3.66699 -1.66699 5 -3s2 -3 2 -5c0 -2.66699 -0.666992 -5.16699 -2 -7.5s-2.66602 -4.16602 -3.99902 -5.49902c-1.33301 -2 -10 -12.333 -26 -31
l-53 -62c-0.666992 0 -1.16699 -0.333008 -1.5 -1s-0.833008 -1.33398 -1.5 -2.00098l-40.5 -49c-13 -15.333 -22.5 -27.333 -28.5 -36c4.66699 -5.33301 14.5 -16 29.5 -32l49.5 -51l5.5 -5.5l5.5 -5.5l27 -26c8.66699 -8.66699 17 -16.334 25 -23.001
c5.33301 -4.66699 9 -8 11 -10s3 -3.66699 3 -5c0 -0.666992 -0.166992 -1.33398 -0.5 -2.00098l-0.5 -1c-0.666992 -0.666992 -1.16699 -1.33398 -1.5 -2.00098s-0.833008 -1.33398 -1.5 -2.00098v1zM481.001 240.005l-29.999 -32.9951
c-0.666992 -1.33301 -1.33398 -2.33301 -2.00098 -3l-2 -2c-0.666992 0 -1.33398 -0.166992 -2.00098 -0.5s-1.33398 -0.5 -2.00098 -0.5s-2.83398 1.5 -6.50098 4.5s-9.16699 8.83301 -16.5 17.5c-5.33301 6.66699 -14.666 17.167 -27.999 31.5l-41 44.5l-43 46.5
c-13.333 14.333 -22.666 24.166 -27.999 29.499c-6 6 -10.333 10.5 -13 13.5s-4.33398 5.83301 -5.00098 8.5v1.5v0.5c0 1.33301 1.5 3.83301 4.5 7.5s7.83301 8.5 14.5 14.5c5.33301 4 16.5 14.333 33.5 31l54.5 54l59 58l31 31c4 3.33301 7.33301 6 10 8
s5.33398 3 8.00098 3h1.5h0.5c2 -0.666992 3.66699 -1.66699 5 -3s2 -3 2 -5c0 -2.66699 -0.666992 -5.16699 -2 -7.5s-2.66602 -4.16602 -3.99902 -5.49902c-1.33301 -2 -10 -12.333 -26 -31l-53 -62c-0.666992 0 -1.16699 -0.333008 -1.5 -1
s-0.833008 -1.33398 -1.5 -2.00098l-40.5 -49c-13 -15.333 -22.5 -27.333 -28.5 -36c4.66699 -5.33301 14.5 -16 29.5 -32l49.5 -51l5.5 -5.5l5.5 -5.5l27 -26c8.66699 -8.66699 17 -16.334 25 -23.001c5.33301 -4.66699 9 -8 11 -10s3 -3.66699 3 -5
c0 -0.666992 -0.166992 -1.33398 -0.5 -2.00098l-0.5 -1c-0.666992 -0.666992 -1.16699 -1.33398 -1.5 -2.00098s-0.833008 -1.33398 -1.5 -2.00098v1z" />
    <glyph glyph-name="emdash" unicode="&#xac;" 
 />
    <glyph glyph-name="uni00AD" unicode="&#xad;" horiz-adv-x="500" 
 />
    <glyph glyph-name="registered" unicode="&#xae;" horiz-adv-x="906" 
d="M453 -17c-107.333 0 -199.166 38 -275.499 114s-114.833 168 -115.5 276c0.666992 109.333 39.167 202.166 115.5 278.499s168.5 114.5 276.5 114.5c107.333 0 199.166 -38.167 275.499 -114.5s114.5 -169.166 114.5 -278.499c0 -108 -38.167 -200 -114.5 -276
s-168.5 -114 -276.5 -114v0zM456 25c93.333 -0.666992 172.5 33.667 237.5 103s97.167 151.333 96.5 246c0.666992 96 -31.666 178.333 -96.999 247s-145 103 -239 103c-96 0 -176.5 -34.333 -241.5 -103s-97.167 -151 -96.5 -247
c-0.666992 -94.667 31.666 -176.667 96.999 -246s146.333 -104 243 -104v1zM338 328.001l0.00488281 100.998v23v20v46.5c0 11.667 -0.333008 22.167 -1 31.5c-0.666992 12 -4.83398 20 -12.501 24s-19.167 6.33301 -34.5 7c-2.66699 0 -4.83398 0.666992 -6.50098 2
s-2.5 3.33301 -2.5 6c0 2 1.16699 3.5 3.5 4.5s5.16602 1.5 8.49902 1.5l17 1c1.33301 -0.666992 4.83301 -1.16699 10.5 -1.5s11.5 -0.5 17.5 -0.5h0.5h1.5c6 0 11.667 -0.166992 17 -0.5s8.33301 -0.5 9 -0.5h6h6c2.66699 0 5.5 0.166992 8.5 0.5s5.83301 0.5 8.5 0.5
c5.33301 0 11.166 0.166992 17.499 0.5s13.833 0.5 22.5 0.5c26 0 46.667 -1.66699 62 -5s27 -6.66602 35 -9.99902l8.5 -5c2.33301 -1.33301 4.5 -2.66602 6.5 -3.99902c1.33301 -1.33301 2.83301 -2.66602 4.5 -3.99902s3.5 -2.66602 5.5 -3.99902
c7.33301 -7.33301 14 -16.833 20 -28.5s9 -25.834 9 -42.501v-7.5c0 -2.33301 -0.333008 -4.83301 -1 -7.5c-1.33301 -16.667 -7 -34 -17 -52s-27.333 -39.333 -52 -64l65 -84.5c19.333 -26.333 37.333 -48.166 54 -65.499l3.5 -3.5l3.5 -3.5
c7.33301 -7.33301 15.5 -14.166 24.5 -20.499s18.833 -9.5 29.5 -9.5c4 0 6.66699 -0.833008 8 -2.5s2 -3.5 2 -5.5c0 -1.33301 -0.666992 -2.66602 -2 -3.99902s-4.66602 -2 -9.99902 -2l-14 1c-4 -0.666992 -8.16699 -1 -12.5 -1s-8.83301 0.333008 -13.5 1
c-8 0.666992 -15.833 1.66699 -23.5 3s-14.5 3.66602 -20.5 6.99902l-6 4l-6 4c-10 7.33301 -20.167 17.333 -30.5 30s-22.166 28 -35.499 46c-2 3.33301 -4.16699 6.5 -6.5 9.5l-7.5 9.5l-26.5 37.5l-20.5 30.5l-80 1v-49c0 -50 0.833008 -80.333 2.5 -91
s3.83398 -17.667 6.50098 -21c2 -2.66699 5 -4.33398 9 -5.00098l12 -2h7.5h5.5h2h2c3.33301 0 5.66602 -0.5 6.99902 -1.5s2.33301 -2.83301 3 -5.5c-0.666992 -2.66699 -1.83398 -4.66699 -3.50098 -6s-4.16699 -2 -7.5 -2l-19 1
c-1.33301 -0.666992 -4.5 -0.833984 -9.5 -0.500977s-10.5 0.5 -16.5 0.5h-0.5h-1.5c-5.33301 0 -10.5 0.166992 -15.5 0.5s-7.83301 0.5 -8.5 0.5s-3.66699 -0.166992 -9 -0.5s-11.333 -0.5 -18 -0.5h-0.5h-1.5c-6 0 -11.667 -0.166992 -17 -0.5s-9 -0.5 -11 -0.5l-18 1
c-2.66699 -0.666992 -4.83398 -0.333984 -6.50098 0.999023s-2.5 3 -2.5 5s1 3.66699 3 5s4.66699 2 8 2c17.333 0.666992 28.666 2.5 33.999 5.5s8.33301 11.5 9 25.5c1.33301 10.667 2 25 2 43v79v1zM391.005 567.999l0.00292969 -190.996
c4.66699 -3.33301 10.834 -5.83301 18.501 -7.5s15.834 -2.83398 24.501 -3.50098c3.33301 -0.666992 6.66602 -1 9.99902 -1h9c3.33301 0 6.66602 0.166992 9.99902 0.5s6.66602 0.833008 9.99902 1.5s6.66602 1.66699 9.99902 3s6.66602 3.33301 9.99902 6
c10 7.33301 18.5 18.166 25.5 32.499s10.5 32.166 10.5 53.499c0 31.333 -8.5 57.333 -25.5 78s-41.833 31 -74.5 31h-7.5c-3.66699 0 -7.83398 -0.333008 -12.501 -1c-3.33301 0 -6.66602 -0.333008 -9.99902 -1s-6 -1.33398 -8 -2.00098v1z" />
    <glyph glyph-name="glyph263" unicode="&#xaf;" 
 />
    <glyph glyph-name="glyph264" unicode="&#xb0;" 
 />
    <glyph glyph-name="mu" unicode="&#xb1;" horiz-adv-x="500" 
 />
    <glyph glyph-name="uni00B2" unicode="&#xb2;" 
 />
    <glyph glyph-name="uni00B3" unicode="&#xb3;" 
 />
    </font>
</defs>
</svg>
