<?xml version="1.0" encoding="UTF-8" standalone="no"?>
<!-- Created with Inkscape (http://www.inkscape.org/) -->
<svg xmlns:dc="http://purl.org/dc/elements/1.1/" xmlns:cc="http://creativecommons.org/ns#" xmlns:rdf="http://www.w3.org/1999/02/22-rdf-syntax-ns#" xmlns:svg="http://www.w3.org/2000/svg" xmlns="http://www.w3.org/2000/svg" xmlns:sodipodi="http://sodipodi.sourceforge.net/DTD/sodipodi-0.dtd" xmlns:inkscape="http://www.inkscape.org/namespaces/inkscape" width="652" height="432" id="svg2" version="1.1" inkscape:version="0.48.2 r9819" sodipodi:docname="Force graph--clicky--membrane buckling spring.svg">
  <defs id="defs4">
    <marker inkscape:stockid="Arrow1Mend" orient="auto" refY="0" refX="0" id="Arrow1Mend" style="overflow:visible">
      <path id="path3801" d="M 0,0 5,-5 -12.5,0 5,5 0,0 z" style="fill-rule:evenodd;stroke:#000000;stroke-width:1pt;marker-start:none" transform="matrix(-0.4,0,0,-0.4,-4,0)" inkscape:connector-curvature="0"/>
    </marker>
    <marker inkscape:stockid="Arrow2Send" orient="auto" refY="0" refX="0" id="Arrow2Send" style="overflow:visible">
      <path id="path3825" style="font-size:12px;fill-rule:evenodd;stroke-width:0.625;stroke-linejoin:round" d="M 8.7185878,4.0337352 -2.2072895,0.01601326 8.7185884,-4.0017078 c -1.7454984,2.3720609 -1.7354408,5.6174519 -6e-7,8.035443 z" transform="matrix(-0.3,0,0,-0.3,0.69,0)" inkscape:connector-curvature="0"/>
    </marker>
    <marker inkscape:stockid="Arrow1Send" orient="auto" refY="0" refX="0" id="Arrow1Send" style="overflow:visible">
      <path id="path3807" d="M 0,0 5,-5 -12.5,0 5,5 0,0 z" style="fill-rule:evenodd;stroke:#000000;stroke-width:1pt;marker-start:none" transform="matrix(-0.2,0,0,-0.2,-1.2,0)" inkscape:connector-curvature="0"/>
    </marker>
  </defs>
  <sodipodi:namedview id="base" pagecolor="#ffffff" bordercolor="#666666" borderopacity="1.0" inkscape:pageopacity="0.0" inkscape:pageshadow="2" inkscape:zoom="0.5" inkscape:cx="300.35476" inkscape:cy="210.30347" inkscape:document-units="px" inkscape:current-layer="layer1" showgrid="false" inkscape:window-width="1400" inkscape:window-height="1003" inkscape:window-x="-4" inkscape:window-y="24" inkscape:window-maximized="1" inkscape:snap-grids="true" fit-margin-top="0" fit-margin-left="0" fit-margin-right="0" fit-margin-bottom="0">
    <inkscape:grid type="xygrid" id="grid2985" empspacing="10" visible="true" enabled="false" snapvisiblegridlinesonly="true" spacingx="12px" spacingy="12px" originx="67px" originy="52px"/>
    <inkscape:grid type="xygrid" id="grid6049" empspacing="2" visible="true" enabled="false" snapvisiblegridlinesonly="true" spacingx="0.5px" spacingy="0.5px"/>
    <inkscape:grid type="xygrid" id="grid3886" empspacing="2" visible="true" enabled="true" snapvisiblegridlinesonly="true"/>
  </sodipodi:namedview>
  <metadata id="metadata7">
    <rdf:RDF>
      <cc:Work rdf:about="">
        <dc:format>image/svg+xml</dc:format>
        <dc:type rdf:resource="http://purl.org/dc/dcmitype/StillImage"/>
        <dc:title/>
      </cc:Work>
    </rdf:RDF>
  </metadata>
  <g inkscape:label="Graph" inkscape:groupmode="layer" id="layer1" style="display:inline" transform="translate(-112.5,-252.86218)">
    <path style="fill:none;stroke:#88b5d0;stroke-width:2px;stroke-linecap:square;stroke-linejoin:miter;stroke-opacity:1" d="m 299.5,632.86218 0,-299" id="path2993" inkscape:connector-curvature="0"/>
    <path style="fill:none;stroke:#88b5d0;stroke-width:2px;stroke-linecap:square;stroke-linejoin:miter;stroke-opacity:1" d="m 419.5,632.86218 0,-299" id="path2995" inkscape:connector-curvature="0"/>
    <path style="fill:none;stroke:#88b5d0;stroke-width:2px;stroke-linecap:square;stroke-linejoin:miter;stroke-opacity:1" d="m 539.5,632.86218 0,-299" id="path2997" inkscape:connector-curvature="0"/>
    <path style="fill:none;stroke:#88b5d0;stroke-width:2px;stroke-linecap:square;stroke-linejoin:miter;stroke-opacity:1" d="m 659.5,632.86218 0,-299" id="path2999" inkscape:connector-curvature="0"/>
    <path inkscape:connector-curvature="0" id="path3001" d="m 239,632.86218 0,-299" style="fill:none;stroke:#88b5d0;stroke-width:1;stroke-linecap:square;stroke-linejoin:miter;stroke-miterlimit:4;stroke-opacity:1;stroke-dasharray:none"/>
    <path inkscape:connector-curvature="0" id="path3003" d="m 359,632.86218 0,-299" style="fill:none;stroke:#88b5d0;stroke-width:1;stroke-linecap:square;stroke-linejoin:miter;stroke-miterlimit:4;stroke-opacity:1;stroke-dasharray:none"/>
    <path inkscape:connector-curvature="0" id="path3005" d="m 479,632.86218 0,-299" style="fill:none;stroke:#88b5d0;stroke-width:1;stroke-linecap:square;stroke-linejoin:miter;stroke-miterlimit:4;stroke-opacity:1;stroke-dasharray:none"/>
    <path inkscape:connector-curvature="0" id="path3007" d="m 599,632.86218 0,-299" style="fill:none;stroke:#88b5d0;stroke-width:1;stroke-linecap:square;stroke-linejoin:miter;stroke-miterlimit:4;stroke-opacity:1;stroke-dasharray:none"/>
    <path inkscape:connector-curvature="0" id="path3009" d="m 179.5,573.86218 480,0" style="fill:none;stroke:#88b5d0;stroke-width:2px;stroke-linecap:square;stroke-linejoin:miter;stroke-opacity:1"/>
    <path style="fill:none;stroke:#88b5d0;stroke-width:2px;stroke-linecap:square;stroke-linejoin:miter;stroke-opacity:1" d="m 179.5,513.86218 480,0" id="path3011" inkscape:connector-curvature="0"/>
    <path inkscape:connector-curvature="0" id="path3013" d="m 179.5,453.86218 480,0" style="fill:none;stroke:#88b5d0;stroke-width:2px;stroke-linecap:square;stroke-linejoin:miter;stroke-opacity:1"/>
    <path style="fill:none;stroke:#88b5d0;stroke-width:2px;stroke-linecap:square;stroke-linejoin:miter;stroke-opacity:1" d="m 179.5,393.86218 480,0" id="path3015" inkscape:connector-curvature="0"/>
    <path inkscape:connector-curvature="0" id="path3017" d="m 179.5,333.86218 480,0" style="fill:none;stroke:#88b5d0;stroke-width:2px;stroke-linecap:square;stroke-linejoin:miter;stroke-opacity:1"/>
    <text xml:space="preserve" style="font-size:40px;font-style:normal;font-weight:normal;line-height:125%;letter-spacing:0px;word-spacing:0px;fill:#000000;fill-opacity:1;stroke:none;font-family:Sans" x="232" y="676.36218" id="text4779" sodipodi:linespacing="125%"><tspan sodipodi:role="line" id="tspan4781" x="232" y="676.36218"/></text>
    <text xml:space="preserve" style="font-size:30px;font-style:normal;font-variant:normal;font-weight:normal;font-stretch:normal;text-align:end;line-height:125%;letter-spacing:0px;word-spacing:0px;writing-mode:lr-tb;text-anchor:end;fill:#000000;fill-opacity:1;stroke:none;font-family:Sans;-inkscape-font-specification:Sans" x="309.47754" y="670.46863" id="text4783" sodipodi:linespacing="125%"><tspan sodipodi:role="line" id="tspan4785" x="309.47754" y="670.46863">1</tspan></text>
    <text sodipodi:linespacing="125%" id="text4787" y="670.46863" x="428.7085" style="font-size:30px;font-style:normal;font-variant:normal;font-weight:normal;font-stretch:normal;text-align:end;line-height:125%;letter-spacing:0px;word-spacing:0px;writing-mode:lr-tb;text-anchor:end;fill:#000000;fill-opacity:1;stroke:none;font-family:Sans;-inkscape-font-specification:Sans" xml:space="preserve"><tspan y="670.46863" x="428.7085" id="tspan4789" sodipodi:role="line">2</tspan></text>
    <text xml:space="preserve" style="font-size:30px;font-style:normal;font-variant:normal;font-weight:normal;font-stretch:normal;text-align:end;line-height:125%;letter-spacing:0px;word-spacing:0px;writing-mode:lr-tb;text-anchor:end;fill:#000000;fill-opacity:1;stroke:none;font-family:Sans;-inkscape-font-specification:Sans" x="548.4082" y="670.46863" id="text4791" sodipodi:linespacing="125%"><tspan sodipodi:role="line" id="tspan4793" x="548.4082" y="670.46863">3</tspan></text>
    <text sodipodi:linespacing="125%" id="text4795" y="670.46863" x="668.8916" style="font-size:30px;font-style:normal;font-variant:normal;font-weight:normal;font-stretch:normal;text-align:end;line-height:125%;letter-spacing:0px;word-spacing:0px;writing-mode:lr-tb;text-anchor:end;fill:#000000;fill-opacity:1;stroke:none;font-family:Sans;-inkscape-font-specification:Sans" xml:space="preserve"><tspan y="670.46863" x="668.8916" id="tspan4797" sodipodi:role="line">4</tspan></text>
    <text xml:space="preserve" style="font-size:30px;font-style:normal;font-variant:normal;font-weight:normal;font-stretch:normal;text-align:end;line-height:125%;letter-spacing:0px;word-spacing:0px;writing-mode:lr-tb;text-anchor:end;fill:#000000;fill-opacity:1;stroke:none;font-family:Sans;-inkscape-font-specification:Sans" x="752.625" y="640.81628" id="text4799" sodipodi:linespacing="125%"><tspan sodipodi:role="line" id="tspan4801" x="752.625" y="640.81628">mm</tspan></text>
    <text xml:space="preserve" style="font-size:30px;font-style:normal;font-variant:normal;font-weight:normal;font-stretch:normal;text-align:end;line-height:125%;letter-spacing:0px;word-spacing:0px;writing-mode:lr-tb;text-anchor:end;fill:#000000;fill-opacity:1;stroke:none;font-family:Sans;-inkscape-font-specification:Sans" x="188.45215" y="670.46863" id="text4803" sodipodi:linespacing="125%"><tspan sodipodi:role="line" id="tspan4805" x="188.45215" y="670.46863">0</tspan></text>
    <text xml:space="preserve" style="font-size:30px;font-style:normal;font-variant:normal;font-weight:normal;font-stretch:normal;text-align:end;line-height:125%;letter-spacing:0px;word-spacing:0px;writing-mode:lr-tb;text-anchor:end;fill:#000000;fill-opacity:1;stroke:none;font-family:Sans;-inkscape-font-specification:Sans" x="164" y="582.96033" id="text4807" sodipodi:linespacing="125%"><tspan sodipodi:role="line" id="tspan4809" x="164" y="582.96033">20</tspan></text>
    <text xml:space="preserve" style="font-size:30px;font-style:normal;font-variant:normal;font-weight:normal;font-stretch:normal;text-align:end;line-height:125%;letter-spacing:0px;word-spacing:0px;writing-mode:lr-tb;text-anchor:end;fill:#000000;fill-opacity:1;stroke:none;font-family:Sans;-inkscape-font-specification:Sans" x="164" y="522.96033" id="text4811" sodipodi:linespacing="125%"><tspan sodipodi:role="line" id="tspan4813" x="164" y="522.96033">40</tspan></text>
    <text xml:space="preserve" style="font-size:30px;font-style:normal;font-variant:normal;font-weight:normal;font-stretch:normal;text-align:end;line-height:125%;letter-spacing:0px;word-spacing:0px;writing-mode:lr-tb;text-anchor:end;fill:#000000;fill-opacity:1;stroke:none;font-family:Sans;-inkscape-font-specification:Sans" x="164" y="462.96033" id="text4815" sodipodi:linespacing="125%"><tspan sodipodi:role="line" id="tspan4817" x="164" y="462.96033">60</tspan></text>
    <text xml:space="preserve" style="font-size:30px;font-style:normal;font-variant:normal;font-weight:normal;font-stretch:normal;text-align:end;line-height:125%;letter-spacing:0px;word-spacing:0px;writing-mode:lr-tb;text-anchor:end;fill:#000000;fill-opacity:1;stroke:none;font-family:Sans;-inkscape-font-specification:Sans" x="164" y="402.96033" id="text4819" sodipodi:linespacing="125%"><tspan sodipodi:role="line" id="tspan4821" x="164" y="402.96033">80</tspan></text>
    <text xml:space="preserve" style="font-size:30px;font-style:normal;font-variant:normal;font-weight:normal;font-stretch:normal;text-align:end;line-height:125%;letter-spacing:0px;word-spacing:0px;writing-mode:lr-tb;text-anchor:end;fill:#000000;fill-opacity:1;stroke:none;font-family:Sans;-inkscape-font-specification:Sans" x="164" y="342.96033" id="text4823" sodipodi:linespacing="125%"><tspan sodipodi:role="line" id="tspan4825" x="164" y="342.96033">100</tspan></text>
    <text xml:space="preserve" style="font-size:30px;font-style:normal;font-variant:normal;font-weight:normal;font-stretch:normal;text-align:end;line-height:125%;letter-spacing:0px;word-spacing:0px;writing-mode:lr-tb;text-anchor:end;fill:#000000;fill-opacity:1;stroke:none;font-family:Sans;-inkscape-font-specification:Sans" x="197.9917" y="286.86218" id="text4831" sodipodi:linespacing="125%"><tspan sodipodi:role="line" id="tspan4833" x="197.9917" y="286.86218" style="font-size:30px;font-style:normal;font-variant:normal;font-weight:normal;font-stretch:normal;text-align:end;line-height:125%;writing-mode:lr-tb;text-anchor:end;font-family:Sans;-inkscape-font-specification:Sans">cN</tspan></text>
    <text sodipodi:linespacing="125%" id="text4916" y="642.96033" x="164" style="font-size:30px;font-style:normal;font-variant:normal;font-weight:normal;font-stretch:normal;text-align:end;line-height:125%;letter-spacing:0px;word-spacing:0px;writing-mode:lr-tb;text-anchor:end;fill:#000000;fill-opacity:1;stroke:none;font-family:Sans;-inkscape-font-specification:Sans" xml:space="preserve"><tspan y="642.96033" x="164" id="tspan4918" sodipodi:role="line">0</tspan></text>
    <path style="fill:none;stroke:#274c62;stroke-width:4;stroke-linecap:square;stroke-linejoin:miter;stroke-miterlimit:4;stroke-opacity:1;stroke-dasharray:none;marker-end:none" d="m 179.5,632.86218 510,0" id="path2991" inkscape:connector-curvature="0"/>
    <path style="fill:none;stroke:#274c62;stroke-width:3.99999976;stroke-linecap:square;stroke-linejoin:miter;stroke-miterlimit:4;stroke-opacity:1;stroke-dasharray:none;marker-start:none;marker-end:none" d="m 178.5,632.86218 0,-330.30457" id="path2989" inkscape:connector-curvature="0"/>
    <path style="fill:none;stroke:#274c62;stroke-width:4;stroke-linecap:round;stroke-linejoin:round;stroke-miterlimit:4;stroke-opacity:1;stroke-dasharray:none" d="m 171,313.86218 7.5,-15 7.5,15" id="path6040" inkscape:connector-curvature="0"/>
    <path inkscape:connector-curvature="0" id="path6042" d="m 678.25,625.36218 15,7.5 -15,7.5" style="fill:none;stroke:#274c62;stroke-width:4;stroke-linecap:round;stroke-linejoin:round;stroke-miterlimit:4.0999999;stroke-opacity:1;stroke-dasharray:none"/>
  </g>
  <g inkscape:groupmode="layer" id="layer3" inkscape:label="ML" style="display:none" transform="translate(-112.5,-252.86218)">
    <path id="path4905" style="fill:none;stroke:#1f7a30;stroke-width:4;stroke-linecap:round;stroke-linejoin:miter;stroke-miterlimit:4;stroke-opacity:1;stroke-dasharray:none;display:inline" d="m 659.49085,438.45223 c 0,0.0799 -7e-5,7.85137 -2e-4,7.92986 -0.0134,7.96087 -0.72306,8.95125 -5.91635,10.43091 -3.65622,1.04172 -9.21837,1.46209 -21.34337,3.39959 -12.125,1.9375 -193.32042,27.18779 -196.75,27.625 -3.10983,0.39645 -4.28715,2.71155 -5.65012,4.72411 -2.12169,3.13287 -44.78836,67.27401 -46.83081,70.61298 -6.41498,10.48712 -20.6875,11.8125 -28.25,3.5625 -7.5625,-8.25 -34.24414,-36.55722 -36.77145,-39.4362 -4.11557,-4.68826 -12.36377,-4.97533 -16.99187,-0.44378 -4.13626,4.04997 -9.42418,10.87998 -10.92418,12.75498 -1.5,1.875 -3.1875,2.875 -6.8125,4 -3.625,1.125 -87.69868,19.83014 -93.18778,21.1875 -6.73744,1.66605 -11.62472,5.67938 -11.56222,10.36688 m 0,-49.11688 c 0,0 -0.1875,-8.25 8.25,-11.25 l 82.4951,-16.65456 c 7.8532,-1.58545 13.76562,-3.16671 19.61965,-6.05649 7.34429,-3.62543 13.80938,-8.5394 17.16113,-12.60145 1.7888,-2.16789 3.48765,-4.00943 4.94409,-5.97021 3.05267,-4.10974 6.70574,-5.71712 11.68536,-5.93068 4.97961,-0.21357 7.68273,1.20381 10.56694,3.83655 3.70711,3.38388 17.29392,19.08976 21.04105,22.59283 3.83839,3.58839 13.87855,16.39355 33.43935,16.65901 17.54754,0.23813 29.16265,-9.87706 34.04733,-16.5625 3.72242,-5.09471 9.52015,-9.95373 16.5625,-10.9375 L 630.25,456.36218 c 7.00307,-0.97829 20.15868,-2.89746 23.48223,-4.05806 6.02136,-2.10268 5.76777,-8.07107 5.76777,-13.82322" inkscape:connector-curvature="0" sodipodi:nodetypes="csssssssssssscccssssssssssssc"/>
    <path transform="matrix(1.4173625,0,0,1.4173625,-41.303644,-148.96064)" d="m 326.31705,466.63116 a 3.1376641,3.1376641 0 1 1 -6.27533,0 3.1376641,3.1376641 0 1 1 6.27533,0 z" sodipodi:ry="3.1376641" sodipodi:rx="3.1376641" sodipodi:cy="466.63116" sodipodi:cx="323.17938" id="path4912" style="fill:#efefef;fill-opacity:1;stroke:#000000;stroke-width:1.41107166;stroke-miterlimit:4;stroke-opacity:1;stroke-dasharray:none" sodipodi:type="arc"/>
    <path sodipodi:type="arc" style="fill:#000000;fill-opacity:1;stroke:#000000;stroke-width:1.41107166;stroke-miterlimit:4;stroke-opacity:1;stroke-dasharray:none" id="path4914" sodipodi:cx="323.17938" sodipodi:cy="466.63116" sodipodi:rx="3.1376641" sodipodi:ry="3.1376641" d="m 326.31705,466.63116 a 3.1376641,3.1376641 0 1 1 -6.27533,0 3.1376641,3.1376641 0 1 1 6.27533,0 z" transform="matrix(1.4173625,0,0,1.4173625,-38.823877,-164.85138)"/>
    <path inkscape:connector-curvature="0" id="path3863" d="m 247.32035,494.81413 16.13395,4.57663 -13.34168,10.16118" style="fill:none;stroke:#1f7a30;stroke-width:4;stroke-linecap:round;stroke-linejoin:round;stroke-miterlimit:4;stroke-opacity:1;stroke-dasharray:none;display:inline"/>
    <path style="fill:none;stroke:#1f7a30;stroke-width:4;stroke-linecap:round;stroke-linejoin:round;stroke-miterlimit:4;stroke-opacity:1;stroke-dasharray:none;display:inline" d="m 267.56276,554.83788 -16.36539,-3.66386 12.75033,-10.894" id="path3866" inkscape:connector-curvature="0"/>
    <text xml:space="preserve" style="font-size:30px;font-style:normal;font-variant:normal;font-weight:normal;font-stretch:normal;text-align:end;line-height:125%;letter-spacing:0px;word-spacing:0px;writing-mode:lr-tb;text-anchor:end;fill:#000000;fill-opacity:1;stroke:none;display:inline;font-family:Sans;-inkscape-font-specification:Sans" x="661.9502" y="286.95007" id="text4823-7" sodipodi:linespacing="125%"><tspan sodipodi:role="line" id="tspan4825-4" x="661.9502" y="286.95007">Cherry ML (tactile)</tspan></text>
  </g>
  <g inkscape:groupmode="layer" id="layer2" inkscape:label="BS" style="display:none" transform="translate(0,-55.500006)">
    <path id="path3838" style="fill:none;stroke:#008b8b;stroke-width:4;stroke-linecap:round;stroke-linejoin:round;stroke-miterlimit:4;stroke-opacity:1;stroke-dasharray:none" d="m 66,354.37827 c 0,0 11.044494,-7.30196 34.40916,-19.43656 26.93808,-13.99048 66.29126,-28.99138 66.29126,-28.99138 0,0 14.6547,13.50826 49.12616,11.56371 34.47145,-1.94454 115.82427,-15.79379 167.61985,-26.57717 51.79557,-10.78337 79.88529,-18.92766 113.29609,-34.30724 33.4108,-15.37957 45.78516,-29.34493 53.20978,-40.30508 7.42462,-10.96016 12.31286,-22.27386 12.0477,-43.92901 -3.8007,10.34143 -15.10781,26.90149 -33.08413,44.28256 -26.69328,25.8094 -76.54431,41.54253 -99.17173,47.19938 -22.62741,5.65686 -72.48732,13.96536 -74.9622,14.67247 -2.47487,0.7071 -2.82842,-1.76777 -2.82842,-4.24264 0,-2.47487 0.17678,-37.99596 0.17678,-43.66385 0,-6.29484 -7.30668,-6.72119 -16.60813,-4.77297 -44.50891,9.32254 -83.04788,24.82685 -126.57212,43.48707 C 155.57296,292.24201 66,347.125 66,347.125" inkscape:connector-curvature="0" sodipodi:nodetypes="cscsssscsssssssc"/>
    <path sodipodi:type="arc" style="fill:#000000;fill-opacity:1;stroke:#000000;stroke-width:1.41107166;stroke-miterlimit:4;stroke-opacity:1;stroke-dasharray:none;display:inline" id="path3844" sodipodi:cx="323.17938" sodipodi:cy="466.63116" sodipodi:rx="3.1376641" sodipodi:ry="3.1376641" d="m 326.31705,466.63116 a 3.1376641,3.1376641 0 1 1 -6.27533,0 3.1376641,3.1376641 0 1 1 6.27533,0 z" transform="matrix(1.4173625,0,0,1.4173625,-105.68734,-383.70772)"/>
    <path transform="matrix(1.4173625,0,0,1.4173625,-291.47654,-354.68627)" d="m 326.31705,466.63116 a 3.1376641,3.1376641 0 1 1 -6.27533,0 3.1376641,3.1376641 0 1 1 6.27533,0 z" sodipodi:ry="3.1376641" sodipodi:rx="3.1376641" sodipodi:cy="466.63116" sodipodi:cx="323.17938" id="path3847" style="fill:#efefef;fill-opacity:1;stroke:#000000;stroke-width:1.41107166;stroke-miterlimit:4;stroke-opacity:1;stroke-dasharray:none;display:inline" sodipodi:type="arc"/>
    <path style="fill:none;stroke:#008b8b;stroke-width:4;stroke-linecap:round;stroke-linejoin:round;stroke-miterlimit:4;stroke-opacity:1;stroke-dasharray:none;display:inline" d="m 249.53225,244.23766 16.62531,2.20202 -11.7368,11.97904" id="path3857" inkscape:connector-curvature="0"/>
    <path inkscape:connector-curvature="0" id="path3859" d="m 297.68573,314.47798 -15.97597,-5.10079 13.66622,-9.7203" style="fill:none;stroke:#008b8b;stroke-width:4;stroke-linecap:round;stroke-linejoin:round;stroke-miterlimit:4;stroke-opacity:1;stroke-dasharray:none;display:inline"/>
    <text transform="translate(-112.5,-197.36217)" sodipodi:linespacing="125%" id="text3913" y="286.95007" x="661.9502" style="font-size:30px;font-style:normal;font-variant:normal;font-weight:normal;font-stretch:normal;text-align:end;line-height:125%;letter-spacing:0px;word-spacing:0px;writing-mode:lr-tb;text-anchor:end;fill:#000000;fill-opacity:1;stroke:none;display:inline;font-family:Sans;-inkscape-font-specification:Sans" xml:space="preserve"><tspan y="286.95007" x="661.19019" id="tspan3915" sodipodi:role="line" style="letter-spacing:-0.75999999px">Membrane buckling spring (clicky)</tspan></text>
  </g>
  <g inkscape:groupmode="layer" id="layer6" inkscape:label="MX" style="display:inline" transform="translate(0,-55.500006)">
    <path id="path3845" style="fill:none;stroke:#ff0000;stroke-width:4;stroke-linecap:round;stroke-linejoin:round;stroke-miterlimit:4;stroke-opacity:1;stroke-dasharray:none;display:inline" d="m 66.140165,326.51256 c 11.165692,-11.52952 24.4566,-13.90376 31.675699,-15.82322 L 513.88985,200.06109 c 5.79848,-1.54173 26.54296,-5.48008 33.11015,-22.77103 -0.0308,0.41438 0.3371,10.31349 -0.75634,15.33278 -1.34566,6.17705 -8.69007,11.00874 -13.49366,11.87716 -5.22003,0.94371 -205.59465,57.4976 -212,59.5 -6.42483,2.00849 -15.08043,5.07178 -19.07583,10.78293 -2.63538,3.76711 -2.28725,5.97388 -3.71694,8.6643 -0.8687,1.63474 -2.68798,3.18152 -6.20723,4.55277 -6.22984,2.42741 -106.77996,32.83653 -119,36.64645 -12.23048,3.81318 -62.28886,19.59581 -73.53033,22.13388 -13.813262,3.11872 -19.068978,7.95928 -22.454505,11.39645 -6.364217,6.46129 -10.90533,18.57322 -10.90533,18.57322" inkscape:connector-curvature="0" sodipodi:nodetypes="csscsssssssssc"/>
    <path sodipodi:type="arc" style="fill:#ffffff;fill-opacity:1;stroke:#000000;stroke-width:1.41107166;stroke-miterlimit:4;stroke-opacity:1;stroke-dasharray:none;display:inline" id="path3870" sodipodi:cx="323.17938" sodipodi:cy="466.63116" sodipodi:rx="3.1376641" sodipodi:ry="3.1376641" d="m 326.31705,466.63116 a 3.1376641,3.1376641 0 1 1 -6.27533,0 3.1376641,3.1376641 0 1 1 6.27533,0 z" transform="matrix(1.4173625,0,0,1.4173625,-160.80364,-375.82282)"/>
    <path transform="matrix(1.4173625,0,0,1.4173625,-150.82388,-406.21356)" d="m 326.31705,466.63116 a 3.1376641,3.1376641 0 1 1 -6.27533,0 3.1376641,3.1376641 0 1 1 6.27533,0 z" sodipodi:ry="3.1376641" sodipodi:rx="3.1376641" sodipodi:cy="466.63116" sodipodi:cx="323.17938" id="path3872" style="fill:#000000;fill-opacity:1;stroke:#000000;stroke-width:1.41107166;stroke-miterlimit:4;stroke-opacity:1;stroke-dasharray:none;display:inline" sodipodi:type="arc"/>
    <path style="fill:none;stroke:#ff0000;stroke-width:4;stroke-linecap:round;stroke-linejoin:round;stroke-miterlimit:4;stroke-opacity:1;stroke-dasharray:none;display:inline" d="m 157.65747,286.98542 16.40107,3.50067 -12.64119,11.02045" id="path3874" inkscape:connector-curvature="0"/>
    <path inkscape:connector-curvature="0" id="path3876" d="m 167.63177,333.99168 -16.60519,-2.34901 11.84233,-11.87474" style="fill:none;stroke:#ff0000;stroke-width:4;stroke-linecap:round;stroke-linejoin:round;stroke-miterlimit:4;stroke-opacity:1;stroke-dasharray:none;display:inline"/>
    <text xml:space="preserve" style="font-size:30px;font-style:normal;font-variant:normal;font-weight:normal;font-stretch:normal;text-align:end;line-height:125%;letter-spacing:0px;word-spacing:0px;writing-mode:lr-tb;text-anchor:end;fill:#000000;fill-opacity:1;stroke:none;display:inline;font-family:Sans;-inkscape-font-specification:Sans" x="661.9502" y="286.95007" id="text3919" sodipodi:linespacing="125%" transform="translate(-112.5,-197.36217)"><tspan sodipodi:role="line" id="tspan3921" x="661.19019" y="286.95007" style="letter-spacing:-0.75999999px">Cherry MX1A-11* “black” (linear)</tspan></text>
  </g>
</svg>